<?xml version="1.0" encoding="UTF-8" standalone="no"?>
<!DOCTYPE svg PUBLIC "-//W3C//DTD SVG 1.1//EN"
 "http://www.w3.org/Graphics/SVG/1.1/DTD/svg11.dtd">
<!-- Generated by graphviz version 2.38.0 (20140413.2041)
 -->
<!-- Title: dyadic_tree Pages: 1 -->
<svg width="3128pt" height="348pt"
 viewBox="0.00 0.00 3127.50 348.00" xmlns="http://www.w3.org/2000/svg" xmlns:xlink="http://www.w3.org/1999/xlink">
<g id="graph0" class="graph" transform="scale(1 1) rotate(0) translate(1698.5 103)">
<title>dyadic_tree</title>
<polygon fill="white" stroke="none" points="-1698.5,245 -1698.5,-103 1429,-103 1429,245 -1698.5,245"/>
<!-- node_0 -->
<g id="node1" class="node"><title>node_0</title>
<polygon fill="none" stroke="black" points="-251,216 -251,191 -199,191 -199,216 -251,216"/>
<text text-anchor="start" x="-228.5" y="207.2" font-family="Times,serif" font-size="14.00">0</text>
<polygon fill="none" stroke="black" points="-251,241 -251,216 -225,216 -225,241 -251,241"/>
<text text-anchor="start" x="-246" y="232.2" font-family="Times,serif" font-size="14.00"> ϕ </text>
<polygon fill="none" stroke="black" points="-225,241 -225,216 -199,216 -199,241 -225,241"/>
<text text-anchor="start" x="-220" y="232.2" font-family="Times,serif" font-size="14.00"> ϕ </text>
</g>
<!-- node_day_0 -->
<g id="node2" class="node"><title>node_day_0</title>
<text text-anchor="middle" x="1395" y="220.4" font-family="Times,serif" font-size="18.00">Day 0</text>
</g>
<!-- node_day_1 -->
<g id="node3" class="node"><title>node_day_1</title>
<text text-anchor="middle" x="1395" y="148.4" font-family="Times,serif" font-size="18.00">Day 1</text>
</g>
<!-- node_1 -->
<g id="node4" class="node"><title>node_1</title>
<polygon fill="none" stroke="black" points="-612,142 -612,117 -557,117 -557,142 -612,142"/>
<text text-anchor="start" x="-590.5" y="133.2" font-family="Times,serif" font-size="14.00">&#45;1</text>
<polygon fill="none" stroke="black" points="-612,171 -612,142 -586,142 -586,171 -612,171"/>
<text text-anchor="start" x="-607" y="160.2" font-family="Times,serif" font-size="14.00"> ϕ </text>
<polygon fill="none" stroke="black" points="-586,171 -586,142 -557,142 -557,171 -586,171"/>
<text text-anchor="start" x="-579" y="160.2" font-family="Times,serif" font-size="14.00"> 0 </text>
</g>
<!-- node_1&#45;&gt;node_0 -->
<g id="edge1" class="edge"><title>node_1:R&#45;&gt;node_0</title>
<path fill="none" stroke="black" d="M-557,157C-557,157 -348.736,194.011 -262.108,209.405"/>
<polygon fill="black" stroke="black" points="-261.402,205.976 -252.169,211.172 -262.627,212.868 -261.402,205.976"/>
</g>
<!-- node_2 -->
<g id="node5" class="node"><title>node_2</title>
<polygon fill="none" stroke="black" points="108,142 108,117 163,117 163,142 108,142"/>
<text text-anchor="start" x="132" y="133.2" font-family="Times,serif" font-size="14.00">1</text>
<polygon fill="none" stroke="black" points="108,171 108,142 137,142 137,171 108,171"/>
<text text-anchor="start" x="115" y="160.2" font-family="Times,serif" font-size="14.00"> 0 </text>
<polygon fill="none" stroke="black" points="137,171 137,142 163,142 163,171 137,171"/>
<text text-anchor="start" x="142" y="160.2" font-family="Times,serif" font-size="14.00"> ϕ </text>
</g>
<!-- node_2&#45;&gt;node_0 -->
<g id="edge2" class="edge"><title>node_2:L&#45;&gt;node_0</title>
<path fill="none" stroke="black" d="M108,157C108,157 -100.891,194.011 -187.78,209.405"/>
<polygon fill="black" stroke="black" points="-187.292,212.873 -197.749,211.172 -188.513,205.981 -187.292,212.873"/>
</g>
<!-- node_day_2 -->
<g id="node6" class="node"><title>node_day_2</title>
<text text-anchor="middle" x="1395" y="76.4" font-family="Times,serif" font-size="18.00">Day 2</text>
</g>
<!-- node_3 -->
<g id="node7" class="node"><title>node_3</title>
<polygon fill="none" stroke="black" points="-974,70 -974,45 -915,45 -915,70 -974,70"/>
<text text-anchor="start" x="-950.5" y="61.2" font-family="Times,serif" font-size="14.00">&#45;2</text>
<polygon fill="none" stroke="black" points="-974,99 -974,70 -948,70 -948,99 -974,99"/>
<text text-anchor="start" x="-969" y="88.2" font-family="Times,serif" font-size="14.00"> ϕ </text>
<polygon fill="none" stroke="black" points="-948,99 -948,70 -915,70 -915,99 -948,99"/>
<text text-anchor="start" x="-941" y="88.2" font-family="Times,serif" font-size="14.00"> &#45;1 </text>
</g>
<!-- node_3&#45;&gt;node_1 -->
<g id="edge3" class="edge"><title>node_3:R&#45;&gt;node_1</title>
<path fill="none" stroke="black" d="M-915,85C-915,85 -708.971,121.835 -622.499,137.296"/>
<polygon fill="black" stroke="black" points="-621.796,133.866 -612.568,139.071 -623.028,140.756 -621.796,133.866"/>
</g>
<!-- node_4 -->
<g id="node8" class="node"><title>node_4</title>
<polygon fill="none" stroke="black" points="468,70 468,45 523,45 523,70 468,70"/>
<text text-anchor="start" x="492" y="61.2" font-family="Times,serif" font-size="14.00">2</text>
<polygon fill="none" stroke="black" points="468,99 468,70 497,70 497,99 468,99"/>
<text text-anchor="start" x="475" y="88.2" font-family="Times,serif" font-size="14.00"> 1 </text>
<polygon fill="none" stroke="black" points="497,99 497,70 523,70 523,99 497,99"/>
<text text-anchor="start" x="502" y="88.2" font-family="Times,serif" font-size="14.00"> ϕ </text>
</g>
<!-- node_4&#45;&gt;node_2 -->
<g id="edge4" class="edge"><title>node_4:L&#45;&gt;node_2</title>
<path fill="none" stroke="black" d="M468,85C468,85 259.604,121.923 172.529,137.351"/>
<polygon fill="black" stroke="black" points="172.991,140.823 162.534,139.122 171.77,133.931 172.991,140.823"/>
</g>
<!-- node_5 -->
<g id="node9" class="node"><title>node_5</title>
<polygon fill="none" stroke="black" points="-74,70 -74,45 -16,45 -16,70 -74,70"/>
<text text-anchor="start" x="-54" y="61.2" font-family="Times,serif" font-size="14.00">1/2</text>
<polygon fill="none" stroke="black" points="-74,99 -74,70 -45,70 -45,99 -74,99"/>
<text text-anchor="start" x="-67" y="88.2" font-family="Times,serif" font-size="14.00"> 0 </text>
<polygon fill="none" stroke="black" points="-45,99 -45,70 -16,70 -16,99 -45,99"/>
<text text-anchor="start" x="-38" y="88.2" font-family="Times,serif" font-size="14.00"> 1 </text>
</g>
<!-- node_5&#45;&gt;node_0 -->
<g id="edge5" class="edge"><title>node_5:L&#45;&gt;node_0</title>
<path fill="none" stroke="black" d="M-74,85C-74,85 -145.32,146.873 -189.93,185.575"/>
<polygon fill="black" stroke="black" points="-187.808,188.368 -197.655,192.277 -192.395,183.08 -187.808,188.368"/>
</g>
<!-- node_5&#45;&gt;node_2 -->
<g id="edge6" class="edge"><title>node_5:R&#45;&gt;node_2</title>
<path fill="none" stroke="black" d="M-16,85C-16,85 53.1862,112.033 97.8951,129.502"/>
<polygon fill="black" stroke="black" points="99.2638,126.279 107.304,133.178 96.7162,132.799 99.2638,126.279"/>
</g>
<!-- node_6 -->
<g id="node10" class="node"><title>node_6</title>
<polygon fill="none" stroke="black" points="-436,70 -436,45 -374,45 -374,70 -436,70"/>
<text text-anchor="start" x="-416" y="61.2" font-family="Times,serif" font-size="14.00">&#45;1/2</text>
<polygon fill="none" stroke="black" points="-436,99 -436,70 -403,70 -403,99 -436,99"/>
<text text-anchor="start" x="-429" y="88.2" font-family="Times,serif" font-size="14.00"> &#45;1 </text>
<polygon fill="none" stroke="black" points="-403,99 -403,70 -374,70 -374,99 -403,99"/>
<text text-anchor="start" x="-396" y="88.2" font-family="Times,serif" font-size="14.00"> 0 </text>
</g>
<!-- node_6&#45;&gt;node_0 -->
<g id="edge8" class="edge"><title>node_6:R&#45;&gt;node_0</title>
<path fill="none" stroke="black" d="M-374,85C-374,85 -304.002,146.542 -259.96,185.263"/>
<polygon fill="black" stroke="black" points="-257.528,182.741 -252.329,191.973 -262.15,187.998 -257.528,182.741"/>
</g>
<!-- node_6&#45;&gt;node_1 -->
<g id="edge7" class="edge"><title>node_6:L&#45;&gt;node_1</title>
<path fill="none" stroke="black" d="M-436,85C-436,85 -503.619,111.775 -547.752,129.251"/>
<polygon fill="black" stroke="black" points="-546.737,132.613 -557.323,133.041 -549.314,126.105 -546.737,132.613"/>
</g>
<!-- node_day_3 -->
<g id="node11" class="node"><title>node_day_3</title>
<text text-anchor="middle" x="1395" y="4.4" font-family="Times,serif" font-size="18.00">Day 3</text>
</g>
<!-- node_7 -->
<g id="node12" class="node"><title>node_7</title>
<polygon fill="none" stroke="black" points="-1334,-2 -1334,-27 -1275,-27 -1275,-2 -1334,-2"/>
<text text-anchor="start" x="-1310.5" y="-10.8" font-family="Times,serif" font-size="14.00">&#45;3</text>
<polygon fill="none" stroke="black" points="-1334,27 -1334,-2 -1308,-2 -1308,27 -1334,27"/>
<text text-anchor="start" x="-1329" y="16.2" font-family="Times,serif" font-size="14.00"> ϕ </text>
<polygon fill="none" stroke="black" points="-1308,27 -1308,-2 -1275,-2 -1275,27 -1308,27"/>
<text text-anchor="start" x="-1301" y="16.2" font-family="Times,serif" font-size="14.00"> &#45;2 </text>
</g>
<!-- node_7&#45;&gt;node_3 -->
<g id="edge9" class="edge"><title>node_7:R&#45;&gt;node_3</title>
<path fill="none" stroke="black" d="M-1275,13C-1275,13 -1072.38,49.2256 -984.68,64.9057"/>
<polygon fill="black" stroke="black" points="-983.804,61.5068 -974.576,66.7122 -985.036,68.3975 -983.804,61.5068"/>
</g>
<!-- node_8 -->
<g id="node13" class="node"><title>node_8</title>
<polygon fill="none" stroke="black" points="828,-2 828,-27 883,-27 883,-2 828,-2"/>
<text text-anchor="start" x="852" y="-10.8" font-family="Times,serif" font-size="14.00">3</text>
<polygon fill="none" stroke="black" points="828,27 828,-2 857,-2 857,27 828,27"/>
<text text-anchor="start" x="835" y="16.2" font-family="Times,serif" font-size="14.00"> 2 </text>
<polygon fill="none" stroke="black" points="857,27 857,-2 883,-2 883,27 857,27"/>
<text text-anchor="start" x="862" y="16.2" font-family="Times,serif" font-size="14.00"> ϕ </text>
</g>
<!-- node_8&#45;&gt;node_4 -->
<g id="edge10" class="edge"><title>node_8:L&#45;&gt;node_4</title>
<path fill="none" stroke="black" d="M828,13C828,13 619.604,49.923 532.529,65.3507"/>
<polygon fill="black" stroke="black" points="532.991,68.8232 522.534,67.1216 531.77,61.9306 532.991,68.8232"/>
</g>
<!-- node_9 -->
<g id="node14" class="node"><title>node_9</title>
<polygon fill="none" stroke="black" points="-169,-2 -169,-27 -101,-27 -101,-2 -169,-2"/>
<text text-anchor="start" x="-144" y="-10.8" font-family="Times,serif" font-size="14.00">1/4</text>
<polygon fill="none" stroke="black" points="-169,27 -169,-2 -140,-2 -140,27 -169,27"/>
<text text-anchor="start" x="-162" y="16.2" font-family="Times,serif" font-size="14.00"> 0 </text>
<polygon fill="none" stroke="black" points="-140,27 -140,-2 -101,-2 -101,27 -140,27"/>
<text text-anchor="start" x="-133" y="16.2" font-family="Times,serif" font-size="14.00"> 1/2 </text>
</g>
<!-- node_9&#45;&gt;node_0 -->
<g id="edge11" class="edge"><title>node_9:L&#45;&gt;node_0</title>
<path fill="none" stroke="black" d="M-155,27C-155,27 -191.924,126.694 -212.137,181.271"/>
<polygon fill="black" stroke="black" points="-208.949,182.74 -215.705,190.902 -215.513,180.309 -208.949,182.74"/>
</g>
<!-- node_9&#45;&gt;node_5 -->
<g id="edge12" class="edge"><title>node_9:R&#45;&gt;node_5</title>
<path fill="none" stroke="black" d="M-101,13C-101,13 -89.9133,24.6807 -77.6058,37.6474"/>
<polygon fill="black" stroke="black" points="-75.0511,35.2549 -70.7054,44.9175 -80.1283,40.0739 -75.0511,35.2549"/>
</g>
<!-- node_10 -->
<g id="node15" class="node"><title>node_10</title>
<polygon fill="none" stroke="black" points="-351,-2 -351,-27 -278,-27 -278,-2 -351,-2"/>
<text text-anchor="start" x="-325.5" y="-10.8" font-family="Times,serif" font-size="14.00">&#45;1/4</text>
<polygon fill="none" stroke="black" points="-351,27 -351,-2 -307,-2 -307,27 -351,27"/>
<text text-anchor="start" x="-344" y="16.2" font-family="Times,serif" font-size="14.00"> &#45;1/2 </text>
<polygon fill="none" stroke="black" points="-307,27 -307,-2 -278,-2 -278,27 -307,27"/>
<text text-anchor="start" x="-300" y="16.2" font-family="Times,serif" font-size="14.00"> 0 </text>
</g>
<!-- node_10&#45;&gt;node_0 -->
<g id="edge14" class="edge"><title>node_10:R&#45;&gt;node_0</title>
<path fill="none" stroke="black" d="M-292,27C-292,27 -256.659,126.694 -237.311,181.271"/>
<polygon fill="black" stroke="black" points="-233.94,180.308 -233.897,190.902 -240.537,182.646 -233.94,180.308"/>
</g>
<!-- node_10&#45;&gt;node_6 -->
<g id="edge13" class="edge"><title>node_10:L&#45;&gt;node_6</title>
<path fill="none" stroke="black" d="M-351,13C-351,13 -361.494,24.4653 -373.229,37.2876"/>
<polygon fill="black" stroke="black" points="-370.879,39.9038 -380.213,44.9175 -376.043,35.1777 -370.879,39.9038"/>
</g>
<!-- node_11 -->
<g id="node16" class="node"><title>node_11</title>
<polygon fill="none" stroke="black" points="11,-2 11,-27 79,-27 79,-2 11,-2"/>
<text text-anchor="start" x="36" y="-10.8" font-family="Times,serif" font-size="14.00">3/4</text>
<polygon fill="none" stroke="black" points="11,27 11,-2 50,-2 50,27 11,27"/>
<text text-anchor="start" x="18" y="16.2" font-family="Times,serif" font-size="14.00"> 1/2 </text>
<polygon fill="none" stroke="black" points="50,27 50,-2 79,-2 79,27 50,27"/>
<text text-anchor="start" x="57" y="16.2" font-family="Times,serif" font-size="14.00"> 1 </text>
</g>
<!-- node_11&#45;&gt;node_2 -->
<g id="edge16" class="edge"><title>node_11:R&#45;&gt;node_2</title>
<path fill="none" stroke="black" d="M65,27C65,27 92.8804,73.6001 113.45,107.981"/>
<polygon fill="black" stroke="black" points="116.634,106.485 118.765,116.864 110.627,110.079 116.634,106.485"/>
</g>
<!-- node_11&#45;&gt;node_5 -->
<g id="edge15" class="edge"><title>node_11:L&#45;&gt;node_5</title>
<path fill="none" stroke="black" d="M11,13C11,13 -0.0867232,24.6807 -12.3942,37.6474"/>
<polygon fill="black" stroke="black" points="-9.87171,40.0739 -19.2946,44.9175 -14.9489,35.2549 -9.87171,40.0739"/>
</g>
<!-- node_12 -->
<g id="node17" class="node"><title>node_12</title>
<polygon fill="none" stroke="black" points="-533,-2 -533,-27 -456,-27 -456,-2 -533,-2"/>
<text text-anchor="start" x="-505.5" y="-10.8" font-family="Times,serif" font-size="14.00">&#45;3/4</text>
<polygon fill="none" stroke="black" points="-533,27 -533,-2 -500,-2 -500,27 -533,27"/>
<text text-anchor="start" x="-526" y="16.2" font-family="Times,serif" font-size="14.00"> &#45;1 </text>
<polygon fill="none" stroke="black" points="-500,27 -500,-2 -456,-2 -456,27 -500,27"/>
<text text-anchor="start" x="-493" y="16.2" font-family="Times,serif" font-size="14.00"> &#45;1/2 </text>
</g>
<!-- node_12&#45;&gt;node_1 -->
<g id="edge17" class="edge"><title>node_12:L&#45;&gt;node_1</title>
<path fill="none" stroke="black" d="M-517,27C-517,27 -544.084,73.6001 -564.066,107.981"/>
<polygon fill="black" stroke="black" points="-561.178,109.977 -569.229,116.864 -567.23,106.459 -561.178,109.977"/>
</g>
<!-- node_12&#45;&gt;node_6 -->
<g id="edge18" class="edge"><title>node_12:R&#45;&gt;node_6</title>
<path fill="none" stroke="black" d="M-456,13C-456,13 -446.089,24.4653 -435.006,37.2876"/>
<polygon fill="black" stroke="black" points="-432.302,35.0633 -428.41,44.9175 -437.598,39.641 -432.302,35.0633"/>
</g>
<!-- node_13 -->
<g id="node18" class="node"><title>node_13</title>
<polygon fill="none" stroke="black" points="286,-2 286,-27 344,-27 344,-2 286,-2"/>
<text text-anchor="start" x="306" y="-10.8" font-family="Times,serif" font-size="14.00">3/2</text>
<polygon fill="none" stroke="black" points="286,27 286,-2 315,-2 315,27 286,27"/>
<text text-anchor="start" x="293" y="16.2" font-family="Times,serif" font-size="14.00"> 1 </text>
<polygon fill="none" stroke="black" points="315,27 315,-2 344,-2 344,27 315,27"/>
<text text-anchor="start" x="322" y="16.2" font-family="Times,serif" font-size="14.00"> 2 </text>
</g>
<!-- node_13&#45;&gt;node_2 -->
<g id="edge19" class="edge"><title>node_13:L&#45;&gt;node_2</title>
<path fill="none" stroke="black" d="M286,13C286,13 215.062,74.542 170.43,113.263"/>
<polygon fill="black" stroke="black" points="172.543,116.063 162.696,119.973 167.956,110.776 172.543,116.063"/>
</g>
<!-- node_13&#45;&gt;node_4 -->
<g id="edge20" class="edge"><title>node_13:R&#45;&gt;node_4</title>
<path fill="none" stroke="black" d="M344,13C344,13 413.186,40.033 457.895,57.502"/>
<polygon fill="black" stroke="black" points="459.264,54.2791 467.304,61.1785 456.716,60.7991 459.264,54.2791"/>
</g>
<!-- node_14 -->
<g id="node19" class="node"><title>node_14</title>
<polygon fill="none" stroke="black" points="-798,-2 -798,-27 -732,-27 -732,-2 -798,-2"/>
<text text-anchor="start" x="-776" y="-10.8" font-family="Times,serif" font-size="14.00">&#45;3/2</text>
<polygon fill="none" stroke="black" points="-798,27 -798,-2 -765,-2 -765,27 -798,27"/>
<text text-anchor="start" x="-791" y="16.2" font-family="Times,serif" font-size="14.00"> &#45;2 </text>
<polygon fill="none" stroke="black" points="-765,27 -765,-2 -732,-2 -732,27 -765,27"/>
<text text-anchor="start" x="-758" y="16.2" font-family="Times,serif" font-size="14.00"> &#45;1 </text>
</g>
<!-- node_14&#45;&gt;node_1 -->
<g id="edge22" class="edge"><title>node_14:R&#45;&gt;node_1</title>
<path fill="none" stroke="black" d="M-732,13C-732,13 -663.682,73.882 -620.194,112.637"/>
<polygon fill="black" stroke="black" points="-617.787,110.094 -612.65,119.36 -622.444,115.32 -617.787,110.094"/>
</g>
<!-- node_14&#45;&gt;node_3 -->
<g id="edge21" class="edge"><title>node_14:L&#45;&gt;node_3</title>
<path fill="none" stroke="black" d="M-798,13C-798,13 -862.218,38.7744 -905.764,56.2521"/>
<polygon fill="black" stroke="black" points="-904.668,59.5838 -915.252,60.0605 -907.276,53.0875 -904.668,59.5838"/>
</g>
<!-- node_day_4 -->
<g id="node20" class="node"><title>node_day_4</title>
<text text-anchor="middle" x="1395" y="-67.6" font-family="Times,serif" font-size="18.00">Day 4</text>
</g>
<!-- node_15 -->
<g id="node21" class="node"><title>node_15</title>
<polygon fill="none" stroke="black" points="-1694,-74 -1694,-99 -1635,-99 -1635,-74 -1694,-74"/>
<text text-anchor="start" x="-1670.5" y="-82.8" font-family="Times,serif" font-size="14.00">&#45;4</text>
<polygon fill="none" stroke="black" points="-1694,-45 -1694,-74 -1668,-74 -1668,-45 -1694,-45"/>
<text text-anchor="start" x="-1689" y="-55.8" font-family="Times,serif" font-size="14.00"> ϕ </text>
<polygon fill="none" stroke="black" points="-1668,-45 -1668,-74 -1635,-74 -1635,-45 -1668,-45"/>
<text text-anchor="start" x="-1661" y="-55.8" font-family="Times,serif" font-size="14.00"> &#45;3 </text>
</g>
<!-- node_15&#45;&gt;node_7 -->
<g id="edge23" class="edge"><title>node_15:R&#45;&gt;node_7</title>
<path fill="none" stroke="black" d="M-1635,-59C-1635,-59 -1432.38,-22.7744 -1344.68,-7.09432"/>
<polygon fill="black" stroke="black" points="-1343.8,-10.4932 -1334.58,-5.28778 -1345.04,-3.60246 -1343.8,-10.4932"/>
</g>
<!-- node_16 -->
<g id="node22" class="node"><title>node_16</title>
<polygon fill="none" stroke="black" points="1188,-74 1188,-99 1243,-99 1243,-74 1188,-74"/>
<text text-anchor="start" x="1212" y="-82.8" font-family="Times,serif" font-size="14.00">4</text>
<polygon fill="none" stroke="black" points="1188,-45 1188,-74 1217,-74 1217,-45 1188,-45"/>
<text text-anchor="start" x="1195" y="-55.8" font-family="Times,serif" font-size="14.00"> 3 </text>
<polygon fill="none" stroke="black" points="1217,-45 1217,-74 1243,-74 1243,-45 1217,-45"/>
<text text-anchor="start" x="1222" y="-55.8" font-family="Times,serif" font-size="14.00"> ϕ </text>
</g>
<!-- node_16&#45;&gt;node_8 -->
<g id="edge24" class="edge"><title>node_16:L&#45;&gt;node_8</title>
<path fill="none" stroke="black" d="M1188,-59C1188,-59 979.604,-22.077 892.529,-6.64934"/>
<polygon fill="black" stroke="black" points="892.991,-3.17677 882.534,-4.87841 891.77,-10.0694 892.991,-3.17677"/>
</g>
<!-- node_17 -->
<g id="node23" class="node"><title>node_17</title>
<polygon fill="none" stroke="black" points="-214,-74 -214,-99 -146,-99 -146,-74 -214,-74"/>
<text text-anchor="start" x="-189" y="-82.8" font-family="Times,serif" font-size="14.00">1/8</text>
<polygon fill="none" stroke="black" points="-214,-45 -214,-74 -185,-74 -185,-45 -214,-45"/>
<text text-anchor="start" x="-207" y="-55.8" font-family="Times,serif" font-size="14.00"> 0 </text>
<polygon fill="none" stroke="black" points="-185,-45 -185,-74 -146,-74 -146,-45 -185,-45"/>
<text text-anchor="start" x="-178" y="-55.8" font-family="Times,serif" font-size="14.00"> 1/4 </text>
</g>
<!-- node_17&#45;&gt;node_0 -->
<g id="edge25" class="edge"><title>node_17:L&#45;&gt;node_0</title>
<path fill="none" stroke="black" d="M-200,-45C-200,-45 -214.788,109.39 -221.617,180.684"/>
<polygon fill="black" stroke="black" points="-218.165,181.354 -222.603,190.974 -225.133,180.686 -218.165,181.354"/>
</g>
<!-- node_17&#45;&gt;node_9 -->
<g id="edge26" class="edge"><title>node_17:R&#45;&gt;node_9</title>
<path fill="none" stroke="black" d="M-165,-45C-165,-45 -162.382,-41.073 -158.693,-35.5391"/>
<polygon fill="black" stroke="black" points="-155.778,-37.4768 -153.143,-27.2148 -161.602,-33.5939 -155.778,-37.4768"/>
</g>
<!-- node_18 -->
<g id="node24" class="node"><title>node_18</title>
<polygon fill="none" stroke="black" points="-306,-74 -306,-99 -233,-99 -233,-74 -306,-74"/>
<text text-anchor="start" x="-280.5" y="-82.8" font-family="Times,serif" font-size="14.00">&#45;1/8</text>
<polygon fill="none" stroke="black" points="-306,-45 -306,-74 -262,-74 -262,-45 -306,-45"/>
<text text-anchor="start" x="-299" y="-55.8" font-family="Times,serif" font-size="14.00"> &#45;1/4 </text>
<polygon fill="none" stroke="black" points="-262,-45 -262,-74 -233,-74 -233,-45 -262,-45"/>
<text text-anchor="start" x="-255" y="-55.8" font-family="Times,serif" font-size="14.00"> 0 </text>
</g>
<!-- node_18&#45;&gt;node_0 -->
<g id="edge28" class="edge"><title>node_18:R&#45;&gt;node_0</title>
<path fill="none" stroke="black" d="M-247,-45C-247,-45 -233.986,109.39 -227.977,180.684"/>
<polygon fill="black" stroke="black" points="-224.462,180.716 -227.109,190.974 -231.437,181.304 -224.462,180.716"/>
</g>
<!-- node_18&#45;&gt;node_10 -->
<g id="edge27" class="edge"><title>node_18:L&#45;&gt;node_10</title>
<path fill="none" stroke="black" d="M-284,-45C-284,-45 -286.705,-41.073 -290.518,-35.5391"/>
<polygon fill="black" stroke="black" points="-287.697,-33.4643 -296.252,-27.2148 -293.461,-37.4355 -287.697,-33.4643"/>
</g>
<!-- node_19 -->
<g id="node25" class="node"><title>node_19</title>
<polygon fill="none" stroke="black" points="-129,-74 -129,-99 -51,-99 -51,-74 -129,-74"/>
<text text-anchor="start" x="-99" y="-82.8" font-family="Times,serif" font-size="14.00">3/8</text>
<polygon fill="none" stroke="black" points="-129,-45 -129,-74 -90,-74 -90,-45 -129,-45"/>
<text text-anchor="start" x="-122" y="-55.8" font-family="Times,serif" font-size="14.00"> 1/4 </text>
<polygon fill="none" stroke="black" points="-90,-45 -90,-74 -51,-74 -51,-45 -90,-45"/>
<text text-anchor="start" x="-83" y="-55.8" font-family="Times,serif" font-size="14.00"> 1/2 </text>
</g>
<!-- node_19&#45;&gt;node_5 -->
<g id="edge30" class="edge"><title>node_19:R&#45;&gt;node_5</title>
<path fill="none" stroke="black" d="M-70,-45C-70,-45 -60.2953,0.417927 -52.9789,34.6588"/>
<polygon fill="black" stroke="black" points="-49.4653,34.3531 -50.7983,44.8638 -56.3107,35.8159 -49.4653,34.3531"/>
</g>
<!-- node_19&#45;&gt;node_9 -->
<g id="edge29" class="edge"><title>node_19:L&#45;&gt;node_9</title>
<path fill="none" stroke="black" d="M-110,-45C-110,-45 -111.988,-41.4219 -114.842,-36.2835"/>
<polygon fill="black" stroke="black" points="-111.965,-34.2566 -119.881,-27.2148 -118.084,-37.6562 -111.965,-34.2566"/>
</g>
<!-- node_20 -->
<g id="node26" class="node"><title>node_20</title>
<polygon fill="none" stroke="black" points="-404,-74 -404,-99 -316,-99 -316,-74 -404,-74"/>
<text text-anchor="start" x="-371" y="-82.8" font-family="Times,serif" font-size="14.00">&#45;3/8</text>
<polygon fill="none" stroke="black" points="-404,-45 -404,-74 -360,-74 -360,-45 -404,-45"/>
<text text-anchor="start" x="-397" y="-55.8" font-family="Times,serif" font-size="14.00"> &#45;1/2 </text>
<polygon fill="none" stroke="black" points="-360,-45 -360,-74 -316,-74 -316,-45 -360,-45"/>
<text text-anchor="start" x="-353" y="-55.8" font-family="Times,serif" font-size="14.00"> &#45;1/4 </text>
</g>
<!-- node_20&#45;&gt;node_6 -->
<g id="edge31" class="edge"><title>node_20:L&#45;&gt;node_6</title>
<path fill="none" stroke="black" d="M-382,-45C-382,-45 -390.928,0.417927 -397.659,34.6588"/>
<polygon fill="black" stroke="black" points="-394.302,35.7267 -399.666,44.8638 -401.171,34.3764 -394.302,35.7267"/>
</g>
<!-- node_20&#45;&gt;node_10 -->
<g id="edge32" class="edge"><title>node_20:R&#45;&gt;node_10</title>
<path fill="none" stroke="black" d="M-338,-45C-338,-45 -336.171,-41.4219 -333.545,-36.2835"/>
<polygon fill="black" stroke="black" points="-330.344,-37.7121 -328.91,-27.2148 -336.577,-34.5263 -330.344,-37.7121"/>
</g>
<!-- node_21 -->
<g id="node27" class="node"><title>node_21</title>
<polygon fill="none" stroke="black" points="-39,-74 -39,-99 39,-99 39,-74 -39,-74"/>
<text text-anchor="start" x="-9" y="-82.8" font-family="Times,serif" font-size="14.00">5/8</text>
<polygon fill="none" stroke="black" points="-39,-45 -39,-74 0,-74 0,-45 -39,-45"/>
<text text-anchor="start" x="-32" y="-55.8" font-family="Times,serif" font-size="14.00"> 1/2 </text>
<polygon fill="none" stroke="black" points="0,-45 0,-74 39,-74 39,-45 0,-45"/>
<text text-anchor="start" x="7" y="-55.8" font-family="Times,serif" font-size="14.00"> 3/4 </text>
</g>
<!-- node_21&#45;&gt;node_5 -->
<g id="edge33" class="edge"><title>node_21:L&#45;&gt;node_5</title>
<path fill="none" stroke="black" d="M-20,-45C-20,-45 -29.7047,0.417927 -37.0211,34.6588"/>
<polygon fill="black" stroke="black" points="-33.6893,35.8159 -39.2017,44.8638 -40.5347,34.3531 -33.6893,35.8159"/>
</g>
<!-- node_21&#45;&gt;node_11 -->
<g id="edge34" class="edge"><title>node_21:R&#45;&gt;node_11</title>
<path fill="none" stroke="black" d="M20,-45C20,-45 21.9879,-41.4219 24.8425,-36.2835"/>
<polygon fill="black" stroke="black" points="28.0837,-37.6562 29.8807,-27.2148 21.9646,-34.2566 28.0837,-37.6562"/>
</g>
<!-- node_22 -->
<g id="node28" class="node"><title>node_22</title>
<polygon fill="none" stroke="black" points="-494,-74 -494,-99 -406,-99 -406,-74 -494,-74"/>
<text text-anchor="start" x="-461" y="-82.8" font-family="Times,serif" font-size="14.00">&#45;5/8</text>
<polygon fill="none" stroke="black" points="-494,-45 -494,-74 -450,-74 -450,-45 -494,-45"/>
<text text-anchor="start" x="-487" y="-55.8" font-family="Times,serif" font-size="14.00"> &#45;3/4 </text>
<polygon fill="none" stroke="black" points="-450,-45 -450,-74 -406,-74 -406,-45 -450,-45"/>
<text text-anchor="start" x="-443" y="-55.8" font-family="Times,serif" font-size="14.00"> &#45;1/2 </text>
</g>
<!-- node_22&#45;&gt;node_6 -->
<g id="edge36" class="edge"><title>node_22:R&#45;&gt;node_6</title>
<path fill="none" stroke="black" d="M-428,-45C-428,-45 -419.072,0.417927 -412.341,34.6588"/>
<polygon fill="black" stroke="black" points="-408.829,34.3764 -410.334,44.8638 -415.698,35.7267 -408.829,34.3764"/>
</g>
<!-- node_22&#45;&gt;node_12 -->
<g id="edge35" class="edge"><title>node_22:L&#45;&gt;node_12</title>
<path fill="none" stroke="black" d="M-472,-45C-472,-45 -473.829,-41.4219 -476.455,-36.2835"/>
<polygon fill="black" stroke="black" points="-473.423,-34.5263 -481.09,-27.2148 -479.656,-37.7121 -473.423,-34.5263"/>
</g>
<!-- node_23 -->
<g id="node29" class="node"><title>node_23</title>
<polygon fill="none" stroke="black" points="56,-74 56,-99 124,-99 124,-74 56,-74"/>
<text text-anchor="start" x="81" y="-82.8" font-family="Times,serif" font-size="14.00">7/8</text>
<polygon fill="none" stroke="black" points="56,-45 56,-74 95,-74 95,-45 56,-45"/>
<text text-anchor="start" x="63" y="-55.8" font-family="Times,serif" font-size="14.00"> 3/4 </text>
<polygon fill="none" stroke="black" points="95,-45 95,-74 124,-74 124,-45 95,-45"/>
<text text-anchor="start" x="102" y="-55.8" font-family="Times,serif" font-size="14.00"> 1 </text>
</g>
<!-- node_23&#45;&gt;node_2 -->
<g id="edge38" class="edge"><title>node_23:R&#45;&gt;node_2</title>
<path fill="none" stroke="black" d="M110,-45C110,-45 122.802,51.7835 130.084,106.834"/>
<polygon fill="black" stroke="black" points="133.576,106.548 131.418,116.921 126.637,107.466 133.576,106.548"/>
</g>
<!-- node_23&#45;&gt;node_11 -->
<g id="edge37" class="edge"><title>node_23:L&#45;&gt;node_11</title>
<path fill="none" stroke="black" d="M75,-45C75,-45 72.382,-41.073 68.6927,-35.5391"/>
<polygon fill="black" stroke="black" points="71.6024,-33.5939 63.1432,-27.2148 65.7781,-37.4768 71.6024,-33.5939"/>
</g>
<!-- node_24 -->
<g id="node30" class="node"><title>node_24</title>
<polygon fill="none" stroke="black" points="-578,-74 -578,-99 -501,-99 -501,-74 -578,-74"/>
<text text-anchor="start" x="-550.5" y="-82.8" font-family="Times,serif" font-size="14.00">&#45;7/8</text>
<polygon fill="none" stroke="black" points="-578,-45 -578,-74 -545,-74 -545,-45 -578,-45"/>
<text text-anchor="start" x="-571" y="-55.8" font-family="Times,serif" font-size="14.00"> &#45;1 </text>
<polygon fill="none" stroke="black" points="-545,-45 -545,-74 -501,-74 -501,-45 -545,-45"/>
<text text-anchor="start" x="-538" y="-55.8" font-family="Times,serif" font-size="14.00"> &#45;3/4 </text>
</g>
<!-- node_24&#45;&gt;node_1 -->
<g id="edge39" class="edge"><title>node_24:L&#45;&gt;node_1</title>
<path fill="none" stroke="black" d="M-562,-45C-562,-45 -573.778,51.7835 -580.477,106.834"/>
<polygon fill="black" stroke="black" points="-577.022,107.417 -581.705,116.921 -583.971,106.571 -577.022,107.417"/>
</g>
<!-- node_24&#45;&gt;node_12 -->
<g id="edge40" class="edge"><title>node_24:R&#45;&gt;node_12</title>
<path fill="none" stroke="black" d="M-523,-45C-523,-45 -520.666,-41.2495 -517.346,-35.9139"/>
<polygon fill="black" stroke="black" points="-514.245,-37.5545 -511.934,-27.2148 -520.188,-33.8563 -514.245,-37.5545"/>
</g>
<!-- node_25 -->
<g id="node31" class="node"><title>node_25</title>
<polygon fill="none" stroke="black" points="191,-74 191,-99 259,-99 259,-74 191,-74"/>
<text text-anchor="start" x="216" y="-82.8" font-family="Times,serif" font-size="14.00">5/4</text>
<polygon fill="none" stroke="black" points="191,-45 191,-74 220,-74 220,-45 191,-45"/>
<text text-anchor="start" x="198" y="-55.8" font-family="Times,serif" font-size="14.00"> 1 </text>
<polygon fill="none" stroke="black" points="220,-45 220,-74 259,-74 259,-45 220,-45"/>
<text text-anchor="start" x="227" y="-55.8" font-family="Times,serif" font-size="14.00"> 3/2 </text>
</g>
<!-- node_25&#45;&gt;node_2 -->
<g id="edge41" class="edge"><title>node_25:L&#45;&gt;node_2</title>
<path fill="none" stroke="black" d="M205,-45C205,-45 168.856,52.59 148.512,107.519"/>
<polygon fill="black" stroke="black" points="151.785,108.759 145.029,116.921 145.22,106.328 151.785,108.759"/>
</g>
<!-- node_25&#45;&gt;node_13 -->
<g id="edge42" class="edge"><title>node_25:R&#45;&gt;node_13</title>
<path fill="none" stroke="black" d="M259,-59C259,-59 270.087,-47.3193 282.394,-34.3526"/>
<polygon fill="black" stroke="black" points="284.949,-36.7451 289.295,-27.0825 279.872,-31.9261 284.949,-36.7451"/>
</g>
<!-- node_26 -->
<g id="node32" class="node"><title>node_26</title>
<polygon fill="none" stroke="black" points="-713,-74 -713,-99 -636,-99 -636,-74 -713,-74"/>
<text text-anchor="start" x="-685.5" y="-82.8" font-family="Times,serif" font-size="14.00">&#45;5/4</text>
<polygon fill="none" stroke="black" points="-713,-45 -713,-74 -669,-74 -669,-45 -713,-45"/>
<text text-anchor="start" x="-706" y="-55.8" font-family="Times,serif" font-size="14.00"> &#45;3/2 </text>
<polygon fill="none" stroke="black" points="-669,-45 -669,-74 -636,-74 -636,-45 -669,-45"/>
<text text-anchor="start" x="-662" y="-55.8" font-family="Times,serif" font-size="14.00"> &#45;1 </text>
</g>
<!-- node_26&#45;&gt;node_1 -->
<g id="edge44" class="edge"><title>node_26:R&#45;&gt;node_1</title>
<path fill="none" stroke="black" d="M-652,-45C-652,-45 -617.548,52.1863 -598.054,107.177"/>
<polygon fill="black" stroke="black" points="-594.642,106.326 -594.599,116.921 -601.24,108.665 -594.642,106.326"/>
</g>
<!-- node_26&#45;&gt;node_14 -->
<g id="edge43" class="edge"><title>node_26:L&#45;&gt;node_14</title>
<path fill="none" stroke="black" d="M-713,-59C-713,-59 -723.105,-47.5347 -734.406,-34.7124"/>
<polygon fill="black" stroke="black" points="-731.893,-32.2704 -741.131,-27.0825 -737.144,-36.8988 -731.893,-32.2704"/>
</g>
<!-- node_27 -->
<g id="node33" class="node"><title>node_27</title>
<polygon fill="none" stroke="black" points="371,-74 371,-99 439,-99 439,-74 371,-74"/>
<text text-anchor="start" x="396" y="-82.8" font-family="Times,serif" font-size="14.00">7/4</text>
<polygon fill="none" stroke="black" points="371,-45 371,-74 410,-74 410,-45 371,-45"/>
<text text-anchor="start" x="378" y="-55.8" font-family="Times,serif" font-size="14.00"> 3/2 </text>
<polygon fill="none" stroke="black" points="410,-45 410,-74 439,-74 439,-45 410,-45"/>
<text text-anchor="start" x="417" y="-55.8" font-family="Times,serif" font-size="14.00"> 2 </text>
</g>
<!-- node_27&#45;&gt;node_4 -->
<g id="edge46" class="edge"><title>node_27:R&#45;&gt;node_4</title>
<path fill="none" stroke="black" d="M425,-45C425,-45 452.88,1.60012 473.45,35.9814"/>
<polygon fill="black" stroke="black" points="476.634,34.4854 478.765,44.8638 470.627,38.0793 476.634,34.4854"/>
</g>
<!-- node_27&#45;&gt;node_13 -->
<g id="edge45" class="edge"><title>node_27:L&#45;&gt;node_13</title>
<path fill="none" stroke="black" d="M371,-59C371,-59 359.913,-47.3193 347.606,-34.3526"/>
<polygon fill="black" stroke="black" points="350.128,-31.9261 340.705,-27.0825 345.051,-36.7451 350.128,-31.9261"/>
</g>
<!-- node_28 -->
<g id="node34" class="node"><title>node_28</title>
<polygon fill="none" stroke="black" points="-893,-74 -893,-99 -816,-99 -816,-74 -893,-74"/>
<text text-anchor="start" x="-865.5" y="-82.8" font-family="Times,serif" font-size="14.00">&#45;7/4</text>
<polygon fill="none" stroke="black" points="-893,-45 -893,-74 -860,-74 -860,-45 -893,-45"/>
<text text-anchor="start" x="-886" y="-55.8" font-family="Times,serif" font-size="14.00"> &#45;2 </text>
<polygon fill="none" stroke="black" points="-860,-45 -860,-74 -816,-74 -816,-45 -860,-45"/>
<text text-anchor="start" x="-853" y="-55.8" font-family="Times,serif" font-size="14.00"> &#45;3/2 </text>
</g>
<!-- node_28&#45;&gt;node_3 -->
<g id="edge47" class="edge"><title>node_28:L&#45;&gt;node_3</title>
<path fill="none" stroke="black" d="M-877,-45C-877,-45 -904.084,1.60012 -924.066,35.9814"/>
<polygon fill="black" stroke="black" points="-921.178,37.9767 -929.229,44.8638 -927.23,34.4592 -921.178,37.9767"/>
</g>
<!-- node_28&#45;&gt;node_14 -->
<g id="edge48" class="edge"><title>node_28:R&#45;&gt;node_14</title>
<path fill="none" stroke="black" d="M-816,-59C-816,-59 -806.089,-47.5347 -795.006,-34.7124"/>
<polygon fill="black" stroke="black" points="-792.302,-36.9367 -788.41,-27.0825 -797.598,-32.359 -792.302,-36.9367"/>
</g>
<!-- node_29 -->
<g id="node35" class="node"><title>node_29</title>
<polygon fill="none" stroke="black" points="646,-74 646,-99 704,-99 704,-74 646,-74"/>
<text text-anchor="start" x="666" y="-82.8" font-family="Times,serif" font-size="14.00">5/2</text>
<polygon fill="none" stroke="black" points="646,-45 646,-74 675,-74 675,-45 646,-45"/>
<text text-anchor="start" x="653" y="-55.8" font-family="Times,serif" font-size="14.00"> 2 </text>
<polygon fill="none" stroke="black" points="675,-45 675,-74 704,-74 704,-45 675,-45"/>
<text text-anchor="start" x="682" y="-55.8" font-family="Times,serif" font-size="14.00"> 3 </text>
</g>
<!-- node_29&#45;&gt;node_4 -->
<g id="edge49" class="edge"><title>node_29:L&#45;&gt;node_4</title>
<path fill="none" stroke="black" d="M646,-59C646,-59 575.062,2.542 530.43,41.263"/>
<polygon fill="black" stroke="black" points="532.543,44.0632 522.696,47.9726 527.956,38.7757 532.543,44.0632"/>
</g>
<!-- node_29&#45;&gt;node_8 -->
<g id="edge50" class="edge"><title>node_29:R&#45;&gt;node_8</title>
<path fill="none" stroke="black" d="M704,-59C704,-59 773.186,-31.967 817.895,-14.498"/>
<polygon fill="black" stroke="black" points="819.264,-17.7209 827.304,-10.8215 816.716,-11.2009 819.264,-17.7209"/>
</g>
<!-- node_30 -->
<g id="node36" class="node"><title>node_30</title>
<polygon fill="none" stroke="black" points="-1158,-74 -1158,-99 -1092,-99 -1092,-74 -1158,-74"/>
<text text-anchor="start" x="-1136" y="-82.8" font-family="Times,serif" font-size="14.00">&#45;5/2</text>
<polygon fill="none" stroke="black" points="-1158,-45 -1158,-74 -1125,-74 -1125,-45 -1158,-45"/>
<text text-anchor="start" x="-1151" y="-55.8" font-family="Times,serif" font-size="14.00"> &#45;3 </text>
<polygon fill="none" stroke="black" points="-1125,-45 -1125,-74 -1092,-74 -1092,-45 -1125,-45"/>
<text text-anchor="start" x="-1118" y="-55.8" font-family="Times,serif" font-size="14.00"> &#45;2 </text>
</g>
<!-- node_30&#45;&gt;node_3 -->
<g id="edge52" class="edge"><title>node_30:R&#45;&gt;node_3</title>
<path fill="none" stroke="black" d="M-1092,-59C-1092,-59 -1025.88,-0.0765075 -982.329,38.7341"/>
<polygon fill="black" stroke="black" points="-979.885,36.2241 -974.748,45.4902 -984.542,41.4501 -979.885,36.2241"/>
</g>
<!-- node_30&#45;&gt;node_7 -->
<g id="edge51" class="edge"><title>node_30:L&#45;&gt;node_7</title>
<path fill="none" stroke="black" d="M-1158,-59C-1158,-59 -1222.22,-33.2256 -1265.76,-15.7479"/>
<polygon fill="black" stroke="black" points="-1264.67,-12.4162 -1275.25,-11.9395 -1267.28,-18.9125 -1264.67,-12.4162"/>
</g>
</g>
</svg>
