<?xml version="1.0" encoding="UTF-8" standalone="no"?>
<!DOCTYPE svg PUBLIC "-//W3C//DTD SVG 1.1//EN"
 "http://www.w3.org/Graphics/SVG/1.1/DTD/svg11.dtd">
<!-- Generated by graphviz version 2.38.0 (20140413.2041)
 -->
<!-- Title: dyadic_tree Pages: 1 -->
<svg width="1124pt" height="276pt"
 viewBox="0.00 0.00 1124.00 276.00" xmlns="http://www.w3.org/2000/svg" xmlns:xlink="http://www.w3.org/1999/xlink">
<g id="graph0" class="graph" transform="scale(1 1) rotate(0) translate(642.368 95.4211)">
<title>dyadic_tree</title>
<polygon fill="white" stroke="none" points="-642.368,180.579 -642.368,-95.4211 481.632,-95.4211 481.632,180.579 -642.368,180.579"/>
<!-- node_0 -->
<g id="node1" class="node"><title>node_0</title>
<polygon fill="none" stroke="black" points="-152.368,151.579 -152.368,126.579 -86.3684,126.579 -86.3684,151.579 -152.368,151.579"/>
<text text-anchor="start" x="-122.868" y="142.779" font-family="Times,serif" font-size="14.00">0</text>
<polygon fill="none" stroke="black" points="-152.368,176.579 -152.368,151.579 -119.368,151.579 -119.368,176.579 -152.368,176.579"/>
<text text-anchor="start" x="-147.368" y="167.779" font-family="Times,serif" font-size="14.00"> ∅ </text>
<polygon fill="none" stroke="black" points="-119.368,176.579 -119.368,151.579 -86.3684,151.579 -86.3684,176.579 -119.368,176.579"/>
<text text-anchor="start" x="-114.368" y="167.779" font-family="Times,serif" font-size="14.00"> ∅ </text>
</g>
<!-- node_day_0 -->
<g id="node2" class="node"><title>node_day_0</title>
<text text-anchor="middle" x="447.632" y="155.979" font-family="Times,serif" font-size="18.00">Day 0</text>
</g>
<!-- node_day_1 -->
<g id="node3" class="node"><title>node_day_1</title>
<text text-anchor="middle" x="447.632" y="83.9789" font-family="Times,serif" font-size="18.00">Day 1</text>
</g>
<!-- node_1 -->
<g id="node4" class="node"><title>node_1</title>
<polygon fill="none" stroke="black" points="-312.368,77.5789 -312.368,52.5789 -250.368,52.5789 -250.368,77.5789 -312.368,77.5789"/>
<text text-anchor="start" x="-287.368" y="68.7789" font-family="Times,serif" font-size="14.00">&#45;1</text>
<polygon fill="none" stroke="black" points="-312.368,106.579 -312.368,77.5789 -279.368,77.5789 -279.368,106.579 -312.368,106.579"/>
<text text-anchor="start" x="-307.368" y="95.7789" font-family="Times,serif" font-size="14.00"> ∅ </text>
<polygon fill="none" stroke="black" points="-279.368,106.579 -279.368,77.5789 -250.368,77.5789 -250.368,106.579 -279.368,106.579"/>
<text text-anchor="start" x="-272.368" y="95.7789" font-family="Times,serif" font-size="14.00"> 0 </text>
</g>
<!-- node_1&#45;&gt;node_0 -->
<g id="edge1" class="edge"><title>node_1:R&#45;&gt;node_0</title>
<path fill="none" stroke="#0000cd" d="M-241.092,96.7571C-222.917,104.943 -181.834,123.446 -152.425,136.691"/>
<polygon fill="#0000cd" stroke="#0000cd" points="-242.688,99.8768 -250.368,92.5789 -239.813,93.4943 -242.688,99.8768"/>
</g>
<!-- node_2 -->
<g id="node5" class="node"><title>node_2</title>
<polygon fill="none" stroke="black" points="11.6316,77.5789 11.6316,52.5789 73.6316,52.5789 73.6316,77.5789 11.6316,77.5789"/>
<text text-anchor="start" x="39.1316" y="68.7789" font-family="Times,serif" font-size="14.00">1</text>
<polygon fill="none" stroke="black" points="11.6316,106.579 11.6316,77.5789 40.6316,77.5789 40.6316,106.579 11.6316,106.579"/>
<text text-anchor="start" x="18.6316" y="95.7789" font-family="Times,serif" font-size="14.00"> 0 </text>
<polygon fill="none" stroke="black" points="40.6316,106.579 40.6316,77.5789 73.6316,77.5789 73.6316,106.579 40.6316,106.579"/>
<text text-anchor="start" x="45.6316" y="95.7789" font-family="Times,serif" font-size="14.00"> ∅ </text>
</g>
<!-- node_2&#45;&gt;node_0 -->
<g id="edge2" class="edge"><title>node_2:L&#45;&gt;node_0</title>
<path fill="none" stroke="#cd0000" d="M2.35465,96.7571C-15.8199,104.943 -56.9027,123.446 -86.3116,136.691"/>
<polygon fill="#cd0000" stroke="#cd0000" points="1.07635,93.4943 11.6316,92.5789 3.95097,99.8768 1.07635,93.4943"/>
</g>
<!-- node_day_2 -->
<g id="node6" class="node"><title>node_day_2</title>
<text text-anchor="middle" x="447.632" y="11.9789" font-family="Times,serif" font-size="18.00">Day 2</text>
</g>
<!-- node_3 -->
<g id="node7" class="node"><title>node_3</title>
<polygon fill="none" stroke="black" points="-476.368,5.57895 -476.368,-19.4211 -410.368,-19.4211 -410.368,5.57895 -476.368,5.57895"/>
<text text-anchor="start" x="-449.368" y="-3.22105" font-family="Times,serif" font-size="14.00">&#45;2</text>
<polygon fill="none" stroke="black" points="-476.368,34.5789 -476.368,5.57895 -443.368,5.57895 -443.368,34.5789 -476.368,34.5789"/>
<text text-anchor="start" x="-471.368" y="23.7789" font-family="Times,serif" font-size="14.00"> ∅ </text>
<polygon fill="none" stroke="black" points="-443.368,34.5789 -443.368,5.57895 -410.368,5.57895 -410.368,34.5789 -443.368,34.5789"/>
<text text-anchor="start" x="-436.368" y="23.7789" font-family="Times,serif" font-size="14.00"> &#45;1 </text>
</g>
<!-- node_3&#45;&gt;node_1 -->
<g id="edge3" class="edge"><title>node_3:R&#45;&gt;node_1</title>
<path fill="none" stroke="#0000cd" d="M-401.033,24.8488C-382.758,33.2068 -341.527,52.0644 -312.596,65.2967"/>
<polygon fill="#0000cd" stroke="#0000cd" points="-402.73,27.9212 -410.368,20.5789 -399.819,21.5554 -402.73,27.9212"/>
</g>
<!-- node_4 -->
<g id="node8" class="node"><title>node_4</title>
<polygon fill="none" stroke="black" points="173.632,5.57895 173.632,-19.4211 235.632,-19.4211 235.632,5.57895 173.632,5.57895"/>
<text text-anchor="start" x="201.132" y="-3.22105" font-family="Times,serif" font-size="14.00">2</text>
<polygon fill="none" stroke="black" points="173.632,34.5789 173.632,5.57895 202.632,5.57895 202.632,34.5789 173.632,34.5789"/>
<text text-anchor="start" x="180.632" y="23.7789" font-family="Times,serif" font-size="14.00"> 1 </text>
<polygon fill="none" stroke="black" points="202.632,34.5789 202.632,5.57895 235.632,5.57895 235.632,34.5789 202.632,34.5789"/>
<text text-anchor="start" x="207.632" y="23.7789" font-family="Times,serif" font-size="14.00"> ∅ </text>
</g>
<!-- node_4&#45;&gt;node_2 -->
<g id="edge4" class="edge"><title>node_4:L&#45;&gt;node_2</title>
<path fill="none" stroke="#cd0000" d="M164.337,24.7652C145.734,33.1433 103.185,52.307 73.6767,65.5968"/>
<polygon fill="#cd0000" stroke="#cd0000" points="163.076,21.4943 173.632,20.5789 165.951,27.8768 163.076,21.4943"/>
</g>
<!-- node_5 -->
<g id="node9" class="node"><title>node_5</title>
<polygon fill="none" stroke="black" points="-67.3684,5.57895 -67.3684,-19.4211 -9.36842,-19.4211 -9.36842,5.57895 -67.3684,5.57895"/>
<text text-anchor="start" x="-47.3684" y="-3.22105" font-family="Times,serif" font-size="14.00">1/2</text>
<polygon fill="none" stroke="black" points="-67.3684,34.5789 -67.3684,5.57895 -38.3684,5.57895 -38.3684,34.5789 -67.3684,34.5789"/>
<text text-anchor="start" x="-60.3684" y="23.7789" font-family="Times,serif" font-size="14.00"> 0 </text>
<polygon fill="none" stroke="black" points="-38.3684,34.5789 -38.3684,5.57895 -9.36842,5.57895 -9.36842,34.5789 -38.3684,34.5789"/>
<text text-anchor="start" x="-31.3684" y="23.7789" font-family="Times,serif" font-size="14.00"> 1 </text>
</g>
<!-- node_5&#45;&gt;node_0 -->
<g id="edge5" class="edge"><title>node_5:L&#45;&gt;node_0</title>
<path fill="none" stroke="#cd0000" d="M-58.4318,43.5549C-68.3198,61.0837 -90.5135,100.427 -105.21,126.48"/>
<polygon fill="#cd0000" stroke="#cd0000" points="-61.3301,41.5691 -53.3684,34.5789 -55.2333,45.0084 -61.3301,41.5691"/>
</g>
<!-- node_5&#45;&gt;node_2 -->
<g id="edge6" class="edge"><title>node_5:R&#45;&gt;node_2</title>
<path fill="none" stroke="#0000cd" d="M-2.34195,28.5513C3.13337,34.7637 11.0729,43.772 18.7623,52.4965"/>
<polygon fill="#0000cd" stroke="#0000cd" points="-5.38212,30.3953 -9.36842,20.5789 -0.13064,25.7668 -5.38212,30.3953"/>
</g>
<!-- node_6 -->
<g id="node10" class="node"><title>node_6</title>
<polygon fill="none" stroke="black" points="-231.368,5.57895 -231.368,-19.4211 -169.368,-19.4211 -169.368,5.57895 -231.368,5.57895"/>
<text text-anchor="start" x="-211.368" y="-3.22105" font-family="Times,serif" font-size="14.00">&#45;1/2</text>
<polygon fill="none" stroke="black" points="-231.368,34.5789 -231.368,5.57895 -198.368,5.57895 -198.368,34.5789 -231.368,34.5789"/>
<text text-anchor="start" x="-224.368" y="23.7789" font-family="Times,serif" font-size="14.00"> &#45;1 </text>
<polygon fill="none" stroke="black" points="-198.368,34.5789 -198.368,5.57895 -169.368,5.57895 -169.368,34.5789 -198.368,34.5789"/>
<text text-anchor="start" x="-191.368" y="23.7789" font-family="Times,serif" font-size="14.00"> 0 </text>
</g>
<!-- node_6&#45;&gt;node_0 -->
<g id="edge8" class="edge"><title>node_6:R&#45;&gt;node_0</title>
<path fill="none" stroke="#0000cd" d="M-178.459,43.5549C-168.87,61.0837 -147.349,100.427 -133.098,126.48"/>
<polygon fill="#0000cd" stroke="#0000cd" points="-181.64,45.0319 -183.368,34.5789 -175.499,41.6725 -181.64,45.0319"/>
</g>
<!-- node_6&#45;&gt;node_1 -->
<g id="edge7" class="edge"><title>node_6:L&#45;&gt;node_1</title>
<path fill="none" stroke="#cd0000" d="M-238.125,28.5513C-243.389,34.7637 -251.024,43.772 -258.417,52.4965"/>
<polygon fill="#cd0000" stroke="#cd0000" points="-240.504,25.9451 -231.368,20.5789 -235.164,30.4708 -240.504,25.9451"/>
</g>
<!-- node_day_3 -->
<g id="node11" class="node"><title>node_day_3</title>
<text text-anchor="middle" x="447.632" y="-60.0211" font-family="Times,serif" font-size="18.00">Day 3</text>
</g>
<!-- node_7 -->
<g id="node12" class="node"><title>node_7</title>
<polygon fill="none" stroke="black" points="-638.368,-66.4211 -638.368,-91.4211 -572.368,-91.4211 -572.368,-66.4211 -638.368,-66.4211"/>
<text text-anchor="start" x="-611.368" y="-75.2211" font-family="Times,serif" font-size="14.00">&#45;3</text>
<polygon fill="none" stroke="black" points="-638.368,-37.4211 -638.368,-66.4211 -605.368,-66.4211 -605.368,-37.4211 -638.368,-37.4211"/>
<text text-anchor="start" x="-633.368" y="-48.2211" font-family="Times,serif" font-size="14.00"> ∅ </text>
<polygon fill="none" stroke="black" points="-605.368,-37.4211 -605.368,-66.4211 -572.368,-66.4211 -572.368,-37.4211 -605.368,-37.4211"/>
<text text-anchor="start" x="-598.368" y="-48.2211" font-family="Times,serif" font-size="14.00"> &#45;2 </text>
</g>
<!-- node_7&#45;&gt;node_3 -->
<g id="edge9" class="edge"><title>node_7:R&#45;&gt;node_3</title>
<path fill="none" stroke="#0000cd" d="M-563.057,-47.1623C-545.21,-38.9999 -505.405,-20.7943 -476.589,-7.61502"/>
<polygon fill="#0000cd" stroke="#0000cd" points="-564.73,-44.0788 -572.368,-51.4211 -561.819,-50.4446 -564.73,-44.0788"/>
</g>
<!-- node_8 -->
<g id="node13" class="node"><title>node_8</title>
<polygon fill="none" stroke="black" points="335.632,-66.4211 335.632,-91.4211 397.632,-91.4211 397.632,-66.4211 335.632,-66.4211"/>
<text text-anchor="start" x="363.132" y="-75.2211" font-family="Times,serif" font-size="14.00">3</text>
<polygon fill="none" stroke="black" points="335.632,-37.4211 335.632,-66.4211 364.632,-66.4211 364.632,-37.4211 335.632,-37.4211"/>
<text text-anchor="start" x="342.632" y="-48.2211" font-family="Times,serif" font-size="14.00"> 2 </text>
<polygon fill="none" stroke="black" points="364.632,-37.4211 364.632,-66.4211 397.632,-66.4211 397.632,-37.4211 364.632,-37.4211"/>
<text text-anchor="start" x="369.632" y="-48.2211" font-family="Times,serif" font-size="14.00"> ∅ </text>
</g>
<!-- node_8&#45;&gt;node_4 -->
<g id="edge10" class="edge"><title>node_8:L&#45;&gt;node_4</title>
<path fill="none" stroke="#cd0000" d="M326.337,-47.2348C307.734,-38.8567 265.185,-19.693 235.677,-6.40323"/>
<polygon fill="#cd0000" stroke="#cd0000" points="325.076,-50.5057 335.632,-51.4211 327.951,-44.1232 325.076,-50.5057"/>
</g>
<!-- node_9 -->
<g id="node14" class="node"><title>node_9</title>
<polygon fill="none" stroke="black" points="-112.868,-66.4211 -112.868,-91.4211 -44.8684,-91.4211 -44.8684,-66.4211 -112.868,-66.4211"/>
<text text-anchor="start" x="-87.8684" y="-75.2211" font-family="Times,serif" font-size="14.00">1/4</text>
<polygon fill="none" stroke="black" points="-112.868,-37.4211 -112.868,-66.4211 -83.8684,-66.4211 -83.8684,-37.4211 -112.868,-37.4211"/>
<text text-anchor="start" x="-105.868" y="-48.2211" font-family="Times,serif" font-size="14.00"> 0 </text>
<polygon fill="none" stroke="black" points="-83.8684,-37.4211 -83.8684,-66.4211 -44.8684,-66.4211 -44.8684,-37.4211 -83.8684,-37.4211"/>
<text text-anchor="start" x="-76.8684" y="-48.2211" font-family="Times,serif" font-size="14.00"> 1/2 </text>
</g>
<!-- node_9&#45;&gt;node_0 -->
<g id="edge11" class="edge"><title>node_9:L&#45;&gt;node_0</title>
<path fill="none" stroke="#cd0000" d="M-99.9857,-27.1201C-103.125,1.82531 -112.094,84.5084 -116.646,126.481"/>
<polygon fill="#cd0000" stroke="#cd0000" points="-103.426,-27.8568 -98.8684,-37.4211 -96.4672,-27.1019 -103.426,-27.8568"/>
</g>
<!-- node_9&#45;&gt;node_5 -->
<g id="edge12" class="edge"><title>node_9:R&#45;&gt;node_5</title>
<path fill="none" stroke="#0000cd" d="M-58.9291,-28.7046C-57.4039,-26.0131 -55.6361,-22.8935 -53.7901,-19.6359"/>
<polygon fill="#0000cd" stroke="#0000cd" points="-61.9833,-26.9953 -63.8684,-37.4211 -55.8932,-30.4464 -61.9833,-26.9953"/>
</g>
<!-- node_10 -->
<g id="node15" class="node"><title>node_10</title>
<polygon fill="none" stroke="black" points="-195.868,-66.4211 -195.868,-91.4211 -122.868,-91.4211 -122.868,-66.4211 -195.868,-66.4211"/>
<text text-anchor="start" x="-170.368" y="-75.2211" font-family="Times,serif" font-size="14.00">&#45;1/4</text>
<polygon fill="none" stroke="black" points="-195.868,-37.4211 -195.868,-66.4211 -151.868,-66.4211 -151.868,-37.4211 -195.868,-37.4211"/>
<text text-anchor="start" x="-188.868" y="-48.2211" font-family="Times,serif" font-size="14.00"> &#45;1/2 </text>
<polygon fill="none" stroke="black" points="-151.868,-37.4211 -151.868,-66.4211 -122.868,-66.4211 -122.868,-37.4211 -151.868,-37.4211"/>
<text text-anchor="start" x="-144.868" y="-48.2211" font-family="Times,serif" font-size="14.00"> 0 </text>
</g>
<!-- node_10&#45;&gt;node_0 -->
<g id="edge14" class="edge"><title>node_10:R&#45;&gt;node_0</title>
<path fill="none" stroke="#0000cd" d="M-135.915,-27.1201C-133.235,1.82531 -125.579,84.5084 -121.692,126.481"/>
<polygon fill="#0000cd" stroke="#0000cd" points="-139.431,-27.1409 -136.868,-37.4211 -132.461,-27.7864 -139.431,-27.1409"/>
</g>
<!-- node_10&#45;&gt;node_6 -->
<g id="edge13" class="edge"><title>node_10:L&#45;&gt;node_6</title>
<path fill="none" stroke="#cd0000" d="M-179.001,-28.7046C-180.586,-26.0131 -182.424,-22.8935 -184.342,-19.6359"/>
<polygon fill="#cd0000" stroke="#cd0000" points="-181.959,-30.5802 -173.868,-37.4211 -175.927,-27.0281 -181.959,-30.5802"/>
</g>
<!-- node_11 -->
<g id="node16" class="node"><title>node_11</title>
<polygon fill="none" stroke="black" points="-31.8684,-66.4211 -31.8684,-91.4211 36.1316,-91.4211 36.1316,-66.4211 -31.8684,-66.4211"/>
<text text-anchor="start" x="-6.86842" y="-75.2211" font-family="Times,serif" font-size="14.00">3/4</text>
<polygon fill="none" stroke="black" points="-31.8684,-37.4211 -31.8684,-66.4211 7.13158,-66.4211 7.13158,-37.4211 -31.8684,-37.4211"/>
<text text-anchor="start" x="-24.8684" y="-48.2211" font-family="Times,serif" font-size="14.00"> 1/2 </text>
<polygon fill="none" stroke="black" points="7.13158,-37.4211 7.13158,-66.4211 36.1316,-66.4211 36.1316,-37.4211 7.13158,-37.4211"/>
<text text-anchor="start" x="14.1316" y="-48.2211" font-family="Times,serif" font-size="14.00"> 1 </text>
</g>
<!-- node_11&#45;&gt;node_2 -->
<g id="edge16" class="edge"><title>node_11:R&#45;&gt;node_2</title>
<path fill="none" stroke="#0000cd" d="M23.8838,-27.4204C26.9545,-9.89502 33.406,26.9255 37.8769,52.4427"/>
<polygon fill="#0000cd" stroke="#0000cd" points="20.41,-26.967 22.1316,-37.4211 27.305,-28.1752 20.41,-26.967"/>
</g>
<!-- node_11&#45;&gt;node_5 -->
<g id="edge15" class="edge"><title>node_11:L&#45;&gt;node_5</title>
<path fill="none" stroke="#cd0000" d="M-17.8077,-28.7046C-19.3329,-26.0131 -21.1007,-22.8935 -22.9467,-19.6359"/>
<polygon fill="#cd0000" stroke="#cd0000" points="-20.8437,-30.4464 -12.8684,-37.4211 -14.7535,-26.9953 -20.8437,-30.4464"/>
</g>
<!-- node_12 -->
<g id="node17" class="node"><title>node_12</title>
<polygon fill="none" stroke="black" points="-278.868,-66.4211 -278.868,-91.4211 -201.868,-91.4211 -201.868,-66.4211 -278.868,-66.4211"/>
<text text-anchor="start" x="-251.368" y="-75.2211" font-family="Times,serif" font-size="14.00">&#45;3/4</text>
<polygon fill="none" stroke="black" points="-278.868,-37.4211 -278.868,-66.4211 -245.868,-66.4211 -245.868,-37.4211 -278.868,-37.4211"/>
<text text-anchor="start" x="-271.868" y="-48.2211" font-family="Times,serif" font-size="14.00"> &#45;1 </text>
<polygon fill="none" stroke="black" points="-245.868,-37.4211 -245.868,-66.4211 -201.868,-66.4211 -201.868,-37.4211 -245.868,-37.4211"/>
<text text-anchor="start" x="-238.868" y="-48.2211" font-family="Times,serif" font-size="14.00"> &#45;1/2 </text>
</g>
<!-- node_12&#45;&gt;node_1 -->
<g id="edge17" class="edge"><title>node_12:L&#45;&gt;node_1</title>
<path fill="none" stroke="#cd0000" d="M-264.45,-27.4204C-267.221,-9.89502 -273.043,26.9255 -277.078,52.4427"/>
<polygon fill="#cd0000" stroke="#cd0000" points="-267.887,-28.0904 -262.868,-37.4211 -260.973,-26.9971 -267.887,-28.0904"/>
</g>
<!-- node_12&#45;&gt;node_6 -->
<g id="edge18" class="edge"><title>node_12:R&#45;&gt;node_6</title>
<path fill="none" stroke="#0000cd" d="M-219.123,-28.3349C-217.763,-25.7292 -216.204,-22.7454 -214.581,-19.6359"/>
<polygon fill="#0000cd" stroke="#0000cd" points="-222.342,-26.9368 -223.868,-37.4211 -216.137,-30.1771 -222.342,-26.9368"/>
</g>
<!-- node_13 -->
<g id="node18" class="node"><title>node_13</title>
<polygon fill="none" stroke="black" points="94.6316,-66.4211 94.6316,-91.4211 152.632,-91.4211 152.632,-66.4211 94.6316,-66.4211"/>
<text text-anchor="start" x="114.632" y="-75.2211" font-family="Times,serif" font-size="14.00">3/2</text>
<polygon fill="none" stroke="black" points="94.6316,-37.4211 94.6316,-66.4211 123.632,-66.4211 123.632,-37.4211 94.6316,-37.4211"/>
<text text-anchor="start" x="101.632" y="-48.2211" font-family="Times,serif" font-size="14.00"> 1 </text>
<polygon fill="none" stroke="black" points="123.632,-37.4211 123.632,-66.4211 152.632,-66.4211 152.632,-37.4211 123.632,-37.4211"/>
<text text-anchor="start" x="130.632" y="-48.2211" font-family="Times,serif" font-size="14.00"> 2 </text>
</g>
<!-- node_13&#45;&gt;node_2 -->
<g id="edge19" class="edge"><title>node_13:L&#45;&gt;node_2</title>
<path fill="none" stroke="#cd0000" d="M103.603,-28.5069C93.9861,-11.4586 72.6382,26.3855 57.9392,52.4427"/>
<polygon fill="#cd0000" stroke="#cd0000" points="100.67,-30.4309 108.632,-37.4211 106.767,-26.9916 100.67,-30.4309"/>
</g>
<!-- node_13&#45;&gt;node_4 -->
<g id="edge20" class="edge"><title>node_13:R&#45;&gt;node_4</title>
<path fill="none" stroke="#0000cd" d="M159.658,-43.4487C165.133,-37.2363 173.073,-28.228 180.762,-19.5035"/>
<polygon fill="#0000cd" stroke="#0000cd" points="156.618,-41.6047 152.632,-51.4211 161.869,-46.2332 156.618,-41.6047"/>
</g>
<!-- node_14 -->
<g id="node19" class="node"><title>node_14</title>
<polygon fill="none" stroke="black" points="-395.368,-66.4211 -395.368,-91.4211 -329.368,-91.4211 -329.368,-66.4211 -395.368,-66.4211"/>
<text text-anchor="start" x="-373.368" y="-75.2211" font-family="Times,serif" font-size="14.00">&#45;3/2</text>
<polygon fill="none" stroke="black" points="-395.368,-37.4211 -395.368,-66.4211 -362.368,-66.4211 -362.368,-37.4211 -395.368,-37.4211"/>
<text text-anchor="start" x="-388.368" y="-48.2211" font-family="Times,serif" font-size="14.00"> &#45;2 </text>
<polygon fill="none" stroke="black" points="-362.368,-37.4211 -362.368,-66.4211 -329.368,-66.4211 -329.368,-37.4211 -362.368,-37.4211"/>
<text text-anchor="start" x="-355.368" y="-48.2211" font-family="Times,serif" font-size="14.00"> &#45;1 </text>
</g>
<!-- node_14&#45;&gt;node_1 -->
<g id="edge22" class="edge"><title>node_14:R&#45;&gt;node_1</title>
<path fill="none" stroke="#0000cd" d="M-340.492,-28.5069C-331.167,-11.4586 -310.466,26.3855 -296.212,52.4427"/>
<polygon fill="#0000cd" stroke="#0000cd" points="-343.64,-26.9681 -345.368,-37.4211 -337.499,-30.3275 -343.64,-26.9681"/>
</g>
<!-- node_14&#45;&gt;node_3 -->
<g id="edge21" class="edge"><title>node_14:L&#45;&gt;node_3</title>
<path fill="none" stroke="#cd0000" d="M-401.854,-43.4487C-406.909,-37.2363 -414.237,-28.228 -421.335,-19.5035"/>
<polygon fill="#cd0000" stroke="#cd0000" points="-404.394,-45.8727 -395.368,-51.4211 -398.964,-41.4551 -404.394,-45.8727"/>
</g>
</g>
</svg>
