<?xml version="1.0" encoding="UTF-8" standalone="no"?>
<!DOCTYPE svg PUBLIC "-//W3C//DTD SVG 1.1//EN"
 "http://www.w3.org/Graphics/SVG/1.1/DTD/svg11.dtd">
<!-- Generated by graphviz version 2.38.0 (20140413.2041)
 -->
<!-- Title: dyadic_tree Pages: 1 -->
<svg width="1121pt" height="276pt"
 viewBox="0.00 0.00 1120.50 276.00" xmlns="http://www.w3.org/2000/svg" xmlns:xlink="http://www.w3.org/1999/xlink">
<g id="graph0" class="graph" transform="scale(1 1) rotate(0) translate(638.868 95.4211)">
<title>dyadic_tree</title>
<polygon fill="white" stroke="none" points="-638.868,180.579 -638.868,-95.4211 481.632,-95.4211 481.632,180.579 -638.868,180.579"/>
<!-- node_0 -->
<g id="node1" class="node"><title>node_0</title>
<polygon fill="none" stroke="black" points="-145.368,151.579 -145.368,126.579 -93.3684,126.579 -93.3684,151.579 -145.368,151.579"/>
<text text-anchor="start" x="-122.868" y="142.779" font-family="Times,serif" font-size="14.00">0</text>
<polygon fill="none" stroke="black" points="-145.368,176.579 -145.368,151.579 -119.368,151.579 -119.368,176.579 -145.368,176.579"/>
<text text-anchor="start" x="-140.368" y="167.779" font-family="Times,serif" font-size="14.00"> ϕ </text>
<polygon fill="none" stroke="black" points="-119.368,176.579 -119.368,151.579 -93.3684,151.579 -93.3684,176.579 -119.368,176.579"/>
<text text-anchor="start" x="-114.368" y="167.779" font-family="Times,serif" font-size="14.00"> ϕ </text>
</g>
<!-- node_day_0 -->
<g id="node2" class="node"><title>node_day_0</title>
<text text-anchor="middle" x="447.632" y="155.979" font-family="Times,serif" font-size="18.00">Day 0</text>
</g>
<!-- node_day_1 -->
<g id="node3" class="node"><title>node_day_1</title>
<text text-anchor="middle" x="447.632" y="83.9789" font-family="Times,serif" font-size="18.00">Day 1</text>
</g>
<!-- node_1 -->
<g id="node4" class="node"><title>node_1</title>
<polygon fill="none" stroke="black" points="-308.368,77.5789 -308.368,52.5789 -253.368,52.5789 -253.368,77.5789 -308.368,77.5789"/>
<text text-anchor="start" x="-286.868" y="68.7789" font-family="Times,serif" font-size="14.00">&#45;1</text>
<polygon fill="none" stroke="black" points="-308.368,106.579 -308.368,77.5789 -282.368,77.5789 -282.368,106.579 -308.368,106.579"/>
<text text-anchor="start" x="-303.368" y="95.7789" font-family="Times,serif" font-size="14.00"> ϕ </text>
<polygon fill="none" stroke="black" points="-282.368,106.579 -282.368,77.5789 -253.368,77.5789 -253.368,106.579 -282.368,106.579"/>
<text text-anchor="start" x="-275.368" y="95.7789" font-family="Times,serif" font-size="14.00"> 0 </text>
</g>
<!-- node_1&#45;&gt;node_0 -->
<g id="edge1" class="edge"><title>node_1:R&#45;&gt;node_0</title>
<path fill="none" stroke="#0000cd" d="M-253.368,92.5789C-253.368,92.5789 -195.565,118.03 -155.888,135.5"/>
<polygon fill="#0000cd" stroke="#0000cd" points="-154.227,132.406 -146.485,139.639 -157.048,138.813 -154.227,132.406"/>
</g>
<!-- node_2 -->
<g id="node5" class="node"><title>node_2</title>
<polygon fill="none" stroke="black" points="15.6316,77.5789 15.6316,52.5789 70.6316,52.5789 70.6316,77.5789 15.6316,77.5789"/>
<text text-anchor="start" x="39.6316" y="68.7789" font-family="Times,serif" font-size="14.00">1</text>
<polygon fill="none" stroke="black" points="15.6316,106.579 15.6316,77.5789 44.6316,77.5789 44.6316,106.579 15.6316,106.579"/>
<text text-anchor="start" x="22.6316" y="95.7789" font-family="Times,serif" font-size="14.00"> 0 </text>
<polygon fill="none" stroke="black" points="44.6316,106.579 44.6316,77.5789 70.6316,77.5789 70.6316,106.579 44.6316,106.579"/>
<text text-anchor="start" x="49.6316" y="95.7789" font-family="Times,serif" font-size="14.00"> ϕ </text>
</g>
<!-- node_2&#45;&gt;node_0 -->
<g id="edge2" class="edge"><title>node_2:L&#45;&gt;node_0</title>
<path fill="none" stroke="#cd0000" d="M15.6316,92.5789C15.6316,92.5789 -42.8492,118.137 -82.8299,135.61"/>
<polygon fill="#cd0000" stroke="#cd0000" points="-81.4844,138.842 -92.0492,139.639 -84.2877,132.428 -81.4844,138.842"/>
</g>
<!-- node_day_2 -->
<g id="node6" class="node"><title>node_day_2</title>
<text text-anchor="middle" x="447.632" y="11.9789" font-family="Times,serif" font-size="18.00">Day 2</text>
</g>
<!-- node_3 -->
<g id="node7" class="node"><title>node_3</title>
<polygon fill="none" stroke="black" points="-472.368,5.57895 -472.368,-19.4211 -413.368,-19.4211 -413.368,5.57895 -472.368,5.57895"/>
<text text-anchor="start" x="-448.868" y="-3.22105" font-family="Times,serif" font-size="14.00">&#45;2</text>
<polygon fill="none" stroke="black" points="-472.368,34.5789 -472.368,5.57895 -446.368,5.57895 -446.368,34.5789 -472.368,34.5789"/>
<text text-anchor="start" x="-467.368" y="23.7789" font-family="Times,serif" font-size="14.00"> ϕ </text>
<polygon fill="none" stroke="black" points="-446.368,34.5789 -446.368,5.57895 -413.368,5.57895 -413.368,34.5789 -446.368,34.5789"/>
<text text-anchor="start" x="-439.368" y="23.7789" font-family="Times,serif" font-size="14.00"> &#45;1 </text>
</g>
<!-- node_3&#45;&gt;node_1 -->
<g id="edge3" class="edge"><title>node_3:R&#45;&gt;node_1</title>
<path fill="none" stroke="#0000cd" d="M-413.368,20.5789C-413.368,20.5789 -357.599,45.506 -318.561,62.9552"/>
<polygon fill="#0000cd" stroke="#0000cd" points="-316.741,59.9346 -309.04,67.2106 -319.598,66.3253 -316.741,59.9346"/>
</g>
<!-- node_4 -->
<g id="node8" class="node"><title>node_4</title>
<polygon fill="none" stroke="black" points="177.632,5.57895 177.632,-19.4211 232.632,-19.4211 232.632,5.57895 177.632,5.57895"/>
<text text-anchor="start" x="201.632" y="-3.22105" font-family="Times,serif" font-size="14.00">2</text>
<polygon fill="none" stroke="black" points="177.632,34.5789 177.632,5.57895 206.632,5.57895 206.632,34.5789 177.632,34.5789"/>
<text text-anchor="start" x="184.632" y="23.7789" font-family="Times,serif" font-size="14.00"> 1 </text>
<polygon fill="none" stroke="black" points="206.632,34.5789 206.632,5.57895 232.632,5.57895 232.632,34.5789 206.632,34.5789"/>
<text text-anchor="start" x="211.632" y="23.7789" font-family="Times,serif" font-size="14.00"> ϕ </text>
</g>
<!-- node_4&#45;&gt;node_2 -->
<g id="edge4" class="edge"><title>node_4:L&#45;&gt;node_2</title>
<path fill="none" stroke="#cd0000" d="M177.632,20.5789C177.632,20.5789 119.472,45.997 79.5,63.4661"/>
<polygon fill="#cd0000" stroke="#cd0000" points="80.8414,66.6995 70.2766,67.497 78.0381,60.2853 80.8414,66.6995"/>
</g>
<!-- node_5 -->
<g id="node9" class="node"><title>node_5</title>
<polygon fill="none" stroke="black" points="-67.3684,5.57895 -67.3684,-19.4211 -9.36842,-19.4211 -9.36842,5.57895 -67.3684,5.57895"/>
<text text-anchor="start" x="-47.3684" y="-3.22105" font-family="Times,serif" font-size="14.00">1/2</text>
<polygon fill="none" stroke="black" points="-67.3684,34.5789 -67.3684,5.57895 -38.3684,5.57895 -38.3684,34.5789 -67.3684,34.5789"/>
<text text-anchor="start" x="-60.3684" y="23.7789" font-family="Times,serif" font-size="14.00"> 0 </text>
<polygon fill="none" stroke="black" points="-38.3684,34.5789 -38.3684,5.57895 -9.36842,5.57895 -9.36842,34.5789 -38.3684,34.5789"/>
<text text-anchor="start" x="-31.3684" y="23.7789" font-family="Times,serif" font-size="14.00"> 1 </text>
</g>
<!-- node_5&#45;&gt;node_0 -->
<g id="edge5" class="edge"><title>node_5:L&#45;&gt;node_0</title>
<path fill="none" stroke="#cd0000" d="M-53.3684,34.5789C-53.3684,34.5789 -80.7116,83.0509 -100.199,117.597"/>
<polygon fill="#cd0000" stroke="#cd0000" points="-97.2481,119.489 -105.21,126.48 -103.345,116.05 -97.2481,119.489"/>
</g>
<!-- node_5&#45;&gt;node_2 -->
<g id="edge6" class="edge"><title>node_5:R&#45;&gt;node_2</title>
<path fill="none" stroke="#0000cd" d="M-9.36842,20.5789C-9.36842,20.5789 0.736632,32.0443 12.0376,44.8665"/>
<polygon fill="#0000cd" stroke="#0000cd" points="14.776,42.6801 18.7623,52.4965 9.52448,47.3086 14.776,42.6801"/>
</g>
<!-- node_6 -->
<g id="node10" class="node"><title>node_6</title>
<polygon fill="none" stroke="black" points="-231.368,5.57895 -231.368,-19.4211 -169.368,-19.4211 -169.368,5.57895 -231.368,5.57895"/>
<text text-anchor="start" x="-211.368" y="-3.22105" font-family="Times,serif" font-size="14.00">&#45;1/2</text>
<polygon fill="none" stroke="black" points="-231.368,34.5789 -231.368,5.57895 -198.368,5.57895 -198.368,34.5789 -231.368,34.5789"/>
<text text-anchor="start" x="-224.368" y="23.7789" font-family="Times,serif" font-size="14.00"> &#45;1 </text>
<polygon fill="none" stroke="black" points="-198.368,34.5789 -198.368,5.57895 -169.368,5.57895 -169.368,34.5789 -198.368,34.5789"/>
<text text-anchor="start" x="-191.368" y="23.7789" font-family="Times,serif" font-size="14.00"> 0 </text>
</g>
<!-- node_6&#45;&gt;node_0 -->
<g id="edge8" class="edge"><title>node_6:R&#45;&gt;node_0</title>
<path fill="none" stroke="#0000cd" d="M-183.368,34.5789C-183.368,34.5789 -156.854,83.0509 -137.957,117.597"/>
<polygon fill="#0000cd" stroke="#0000cd" points="-134.826,116.027 -133.098,126.48 -140.968,119.386 -134.826,116.027"/>
</g>
<!-- node_6&#45;&gt;node_1 -->
<g id="edge7" class="edge"><title>node_6:L&#45;&gt;node_1</title>
<path fill="none" stroke="#cd0000" d="M-231.368,20.5789C-231.368,20.5789 -241.085,32.0443 -251.951,44.8665"/>
<polygon fill="#cd0000" stroke="#cd0000" points="-249.282,47.1303 -258.417,52.4965 -254.622,42.6046 -249.282,47.1303"/>
</g>
<!-- node_day_3 -->
<g id="node11" class="node"><title>node_day_3</title>
<text text-anchor="middle" x="447.632" y="-60.0211" font-family="Times,serif" font-size="18.00">Day 3</text>
</g>
<!-- node_7 -->
<g id="node12" class="node"><title>node_7</title>
<polygon fill="none" stroke="black" points="-634.368,-66.4211 -634.368,-91.4211 -575.368,-91.4211 -575.368,-66.4211 -634.368,-66.4211"/>
<text text-anchor="start" x="-610.868" y="-75.2211" font-family="Times,serif" font-size="14.00">&#45;3</text>
<polygon fill="none" stroke="black" points="-634.368,-37.4211 -634.368,-66.4211 -608.368,-66.4211 -608.368,-37.4211 -634.368,-37.4211"/>
<text text-anchor="start" x="-629.368" y="-48.2211" font-family="Times,serif" font-size="14.00"> ϕ </text>
<polygon fill="none" stroke="black" points="-608.368,-37.4211 -608.368,-66.4211 -575.368,-66.4211 -575.368,-37.4211 -608.368,-37.4211"/>
<text text-anchor="start" x="-601.368" y="-48.2211" font-family="Times,serif" font-size="14.00"> &#45;2 </text>
</g>
<!-- node_7&#45;&gt;node_3 -->
<g id="edge9" class="edge"><title>node_7:R&#45;&gt;node_3</title>
<path fill="none" stroke="#0000cd" d="M-575.368,-51.4211C-575.368,-51.4211 -521.438,-27.3157 -482.521,-9.92089"/>
<polygon fill="#0000cd" stroke="#0000cd" points="-480.693,-12.9378 -472.992,-5.6618 -483.55,-6.54715 -480.693,-12.9378"/>
</g>
<!-- node_8 -->
<g id="node13" class="node"><title>node_8</title>
<polygon fill="none" stroke="black" points="339.632,-66.4211 339.632,-91.4211 394.632,-91.4211 394.632,-66.4211 339.632,-66.4211"/>
<text text-anchor="start" x="363.632" y="-75.2211" font-family="Times,serif" font-size="14.00">3</text>
<polygon fill="none" stroke="black" points="339.632,-37.4211 339.632,-66.4211 368.632,-66.4211 368.632,-37.4211 339.632,-37.4211"/>
<text text-anchor="start" x="346.632" y="-48.2211" font-family="Times,serif" font-size="14.00"> 2 </text>
<polygon fill="none" stroke="black" points="368.632,-37.4211 368.632,-66.4211 394.632,-66.4211 394.632,-37.4211 368.632,-37.4211"/>
<text text-anchor="start" x="373.632" y="-48.2211" font-family="Times,serif" font-size="14.00"> ϕ </text>
</g>
<!-- node_8&#45;&gt;node_4 -->
<g id="edge10" class="edge"><title>node_8:L&#45;&gt;node_4</title>
<path fill="none" stroke="#cd0000" d="M339.632,-51.4211C339.632,-51.4211 281.472,-26.003 241.5,-8.53392"/>
<polygon fill="#cd0000" stroke="#cd0000" points="242.841,-5.30054 232.277,-4.50295 240.038,-11.7147 242.841,-5.30054"/>
</g>
<!-- node_9 -->
<g id="node14" class="node"><title>node_9</title>
<polygon fill="none" stroke="black" points="-112.868,-66.4211 -112.868,-91.4211 -44.8684,-91.4211 -44.8684,-66.4211 -112.868,-66.4211"/>
<text text-anchor="start" x="-87.8684" y="-75.2211" font-family="Times,serif" font-size="14.00">1/4</text>
<polygon fill="none" stroke="black" points="-112.868,-37.4211 -112.868,-66.4211 -83.8684,-66.4211 -83.8684,-37.4211 -112.868,-37.4211"/>
<text text-anchor="start" x="-105.868" y="-48.2211" font-family="Times,serif" font-size="14.00"> 0 </text>
<polygon fill="none" stroke="black" points="-83.8684,-37.4211 -83.8684,-66.4211 -44.8684,-66.4211 -44.8684,-37.4211 -83.8684,-37.4211"/>
<text text-anchor="start" x="-76.8684" y="-48.2211" font-family="Times,serif" font-size="14.00"> 1/2 </text>
</g>
<!-- node_9&#45;&gt;node_0 -->
<g id="edge11" class="edge"><title>node_9:L&#45;&gt;node_0</title>
<path fill="none" stroke="#cd0000" d="M-98.8684,-37.4211C-98.8684,-37.4211 -109.637,61.86 -115.565,116.51"/>
<polygon fill="#cd0000" stroke="#cd0000" points="-112.088,116.917 -116.646,126.481 -119.047,116.162 -112.088,116.917"/>
</g>
<!-- node_9&#45;&gt;node_5 -->
<g id="edge12" class="edge"><title>node_9:R&#45;&gt;node_5</title>
<path fill="none" stroke="#0000cd" d="M-63.8684,-37.4211C-63.8684,-37.4211 -61.8408,-33.8429 -58.9291,-28.7046"/>
<polygon fill="#0000cd" stroke="#0000cd" points="-55.6752,-30.0617 -53.7901,-19.6359 -61.7654,-26.6105 -55.6752,-30.0617"/>
</g>
<!-- node_10 -->
<g id="node15" class="node"><title>node_10</title>
<polygon fill="none" stroke="black" points="-195.868,-66.4211 -195.868,-91.4211 -122.868,-91.4211 -122.868,-66.4211 -195.868,-66.4211"/>
<text text-anchor="start" x="-170.368" y="-75.2211" font-family="Times,serif" font-size="14.00">&#45;1/4</text>
<polygon fill="none" stroke="black" points="-195.868,-37.4211 -195.868,-66.4211 -151.868,-66.4211 -151.868,-37.4211 -195.868,-37.4211"/>
<text text-anchor="start" x="-188.868" y="-48.2211" font-family="Times,serif" font-size="14.00"> &#45;1/2 </text>
<polygon fill="none" stroke="black" points="-151.868,-37.4211 -151.868,-66.4211 -122.868,-66.4211 -122.868,-37.4211 -151.868,-37.4211"/>
<text text-anchor="start" x="-144.868" y="-48.2211" font-family="Times,serif" font-size="14.00"> 0 </text>
</g>
<!-- node_10&#45;&gt;node_0 -->
<g id="edge14" class="edge"><title>node_10:R&#45;&gt;node_0</title>
<path fill="none" stroke="#0000cd" d="M-136.868,-37.4211C-136.868,-37.4211 -127.676,61.86 -122.616,116.51"/>
<polygon fill="#0000cd" stroke="#0000cd" points="-119.129,116.201 -121.692,126.481 -126.099,116.847 -119.129,116.201"/>
</g>
<!-- node_10&#45;&gt;node_6 -->
<g id="edge13" class="edge"><title>node_10:L&#45;&gt;node_6</title>
<path fill="none" stroke="#cd0000" d="M-173.868,-37.4211C-173.868,-37.4211 -176.077,-33.6705 -179.219,-28.3349"/>
<polygon fill="#cd0000" stroke="#cd0000" points="-176.252,-26.4767 -184.342,-19.6359 -182.283,-30.0288 -176.252,-26.4767"/>
</g>
<!-- node_11 -->
<g id="node16" class="node"><title>node_11</title>
<polygon fill="none" stroke="black" points="-31.8684,-66.4211 -31.8684,-91.4211 36.1316,-91.4211 36.1316,-66.4211 -31.8684,-66.4211"/>
<text text-anchor="start" x="-6.86842" y="-75.2211" font-family="Times,serif" font-size="14.00">3/4</text>
<polygon fill="none" stroke="black" points="-31.8684,-37.4211 -31.8684,-66.4211 7.13158,-66.4211 7.13158,-37.4211 -31.8684,-37.4211"/>
<text text-anchor="start" x="-24.8684" y="-48.2211" font-family="Times,serif" font-size="14.00"> 1/2 </text>
<polygon fill="none" stroke="black" points="7.13158,-37.4211 7.13158,-66.4211 36.1316,-66.4211 36.1316,-37.4211 7.13158,-37.4211"/>
<text text-anchor="start" x="14.1316" y="-48.2211" font-family="Times,serif" font-size="14.00"> 1 </text>
</g>
<!-- node_11&#45;&gt;node_2 -->
<g id="edge16" class="edge"><title>node_11:R&#45;&gt;node_2</title>
<path fill="none" stroke="#0000cd" d="M22.1316,-37.4211C22.1316,-37.4211 30.0894,7.99687 36.0889,42.2377"/>
<polygon fill="#0000cd" stroke="#0000cd" points="39.5985,41.9887 37.8769,52.4427 32.7035,43.1968 39.5985,41.9887"/>
</g>
<!-- node_11&#45;&gt;node_5 -->
<g id="edge15" class="edge"><title>node_11:L&#45;&gt;node_5</title>
<path fill="none" stroke="#cd0000" d="M-12.8684,-37.4211C-12.8684,-37.4211 -14.896,-33.8429 -17.8077,-28.7046"/>
<polygon fill="#cd0000" stroke="#cd0000" points="-14.9714,-26.6105 -22.9467,-19.6359 -21.0616,-30.0617 -14.9714,-26.6105"/>
</g>
<!-- node_12 -->
<g id="node17" class="node"><title>node_12</title>
<polygon fill="none" stroke="black" points="-278.868,-66.4211 -278.868,-91.4211 -201.868,-91.4211 -201.868,-66.4211 -278.868,-66.4211"/>
<text text-anchor="start" x="-251.368" y="-75.2211" font-family="Times,serif" font-size="14.00">&#45;3/4</text>
<polygon fill="none" stroke="black" points="-278.868,-37.4211 -278.868,-66.4211 -245.868,-66.4211 -245.868,-37.4211 -278.868,-37.4211"/>
<text text-anchor="start" x="-271.868" y="-48.2211" font-family="Times,serif" font-size="14.00"> &#45;1 </text>
<polygon fill="none" stroke="black" points="-245.868,-37.4211 -245.868,-66.4211 -201.868,-66.4211 -201.868,-37.4211 -245.868,-37.4211"/>
<text text-anchor="start" x="-238.868" y="-48.2211" font-family="Times,serif" font-size="14.00"> &#45;1/2 </text>
</g>
<!-- node_12&#45;&gt;node_1 -->
<g id="edge17" class="edge"><title>node_12:L&#45;&gt;node_1</title>
<path fill="none" stroke="#cd0000" d="M-262.868,-37.4211C-262.868,-37.4211 -270.05,7.99687 -275.464,42.2377"/>
<polygon fill="#cd0000" stroke="#cd0000" points="-272.059,43.1121 -277.078,52.4427 -278.973,42.0188 -272.059,43.1121"/>
</g>
<!-- node_12&#45;&gt;node_6 -->
<g id="edge18" class="edge"><title>node_12:R&#45;&gt;node_6</title>
<path fill="none" stroke="#0000cd" d="M-223.868,-37.4211C-223.868,-37.4211 -222,-33.8429 -219.317,-28.7046"/>
<polygon fill="#0000cd" stroke="#0000cd" points="-216.107,-30.1201 -214.581,-19.6359 -222.312,-26.8798 -216.107,-30.1201"/>
</g>
<!-- node_13 -->
<g id="node18" class="node"><title>node_13</title>
<polygon fill="none" stroke="black" points="94.6316,-66.4211 94.6316,-91.4211 152.632,-91.4211 152.632,-66.4211 94.6316,-66.4211"/>
<text text-anchor="start" x="114.632" y="-75.2211" font-family="Times,serif" font-size="14.00">3/2</text>
<polygon fill="none" stroke="black" points="94.6316,-37.4211 94.6316,-66.4211 123.632,-66.4211 123.632,-37.4211 94.6316,-37.4211"/>
<text text-anchor="start" x="101.632" y="-48.2211" font-family="Times,serif" font-size="14.00"> 1 </text>
<polygon fill="none" stroke="black" points="123.632,-37.4211 123.632,-66.4211 152.632,-66.4211 152.632,-37.4211 123.632,-37.4211"/>
<text text-anchor="start" x="130.632" y="-48.2211" font-family="Times,serif" font-size="14.00"> 2 </text>
</g>
<!-- node_13&#45;&gt;node_2 -->
<g id="edge19" class="edge"><title>node_13:L&#45;&gt;node_2</title>
<path fill="none" stroke="#cd0000" d="M108.632,-37.4211C108.632,-37.4211 82.3443,9.17907 62.9498,43.5603"/>
<polygon fill="#cd0000" stroke="#cd0000" points="65.9009,45.4526 57.9392,52.4427 59.804,42.0133 65.9009,45.4526"/>
</g>
<!-- node_13&#45;&gt;node_4 -->
<g id="edge20" class="edge"><title>node_13:R&#45;&gt;node_4</title>
<path fill="none" stroke="#0000cd" d="M152.632,-51.4211C152.632,-51.4211 162.737,-39.9557 174.038,-27.1335"/>
<polygon fill="#0000cd" stroke="#0000cd" points="176.776,-29.3199 180.762,-19.5035 171.524,-24.6914 176.776,-29.3199"/>
</g>
<!-- node_14 -->
<g id="node19" class="node"><title>node_14</title>
<polygon fill="none" stroke="black" points="-395.368,-66.4211 -395.368,-91.4211 -329.368,-91.4211 -329.368,-66.4211 -395.368,-66.4211"/>
<text text-anchor="start" x="-373.368" y="-75.2211" font-family="Times,serif" font-size="14.00">&#45;3/2</text>
<polygon fill="none" stroke="black" points="-395.368,-37.4211 -395.368,-66.4211 -362.368,-66.4211 -362.368,-37.4211 -395.368,-37.4211"/>
<text text-anchor="start" x="-388.368" y="-48.2211" font-family="Times,serif" font-size="14.00"> &#45;2 </text>
<polygon fill="none" stroke="black" points="-362.368,-37.4211 -362.368,-66.4211 -329.368,-66.4211 -329.368,-37.4211 -362.368,-37.4211"/>
<text text-anchor="start" x="-355.368" y="-48.2211" font-family="Times,serif" font-size="14.00"> &#45;1 </text>
</g>
<!-- node_14&#45;&gt;node_1 -->
<g id="edge22" class="edge"><title>node_14:R&#45;&gt;node_1</title>
<path fill="none" stroke="#0000cd" d="M-345.368,-37.4211C-345.368,-37.4211 -319.878,9.17907 -301.071,43.5603"/>
<polygon fill="#0000cd" stroke="#0000cd" points="-297.941,41.9898 -296.212,52.4427 -304.082,45.3492 -297.941,41.9898"/>
</g>
<!-- node_14&#45;&gt;node_3 -->
<g id="edge21" class="edge"><title>node_14:L&#45;&gt;node_3</title>
<path fill="none" stroke="#cd0000" d="M-395.368,-51.4211C-395.368,-51.4211 -404.523,-40.169 -414.836,-27.4926"/>
<polygon fill="#cd0000" stroke="#cd0000" points="-412.309,-25.0519 -421.335,-19.5035 -417.739,-29.4695 -412.309,-25.0519"/>
</g>
</g>
</svg>
