<?xml version="1.0" encoding="UTF-8" standalone="no"?>
<!DOCTYPE svg PUBLIC "-//W3C//DTD SVG 1.1//EN"
 "http://www.w3.org/Graphics/SVG/1.1/DTD/svg11.dtd">
<!-- Generated by graphviz version 2.38.0 (20140413.2041)
 -->
<!-- Title: dyadic_tree Pages: 1 -->
<svg width="1034pt" height="260pt"
 viewBox="0.00 0.00 1034.00 260.00" xmlns="http://www.w3.org/2000/svg" xmlns:xlink="http://www.w3.org/1999/xlink">
<g id="graph0" class="graph" transform="scale(1 1) rotate(0) translate(517 74.8)">
<title>dyadic_tree</title>
<polygon fill="white" stroke="none" points="-517,185.2 -517,-74.8 517,-74.8 517,185.2 -517,185.2"/>
<!-- node_0 -->
<g id="node1" class="node"><title>node_0</title>
<ellipse fill="none" stroke="#cd0000" cx="0" cy="163.2" rx="27" ry="18"/>
<text text-anchor="middle" x="0" y="166.9" font-family="Times,serif" font-size="14.00">0</text>
</g>
<!-- node_1 -->
<g id="node2" class="node"><title>node_1</title>
<ellipse fill="none" stroke="#0000cd" cx="-162" cy="91.2" rx="27" ry="18"/>
<text text-anchor="middle" x="-162" y="94.9" font-family="Times,serif" font-size="14.00">&#45;1</text>
</g>
<!-- node_1&#45;&gt;node_0 -->
<g id="edge1" class="edge"><title>node_1&#45;&gt;node_0</title>
<path fill="none" stroke="black" d="M-139.475,101.211C-111.504,113.642 -63.6157,134.926 -31.8838,149.029"/>
<polygon fill="black" stroke="black" points="-30.3113,145.898 -22.5946,153.158 -33.1543,152.295 -30.3113,145.898"/>
</g>
<!-- node_2 -->
<g id="node3" class="node"><title>node_2</title>
<ellipse fill="none" stroke="#0000cd" cx="162" cy="91.2" rx="27" ry="18"/>
<text text-anchor="middle" x="162" y="94.9" font-family="Times,serif" font-size="14.00">1</text>
</g>
<!-- node_2&#45;&gt;node_0 -->
<g id="edge2" class="edge"><title>node_2&#45;&gt;node_0</title>
<path fill="none" stroke="black" d="M139.475,101.211C111.504,113.642 63.6157,134.926 31.8838,149.029"/>
<polygon fill="black" stroke="black" points="33.1543,152.295 22.5946,153.158 30.3113,145.898 33.1543,152.295"/>
</g>
<!-- node_3 -->
<g id="node4" class="node"><title>node_3</title>
<ellipse fill="none" stroke="#cd0000" cx="-324" cy="19.2" rx="27" ry="18"/>
<text text-anchor="middle" x="-324" y="22.9" font-family="Times,serif" font-size="14.00">&#45;2</text>
</g>
<!-- node_3&#45;&gt;node_1 -->
<g id="edge3" class="edge"><title>node_3&#45;&gt;node_1</title>
<path fill="none" stroke="black" d="M-301.475,29.2113C-273.504,41.6425 -225.616,62.9264 -193.884,77.0294"/>
<polygon fill="black" stroke="black" points="-192.311,73.8981 -184.595,81.1579 -195.154,80.2948 -192.311,73.8981"/>
</g>
<!-- node_4 -->
<g id="node5" class="node"><title>node_4</title>
<ellipse fill="none" stroke="#cd0000" cx="324" cy="19.2" rx="27" ry="18"/>
<text text-anchor="middle" x="324" y="22.9" font-family="Times,serif" font-size="14.00">2</text>
</g>
<!-- node_4&#45;&gt;node_2 -->
<g id="edge4" class="edge"><title>node_4&#45;&gt;node_2</title>
<path fill="none" stroke="black" d="M301.475,29.2113C273.504,41.6425 225.616,62.9264 193.884,77.0294"/>
<polygon fill="black" stroke="black" points="195.154,80.2948 184.595,81.1579 192.311,73.8981 195.154,80.2948"/>
</g>
<!-- node_5 -->
<g id="node6" class="node"><title>node_5</title>
<ellipse fill="none" stroke="#00cd00" cx="81" cy="19.2" rx="27" ry="18"/>
<text text-anchor="middle" x="81" y="22.9" font-family="Times,serif" font-size="14.00">1/2</text>
</g>
<!-- node_5&#45;&gt;node_0 -->
<g id="edge5" class="edge"><title>node_5&#45;&gt;node_0</title>
<path fill="none" stroke="black" d="M71.3902,36.2842C57.3234,61.2918 31.0161,108.06 14.5644,137.308"/>
<polygon fill="black" stroke="black" points="17.5505,139.138 9.59734,146.138 11.4495,135.706 17.5505,139.138"/>
</g>
<!-- node_5&#45;&gt;node_2 -->
<g id="edge6" class="edge"><title>node_5&#45;&gt;node_2</title>
<path fill="none" stroke="black" d="M97.3916,33.7703C109.029,44.1149 124.843,58.1714 137.912,69.7884"/>
<polygon fill="black" stroke="black" points="140.484,67.3918 145.633,76.6514 135.833,72.6237 140.484,67.3918"/>
</g>
<!-- node_6 -->
<g id="node7" class="node"><title>node_6</title>
<ellipse fill="none" stroke="#00cd00" cx="-81" cy="19.2" rx="27" ry="18"/>
<text text-anchor="middle" x="-81" y="22.9" font-family="Times,serif" font-size="14.00">&#45;1/2</text>
</g>
<!-- node_6&#45;&gt;node_0 -->
<g id="edge8" class="edge"><title>node_6&#45;&gt;node_0</title>
<path fill="none" stroke="black" d="M-71.3902,36.2842C-57.3234,61.2918 -31.0161,108.06 -14.5644,137.308"/>
<polygon fill="black" stroke="black" points="-11.4495,135.706 -9.59734,146.138 -17.5505,139.138 -11.4495,135.706"/>
</g>
<!-- node_6&#45;&gt;node_1 -->
<g id="edge7" class="edge"><title>node_6&#45;&gt;node_1</title>
<path fill="none" stroke="black" d="M-97.3916,33.7703C-109.029,44.1149 -124.843,58.1714 -137.912,69.7884"/>
<polygon fill="black" stroke="black" points="-135.833,72.6237 -145.633,76.6514 -140.484,67.3918 -135.833,72.6237"/>
</g>
<!-- node_7 -->
<g id="node8" class="node"><title>node_7</title>
<ellipse fill="none" stroke="#0000cd" cx="-486" cy="-52.8" rx="27" ry="18"/>
<text text-anchor="middle" x="-486" y="-49.1" font-family="Times,serif" font-size="14.00">&#45;3</text>
</g>
<!-- node_7&#45;&gt;node_3 -->
<g id="edge9" class="edge"><title>node_7&#45;&gt;node_3</title>
<path fill="none" stroke="black" d="M-463.475,-42.7887C-435.504,-30.3575 -387.616,-9.07363 -355.884,5.02942"/>
<polygon fill="black" stroke="black" points="-354.311,1.89815 -346.595,9.15794 -357.154,8.29484 -354.311,1.89815"/>
</g>
<!-- node_8 -->
<g id="node9" class="node"><title>node_8</title>
<ellipse fill="none" stroke="#0000cd" cx="486" cy="-52.8" rx="27" ry="18"/>
<text text-anchor="middle" x="486" y="-49.1" font-family="Times,serif" font-size="14.00">3</text>
</g>
<!-- node_8&#45;&gt;node_4 -->
<g id="edge10" class="edge"><title>node_8&#45;&gt;node_4</title>
<path fill="none" stroke="black" d="M463.475,-42.7887C435.504,-30.3575 387.616,-9.07363 355.884,5.02942"/>
<polygon fill="black" stroke="black" points="357.154,8.29484 346.595,9.15794 354.311,1.89815 357.154,8.29484"/>
</g>
<!-- node_9 -->
<g id="node10" class="node"><title>node_9</title>
<ellipse fill="none" stroke="#0000cd" cx="40.5" cy="-52.8" rx="27" ry="18"/>
<text text-anchor="middle" x="40.5" y="-49.1" font-family="Times,serif" font-size="14.00">1/4</text>
</g>
<!-- node_9&#45;&gt;node_0 -->
<g id="edge11" class="edge"><title>node_9&#45;&gt;node_0</title>
<path fill="none" stroke="black" d="M37.1167,-34.7555C30.0589,2.88561 13.7225,90.0133 5.27335,135.075"/>
<polygon fill="black" stroke="black" points="8.68522,135.871 3.4022,145.055 1.80511,134.581 8.68522,135.871"/>
</g>
<!-- node_9&#45;&gt;node_5 -->
<g id="edge12" class="edge"><title>node_9&#45;&gt;node_5</title>
<path fill="none" stroke="black" d="M50.0979,-35.737C54.9904,-27.0393 61.0425,-16.2799 66.4904,-6.59478"/>
<polygon fill="black" stroke="black" points="69.6188,-8.17222 71.471,2.25948 63.5178,-4.74035 69.6188,-8.17222"/>
</g>
<!-- node_10 -->
<g id="node11" class="node"><title>node_10</title>
<ellipse fill="none" stroke="#0000cd" cx="-40.5" cy="-52.8" rx="27" ry="18"/>
<text text-anchor="middle" x="-40.5" y="-49.1" font-family="Times,serif" font-size="14.00">&#45;1/4</text>
</g>
<!-- node_10&#45;&gt;node_0 -->
<g id="edge14" class="edge"><title>node_10&#45;&gt;node_0</title>
<path fill="none" stroke="black" d="M-37.1167,-34.7555C-30.0589,2.88561 -13.7225,90.0133 -5.27335,135.075"/>
<polygon fill="black" stroke="black" points="-1.80511,134.581 -3.4022,145.055 -8.68522,135.871 -1.80511,134.581"/>
</g>
<!-- node_10&#45;&gt;node_6 -->
<g id="edge13" class="edge"><title>node_10&#45;&gt;node_6</title>
<path fill="none" stroke="black" d="M-50.0979,-35.737C-54.9904,-27.0393 -61.0425,-16.2799 -66.4904,-6.59478"/>
<polygon fill="black" stroke="black" points="-63.5178,-4.74035 -71.471,2.25948 -69.6188,-8.17222 -63.5178,-4.74035"/>
</g>
<!-- node_11 -->
<g id="node12" class="node"><title>node_11</title>
<ellipse fill="none" stroke="#cd0000" cx="121.5" cy="-52.8" rx="27" ry="18"/>
<text text-anchor="middle" x="121.5" y="-49.1" font-family="Times,serif" font-size="14.00">3/4</text>
</g>
<!-- node_11&#45;&gt;node_2 -->
<g id="edge16" class="edge"><title>node_11&#45;&gt;node_2</title>
<path fill="none" stroke="black" d="M126.547,-34.8535C133.497,-10.1431 146.077,34.5848 154.231,63.5766"/>
<polygon fill="black" stroke="black" points="157.678,62.9055 157.016,73.4796 150.939,64.8008 157.678,62.9055"/>
</g>
<!-- node_11&#45;&gt;node_5 -->
<g id="edge15" class="edge"><title>node_11&#45;&gt;node_5</title>
<path fill="none" stroke="black" d="M111.902,-35.737C107.01,-27.0393 100.957,-16.2799 95.5096,-6.59478"/>
<polygon fill="black" stroke="black" points="98.4822,-4.74035 90.529,2.25948 92.3812,-8.17222 98.4822,-4.74035"/>
</g>
<!-- node_12 -->
<g id="node13" class="node"><title>node_12</title>
<ellipse fill="none" stroke="#cd0000" cx="-121.5" cy="-52.8" rx="27" ry="18"/>
<text text-anchor="middle" x="-121.5" y="-49.1" font-family="Times,serif" font-size="14.00">&#45;3/4</text>
</g>
<!-- node_12&#45;&gt;node_1 -->
<g id="edge17" class="edge"><title>node_12&#45;&gt;node_1</title>
<path fill="none" stroke="black" d="M-126.547,-34.8535C-133.497,-10.1431 -146.077,34.5848 -154.231,63.5766"/>
<polygon fill="black" stroke="black" points="-150.939,64.8008 -157.016,73.4796 -157.678,62.9055 -150.939,64.8008"/>
</g>
<!-- node_12&#45;&gt;node_6 -->
<g id="edge18" class="edge"><title>node_12&#45;&gt;node_6</title>
<path fill="none" stroke="black" d="M-111.902,-35.737C-107.01,-27.0393 -100.957,-16.2799 -95.5096,-6.59478"/>
<polygon fill="black" stroke="black" points="-92.3812,-8.17222 -90.529,2.25948 -98.4822,-4.74035 -92.3812,-8.17222"/>
</g>
<!-- node_13 -->
<g id="node14" class="node"><title>node_13</title>
<ellipse fill="none" stroke="#00cd00" cx="243" cy="-52.8" rx="27" ry="18"/>
<text text-anchor="middle" x="243" y="-49.1" font-family="Times,serif" font-size="14.00">3/2</text>
</g>
<!-- node_13&#45;&gt;node_2 -->
<g id="edge19" class="edge"><title>node_13&#45;&gt;node_2</title>
<path fill="none" stroke="black" d="M233.39,-35.7158C219.323,-10.7082 193.016,36.0603 176.564,65.3076"/>
<polygon fill="black" stroke="black" points="179.551,67.1382 171.597,74.1381 173.449,63.7064 179.551,67.1382"/>
</g>
<!-- node_13&#45;&gt;node_4 -->
<g id="edge20" class="edge"><title>node_13&#45;&gt;node_4</title>
<path fill="none" stroke="black" d="M259.392,-38.2297C271.029,-27.8851 286.843,-13.8286 299.912,-2.21162"/>
<polygon fill="black" stroke="black" points="302.484,-4.60822 307.633,4.6514 297.833,0.623665 302.484,-4.60822"/>
</g>
<!-- node_14 -->
<g id="node15" class="node"><title>node_14</title>
<ellipse fill="none" stroke="#00cd00" cx="-243" cy="-52.8" rx="27" ry="18"/>
<text text-anchor="middle" x="-243" y="-49.1" font-family="Times,serif" font-size="14.00">&#45;3/2</text>
</g>
<!-- node_14&#45;&gt;node_1 -->
<g id="edge22" class="edge"><title>node_14&#45;&gt;node_1</title>
<path fill="none" stroke="black" d="M-233.39,-35.7158C-219.323,-10.7082 -193.016,36.0603 -176.564,65.3076"/>
<polygon fill="black" stroke="black" points="-173.449,63.7064 -171.597,74.1381 -179.551,67.1382 -173.449,63.7064"/>
</g>
<!-- node_14&#45;&gt;node_3 -->
<g id="edge21" class="edge"><title>node_14&#45;&gt;node_3</title>
<path fill="none" stroke="black" d="M-259.392,-38.2297C-271.029,-27.8851 -286.843,-13.8286 -299.912,-2.21162"/>
<polygon fill="black" stroke="black" points="-297.833,0.623665 -307.633,4.6514 -302.484,-4.60822 -297.833,0.623665"/>
</g>
</g>
</svg>
