<?xml version="1.0" encoding="UTF-8" standalone="no"?>
<!DOCTYPE svg PUBLIC "-//W3C//DTD SVG 1.1//EN"
 "http://www.w3.org/Graphics/SVG/1.1/DTD/svg11.dtd">
<!-- Generated by graphviz version 2.40.1 (20161225.0304)
 -->
<!-- Title: dyadic_tree Pages: 1 -->
<svg width="3126pt" height="346pt"
 viewBox="0.00 0.00 3126.24 346.00" xmlns="http://www.w3.org/2000/svg" xmlns:xlink="http://www.w3.org/1999/xlink">
<g id="graph0" class="graph" transform="scale(1 1) rotate(0) translate(4 342)">
<title>dyadic_tree</title>
<polygon fill="#ffffff" stroke="transparent" points="-4,4 -4,-342 3122.2441,-342 3122.2441,4 -4,4"/>
<!-- node_0 -->
<g id="node1" class="node">
<title>node_0</title>
<polygon fill="none" stroke="#000000" points="1443.5,-24 1443.5,-48 1493.5,-48 1493.5,-24 1443.5,-24"/>
<text text-anchor="start" x="1465" y="-31.8" font-family="Times,serif" font-size="14.00" fill="#000000">0</text>
<polygon fill="none" stroke="#000000" points="1443.5,0 1443.5,-24 1468.5,-24 1468.5,0 1443.5,0"/>
<text text-anchor="start" x="1448.2788" y="-7.8" font-family="Times,serif" font-size="14.00" fill="#000000"> ϕ </text>
<polygon fill="none" stroke="#000000" points="1468.5,0 1468.5,-24 1493.5,-24 1493.5,0 1468.5,0"/>
<text text-anchor="start" x="1473.2788" y="-7.8" font-family="Times,serif" font-size="14.00" fill="#000000"> ϕ </text>
</g>
<!-- node_day_0 -->
<g id="node2" class="node">
<title>node_day_0</title>
<text text-anchor="middle" x="3088.5" y="-18.6" font-family="Times,serif" font-size="18.00" fill="#000000">Day 0</text>
</g>
<!-- node_day_1 -->
<g id="node3" class="node">
<title>node_day_1</title>
<text text-anchor="middle" x="3088.5" y="-90.6" font-family="Times,serif" font-size="18.00" fill="#000000">Day 1</text>
</g>
<!-- node_1 -->
<g id="node4" class="node">
<title>node_1</title>
<polygon fill="none" stroke="#000000" points="1082.5,-98 1082.5,-122 1135.5,-122 1135.5,-98 1082.5,-98"/>
<text text-anchor="start" x="1103.1689" y="-105.8" font-family="Times,serif" font-size="14.00" fill="#000000">&#45;1</text>
<polygon fill="none" stroke="#000000" points="1082.5,-70 1082.5,-98 1107.5,-98 1107.5,-70 1082.5,-70"/>
<text text-anchor="start" x="1087.2788" y="-80.1418" font-family="Times,serif" font-size="14.00" fill="#000000"> ϕ </text>
<polygon fill="none" stroke="#000000" points="1107.5,-70 1107.5,-98 1135.5,-98 1135.5,-70 1107.5,-70"/>
<text text-anchor="start" x="1114.5" y="-79.8" font-family="Times,serif" font-size="14.00" fill="#000000"> 0 </text>
</g>
<!-- node_1&#45;&gt;node_0 -->
<g id="edge1" class="edge">
<title>node_1:R&#45;&gt;node_0</title>
<path fill="none" stroke="#000000" d="M1135.5,-84C1135.5,-84 1344.3909,-46.362 1431.28,-30.7063"/>
<polygon fill="#000000" stroke="#000000" points="1432.0284,-34.1279 1441.2492,-28.9101 1430.787,-27.2388 1432.0284,-34.1279"/>
</g>
<!-- node_2 -->
<g id="node5" class="node">
<title>node_2</title>
<polygon fill="none" stroke="#000000" points="1802.5,-98 1802.5,-122 1855.5,-122 1855.5,-98 1802.5,-98"/>
<text text-anchor="start" x="1825.5" y="-105.8" font-family="Times,serif" font-size="14.00" fill="#000000">1</text>
<polygon fill="none" stroke="#000000" points="1802.5,-70 1802.5,-98 1830.5,-98 1830.5,-70 1802.5,-70"/>
<text text-anchor="start" x="1809.5" y="-79.8" font-family="Times,serif" font-size="14.00" fill="#000000"> 0 </text>
<polygon fill="none" stroke="#000000" points="1830.5,-70 1830.5,-98 1855.5,-98 1855.5,-70 1830.5,-70"/>
<text text-anchor="start" x="1835.2788" y="-80.1418" font-family="Times,serif" font-size="14.00" fill="#000000"> ϕ </text>
</g>
<!-- node_2&#45;&gt;node_0 -->
<g id="edge2" class="edge">
<title>node_2:L&#45;&gt;node_0</title>
<path fill="none" stroke="#000000" d="M1802.5,-84C1802.5,-84 1592.485,-46.2728 1505.5225,-30.6507"/>
<polygon fill="#000000" stroke="#000000" points="1506.011,-27.1826 1495.5497,-28.8592 1504.7733,-34.0723 1506.011,-27.1826"/>
</g>
<!-- node_day_2 -->
<g id="node6" class="node">
<title>node_day_2</title>
<text text-anchor="middle" x="3088.5" y="-162.6" font-family="Times,serif" font-size="18.00" fill="#000000">Day 2</text>
</g>
<!-- node_3 -->
<g id="node7" class="node">
<title>node_3</title>
<polygon fill="none" stroke="#000000" points="720.5,-170 720.5,-194 777.5,-194 777.5,-170 720.5,-170"/>
<text text-anchor="start" x="743.1689" y="-177.8" font-family="Times,serif" font-size="14.00" fill="#000000">&#45;2</text>
<polygon fill="none" stroke="#000000" points="720.5,-142 720.5,-170 745.5,-170 745.5,-142 720.5,-142"/>
<text text-anchor="start" x="725.2788" y="-152.1418" font-family="Times,serif" font-size="14.00" fill="#000000"> ϕ </text>
<polygon fill="none" stroke="#000000" points="745.5,-142 745.5,-170 777.5,-170 777.5,-142 745.5,-142"/>
<text text-anchor="start" x="752.1689" y="-151.8" font-family="Times,serif" font-size="14.00" fill="#000000"> &#45;1 </text>
</g>
<!-- node_3&#45;&gt;node_1 -->
<g id="edge3" class="edge">
<title>node_3:R&#45;&gt;node_1</title>
<path fill="none" stroke="#000000" d="M777.5,-156C777.5,-156 985.1363,-118.362 1071.5036,-102.7063"/>
<polygon fill="#000000" stroke="#000000" points="1072.1975,-106.1376 1081.4129,-100.9101 1070.9489,-99.2499 1072.1975,-106.1376"/>
</g>
<!-- node_4 -->
<g id="node8" class="node">
<title>node_4</title>
<polygon fill="none" stroke="#000000" points="2162.5,-170 2162.5,-194 2215.5,-194 2215.5,-170 2162.5,-170"/>
<text text-anchor="start" x="2185.5" y="-177.8" font-family="Times,serif" font-size="14.00" fill="#000000">2</text>
<polygon fill="none" stroke="#000000" points="2162.5,-142 2162.5,-170 2190.5,-170 2190.5,-142 2162.5,-142"/>
<text text-anchor="start" x="2169.5" y="-151.8" font-family="Times,serif" font-size="14.00" fill="#000000"> 1 </text>
<polygon fill="none" stroke="#000000" points="2190.5,-142 2190.5,-170 2215.5,-170 2215.5,-142 2190.5,-142"/>
<text text-anchor="start" x="2195.2788" y="-152.1418" font-family="Times,serif" font-size="14.00" fill="#000000"> ϕ </text>
</g>
<!-- node_4&#45;&gt;node_2 -->
<g id="edge4" class="edge">
<title>node_4:L&#45;&gt;node_2</title>
<path fill="none" stroke="#000000" d="M2162.5,-156C2162.5,-156 1952.485,-118.2728 1865.5225,-102.6507"/>
<polygon fill="#000000" stroke="#000000" points="1866.011,-99.1826 1855.5497,-100.8592 1864.7733,-106.0723 1866.011,-99.1826"/>
</g>
<!-- node_5 -->
<g id="node9" class="node">
<title>node_5</title>
<polygon fill="none" stroke="#000000" points="1620.5,-170 1620.5,-194 1676.5,-194 1676.5,-170 1620.5,-170"/>
<text text-anchor="start" x="1639.5552" y="-177.8" font-family="Times,serif" font-size="14.00" fill="#000000">1/2</text>
<polygon fill="none" stroke="#000000" points="1620.5,-142 1620.5,-170 1648.5,-170 1648.5,-142 1620.5,-142"/>
<text text-anchor="start" x="1627.5" y="-151.8" font-family="Times,serif" font-size="14.00" fill="#000000"> 0 </text>
<polygon fill="none" stroke="#000000" points="1648.5,-142 1648.5,-170 1676.5,-170 1676.5,-142 1648.5,-142"/>
<text text-anchor="start" x="1655.5" y="-151.8" font-family="Times,serif" font-size="14.00" fill="#000000"> 1 </text>
</g>
<!-- node_5&#45;&gt;node_0 -->
<g id="edge5" class="edge">
<title>node_5:L&#45;&gt;node_0</title>
<path fill="none" stroke="#000000" d="M1620.5,-156C1620.5,-156 1548.3226,-93.3196 1503.4419,-54.3443"/>
<polygon fill="#000000" stroke="#000000" points="1505.5198,-51.5132 1495.6746,-47.599 1500.93,-56.7985 1505.5198,-51.5132"/>
</g>
<!-- node_5&#45;&gt;node_2 -->
<g id="edge6" class="edge">
<title>node_5:R&#45;&gt;node_2</title>
<path fill="none" stroke="#000000" d="M1676.5,-156C1676.5,-156 1746.8953,-128.2124 1791.8731,-110.458"/>
<polygon fill="#000000" stroke="#000000" points="1793.309,-113.6541 1801.3254,-106.7268 1790.7388,-107.143 1793.309,-113.6541"/>
</g>
<!-- node_6 -->
<g id="node10" class="node">
<title>node_6</title>
<polygon fill="none" stroke="#000000" points="1258.5,-170 1258.5,-194 1318.5,-194 1318.5,-170 1258.5,-170"/>
<text text-anchor="start" x="1277.2241" y="-177.8" font-family="Times,serif" font-size="14.00" fill="#000000">&#45;1/2</text>
<polygon fill="none" stroke="#000000" points="1258.5,-142 1258.5,-170 1290.5,-170 1290.5,-142 1258.5,-142"/>
<text text-anchor="start" x="1265.1689" y="-151.8" font-family="Times,serif" font-size="14.00" fill="#000000"> &#45;1 </text>
<polygon fill="none" stroke="#000000" points="1290.5,-142 1290.5,-170 1318.5,-170 1318.5,-142 1290.5,-142"/>
<text text-anchor="start" x="1297.5" y="-151.8" font-family="Times,serif" font-size="14.00" fill="#000000"> 0 </text>
</g>
<!-- node_6&#45;&gt;node_0 -->
<g id="edge8" class="edge">
<title>node_6:R&#45;&gt;node_0</title>
<path fill="none" stroke="#000000" d="M1318.5,-156C1318.5,-156 1389.3473,-93.6544 1433.662,-54.6574"/>
<polygon fill="#000000" stroke="#000000" points="1436.1412,-57.138 1441.3361,-47.9042 1431.5168,-51.883 1436.1412,-57.138"/>
</g>
<!-- node_6&#45;&gt;node_1 -->
<g id="edge7" class="edge">
<title>node_6:L&#45;&gt;node_1</title>
<path fill="none" stroke="#000000" d="M1258.5,-156C1258.5,-156 1189.4019,-128.3608 1145.0016,-110.6006"/>
<polygon fill="#000000" stroke="#000000" points="1146.2485,-107.3298 1135.6639,-106.8655 1143.6488,-113.8292 1146.2485,-107.3298"/>
</g>
<!-- node_day_3 -->
<g id="node11" class="node">
<title>node_day_3</title>
<text text-anchor="middle" x="3088.5" y="-234.6" font-family="Times,serif" font-size="18.00" fill="#000000">Day 3</text>
</g>
<!-- node_7 -->
<g id="node12" class="node">
<title>node_7</title>
<polygon fill="none" stroke="#000000" points="360.5,-242 360.5,-266 417.5,-266 417.5,-242 360.5,-242"/>
<text text-anchor="start" x="383.1689" y="-249.8" font-family="Times,serif" font-size="14.00" fill="#000000">&#45;3</text>
<polygon fill="none" stroke="#000000" points="360.5,-214 360.5,-242 385.5,-242 385.5,-214 360.5,-214"/>
<text text-anchor="start" x="365.2788" y="-224.1418" font-family="Times,serif" font-size="14.00" fill="#000000"> ϕ </text>
<polygon fill="none" stroke="#000000" points="385.5,-214 385.5,-242 417.5,-242 417.5,-214 385.5,-214"/>
<text text-anchor="start" x="392.1689" y="-223.8" font-family="Times,serif" font-size="14.00" fill="#000000"> &#45;2 </text>
</g>
<!-- node_7&#45;&gt;node_3 -->
<g id="edge9" class="edge">
<title>node_7:R&#45;&gt;node_3</title>
<path fill="none" stroke="#000000" d="M417.5,-228C417.5,-228 622.6834,-190.8066 709.9559,-174.9868"/>
<polygon fill="#000000" stroke="#000000" points="710.7773,-178.3951 719.9926,-173.1675 709.5287,-171.5073 710.7773,-178.3951"/>
</g>
<!-- node_8 -->
<g id="node13" class="node">
<title>node_8</title>
<polygon fill="none" stroke="#000000" points="2522.5,-242 2522.5,-266 2575.5,-266 2575.5,-242 2522.5,-242"/>
<text text-anchor="start" x="2545.5" y="-249.8" font-family="Times,serif" font-size="14.00" fill="#000000">3</text>
<polygon fill="none" stroke="#000000" points="2522.5,-214 2522.5,-242 2550.5,-242 2550.5,-214 2522.5,-214"/>
<text text-anchor="start" x="2529.5" y="-223.8" font-family="Times,serif" font-size="14.00" fill="#000000"> 2 </text>
<polygon fill="none" stroke="#000000" points="2550.5,-214 2550.5,-242 2575.5,-242 2575.5,-214 2550.5,-214"/>
<text text-anchor="start" x="2555.2788" y="-224.1418" font-family="Times,serif" font-size="14.00" fill="#000000"> ϕ </text>
</g>
<!-- node_8&#45;&gt;node_4 -->
<g id="edge10" class="edge">
<title>node_8:L&#45;&gt;node_4</title>
<path fill="none" stroke="#000000" d="M2522.5,-228C2522.5,-228 2312.485,-190.2728 2225.5225,-174.6507"/>
<polygon fill="#000000" stroke="#000000" points="2226.011,-171.1826 2215.5497,-172.8592 2224.7733,-178.0723 2226.011,-171.1826"/>
</g>
<!-- node_9 -->
<g id="node14" class="node">
<title>node_9</title>
<polygon fill="none" stroke="#000000" points="1525.5,-242 1525.5,-266 1591.5,-266 1591.5,-242 1525.5,-242"/>
<text text-anchor="start" x="1549.5552" y="-249.8" font-family="Times,serif" font-size="14.00" fill="#000000">1/4</text>
<polygon fill="none" stroke="#000000" points="1525.5,-214 1525.5,-242 1553.5,-242 1553.5,-214 1525.5,-214"/>
<text text-anchor="start" x="1532.5" y="-223.8" font-family="Times,serif" font-size="14.00" fill="#000000"> 0 </text>
<polygon fill="none" stroke="#000000" points="1553.5,-214 1553.5,-242 1591.5,-242 1591.5,-214 1553.5,-214"/>
<text text-anchor="start" x="1560.0552" y="-223.8" font-family="Times,serif" font-size="14.00" fill="#000000"> 1/2 </text>
</g>
<!-- node_9&#45;&gt;node_0 -->
<g id="edge11" class="edge">
<title>node_9:L&#45;&gt;node_0</title>
<path fill="none" stroke="#000000" d="M1539.5,-214C1539.5,-214 1501.4777,-112.2501 1481.0822,-57.6707"/>
<polygon fill="#000000" stroke="#000000" points="1484.2713,-56.2058 1477.4922,-48.0636 1477.7141,-58.6561 1484.2713,-56.2058"/>
</g>
<!-- node_9&#45;&gt;node_5 -->
<g id="edge12" class="edge">
<title>node_9:R&#45;&gt;node_5</title>
<path fill="none" stroke="#000000" d="M1591.5,-228C1591.5,-228 1603.4633,-215.407 1616.4285,-201.7595"/>
<polygon fill="#000000" stroke="#000000" points="1619.3148,-203.803 1623.6648,-194.1423 1614.2398,-198.9817 1619.3148,-203.803"/>
</g>
<!-- node_10 -->
<g id="node15" class="node">
<title>node_10</title>
<polygon fill="none" stroke="#000000" points="1343.5,-242 1343.5,-266 1414.5,-266 1414.5,-242 1343.5,-242"/>
<text text-anchor="start" x="1367.7241" y="-249.8" font-family="Times,serif" font-size="14.00" fill="#000000">&#45;1/4</text>
<polygon fill="none" stroke="#000000" points="1343.5,-214 1343.5,-242 1386.5,-242 1386.5,-214 1343.5,-214"/>
<text text-anchor="start" x="1350.2241" y="-223.8" font-family="Times,serif" font-size="14.00" fill="#000000"> &#45;1/2 </text>
<polygon fill="none" stroke="#000000" points="1386.5,-214 1386.5,-242 1414.5,-242 1414.5,-214 1386.5,-214"/>
<text text-anchor="start" x="1393.5" y="-223.8" font-family="Times,serif" font-size="14.00" fill="#000000"> 0 </text>
</g>
<!-- node_10&#45;&gt;node_0 -->
<g id="edge14" class="edge">
<title>node_10:R&#45;&gt;node_0</title>
<path fill="none" stroke="#000000" d="M1400.5,-214C1400.5,-214 1436.9158,-112.2501 1456.4494,-57.6707"/>
<polygon fill="#000000" stroke="#000000" points="1459.8134,-58.6582 1459.8878,-48.0636 1453.2227,-56.2994 1459.8134,-58.6582"/>
</g>
<!-- node_10&#45;&gt;node_6 -->
<g id="edge13" class="edge">
<title>node_10:L&#45;&gt;node_6</title>
<path fill="none" stroke="#000000" d="M1343.5,-228C1343.5,-228 1331.9564,-215.407 1319.4462,-201.7595"/>
<polygon fill="#000000" stroke="#000000" points="1321.8011,-199.1489 1312.4638,-194.1423 1316.641,-203.8789 1321.8011,-199.1489"/>
</g>
<!-- node_11 -->
<g id="node16" class="node">
<title>node_11</title>
<polygon fill="none" stroke="#000000" points="1705.5,-242 1705.5,-266 1771.5,-266 1771.5,-242 1705.5,-242"/>
<text text-anchor="start" x="1729.5552" y="-249.8" font-family="Times,serif" font-size="14.00" fill="#000000">3/4</text>
<polygon fill="none" stroke="#000000" points="1705.5,-214 1705.5,-242 1743.5,-242 1743.5,-214 1705.5,-214"/>
<text text-anchor="start" x="1712.0552" y="-223.8" font-family="Times,serif" font-size="14.00" fill="#000000"> 1/2 </text>
<polygon fill="none" stroke="#000000" points="1743.5,-214 1743.5,-242 1771.5,-242 1771.5,-214 1743.5,-214"/>
<text text-anchor="start" x="1750.5" y="-223.8" font-family="Times,serif" font-size="14.00" fill="#000000"> 1 </text>
</g>
<!-- node_11&#45;&gt;node_2 -->
<g id="edge16" class="edge">
<title>node_11:R&#45;&gt;node_2</title>
<path fill="none" stroke="#000000" d="M1757.5,-214C1757.5,-214 1786.4251,-165.9274 1807.3509,-131.1492"/>
<polygon fill="#000000" stroke="#000000" points="1810.5861,-132.561 1812.7428,-122.188 1804.5881,-128.9521 1810.5861,-132.561"/>
</g>
<!-- node_11&#45;&gt;node_5 -->
<g id="edge15" class="edge">
<title>node_11:L&#45;&gt;node_5</title>
<path fill="none" stroke="#000000" d="M1705.5,-228C1705.5,-228 1693.5367,-215.407 1680.5715,-201.7595"/>
<polygon fill="#000000" stroke="#000000" points="1682.7602,-198.9817 1673.3352,-194.1423 1677.6852,-203.803 1682.7602,-198.9817"/>
</g>
<!-- node_12 -->
<g id="node17" class="node">
<title>node_12</title>
<polygon fill="none" stroke="#000000" points="1161.5,-242 1161.5,-266 1236.5,-266 1236.5,-242 1161.5,-242"/>
<text text-anchor="start" x="1187.7241" y="-249.8" font-family="Times,serif" font-size="14.00" fill="#000000">&#45;3/4</text>
<polygon fill="none" stroke="#000000" points="1161.5,-214 1161.5,-242 1193.5,-242 1193.5,-214 1161.5,-214"/>
<text text-anchor="start" x="1168.1689" y="-223.8" font-family="Times,serif" font-size="14.00" fill="#000000"> &#45;1 </text>
<polygon fill="none" stroke="#000000" points="1193.5,-214 1193.5,-242 1236.5,-242 1236.5,-214 1193.5,-214"/>
<text text-anchor="start" x="1200.2241" y="-223.8" font-family="Times,serif" font-size="14.00" fill="#000000"> &#45;1/2 </text>
</g>
<!-- node_12&#45;&gt;node_1 -->
<g id="edge17" class="edge">
<title>node_12:L&#45;&gt;node_1</title>
<path fill="none" stroke="#000000" d="M1177.5,-214C1177.5,-214 1149.3897,-165.9274 1129.0534,-131.1492"/>
<polygon fill="#000000" stroke="#000000" points="1131.8826,-129.0538 1123.8133,-122.188 1125.8398,-132.5873 1131.8826,-129.0538"/>
</g>
<!-- node_12&#45;&gt;node_6 -->
<g id="edge18" class="edge">
<title>node_12:R&#45;&gt;node_6</title>
<path fill="none" stroke="#000000" d="M1236.5,-228C1236.5,-228 1247.4139,-215.407 1259.2418,-201.7595"/>
<polygon fill="#000000" stroke="#000000" points="1261.9389,-203.9915 1265.8433,-194.1423 1256.6491,-199.407 1261.9389,-203.9915"/>
</g>
<!-- node_13 -->
<g id="node18" class="node">
<title>node_13</title>
<polygon fill="none" stroke="#000000" points="1980.5,-242 1980.5,-266 2036.5,-266 2036.5,-242 1980.5,-242"/>
<text text-anchor="start" x="1999.5552" y="-249.8" font-family="Times,serif" font-size="14.00" fill="#000000">3/2</text>
<polygon fill="none" stroke="#000000" points="1980.5,-214 1980.5,-242 2008.5,-242 2008.5,-214 1980.5,-214"/>
<text text-anchor="start" x="1987.5" y="-223.8" font-family="Times,serif" font-size="14.00" fill="#000000"> 1 </text>
<polygon fill="none" stroke="#000000" points="2008.5,-214 2008.5,-242 2036.5,-242 2036.5,-214 2008.5,-214"/>
<text text-anchor="start" x="2015.5" y="-223.8" font-family="Times,serif" font-size="14.00" fill="#000000"> 2 </text>
</g>
<!-- node_13&#45;&gt;node_2 -->
<g id="edge19" class="edge">
<title>node_13:L&#45;&gt;node_2</title>
<path fill="none" stroke="#000000" d="M1980.5,-228C1980.5,-228 1908.3226,-165.3196 1863.4419,-126.3443"/>
<polygon fill="#000000" stroke="#000000" points="1865.5198,-123.5132 1855.6746,-119.599 1860.93,-128.7985 1865.5198,-123.5132"/>
</g>
<!-- node_13&#45;&gt;node_4 -->
<g id="edge20" class="edge">
<title>node_13:R&#45;&gt;node_4</title>
<path fill="none" stroke="#000000" d="M2036.5,-228C2036.5,-228 2106.8953,-200.2124 2151.8731,-182.458"/>
<polygon fill="#000000" stroke="#000000" points="2153.309,-185.6541 2161.3254,-178.7268 2150.7388,-179.143 2153.309,-185.6541"/>
</g>
<!-- node_14 -->
<g id="node19" class="node">
<title>node_14</title>
<polygon fill="none" stroke="#000000" points="896.5,-242 896.5,-266 960.5,-266 960.5,-242 896.5,-242"/>
<text text-anchor="start" x="917.2241" y="-249.8" font-family="Times,serif" font-size="14.00" fill="#000000">&#45;3/2</text>
<polygon fill="none" stroke="#000000" points="896.5,-214 896.5,-242 928.5,-242 928.5,-214 896.5,-214"/>
<text text-anchor="start" x="903.1689" y="-223.8" font-family="Times,serif" font-size="14.00" fill="#000000"> &#45;2 </text>
<polygon fill="none" stroke="#000000" points="928.5,-214 928.5,-242 960.5,-242 960.5,-214 928.5,-214"/>
<text text-anchor="start" x="935.1689" y="-223.8" font-family="Times,serif" font-size="14.00" fill="#000000"> &#45;1 </text>
</g>
<!-- node_14&#45;&gt;node_1 -->
<g id="edge22" class="edge">
<title>node_14:R&#45;&gt;node_1</title>
<path fill="none" stroke="#000000" d="M960.5,-228C960.5,-228 1030.0284,-165.9882 1073.7743,-126.9716"/>
<polygon fill="#000000" stroke="#000000" points="1076.2212,-129.4791 1081.3545,-120.2108 1071.5619,-124.255 1076.2212,-129.4791"/>
</g>
<!-- node_14&#45;&gt;node_3 -->
<g id="edge21" class="edge">
<title>node_14:L&#45;&gt;node_3</title>
<path fill="none" stroke="#000000" d="M896.5,-228C896.5,-228 830.4167,-201.2095 786.5656,-183.432"/>
<polygon fill="#000000" stroke="#000000" points="787.6183,-180.0821 777.0359,-179.5686 784.9883,-186.5693 787.6183,-180.0821"/>
</g>
<!-- node_day_4 -->
<g id="node20" class="node">
<title>node_day_4</title>
<text text-anchor="middle" x="3088.5" y="-306.6" font-family="Times,serif" font-size="18.00" fill="#000000">Day 4</text>
</g>
<!-- node_15 -->
<g id="node21" class="node">
<title>node_15</title>
<polygon fill="none" stroke="#000000" points=".5,-314 .5,-338 57.5,-338 57.5,-314 .5,-314"/>
<text text-anchor="start" x="23.1689" y="-321.8" font-family="Times,serif" font-size="14.00" fill="#000000">&#45;4</text>
<polygon fill="none" stroke="#000000" points=".5,-286 .5,-314 25.5,-314 25.5,-286 .5,-286"/>
<text text-anchor="start" x="5.2788" y="-296.1418" font-family="Times,serif" font-size="14.00" fill="#000000"> ϕ </text>
<polygon fill="none" stroke="#000000" points="25.5,-286 25.5,-314 57.5,-314 57.5,-286 25.5,-286"/>
<text text-anchor="start" x="32.1689" y="-295.8" font-family="Times,serif" font-size="14.00" fill="#000000"> &#45;3 </text>
</g>
<!-- node_15&#45;&gt;node_7 -->
<g id="edge23" class="edge">
<title>node_15:R&#45;&gt;node_7</title>
<path fill="none" stroke="#000000" d="M57.5,-300C57.5,-300 262.6834,-262.8066 349.9559,-246.9868"/>
<polygon fill="#000000" stroke="#000000" points="350.7773,-250.3951 359.9926,-245.1675 349.5287,-243.5073 350.7773,-250.3951"/>
</g>
<!-- node_16 -->
<g id="node22" class="node">
<title>node_16</title>
<polygon fill="none" stroke="#000000" points="2882.5,-314 2882.5,-338 2935.5,-338 2935.5,-314 2882.5,-314"/>
<text text-anchor="start" x="2905.5" y="-321.8" font-family="Times,serif" font-size="14.00" fill="#000000">4</text>
<polygon fill="none" stroke="#000000" points="2882.5,-286 2882.5,-314 2910.5,-314 2910.5,-286 2882.5,-286"/>
<text text-anchor="start" x="2889.5" y="-295.8" font-family="Times,serif" font-size="14.00" fill="#000000"> 3 </text>
<polygon fill="none" stroke="#000000" points="2910.5,-286 2910.5,-314 2935.5,-314 2935.5,-286 2910.5,-286"/>
<text text-anchor="start" x="2915.2788" y="-296.1418" font-family="Times,serif" font-size="14.00" fill="#000000"> ϕ </text>
</g>
<!-- node_16&#45;&gt;node_8 -->
<g id="edge24" class="edge">
<title>node_16:L&#45;&gt;node_8</title>
<path fill="none" stroke="#000000" d="M2882.5,-300C2882.5,-300 2672.485,-262.2728 2585.5225,-246.6507"/>
<polygon fill="#000000" stroke="#000000" points="2586.011,-243.1826 2575.5497,-244.8592 2584.7733,-250.0723 2586.011,-243.1826"/>
</g>
<!-- node_17 -->
<g id="node23" class="node">
<title>node_17</title>
<polygon fill="none" stroke="#000000" points="1480.5,-314 1480.5,-338 1546.5,-338 1546.5,-314 1480.5,-314"/>
<text text-anchor="start" x="1504.5552" y="-321.8" font-family="Times,serif" font-size="14.00" fill="#000000">1/8</text>
<polygon fill="none" stroke="#000000" points="1480.5,-286 1480.5,-314 1508.5,-314 1508.5,-286 1480.5,-286"/>
<text text-anchor="start" x="1487.5" y="-295.8" font-family="Times,serif" font-size="14.00" fill="#000000"> 0 </text>
<polygon fill="none" stroke="#000000" points="1508.5,-286 1508.5,-314 1546.5,-314 1546.5,-286 1508.5,-286"/>
<text text-anchor="start" x="1515.0552" y="-295.8" font-family="Times,serif" font-size="14.00" fill="#000000"> 1/4 </text>
</g>
<!-- node_17&#45;&gt;node_0 -->
<g id="edge25" class="edge">
<title>node_17:L&#45;&gt;node_0</title>
<path fill="none" stroke="#000000" d="M1494.5,-286C1494.5,-286 1478.9712,-129.5174 1471.9157,-58.4202"/>
<polygon fill="#000000" stroke="#000000" points="1475.3699,-57.7842 1470.8994,-48.1787 1468.4041,-58.4755 1475.3699,-57.7842"/>
</g>
<!-- node_17&#45;&gt;node_9 -->
<g id="edge26" class="edge">
<title>node_17:R&#45;&gt;node_9</title>
<path fill="none" stroke="#000000" d="M1527.5,-286C1527.5,-286 1530.7882,-281.1208 1535.2227,-274.5405"/>
<polygon fill="#000000" stroke="#000000" points="1538.1406,-276.4736 1540.8267,-266.2249 1532.3357,-272.5616 1538.1406,-276.4736"/>
</g>
<!-- node_18 -->
<g id="node24" class="node">
<title>node_18</title>
<polygon fill="none" stroke="#000000" points="1388.5,-314 1388.5,-338 1459.5,-338 1459.5,-314 1388.5,-314"/>
<text text-anchor="start" x="1412.7241" y="-321.8" font-family="Times,serif" font-size="14.00" fill="#000000">&#45;1/8</text>
<polygon fill="none" stroke="#000000" points="1388.5,-286 1388.5,-314 1431.5,-314 1431.5,-286 1388.5,-286"/>
<text text-anchor="start" x="1395.2241" y="-295.8" font-family="Times,serif" font-size="14.00" fill="#000000"> &#45;1/4 </text>
<polygon fill="none" stroke="#000000" points="1431.5,-286 1431.5,-314 1459.5,-314 1459.5,-286 1431.5,-286"/>
<text text-anchor="start" x="1438.5" y="-295.8" font-family="Times,serif" font-size="14.00" fill="#000000"> 0 </text>
</g>
<!-- node_18&#45;&gt;node_0 -->
<g id="edge28" class="edge">
<title>node_18:R&#45;&gt;node_0</title>
<path fill="none" stroke="#000000" d="M1445.5,-286C1445.5,-286 1459.237,-129.5174 1465.4784,-58.4202"/>
<polygon fill="#000000" stroke="#000000" points="1468.9894,-58.4465 1466.3774,-48.1787 1462.0163,-57.8343 1468.9894,-58.4465"/>
</g>
<!-- node_18&#45;&gt;node_10 -->
<g id="edge27" class="edge">
<title>node_18:L&#45;&gt;node_10</title>
<path fill="none" stroke="#000000" d="M1409.5,-286C1409.5,-286 1406.2118,-281.1208 1401.7773,-274.5405"/>
<polygon fill="#000000" stroke="#000000" points="1404.6643,-272.5616 1396.1733,-266.2249 1398.8594,-276.4736 1404.6643,-272.5616"/>
</g>
<!-- node_19 -->
<g id="node25" class="node">
<title>node_19</title>
<polygon fill="none" stroke="#000000" points="1565.5,-314 1565.5,-338 1641.5,-338 1641.5,-314 1565.5,-314"/>
<text text-anchor="start" x="1594.5552" y="-321.8" font-family="Times,serif" font-size="14.00" fill="#000000">3/8</text>
<polygon fill="none" stroke="#000000" points="1565.5,-286 1565.5,-314 1603.5,-314 1603.5,-286 1565.5,-286"/>
<text text-anchor="start" x="1572.0552" y="-295.8" font-family="Times,serif" font-size="14.00" fill="#000000"> 1/4 </text>
<polygon fill="none" stroke="#000000" points="1603.5,-286 1603.5,-314 1641.5,-314 1641.5,-286 1603.5,-286"/>
<text text-anchor="start" x="1610.0552" y="-295.8" font-family="Times,serif" font-size="14.00" fill="#000000"> 1/2 </text>
</g>
<!-- node_19&#45;&gt;node_5 -->
<g id="edge30" class="edge">
<title>node_19:R&#45;&gt;node_5</title>
<path fill="none" stroke="#000000" d="M1622.5,-286C1622.5,-286 1632.9127,-238.7421 1640.559,-204.04"/>
<polygon fill="#000000" stroke="#000000" points="1643.9959,-204.7069 1642.7298,-194.188 1637.1599,-203.2006 1643.9959,-204.7069"/>
</g>
<!-- node_19&#45;&gt;node_9 -->
<g id="edge29" class="edge">
<title>node_19:L&#45;&gt;node_9</title>
<path fill="none" stroke="#000000" d="M1584.5,-286C1584.5,-286 1581.8608,-281.3306 1578.2641,-274.9672"/>
<polygon fill="#000000" stroke="#000000" points="1581.2904,-273.2083 1573.3228,-266.2249 1575.1964,-276.6528 1581.2904,-273.2083"/>
</g>
<!-- node_20 -->
<g id="node26" class="node">
<title>node_20</title>
<polygon fill="none" stroke="#000000" points="1290.5,-314 1290.5,-338 1376.5,-338 1376.5,-314 1290.5,-314"/>
<text text-anchor="start" x="1322.2241" y="-321.8" font-family="Times,serif" font-size="14.00" fill="#000000">&#45;3/8</text>
<polygon fill="none" stroke="#000000" points="1290.5,-286 1290.5,-314 1333.5,-314 1333.5,-286 1290.5,-286"/>
<text text-anchor="start" x="1297.2241" y="-295.8" font-family="Times,serif" font-size="14.00" fill="#000000"> &#45;1/2 </text>
<polygon fill="none" stroke="#000000" points="1333.5,-286 1333.5,-314 1376.5,-314 1376.5,-286 1333.5,-286"/>
<text text-anchor="start" x="1340.2241" y="-295.8" font-family="Times,serif" font-size="14.00" fill="#000000"> &#45;1/4 </text>
</g>
<!-- node_20&#45;&gt;node_6 -->
<g id="edge31" class="edge">
<title>node_20:L&#45;&gt;node_6</title>
<path fill="none" stroke="#000000" d="M1311.5,-286C1311.5,-286 1302.2887,-238.7421 1295.5248,-204.04"/>
<polygon fill="#000000" stroke="#000000" points="1298.953,-203.3337 1293.6044,-194.188 1292.0823,-204.6729 1298.953,-203.3337"/>
</g>
<!-- node_20&#45;&gt;node_10 -->
<g id="edge32" class="edge">
<title>node_20:R&#45;&gt;node_10</title>
<path fill="none" stroke="#000000" d="M1355.5,-286C1355.5,-286 1357.7321,-281.5358 1360.8055,-275.3889"/>
<polygon fill="#000000" stroke="#000000" points="1364.0459,-276.7344 1365.3876,-266.2249 1357.7849,-273.6039 1364.0459,-276.7344"/>
</g>
<!-- node_21 -->
<g id="node27" class="node">
<title>node_21</title>
<polygon fill="none" stroke="#000000" points="1655.5,-314 1655.5,-338 1731.5,-338 1731.5,-314 1655.5,-314"/>
<text text-anchor="start" x="1684.5552" y="-321.8" font-family="Times,serif" font-size="14.00" fill="#000000">5/8</text>
<polygon fill="none" stroke="#000000" points="1655.5,-286 1655.5,-314 1693.5,-314 1693.5,-286 1655.5,-286"/>
<text text-anchor="start" x="1662.0552" y="-295.8" font-family="Times,serif" font-size="14.00" fill="#000000"> 1/2 </text>
<polygon fill="none" stroke="#000000" points="1693.5,-286 1693.5,-314 1731.5,-314 1731.5,-286 1693.5,-286"/>
<text text-anchor="start" x="1700.0552" y="-295.8" font-family="Times,serif" font-size="14.00" fill="#000000"> 3/4 </text>
</g>
<!-- node_21&#45;&gt;node_5 -->
<g id="edge33" class="edge">
<title>node_21:L&#45;&gt;node_5</title>
<path fill="none" stroke="#000000" d="M1674.5,-286C1674.5,-286 1664.0873,-238.7421 1656.441,-204.04"/>
<polygon fill="#000000" stroke="#000000" points="1659.8401,-203.2006 1654.2702,-194.188 1653.0041,-204.7069 1659.8401,-203.2006"/>
</g>
<!-- node_21&#45;&gt;node_11 -->
<g id="edge34" class="edge">
<title>node_21:R&#45;&gt;node_11</title>
<path fill="none" stroke="#000000" d="M1712.5,-286C1712.5,-286 1715.1392,-281.3306 1718.7359,-274.9672"/>
<polygon fill="#000000" stroke="#000000" points="1721.8036,-276.6528 1723.6772,-266.2249 1715.7096,-273.2083 1721.8036,-276.6528"/>
</g>
<!-- node_22 -->
<g id="node28" class="node">
<title>node_22</title>
<polygon fill="none" stroke="#000000" points="1200.5,-314 1200.5,-338 1286.5,-338 1286.5,-314 1200.5,-314"/>
<text text-anchor="start" x="1232.2241" y="-321.8" font-family="Times,serif" font-size="14.00" fill="#000000">&#45;5/8</text>
<polygon fill="none" stroke="#000000" points="1200.5,-286 1200.5,-314 1243.5,-314 1243.5,-286 1200.5,-286"/>
<text text-anchor="start" x="1207.2241" y="-295.8" font-family="Times,serif" font-size="14.00" fill="#000000"> &#45;3/4 </text>
<polygon fill="none" stroke="#000000" points="1243.5,-286 1243.5,-314 1286.5,-314 1286.5,-286 1243.5,-286"/>
<text text-anchor="start" x="1250.2241" y="-295.8" font-family="Times,serif" font-size="14.00" fill="#000000"> &#45;1/2 </text>
</g>
<!-- node_22&#45;&gt;node_6 -->
<g id="edge36" class="edge">
<title>node_22:R&#45;&gt;node_6</title>
<path fill="none" stroke="#000000" d="M1265.5,-286C1265.5,-286 1274.7113,-238.7421 1281.4752,-204.04"/>
<polygon fill="#000000" stroke="#000000" points="1284.9177,-204.6729 1283.3956,-194.188 1278.047,-203.3337 1284.9177,-204.6729"/>
</g>
<!-- node_22&#45;&gt;node_12 -->
<g id="edge35" class="edge">
<title>node_22:L&#45;&gt;node_12</title>
<path fill="none" stroke="#000000" d="M1221.5,-286C1221.5,-286 1219.2679,-281.5358 1216.1945,-275.3889"/>
<polygon fill="#000000" stroke="#000000" points="1219.2151,-273.6039 1211.6124,-266.2249 1212.9541,-276.7344 1219.2151,-273.6039"/>
</g>
<!-- node_23 -->
<g id="node29" class="node">
<title>node_23</title>
<polygon fill="none" stroke="#000000" points="1750.5,-314 1750.5,-338 1816.5,-338 1816.5,-314 1750.5,-314"/>
<text text-anchor="start" x="1774.5552" y="-321.8" font-family="Times,serif" font-size="14.00" fill="#000000">7/8</text>
<polygon fill="none" stroke="#000000" points="1750.5,-286 1750.5,-314 1788.5,-314 1788.5,-286 1750.5,-286"/>
<text text-anchor="start" x="1757.0552" y="-295.8" font-family="Times,serif" font-size="14.00" fill="#000000"> 3/4 </text>
<polygon fill="none" stroke="#000000" points="1788.5,-286 1788.5,-314 1816.5,-314 1816.5,-286 1788.5,-286"/>
<text text-anchor="start" x="1795.5" y="-295.8" font-family="Times,serif" font-size="14.00" fill="#000000"> 1 </text>
</g>
<!-- node_23&#45;&gt;node_2 -->
<g id="edge38" class="edge">
<title>node_23:R&#45;&gt;node_2</title>
<path fill="none" stroke="#000000" d="M1802.5,-286C1802.5,-286 1816.0198,-187.2018 1823.561,-132.0929"/>
<polygon fill="#000000" stroke="#000000" points="1827.0511,-132.4025 1824.9393,-122.0203 1820.1158,-131.4534 1827.0511,-132.4025"/>
</g>
<!-- node_23&#45;&gt;node_11 -->
<g id="edge37" class="edge">
<title>node_23:L&#45;&gt;node_11</title>
<path fill="none" stroke="#000000" d="M1769.5,-286C1769.5,-286 1766.2118,-281.1208 1761.7773,-274.5405"/>
<polygon fill="#000000" stroke="#000000" points="1764.6643,-272.5616 1756.1733,-266.2249 1758.8594,-276.4736 1764.6643,-272.5616"/>
</g>
<!-- node_24 -->
<g id="node30" class="node">
<title>node_24</title>
<polygon fill="none" stroke="#000000" points="1116.5,-314 1116.5,-338 1191.5,-338 1191.5,-314 1116.5,-314"/>
<text text-anchor="start" x="1142.7241" y="-321.8" font-family="Times,serif" font-size="14.00" fill="#000000">&#45;7/8</text>
<polygon fill="none" stroke="#000000" points="1116.5,-286 1116.5,-314 1148.5,-314 1148.5,-286 1116.5,-286"/>
<text text-anchor="start" x="1123.1689" y="-295.8" font-family="Times,serif" font-size="14.00" fill="#000000"> &#45;1 </text>
<polygon fill="none" stroke="#000000" points="1148.5,-286 1148.5,-314 1191.5,-314 1191.5,-286 1148.5,-286"/>
<text text-anchor="start" x="1155.2241" y="-295.8" font-family="Times,serif" font-size="14.00" fill="#000000"> &#45;3/4 </text>
</g>
<!-- node_24&#45;&gt;node_1 -->
<g id="edge39" class="edge">
<title>node_24:L&#45;&gt;node_1</title>
<path fill="none" stroke="#000000" d="M1132.5,-286C1132.5,-286 1120.0202,-187.2018 1113.0591,-132.0929"/>
<polygon fill="#000000" stroke="#000000" points="1116.5125,-131.5028 1111.7868,-122.0203 1109.5677,-132.3801 1116.5125,-131.5028"/>
</g>
<!-- node_24&#45;&gt;node_12 -->
<g id="edge40" class="edge">
<title>node_24:R&#45;&gt;node_12</title>
<path fill="none" stroke="#000000" d="M1170.5,-286C1170.5,-286 1173.3422,-281.3306 1177.2156,-274.9672"/>
<polygon fill="#000000" stroke="#000000" points="1180.3272,-276.5867 1182.537,-266.2249 1174.3478,-272.9471 1180.3272,-276.5867"/>
</g>
<!-- node_25 -->
<g id="node31" class="node">
<title>node_25</title>
<polygon fill="none" stroke="#000000" points="1885.5,-314 1885.5,-338 1951.5,-338 1951.5,-314 1885.5,-314"/>
<text text-anchor="start" x="1909.5552" y="-321.8" font-family="Times,serif" font-size="14.00" fill="#000000">5/4</text>
<polygon fill="none" stroke="#000000" points="1885.5,-286 1885.5,-314 1913.5,-314 1913.5,-286 1885.5,-286"/>
<text text-anchor="start" x="1892.5" y="-295.8" font-family="Times,serif" font-size="14.00" fill="#000000"> 1 </text>
<polygon fill="none" stroke="#000000" points="1913.5,-286 1913.5,-314 1951.5,-314 1951.5,-286 1913.5,-286"/>
<text text-anchor="start" x="1920.0552" y="-295.8" font-family="Times,serif" font-size="14.00" fill="#000000"> 3/2 </text>
</g>
<!-- node_25&#45;&gt;node_2 -->
<g id="edge41" class="edge">
<title>node_25:L&#45;&gt;node_2</title>
<path fill="none" stroke="#000000" d="M1899.5,-286C1899.5,-286 1862.273,-186.3785 1841.7313,-131.4077"/>
<polygon fill="#000000" stroke="#000000" points="1845.0024,-130.1625 1838.2234,-122.0203 1838.4453,-132.6128 1845.0024,-130.1625"/>
</g>
<!-- node_25&#45;&gt;node_13 -->
<g id="edge42" class="edge">
<title>node_25:R&#45;&gt;node_13</title>
<path fill="none" stroke="#000000" d="M1951.5,-300C1951.5,-300 1963.4633,-287.407 1976.4285,-273.7595"/>
<polygon fill="#000000" stroke="#000000" points="1979.3148,-275.803 1983.6648,-266.1423 1974.2398,-270.9817 1979.3148,-275.803"/>
</g>
<!-- node_26 -->
<g id="node32" class="node">
<title>node_26</title>
<polygon fill="none" stroke="#000000" points="981.5,-314 981.5,-338 1056.5,-338 1056.5,-314 981.5,-314"/>
<text text-anchor="start" x="1007.7241" y="-321.8" font-family="Times,serif" font-size="14.00" fill="#000000">&#45;5/4</text>
<polygon fill="none" stroke="#000000" points="981.5,-286 981.5,-314 1024.5,-314 1024.5,-286 981.5,-286"/>
<text text-anchor="start" x="988.2241" y="-295.8" font-family="Times,serif" font-size="14.00" fill="#000000"> &#45;3/2 </text>
<polygon fill="none" stroke="#000000" points="1024.5,-286 1024.5,-314 1056.5,-314 1056.5,-286 1024.5,-286"/>
<text text-anchor="start" x="1031.1689" y="-295.8" font-family="Times,serif" font-size="14.00" fill="#000000"> &#45;1 </text>
</g>
<!-- node_26&#45;&gt;node_1 -->
<g id="edge44" class="edge">
<title>node_26:R&#45;&gt;node_1</title>
<path fill="none" stroke="#000000" d="M1040.5,-286C1040.5,-286 1076.0065,-186.7906 1095.7054,-131.7497"/>
<polygon fill="#000000" stroke="#000000" points="1099.1131,-132.6149 1099.1875,-122.0203 1092.5225,-130.2561 1099.1131,-132.6149"/>
</g>
<!-- node_26&#45;&gt;node_14 -->
<g id="edge43" class="edge">
<title>node_26:L&#45;&gt;node_14</title>
<path fill="none" stroke="#000000" d="M981.5,-300C981.5,-300 970.3762,-287.407 958.3209,-273.7595"/>
<polygon fill="#000000" stroke="#000000" points="960.8359,-271.32 951.5924,-266.1423 955.5896,-275.9542 960.8359,-271.32"/>
</g>
<!-- node_27 -->
<g id="node33" class="node">
<title>node_27</title>
<polygon fill="none" stroke="#000000" points="2065.5,-314 2065.5,-338 2131.5,-338 2131.5,-314 2065.5,-314"/>
<text text-anchor="start" x="2089.5552" y="-321.8" font-family="Times,serif" font-size="14.00" fill="#000000">7/4</text>
<polygon fill="none" stroke="#000000" points="2065.5,-286 2065.5,-314 2103.5,-314 2103.5,-286 2065.5,-286"/>
<text text-anchor="start" x="2072.0552" y="-295.8" font-family="Times,serif" font-size="14.00" fill="#000000"> 3/2 </text>
<polygon fill="none" stroke="#000000" points="2103.5,-286 2103.5,-314 2131.5,-314 2131.5,-286 2103.5,-286"/>
<text text-anchor="start" x="2110.5" y="-295.8" font-family="Times,serif" font-size="14.00" fill="#000000"> 2 </text>
</g>
<!-- node_27&#45;&gt;node_4 -->
<g id="edge46" class="edge">
<title>node_27:R&#45;&gt;node_4</title>
<path fill="none" stroke="#000000" d="M2117.5,-286C2117.5,-286 2146.4251,-237.9274 2167.3509,-203.1492"/>
<polygon fill="#000000" stroke="#000000" points="2170.5861,-204.561 2172.7428,-194.188 2164.5881,-200.9521 2170.5861,-204.561"/>
</g>
<!-- node_27&#45;&gt;node_13 -->
<g id="edge45" class="edge">
<title>node_27:L&#45;&gt;node_13</title>
<path fill="none" stroke="#000000" d="M2065.5,-300C2065.5,-300 2053.5367,-287.407 2040.5715,-273.7595"/>
<polygon fill="#000000" stroke="#000000" points="2042.7602,-270.9817 2033.3352,-266.1423 2037.6852,-275.803 2042.7602,-270.9817"/>
</g>
<!-- node_28 -->
<g id="node34" class="node">
<title>node_28</title>
<polygon fill="none" stroke="#000000" points="801.5,-314 801.5,-338 876.5,-338 876.5,-314 801.5,-314"/>
<text text-anchor="start" x="827.7241" y="-321.8" font-family="Times,serif" font-size="14.00" fill="#000000">&#45;7/4</text>
<polygon fill="none" stroke="#000000" points="801.5,-286 801.5,-314 833.5,-314 833.5,-286 801.5,-286"/>
<text text-anchor="start" x="808.1689" y="-295.8" font-family="Times,serif" font-size="14.00" fill="#000000"> &#45;2 </text>
<polygon fill="none" stroke="#000000" points="833.5,-286 833.5,-314 876.5,-314 876.5,-286 833.5,-286"/>
<text text-anchor="start" x="840.2241" y="-295.8" font-family="Times,serif" font-size="14.00" fill="#000000"> &#45;3/2 </text>
</g>
<!-- node_28&#45;&gt;node_3 -->
<g id="edge47" class="edge">
<title>node_28:L&#45;&gt;node_3</title>
<path fill="none" stroke="#000000" d="M817.5,-286C817.5,-286 789.3897,-237.9274 769.0534,-203.1492"/>
<polygon fill="#000000" stroke="#000000" points="771.8826,-201.0538 763.8133,-194.188 765.8398,-204.5873 771.8826,-201.0538"/>
</g>
<!-- node_28&#45;&gt;node_14 -->
<g id="edge48" class="edge">
<title>node_28:R&#45;&gt;node_14</title>
<path fill="none" stroke="#000000" d="M876.5,-300C876.5,-300 887.4139,-287.407 899.2418,-273.7595"/>
<polygon fill="#000000" stroke="#000000" points="901.9389,-275.9915 905.8433,-266.1423 896.6491,-271.407 901.9389,-275.9915"/>
</g>
<!-- node_29 -->
<g id="node35" class="node">
<title>node_29</title>
<polygon fill="none" stroke="#000000" points="2340.5,-314 2340.5,-338 2396.5,-338 2396.5,-314 2340.5,-314"/>
<text text-anchor="start" x="2359.5552" y="-321.8" font-family="Times,serif" font-size="14.00" fill="#000000">5/2</text>
<polygon fill="none" stroke="#000000" points="2340.5,-286 2340.5,-314 2368.5,-314 2368.5,-286 2340.5,-286"/>
<text text-anchor="start" x="2347.5" y="-295.8" font-family="Times,serif" font-size="14.00" fill="#000000"> 2 </text>
<polygon fill="none" stroke="#000000" points="2368.5,-286 2368.5,-314 2396.5,-314 2396.5,-286 2368.5,-286"/>
<text text-anchor="start" x="2375.5" y="-295.8" font-family="Times,serif" font-size="14.00" fill="#000000"> 3 </text>
</g>
<!-- node_29&#45;&gt;node_4 -->
<g id="edge49" class="edge">
<title>node_29:L&#45;&gt;node_4</title>
<path fill="none" stroke="#000000" d="M2340.5,-300C2340.5,-300 2268.3226,-237.3196 2223.4419,-198.3443"/>
<polygon fill="#000000" stroke="#000000" points="2225.5198,-195.5132 2215.6746,-191.599 2220.93,-200.7985 2225.5198,-195.5132"/>
</g>
<!-- node_29&#45;&gt;node_8 -->
<g id="edge50" class="edge">
<title>node_29:R&#45;&gt;node_8</title>
<path fill="none" stroke="#000000" d="M2396.5,-300C2396.5,-300 2466.8953,-272.2124 2511.8731,-254.458"/>
<polygon fill="#000000" stroke="#000000" points="2513.309,-257.6541 2521.3254,-250.7268 2510.7388,-251.143 2513.309,-257.6541"/>
</g>
<!-- node_30 -->
<g id="node36" class="node">
<title>node_30</title>
<polygon fill="none" stroke="#000000" points="536.5,-314 536.5,-338 600.5,-338 600.5,-314 536.5,-314"/>
<text text-anchor="start" x="557.2241" y="-321.8" font-family="Times,serif" font-size="14.00" fill="#000000">&#45;5/2</text>
<polygon fill="none" stroke="#000000" points="536.5,-286 536.5,-314 568.5,-314 568.5,-286 536.5,-286"/>
<text text-anchor="start" x="543.1689" y="-295.8" font-family="Times,serif" font-size="14.00" fill="#000000"> &#45;3 </text>
<polygon fill="none" stroke="#000000" points="568.5,-286 568.5,-314 600.5,-314 600.5,-286 568.5,-286"/>
<text text-anchor="start" x="575.1689" y="-295.8" font-family="Times,serif" font-size="14.00" fill="#000000"> &#45;2 </text>
</g>
<!-- node_30&#45;&gt;node_3 -->
<g id="edge52" class="edge">
<title>node_30:R&#45;&gt;node_3</title>
<path fill="none" stroke="#000000" d="M600.5,-300C600.5,-300 668.5412,-239.3146 712.3543,-200.2381"/>
<polygon fill="#000000" stroke="#000000" points="714.8308,-202.7192 719.9641,-193.4509 710.1715,-197.4951 714.8308,-202.7192"/>
</g>
<!-- node_30&#45;&gt;node_7 -->
<g id="edge51" class="edge">
<title>node_30:L&#45;&gt;node_7</title>
<path fill="none" stroke="#000000" d="M536.5,-300C536.5,-300 470.4167,-273.2095 426.5656,-255.432"/>
<polygon fill="#000000" stroke="#000000" points="427.6183,-252.0821 417.0359,-251.5686 424.9883,-258.5693 427.6183,-252.0821"/>
</g>
</g>
</svg>
