<?xml version="1.0" encoding="UTF-8" standalone="no"?>
<!DOCTYPE svg PUBLIC "-//W3C//DTD SVG 1.1//EN"
 "http://www.w3.org/Graphics/SVG/1.1/DTD/svg11.dtd">
<!-- Generated by graphviz version 2.38.0 (20140413.2041)
 -->
<!-- Title: dyadic_tree Pages: 1 -->
<svg width="1123pt" height="279pt"
 viewBox="0.00 0.00 1123.00 279.00" xmlns="http://www.w3.org/2000/svg" xmlns:xlink="http://www.w3.org/1999/xlink">
<g id="graph0" class="graph" transform="scale(1 1) rotate(0) translate(641.368 97.4211)">
<title>dyadic_tree</title>
<polygon fill="white" stroke="none" points="-641.368,181.579 -641.368,-97.4211 481.632,-97.4211 481.632,181.579 -641.368,181.579"/>
<!-- node_0 -->
<g id="node1" class="node"><title>node_0</title>
<polygon fill="none" stroke="black" points="-147.368,152.579 -147.368,125.579 -91.3684,125.579 -91.3684,152.579 -147.368,152.579"/>
<text text-anchor="start" x="-122.868" y="141.779" font-family="Times,serif" text-decoration="overline" font-size="14.00">0</text>
<polygon fill="none" stroke="black" points="-147.368,177.579 -147.368,152.579 -119.368,152.579 -119.368,177.579 -147.368,177.579"/>
<text text-anchor="start" x="-142.368" y="168.779" font-family="Times,serif" font-size="14.00"> Ø </text>
<polygon fill="none" stroke="black" points="-119.368,177.579 -119.368,152.579 -91.3684,152.579 -91.3684,177.579 -119.368,177.579"/>
<text text-anchor="start" x="-114.368" y="168.779" font-family="Times,serif" font-size="14.00"> Ø </text>
</g>
<!-- node_day_0 -->
<g id="node2" class="node"><title>node_day_0</title>
<text text-anchor="middle" x="447.632" y="155.979" font-family="Times,serif" font-size="18.00">Day 0</text>
</g>
<!-- node_day_1 -->
<g id="node3" class="node"><title>node_day_1</title>
<text text-anchor="middle" x="447.632" y="83.9789" font-family="Times,serif" font-size="18.00">Day 1</text>
</g>
<!-- node_1 -->
<g id="node4" class="node"><title>node_1</title>
<polygon fill="none" stroke="black" points="-310.368,77.5789 -310.368,50.5789 -251.368,50.5789 -251.368,77.5789 -310.368,77.5789"/>
<text text-anchor="start" x="-286.868" y="66.7789" font-family="Times,serif" text-decoration="overline" font-size="14.00">&#45;1</text>
<polygon fill="none" stroke="black" points="-310.368,108.579 -310.368,77.5789 -282.368,77.5789 -282.368,108.579 -310.368,108.579"/>
<text text-anchor="start" x="-305.368" y="96.7789" font-family="Times,serif" font-size="14.00"> Ø </text>
<polygon fill="none" stroke="black" points="-282.368,108.579 -282.368,77.5789 -251.368,77.5789 -251.368,108.579 -282.368,108.579"/>
<text text-anchor="start" x="-274.368" y="95.7789" font-family="Times,serif" font-size="14.00"> </text>
<text text-anchor="start" x="-270.368" y="95.7789" font-family="Times,serif" text-decoration="overline" font-size="14.00">0</text>
<text text-anchor="start" x="-263.368" y="95.7789" font-family="Times,serif" font-size="14.00"> </text>
</g>
<!-- node_1&#45;&gt;node_0 -->
<g id="edge1" class="edge"><title>node_1:R&#45;&gt;node_0</title>
<path fill="none" stroke="#0000cd" d="M-242.141,97.6333C-222.842,106.113 -177.533,126.022 -147.686,139.136"/>
<polygon fill="#0000cd" stroke="#0000cd" points="-243.621,100.806 -251.368,93.5789 -240.805,94.3974 -243.621,100.806"/>
</g>
<!-- node_2 -->
<g id="node5" class="node"><title>node_2</title>
<polygon fill="none" stroke="black" points="13.6316,77.5789 13.6316,50.5789 72.6316,50.5789 72.6316,77.5789 13.6316,77.5789"/>
<text text-anchor="start" x="39.6316" y="66.7789" font-family="Times,serif" text-decoration="overline" font-size="14.00">1</text>
<polygon fill="none" stroke="black" points="13.6316,108.579 13.6316,77.5789 44.6316,77.5789 44.6316,108.579 13.6316,108.579"/>
<text text-anchor="start" x="21.6316" y="95.7789" font-family="Times,serif" font-size="14.00"> </text>
<text text-anchor="start" x="25.6316" y="95.7789" font-family="Times,serif" text-decoration="overline" font-size="14.00">0</text>
<text text-anchor="start" x="32.6316" y="95.7789" font-family="Times,serif" font-size="14.00"> </text>
<polygon fill="none" stroke="black" points="44.6316,108.579 44.6316,77.5789 72.6316,77.5789 72.6316,108.579 44.6316,108.579"/>
<text text-anchor="start" x="49.6316" y="96.7789" font-family="Times,serif" font-size="14.00"> Ø </text>
</g>
<!-- node_2&#45;&gt;node_0 -->
<g id="edge2" class="edge"><title>node_2:L&#45;&gt;node_0</title>
<path fill="none" stroke="#cd0000" d="M4.28589,97.6545C-15.2577,106.177 -61.1193,126.177 -91.1625,139.279"/>
<polygon fill="#cd0000" stroke="#cd0000" points="3.06617,94.3681 13.6316,93.5789 5.86435,100.785 3.06617,94.3681"/>
</g>
<!-- node_day_2 -->
<g id="node6" class="node"><title>node_day_2</title>
<text text-anchor="middle" x="447.632" y="11.9789" font-family="Times,serif" font-size="18.00">Day 2</text>
</g>
<!-- node_3 -->
<g id="node7" class="node"><title>node_3</title>
<polygon fill="none" stroke="black" points="-475.368,5.57895 -475.368,-21.4211 -411.368,-21.4211 -411.368,5.57895 -475.368,5.57895"/>
<text text-anchor="start" x="-449.368" y="-5.22105" font-family="Times,serif" text-decoration="overline" font-size="14.00">&#45;2</text>
<polygon fill="none" stroke="black" points="-475.368,36.5789 -475.368,5.57895 -447.368,5.57895 -447.368,36.5789 -475.368,36.5789"/>
<text text-anchor="start" x="-470.368" y="24.7789" font-family="Times,serif" font-size="14.00"> Ø </text>
<polygon fill="none" stroke="black" points="-447.368,36.5789 -447.368,5.57895 -411.368,5.57895 -411.368,36.5789 -447.368,36.5789"/>
<text text-anchor="start" x="-439.368" y="23.7789" font-family="Times,serif" font-size="14.00"> </text>
<text text-anchor="start" x="-435.368" y="23.7789" font-family="Times,serif" text-decoration="overline" font-size="14.00">&#45;1</text>
<text text-anchor="start" x="-423.368" y="23.7789" font-family="Times,serif" font-size="14.00"> </text>
</g>
<!-- node_3&#45;&gt;node_1 -->
<g id="edge3" class="edge"><title>node_3:R&#45;&gt;node_1</title>
<path fill="none" stroke="#0000cd" d="M-401.995,25.7607C-383.249,34.1247 -340.428,53.2292 -311.193,66.2726"/>
<polygon fill="#0000cd" stroke="#0000cd" points="-403.662,28.8497 -411.368,21.5789 -400.81,22.4571 -403.662,28.8497"/>
</g>
<!-- node_4 -->
<g id="node8" class="node"><title>node_4</title>
<polygon fill="none" stroke="black" points="175.632,5.57895 175.632,-21.4211 234.632,-21.4211 234.632,5.57895 175.632,5.57895"/>
<text text-anchor="start" x="201.632" y="-5.22105" font-family="Times,serif" text-decoration="overline" font-size="14.00">2</text>
<polygon fill="none" stroke="black" points="175.632,36.5789 175.632,5.57895 206.632,5.57895 206.632,36.5789 175.632,36.5789"/>
<text text-anchor="start" x="183.632" y="23.7789" font-family="Times,serif" font-size="14.00"> </text>
<text text-anchor="start" x="187.632" y="23.7789" font-family="Times,serif" text-decoration="overline" font-size="14.00">1</text>
<text text-anchor="start" x="194.632" y="23.7789" font-family="Times,serif" font-size="14.00"> </text>
<polygon fill="none" stroke="black" points="206.632,36.5789 206.632,5.57895 234.632,5.57895 234.632,36.5789 206.632,36.5789"/>
<text text-anchor="start" x="211.632" y="24.7789" font-family="Times,serif" font-size="14.00"> Ø </text>
</g>
<!-- node_4&#45;&gt;node_2 -->
<g id="edge4" class="edge"><title>node_4:L&#45;&gt;node_2</title>
<path fill="none" stroke="#cd0000" d="M166.186,25.6979C146.871,34.1213 102.148,53.6244 72.1486,66.7069"/>
<polygon fill="#cd0000" stroke="#cd0000" points="165.066,22.3681 175.632,21.5789 167.864,28.7846 165.066,22.3681"/>
</g>
<!-- node_5 -->
<g id="node9" class="node"><title>node_5</title>
<polygon fill="none" stroke="black" points="-69.3684,5.57895 -69.3684,-21.4211 -7.36842,-21.4211 -7.36842,5.57895 -69.3684,5.57895"/>
<text text-anchor="start" x="-47.3684" y="-5.22105" font-family="Times,serif" text-decoration="overline" font-size="14.00">1/2</text>
<polygon fill="none" stroke="black" points="-69.3684,36.5789 -69.3684,5.57895 -38.3684,5.57895 -38.3684,36.5789 -69.3684,36.5789"/>
<text text-anchor="start" x="-61.3684" y="23.7789" font-family="Times,serif" font-size="14.00"> </text>
<text text-anchor="start" x="-57.3684" y="23.7789" font-family="Times,serif" text-decoration="overline" font-size="14.00">0</text>
<text text-anchor="start" x="-50.3684" y="23.7789" font-family="Times,serif" font-size="14.00"> </text>
<polygon fill="none" stroke="black" points="-38.3684,36.5789 -38.3684,5.57895 -7.36842,5.57895 -7.36842,36.5789 -38.3684,36.5789"/>
<text text-anchor="start" x="-30.3684" y="23.7789" font-family="Times,serif" font-size="14.00"> </text>
<text text-anchor="start" x="-26.3684" y="23.7789" font-family="Times,serif" text-decoration="overline" font-size="14.00">1</text>
<text text-anchor="start" x="-19.3684" y="23.7789" font-family="Times,serif" font-size="14.00"> </text>
</g>
<!-- node_5&#45;&gt;node_0 -->
<g id="edge5" class="edge"><title>node_5:L&#45;&gt;node_0</title>
<path fill="none" stroke="#cd0000" d="M-59.3735,45.4341C-68.9417,62.3624 -90.1607,99.9038 -104.619,125.484"/>
<polygon fill="#cd0000" stroke="#cd0000" points="-62.336,43.5624 -54.3684,36.5789 -56.2421,47.0068 -62.336,43.5624"/>
</g>
<!-- node_5&#45;&gt;node_2 -->
<g id="edge6" class="edge"><title>node_5:R&#45;&gt;node_2</title>
<path fill="none" stroke="#0000cd" d="M-0.514438,29.5296C4.18906,34.9856 10.7503,42.5966 17.3386,50.2391"/>
<polygon fill="#0000cd" stroke="#0000cd" points="-3.48993,31.4384 -7.36842,21.5789 1.81195,26.8678 -3.48993,31.4384"/>
</g>
<!-- node_6 -->
<g id="node10" class="node"><title>node_6</title>
<polygon fill="none" stroke="black" points="-233.368,5.57895 -233.368,-21.4211 -166.368,-21.4211 -166.368,5.57895 -233.368,5.57895"/>
<text text-anchor="start" x="-210.868" y="-5.22105" font-family="Times,serif" text-decoration="overline" font-size="14.00">&#45;1/2</text>
<polygon fill="none" stroke="black" points="-233.368,36.5789 -233.368,5.57895 -197.368,5.57895 -197.368,36.5789 -233.368,36.5789"/>
<text text-anchor="start" x="-225.368" y="23.7789" font-family="Times,serif" font-size="14.00"> </text>
<text text-anchor="start" x="-221.368" y="23.7789" font-family="Times,serif" text-decoration="overline" font-size="14.00">&#45;1</text>
<text text-anchor="start" x="-209.368" y="23.7789" font-family="Times,serif" font-size="14.00"> </text>
<polygon fill="none" stroke="black" points="-197.368,36.5789 -197.368,5.57895 -166.368,5.57895 -166.368,36.5789 -197.368,36.5789"/>
<text text-anchor="start" x="-189.368" y="23.7789" font-family="Times,serif" font-size="14.00"> </text>
<text text-anchor="start" x="-185.368" y="23.7789" font-family="Times,serif" text-decoration="overline" font-size="14.00">0</text>
<text text-anchor="start" x="-178.368" y="23.7789" font-family="Times,serif" font-size="14.00"> </text>
</g>
<!-- node_6&#45;&gt;node_0 -->
<g id="edge8" class="edge"><title>node_6:R&#45;&gt;node_0</title>
<path fill="none" stroke="#0000cd" d="M-176.594,45.4341C-167.468,62.3624 -147.228,99.9038 -133.437,125.484"/>
<polygon fill="#0000cd" stroke="#0000cd" points="-179.704,47.0422 -181.368,36.5789 -173.542,43.7202 -179.704,47.0422"/>
</g>
<!-- node_6&#45;&gt;node_1 -->
<g id="edge7" class="edge"><title>node_6:L&#45;&gt;node_1</title>
<path fill="none" stroke="#cd0000" d="M-239.948,29.5296C-244.464,34.9856 -250.762,42.5966 -257.087,50.2391"/>
<polygon fill="#cd0000" stroke="#cd0000" points="-242.441,27.0514 -233.368,21.5789 -237.048,31.5144 -242.441,27.0514"/>
</g>
<!-- node_day_3 -->
<g id="node11" class="node"><title>node_day_3</title>
<text text-anchor="middle" x="447.632" y="-60.0211" font-family="Times,serif" font-size="18.00">Day 3</text>
</g>
<!-- node_7 -->
<g id="node12" class="node"><title>node_7</title>
<polygon fill="none" stroke="black" points="-637.368,-66.4211 -637.368,-93.4211 -573.368,-93.4211 -573.368,-66.4211 -637.368,-66.4211"/>
<text text-anchor="start" x="-611.368" y="-77.2211" font-family="Times,serif" text-decoration="overline" font-size="14.00">&#45;3</text>
<polygon fill="none" stroke="black" points="-637.368,-35.4211 -637.368,-66.4211 -609.368,-66.4211 -609.368,-35.4211 -637.368,-35.4211"/>
<text text-anchor="start" x="-632.368" y="-47.2211" font-family="Times,serif" font-size="14.00"> Ø </text>
<polygon fill="none" stroke="black" points="-609.368,-35.4211 -609.368,-66.4211 -573.368,-66.4211 -573.368,-35.4211 -609.368,-35.4211"/>
<text text-anchor="start" x="-601.368" y="-48.2211" font-family="Times,serif" font-size="14.00"> </text>
<text text-anchor="start" x="-597.368" y="-48.2211" font-family="Times,serif" text-decoration="overline" font-size="14.00">&#45;2</text>
<text text-anchor="start" x="-585.368" y="-48.2211" font-family="Times,serif" font-size="14.00"> </text>
</g>
<!-- node_7&#45;&gt;node_3 -->
<g id="edge9" class="edge"><title>node_7:R&#45;&gt;node_3</title>
<path fill="none" stroke="#0000cd" d="M-564.062,-46.2688C-545.836,-38.1374 -504.677,-19.7739 -475.503,-6.75813"/>
<polygon fill="#0000cd" stroke="#0000cd" points="-565.662,-43.1503 -573.368,-50.4211 -562.81,-49.5429 -565.662,-43.1503"/>
</g>
<!-- node_8 -->
<g id="node13" class="node"><title>node_8</title>
<polygon fill="none" stroke="black" points="337.632,-66.4211 337.632,-93.4211 396.632,-93.4211 396.632,-66.4211 337.632,-66.4211"/>
<text text-anchor="start" x="363.632" y="-77.2211" font-family="Times,serif" text-decoration="overline" font-size="14.00">3</text>
<polygon fill="none" stroke="black" points="337.632,-35.4211 337.632,-66.4211 368.632,-66.4211 368.632,-35.4211 337.632,-35.4211"/>
<text text-anchor="start" x="345.632" y="-48.2211" font-family="Times,serif" font-size="14.00"> </text>
<text text-anchor="start" x="349.632" y="-48.2211" font-family="Times,serif" text-decoration="overline" font-size="14.00">2</text>
<text text-anchor="start" x="356.632" y="-48.2211" font-family="Times,serif" font-size="14.00"> </text>
<polygon fill="none" stroke="black" points="368.632,-35.4211 368.632,-66.4211 396.632,-66.4211 396.632,-35.4211 368.632,-35.4211"/>
<text text-anchor="start" x="373.632" y="-47.2211" font-family="Times,serif" font-size="14.00"> Ø </text>
</g>
<!-- node_8&#45;&gt;node_4 -->
<g id="edge10" class="edge"><title>node_8:L&#45;&gt;node_4</title>
<path fill="none" stroke="#cd0000" d="M328.186,-46.3021C308.871,-37.8787 264.148,-18.3756 234.149,-5.29313"/>
<polygon fill="#cd0000" stroke="#cd0000" points="327.066,-49.6319 337.632,-50.4211 329.864,-43.2154 327.066,-49.6319"/>
</g>
<!-- node_9 -->
<g id="node14" class="node"><title>node_9</title>
<polygon fill="none" stroke="black" points="-114.868,-66.4211 -114.868,-93.4211 -41.8684,-93.4211 -41.8684,-66.4211 -114.868,-66.4211"/>
<text text-anchor="start" x="-87.3684" y="-77.2211" font-family="Times,serif" text-decoration="overline" font-size="14.00">1/4</text>
<polygon fill="none" stroke="black" points="-114.868,-35.4211 -114.868,-66.4211 -83.8684,-66.4211 -83.8684,-35.4211 -114.868,-35.4211"/>
<text text-anchor="start" x="-106.868" y="-48.2211" font-family="Times,serif" font-size="14.00"> </text>
<text text-anchor="start" x="-102.868" y="-48.2211" font-family="Times,serif" text-decoration="overline" font-size="14.00">0</text>
<text text-anchor="start" x="-95.8684" y="-48.2211" font-family="Times,serif" font-size="14.00"> </text>
<polygon fill="none" stroke="black" points="-83.8684,-35.4211 -83.8684,-66.4211 -41.8684,-66.4211 -41.8684,-35.4211 -83.8684,-35.4211"/>
<text text-anchor="start" x="-75.8684" y="-48.2211" font-family="Times,serif" font-size="14.00"> </text>
<text text-anchor="start" x="-71.8684" y="-48.2211" font-family="Times,serif" text-decoration="overline" font-size="14.00">1/2</text>
<text text-anchor="start" x="-53.8684" y="-48.2211" font-family="Times,serif" font-size="14.00"> </text>
</g>
<!-- node_9&#45;&gt;node_0 -->
<g id="edge11" class="edge"><title>node_9:L&#45;&gt;node_0</title>
<path fill="none" stroke="#cd0000" d="M-100.916,-25.3754C-103.861,2.86571 -112.283,83.6284 -116.657,125.577"/>
<polygon fill="#cd0000" stroke="#cd0000" points="-104.387,-25.838 -99.8684,-35.4211 -97.4245,-25.1119 -104.387,-25.838"/>
</g>
<!-- node_9&#45;&gt;node_5 -->
<g id="edge12" class="edge"><title>node_9:R&#45;&gt;node_5</title>
<path fill="none" stroke="#0000cd" d="M-57.792,-26.5114C-56.9594,-25.0501 -56.0585,-23.469 -55.1165,-21.8156"/>
<polygon fill="#0000cd" stroke="#0000cd" points="-60.9589,-24.9997 -62.8684,-35.4211 -54.8768,-28.4651 -60.9589,-24.9997"/>
</g>
<!-- node_10 -->
<g id="node15" class="node"><title>node_10</title>
<polygon fill="none" stroke="black" points="-197.868,-66.4211 -197.868,-93.4211 -120.868,-93.4211 -120.868,-66.4211 -197.868,-66.4211"/>
<text text-anchor="start" x="-170.368" y="-77.2211" font-family="Times,serif" text-decoration="overline" font-size="14.00">&#45;1/4</text>
<polygon fill="none" stroke="black" points="-197.868,-35.4211 -197.868,-66.4211 -151.868,-66.4211 -151.868,-35.4211 -197.868,-35.4211"/>
<text text-anchor="start" x="-189.868" y="-48.2211" font-family="Times,serif" font-size="14.00"> </text>
<text text-anchor="start" x="-185.868" y="-48.2211" font-family="Times,serif" text-decoration="overline" font-size="14.00">&#45;1/2</text>
<text text-anchor="start" x="-163.868" y="-48.2211" font-family="Times,serif" font-size="14.00"> </text>
<polygon fill="none" stroke="black" points="-151.868,-35.4211 -151.868,-66.4211 -120.868,-66.4211 -120.868,-35.4211 -151.868,-35.4211"/>
<text text-anchor="start" x="-143.868" y="-48.2211" font-family="Times,serif" font-size="14.00"> </text>
<text text-anchor="start" x="-139.868" y="-48.2211" font-family="Times,serif" text-decoration="overline" font-size="14.00">0</text>
<text text-anchor="start" x="-132.868" y="-48.2211" font-family="Times,serif" font-size="14.00"> </text>
</g>
<!-- node_10&#45;&gt;node_0 -->
<g id="edge14" class="edge"><title>node_10:R&#45;&gt;node_0</title>
<path fill="none" stroke="#0000cd" d="M-134.982,-25.3754C-132.49,2.86571 -125.364,83.6284 -121.663,125.577"/>
<polygon fill="#0000cd" stroke="#0000cd" points="-138.476,-25.1521 -135.868,-35.4211 -131.503,-25.7674 -138.476,-25.1521"/>
</g>
<!-- node_10&#45;&gt;node_6 -->
<g id="edge13" class="edge"><title>node_10:L&#45;&gt;node_6</title>
<path fill="none" stroke="#cd0000" d="M-180.152,-26.5114C-181.019,-25.0501 -181.956,-23.469 -182.937,-21.8156"/>
<polygon fill="#cd0000" stroke="#cd0000" points="-182.98,-28.605 -174.868,-35.4211 -176.959,-25.0345 -182.98,-28.605"/>
</g>
<!-- node_11 -->
<g id="node16" class="node"><title>node_11</title>
<polygon fill="none" stroke="black" points="-33.8684,-66.4211 -33.8684,-93.4211 39.1316,-93.4211 39.1316,-66.4211 -33.8684,-66.4211"/>
<text text-anchor="start" x="-6.36842" y="-77.2211" font-family="Times,serif" text-decoration="overline" font-size="14.00">3/4</text>
<polygon fill="none" stroke="black" points="-33.8684,-35.4211 -33.8684,-66.4211 8.13158,-66.4211 8.13158,-35.4211 -33.8684,-35.4211"/>
<text text-anchor="start" x="-25.8684" y="-48.2211" font-family="Times,serif" font-size="14.00"> </text>
<text text-anchor="start" x="-21.8684" y="-48.2211" font-family="Times,serif" text-decoration="overline" font-size="14.00">1/2</text>
<text text-anchor="start" x="-3.86842" y="-48.2211" font-family="Times,serif" font-size="14.00"> </text>
<polygon fill="none" stroke="black" points="8.13158,-35.4211 8.13158,-66.4211 39.1316,-66.4211 39.1316,-35.4211 8.13158,-35.4211"/>
<text text-anchor="start" x="16.1316" y="-48.2211" font-family="Times,serif" font-size="14.00"> </text>
<text text-anchor="start" x="20.1316" y="-48.2211" font-family="Times,serif" text-decoration="overline" font-size="14.00">1</text>
<text text-anchor="start" x="27.1316" y="-48.2211" font-family="Times,serif" font-size="14.00"> </text>
</g>
<!-- node_11&#45;&gt;node_2 -->
<g id="edge16" class="edge"><title>node_11:R&#45;&gt;node_2</title>
<path fill="none" stroke="#0000cd" d="M25.7319,-25.473C28.4248,-8.73318 33.9599,25.6741 37.9632,50.5596"/>
<polygon fill="#0000cd" stroke="#0000cd" points="22.2644,-24.9921 24.1316,-35.4211 29.1755,-26.1039 22.2644,-24.9921"/>
</g>
<!-- node_11&#45;&gt;node_5 -->
<g id="edge15" class="edge"><title>node_11:L&#45;&gt;node_5</title>
<path fill="none" stroke="#cd0000" d="M-18.152,-26.5114C-19.0186,-25.0501 -19.9563,-23.469 -20.9368,-21.8156"/>
<polygon fill="#cd0000" stroke="#cd0000" points="-20.9797,-28.605 -12.8684,-35.4211 -14.9588,-25.0345 -20.9797,-28.605"/>
</g>
<!-- node_12 -->
<g id="node17" class="node"><title>node_12</title>
<polygon fill="none" stroke="black" points="-281.868,-66.4211 -281.868,-93.4211 -199.868,-93.4211 -199.868,-66.4211 -281.868,-66.4211"/>
<text text-anchor="start" x="-251.868" y="-77.2211" font-family="Times,serif" text-decoration="overline" font-size="14.00">&#45;3/4</text>
<polygon fill="none" stroke="black" points="-281.868,-35.4211 -281.868,-66.4211 -245.868,-66.4211 -245.868,-35.4211 -281.868,-35.4211"/>
<text text-anchor="start" x="-273.868" y="-48.2211" font-family="Times,serif" font-size="14.00"> </text>
<text text-anchor="start" x="-269.868" y="-48.2211" font-family="Times,serif" text-decoration="overline" font-size="14.00">&#45;1</text>
<text text-anchor="start" x="-257.868" y="-48.2211" font-family="Times,serif" font-size="14.00"> </text>
<polygon fill="none" stroke="black" points="-245.868,-35.4211 -245.868,-66.4211 -199.868,-66.4211 -199.868,-35.4211 -245.868,-35.4211"/>
<text text-anchor="start" x="-237.868" y="-48.2211" font-family="Times,serif" font-size="14.00"> </text>
<text text-anchor="start" x="-233.868" y="-48.2211" font-family="Times,serif" text-decoration="overline" font-size="14.00">&#45;1/2</text>
<text text-anchor="start" x="-211.868" y="-48.2211" font-family="Times,serif" font-size="14.00"> </text>
</g>
<!-- node_12&#45;&gt;node_1 -->
<g id="edge17" class="edge"><title>node_12:L&#45;&gt;node_1</title>
<path fill="none" stroke="#cd0000" d="M-265.382,-25.473C-267.93,-8.73318 -273.166,25.6741 -276.952,50.5596"/>
<polygon fill="#cd0000" stroke="#cd0000" points="-268.833,-26.0614 -263.868,-35.4211 -261.913,-25.0083 -268.833,-26.0614"/>
</g>
<!-- node_12&#45;&gt;node_6 -->
<g id="edge18" class="edge"><title>node_12:R&#45;&gt;node_6</title>
<path fill="none" stroke="#0000cd" d="M-218.206,-26.5114C-217.442,-25.0501 -216.614,-23.469 -215.749,-21.8156"/>
<polygon fill="#0000cd" stroke="#0000cd" points="-221.333,-24.938 -222.868,-35.4211 -215.131,-28.1834 -221.333,-24.938"/>
</g>
<!-- node_13 -->
<g id="node18" class="node"><title>node_13</title>
<polygon fill="none" stroke="black" points="92.6316,-66.4211 92.6316,-93.4211 154.632,-93.4211 154.632,-66.4211 92.6316,-66.4211"/>
<text text-anchor="start" x="114.632" y="-77.2211" font-family="Times,serif" text-decoration="overline" font-size="14.00">3/2</text>
<polygon fill="none" stroke="black" points="92.6316,-35.4211 92.6316,-66.4211 123.632,-66.4211 123.632,-35.4211 92.6316,-35.4211"/>
<text text-anchor="start" x="100.632" y="-48.2211" font-family="Times,serif" font-size="14.00"> </text>
<text text-anchor="start" x="104.632" y="-48.2211" font-family="Times,serif" text-decoration="overline" font-size="14.00">1</text>
<text text-anchor="start" x="111.632" y="-48.2211" font-family="Times,serif" font-size="14.00"> </text>
<polygon fill="none" stroke="black" points="123.632,-35.4211 123.632,-66.4211 154.632,-66.4211 154.632,-35.4211 123.632,-35.4211"/>
<text text-anchor="start" x="131.632" y="-48.2211" font-family="Times,serif" font-size="14.00"> </text>
<text text-anchor="start" x="135.632" y="-48.2211" font-family="Times,serif" text-decoration="overline" font-size="14.00">2</text>
<text text-anchor="start" x="142.632" y="-48.2211" font-family="Times,serif" font-size="14.00"> </text>
</g>
<!-- node_13&#45;&gt;node_2 -->
<g id="edge19" class="edge"><title>node_13:L&#45;&gt;node_2</title>
<path fill="none" stroke="#cd0000" d="M102.602,-26.5227C93.3816,-10.2095 73.4004,25.1418 59.0338,50.5596"/>
<polygon fill="#cd0000" stroke="#cd0000" points="99.664,-28.4376 107.632,-35.4211 105.758,-24.9932 99.664,-28.4376"/>
</g>
<!-- node_13&#45;&gt;node_4 -->
<g id="edge20" class="edge"><title>node_13:R&#45;&gt;node_4</title>
<path fill="none" stroke="#0000cd" d="M161.486,-42.4704C166.189,-37.0144 172.75,-29.4034 179.339,-21.7609"/>
<polygon fill="#0000cd" stroke="#0000cd" points="158.51,-40.5616 154.632,-50.4211 163.812,-45.1322 158.51,-40.5616"/>
</g>
<!-- node_14 -->
<g id="node19" class="node"><title>node_14</title>
<polygon fill="none" stroke="black" points="-398.368,-66.4211 -398.368,-93.4211 -326.368,-93.4211 -326.368,-66.4211 -398.368,-66.4211"/>
<text text-anchor="start" x="-373.368" y="-77.2211" font-family="Times,serif" text-decoration="overline" font-size="14.00">&#45;3/2</text>
<polygon fill="none" stroke="black" points="-398.368,-35.4211 -398.368,-66.4211 -362.368,-66.4211 -362.368,-35.4211 -398.368,-35.4211"/>
<text text-anchor="start" x="-390.368" y="-48.2211" font-family="Times,serif" font-size="14.00"> </text>
<text text-anchor="start" x="-386.368" y="-48.2211" font-family="Times,serif" text-decoration="overline" font-size="14.00">&#45;2</text>
<text text-anchor="start" x="-374.368" y="-48.2211" font-family="Times,serif" font-size="14.00"> </text>
<polygon fill="none" stroke="black" points="-362.368,-35.4211 -362.368,-66.4211 -326.368,-66.4211 -326.368,-35.4211 -362.368,-35.4211"/>
<text text-anchor="start" x="-354.368" y="-48.2211" font-family="Times,serif" font-size="14.00"> </text>
<text text-anchor="start" x="-350.368" y="-48.2211" font-family="Times,serif" text-decoration="overline" font-size="14.00">&#45;1</text>
<text text-anchor="start" x="-338.368" y="-48.2211" font-family="Times,serif" font-size="14.00"> </text>
</g>
<!-- node_14&#45;&gt;node_1 -->
<g id="edge22" class="edge"><title>node_14:R&#45;&gt;node_1</title>
<path fill="none" stroke="#0000cd" d="M-339.494,-26.5227C-330.557,-10.2095 -311.191,25.1418 -297.266,50.5596"/>
<polygon fill="#0000cd" stroke="#0000cd" points="-342.633,-24.9692 -344.368,-35.4211 -336.494,-28.3324 -342.633,-24.9692"/>
</g>
<!-- node_14&#45;&gt;node_3 -->
<g id="edge21" class="edge"><title>node_14:L&#45;&gt;node_3</title>
<path fill="none" stroke="#cd0000" d="M-404.537,-42.4704C-408.77,-37.0144 -414.675,-29.4034 -420.605,-21.7609"/>
<polygon fill="#cd0000" stroke="#cd0000" points="-407.264,-44.6657 -398.368,-50.4211 -401.733,-40.3747 -407.264,-44.6657"/>
</g>
</g>
</svg>
