<?xml version="1.0" encoding="UTF-8" standalone="no"?>
<!DOCTYPE svg PUBLIC "-//W3C//DTD SVG 1.1//EN"
 "http://www.w3.org/Graphics/SVG/1.1/DTD/svg11.dtd">
<!-- Generated by graphviz version 2.38.0 (20140413.2041)
 -->
<!-- Title: dyadic_tree Pages: 1 -->
<svg width="2942pt" height="344pt"
 viewBox="0.00 0.00 2942.00 344.08" xmlns="http://www.w3.org/2000/svg" xmlns:xlink="http://www.w3.org/1999/xlink">
<g id="graph0" class="graph" transform="scale(1 1) rotate(0) translate(1471 88.4287)">
<title>dyadic_tree</title>
<polygon fill="white" stroke="none" points="-1471,255.655 -1471,-88.4287 1471,-88.4287 1471,255.655 -1471,255.655"/>
<!-- node_0 -->
<g id="node1" class="node"><title>node_0</title>
<ellipse fill="none" stroke="#cd0000" cx="0" cy="227.613" rx="27" ry="24.0833"/>
<text text-anchor="middle" x="0" y="233.813" font-family="Times,serif" font-size="24.00">0</text>
</g>
<!-- node_1 -->
<g id="node2" class="node"><title>node_1</title>
<ellipse fill="none" stroke="#0000cd" cx="-360" cy="155.613" rx="27" ry="24.0833"/>
<text text-anchor="middle" x="-360" y="161.813" font-family="Times,serif" font-size="24.00">&#45;1</text>
</g>
<!-- node_1&#45;&gt;node_0 -->
<g id="edge1" class="edge"><title>node_1&#45;&gt;node_0</title>
<path fill="none" stroke="black" d="M-333.528,160.907C-270.074,173.598 -109.188,205.775 -36.563,220.3"/>
<polygon fill="black" stroke="black" points="-35.6298,216.918 -26.5105,222.311 -37.0027,223.782 -35.6298,216.918"/>
</g>
<!-- node_2 -->
<g id="node3" class="node"><title>node_2</title>
<ellipse fill="none" stroke="#0000cd" cx="360" cy="155.613" rx="27" ry="24.0833"/>
<text text-anchor="middle" x="360" y="161.813" font-family="Times,serif" font-size="24.00">1</text>
</g>
<!-- node_2&#45;&gt;node_0 -->
<g id="edge2" class="edge"><title>node_2&#45;&gt;node_0</title>
<path fill="none" stroke="black" d="M333.528,160.907C270.074,173.598 109.188,205.775 36.563,220.3"/>
<polygon fill="black" stroke="black" points="37.0027,223.782 26.5105,222.311 35.6298,216.918 37.0027,223.782"/>
</g>
<!-- node_3 -->
<g id="node4" class="node"><title>node_3</title>
<ellipse fill="none" stroke="#cd0000" cx="-720" cy="83.6129" rx="27" ry="24.0833"/>
<text text-anchor="middle" x="-720" y="89.8129" font-family="Times,serif" font-size="24.00">&#45;2</text>
</g>
<!-- node_3&#45;&gt;node_1 -->
<g id="edge3" class="edge"><title>node_3&#45;&gt;node_1</title>
<path fill="none" stroke="black" d="M-693.528,88.9072C-630.074,101.598 -469.188,133.775 -396.563,148.3"/>
<polygon fill="black" stroke="black" points="-395.63,144.918 -386.51,150.311 -397.003,151.782 -395.63,144.918"/>
</g>
<!-- node_4 -->
<g id="node5" class="node"><title>node_4</title>
<ellipse fill="none" stroke="#cd0000" cx="720" cy="83.6129" rx="27" ry="24.0833"/>
<text text-anchor="middle" x="720" y="89.8129" font-family="Times,serif" font-size="24.00">2</text>
</g>
<!-- node_4&#45;&gt;node_2 -->
<g id="edge4" class="edge"><title>node_4&#45;&gt;node_2</title>
<path fill="none" stroke="black" d="M693.528,88.9072C630.074,101.598 469.188,133.775 396.563,148.3"/>
<polygon fill="black" stroke="black" points="397.003,151.782 386.51,150.311 395.63,144.918 397.003,151.782"/>
</g>
<!-- node_5 -->
<g id="node6" class="node"><title>node_5</title>
<ellipse fill="none" stroke="#00cd00" cx="180" cy="83.6129" rx="33.4697" ry="24.0833"/>
<text text-anchor="middle" x="180" y="89.8129" font-family="Times,serif" font-size="24.00">1/2</text>
</g>
<!-- node_5&#45;&gt;node_0 -->
<g id="edge5" class="edge"><title>node_5&#45;&gt;node_0</title>
<path fill="none" stroke="black" d="M157.567,101.559C124.849,127.734 64.0562,176.368 28.3044,204.969"/>
<polygon fill="black" stroke="black" points="30.2112,207.926 20.2161,211.44 25.8383,202.46 30.2112,207.926"/>
</g>
<!-- node_5&#45;&gt;node_2 -->
<g id="edge6" class="edge"><title>node_5&#45;&gt;node_2</title>
<path fill="none" stroke="black" d="M209.321,95.3412C241.236,108.107 292.208,128.496 325.891,141.969"/>
<polygon fill="black" stroke="black" points="327.341,138.78 335.326,145.743 324.741,145.279 327.341,138.78"/>
</g>
<!-- node_6 -->
<g id="node7" class="node"><title>node_6</title>
<ellipse fill="none" stroke="#00cd00" cx="-180" cy="83.6129" rx="39.6962" ry="24.0833"/>
<text text-anchor="middle" x="-180" y="89.8129" font-family="Times,serif" font-size="24.00">&#45;1/2</text>
</g>
<!-- node_6&#45;&gt;node_0 -->
<g id="edge8" class="edge"><title>node_6&#45;&gt;node_0</title>
<path fill="none" stroke="black" d="M-155.724,103.033C-122.587,129.543 -63.3131,176.962 -28.2312,205.028"/>
<polygon fill="black" stroke="black" points="-25.9084,202.404 -20.2861,211.384 -30.2813,207.87 -25.9084,202.404"/>
</g>
<!-- node_6&#45;&gt;node_1 -->
<g id="edge7" class="edge"><title>node_6&#45;&gt;node_1</title>
<path fill="none" stroke="black" d="M-213.435,96.9868C-245.407,109.776 -293.394,128.971 -325.663,141.878"/>
<polygon fill="black" stroke="black" points="-324.553,145.204 -335.138,145.668 -327.153,138.704 -324.553,145.204"/>
</g>
<!-- node_7 -->
<g id="node8" class="node"><title>node_7</title>
<ellipse fill="none" stroke="#0000cd" cx="-1080" cy="11.6129" rx="27" ry="24.0833"/>
<text text-anchor="middle" x="-1080" y="17.8129" font-family="Times,serif" font-size="24.00">&#45;3</text>
</g>
<!-- node_7&#45;&gt;node_3 -->
<g id="edge9" class="edge"><title>node_7&#45;&gt;node_3</title>
<path fill="none" stroke="black" d="M-1053.53,16.9072C-990.074,29.5981 -829.188,61.7754 -756.563,76.3003"/>
<polygon fill="black" stroke="black" points="-755.63,72.9175 -746.51,78.3108 -757.003,79.7816 -755.63,72.9175"/>
</g>
<!-- node_8 -->
<g id="node9" class="node"><title>node_8</title>
<ellipse fill="none" stroke="#0000cd" cx="1080" cy="11.6129" rx="27" ry="24.0833"/>
<text text-anchor="middle" x="1080" y="17.8129" font-family="Times,serif" font-size="24.00">3</text>
</g>
<!-- node_8&#45;&gt;node_4 -->
<g id="edge10" class="edge"><title>node_8&#45;&gt;node_4</title>
<path fill="none" stroke="black" d="M1053.53,16.9072C990.074,29.5981 829.188,61.7754 756.563,76.3003"/>
<polygon fill="black" stroke="black" points="757.003,79.7816 746.51,78.3108 755.63,72.9175 757.003,79.7816"/>
</g>
<!-- node_9 -->
<g id="node10" class="node"><title>node_9</title>
<ellipse fill="none" stroke="#0000cd" cx="90" cy="11.6129" rx="33.4697" ry="24.0833"/>
<text text-anchor="middle" x="90" y="17.8129" font-family="Times,serif" font-size="24.00">1/4</text>
</g>
<!-- node_9&#45;&gt;node_0 -->
<g id="edge11" class="edge"><title>node_9&#45;&gt;node_0</title>
<path fill="none" stroke="black" d="M80.3684,34.7287C64.2218,73.4806 31.6633,151.621 13.3295,195.622"/>
<polygon fill="black" stroke="black" points="16.5041,197.103 9.42707,204.988 10.0425,194.411 16.5041,197.103"/>
</g>
<!-- node_9&#45;&gt;node_5 -->
<g id="edge12" class="edge"><title>node_9&#45;&gt;node_5</title>
<path fill="none" stroke="black" d="M112.711,29.7815C123.881,38.7174 137.502,49.6142 149.56,59.2605"/>
<polygon fill="black" stroke="black" points="151.986,56.7195 157.608,65.6995 147.613,62.1856 151.986,56.7195"/>
</g>
<!-- node_10 -->
<g id="node11" class="node"><title>node_10</title>
<ellipse fill="none" stroke="#0000cd" cx="-90" cy="11.6129" rx="39.6962" ry="24.0833"/>
<text text-anchor="middle" x="-90" y="17.8129" font-family="Times,serif" font-size="24.00">&#45;1/4</text>
</g>
<!-- node_10&#45;&gt;node_0 -->
<g id="edge14" class="edge"><title>node_10&#45;&gt;node_0</title>
<path fill="none" stroke="black" d="M-80.1971,35.1399C-64.0174,73.9712 -31.6982,151.537 -13.4138,195.42"/>
<polygon fill="black" stroke="black" points="-10.1346,194.19 -9.51914,204.767 -16.5961,196.882 -10.1346,194.19"/>
</g>
<!-- node_10&#45;&gt;node_6 -->
<g id="edge13" class="edge"><title>node_10&#45;&gt;node_6</title>
<path fill="none" stroke="black" d="M-114.118,30.9076C-124.509,39.2203 -136.809,49.06 -147.951,57.9734"/>
<polygon fill="black" stroke="black" points="-145.82,60.751 -155.815,64.265 -150.193,55.2849 -145.82,60.751"/>
</g>
<!-- node_11 -->
<g id="node12" class="node"><title>node_11</title>
<ellipse fill="none" stroke="#cd0000" cx="270" cy="11.6129" rx="33.4697" ry="24.0833"/>
<text text-anchor="middle" x="270" y="17.8129" font-family="Times,serif" font-size="24.00">3/4</text>
</g>
<!-- node_11&#45;&gt;node_2 -->
<g id="edge16" class="edge"><title>node_11&#45;&gt;node_2</title>
<path fill="none" stroke="black" d="M283.865,33.7973C299.282,58.4637 324.261,98.4299 341.374,125.812"/>
<polygon fill="black" stroke="black" points="344.519,124.24 346.852,134.575 338.583,127.95 344.519,124.24"/>
</g>
<!-- node_11&#45;&gt;node_5 -->
<g id="edge15" class="edge"><title>node_11&#45;&gt;node_5</title>
<path fill="none" stroke="black" d="M247.289,29.7815C236.119,38.7174 222.498,49.6142 210.44,59.2605"/>
<polygon fill="black" stroke="black" points="212.387,62.1856 202.392,65.6995 208.014,56.7195 212.387,62.1856"/>
</g>
<!-- node_12 -->
<g id="node13" class="node"><title>node_12</title>
<ellipse fill="none" stroke="#cd0000" cx="-270" cy="11.6129" rx="39.6962" ry="24.0833"/>
<text text-anchor="middle" x="-270" y="17.8129" font-family="Times,serif" font-size="24.00">&#45;3/4</text>
</g>
<!-- node_12&#45;&gt;node_1 -->
<g id="edge17" class="edge"><title>node_12&#45;&gt;node_1</title>
<path fill="none" stroke="black" d="M-284.062,34.1129C-299.431,58.7024 -324.13,98.2213 -341.165,125.476"/>
<polygon fill="black" stroke="black" points="-338.355,127.585 -346.623,134.21 -344.291,123.875 -338.355,127.585"/>
</g>
<!-- node_12&#45;&gt;node_6 -->
<g id="edge18" class="edge"><title>node_12&#45;&gt;node_6</title>
<path fill="none" stroke="black" d="M-245.882,30.9076C-235.491,39.2203 -223.191,49.06 -212.049,57.9734"/>
<polygon fill="black" stroke="black" points="-209.807,55.2849 -204.185,64.265 -214.18,60.751 -209.807,55.2849"/>
</g>
<!-- node_13 -->
<g id="node14" class="node"><title>node_13</title>
<ellipse fill="none" stroke="#00cd00" cx="540" cy="11.6129" rx="33.4697" ry="24.0833"/>
<text text-anchor="middle" x="540" y="17.8129" font-family="Times,serif" font-size="24.00">3/2</text>
</g>
<!-- node_13&#45;&gt;node_2 -->
<g id="edge19" class="edge"><title>node_13&#45;&gt;node_2</title>
<path fill="none" stroke="black" d="M517.567,29.5594C484.849,55.7338 424.056,104.368 388.304,132.969"/>
<polygon fill="black" stroke="black" points="390.211,135.926 380.216,139.44 385.838,130.46 390.211,135.926"/>
</g>
<!-- node_13&#45;&gt;node_4 -->
<g id="edge20" class="edge"><title>node_13&#45;&gt;node_4</title>
<path fill="none" stroke="black" d="M569.321,23.3412C601.236,36.1074 652.208,56.496 685.891,69.9693"/>
<polygon fill="black" stroke="black" points="687.341,66.7795 695.326,73.7432 684.741,73.2789 687.341,66.7795"/>
</g>
<!-- node_14 -->
<g id="node15" class="node"><title>node_14</title>
<ellipse fill="none" stroke="#00cd00" cx="-540" cy="11.6129" rx="39.6962" ry="24.0833"/>
<text text-anchor="middle" x="-540" y="17.8129" font-family="Times,serif" font-size="24.00">&#45;3/2</text>
</g>
<!-- node_14&#45;&gt;node_1 -->
<g id="edge22" class="edge"><title>node_14&#45;&gt;node_1</title>
<path fill="none" stroke="black" d="M-515.724,31.0334C-482.587,57.5431 -423.313,104.962 -388.231,133.028"/>
<polygon fill="black" stroke="black" points="-385.908,130.404 -380.286,139.384 -390.281,135.87 -385.908,130.404"/>
</g>
<!-- node_14&#45;&gt;node_3 -->
<g id="edge21" class="edge"><title>node_14&#45;&gt;node_3</title>
<path fill="none" stroke="black" d="M-573.435,24.9868C-605.407,37.7755 -653.394,56.9706 -685.663,69.8782"/>
<polygon fill="black" stroke="black" points="-684.553,73.2038 -695.138,73.6681 -687.153,66.7044 -684.553,73.2038"/>
</g>
<!-- node_15 -->
<g id="node16" class="node"><title>node_15</title>
<ellipse fill="none" stroke="#cd0000" cx="-1440" cy="-60.3871" rx="27" ry="24.0833"/>
<text text-anchor="middle" x="-1440" y="-54.1871" font-family="Times,serif" font-size="24.00">&#45;4</text>
</g>
<!-- node_15&#45;&gt;node_7 -->
<g id="edge23" class="edge"><title>node_15&#45;&gt;node_7</title>
<path fill="none" stroke="black" d="M-1413.53,-55.0928C-1350.07,-42.4019 -1189.19,-10.2246 -1116.56,4.30029"/>
<polygon fill="black" stroke="black" points="-1115.63,0.917538 -1106.51,6.31081 -1117,7.7816 -1115.63,0.917538"/>
</g>
<!-- node_16 -->
<g id="node17" class="node"><title>node_16</title>
<ellipse fill="none" stroke="#cd0000" cx="1440" cy="-60.3871" rx="27" ry="24.0833"/>
<text text-anchor="middle" x="1440" y="-54.1871" font-family="Times,serif" font-size="24.00">4</text>
</g>
<!-- node_16&#45;&gt;node_8 -->
<g id="edge24" class="edge"><title>node_16&#45;&gt;node_8</title>
<path fill="none" stroke="black" d="M1413.53,-55.0928C1350.07,-42.4019 1189.19,-10.2246 1116.56,4.30029"/>
<polygon fill="black" stroke="black" points="1117,7.7816 1106.51,6.31081 1115.63,0.917538 1117,7.7816"/>
</g>
<!-- node_17 -->
<g id="node18" class="node"><title>node_17</title>
<ellipse fill="none" stroke="#00cd00" cx="45" cy="-60.3871" rx="33.4697" ry="24.0833"/>
<text text-anchor="middle" x="45" y="-54.1871" font-family="Times,serif" font-size="24.00">1/8</text>
</g>
<!-- node_17&#45;&gt;node_0 -->
<g id="edge25" class="edge"><title>node_17&#45;&gt;node_0</title>
<path fill="none" stroke="black" d="M41.2407,-36.3277C33.2499,14.8133 14.5542,134.466 5.33413,193.474"/>
<polygon fill="black" stroke="black" points="8.78212,194.08 3.78022,203.419 1.86603,192.999 8.78212,194.08"/>
</g>
<!-- node_17&#45;&gt;node_9 -->
<g id="edge26" class="edge"><title>node_17&#45;&gt;node_9</title>
<path fill="none" stroke="black" d="M58.746,-38.3935C62.5132,-32.366 66.6683,-25.7178 70.6852,-19.2908"/>
<polygon fill="black" stroke="black" points="73.6956,-21.0779 76.0276,-10.7429 67.7596,-17.3679 73.6956,-21.0779"/>
</g>
<!-- node_18 -->
<g id="node19" class="node"><title>node_18</title>
<ellipse fill="none" stroke="#00cd00" cx="-45" cy="-60.3871" rx="39.6962" ry="24.0833"/>
<text text-anchor="middle" x="-45" y="-54.1871" font-family="Times,serif" font-size="24.00">&#45;1/8</text>
</g>
<!-- node_18&#45;&gt;node_0 -->
<g id="edge28" class="edge"><title>node_18&#45;&gt;node_0</title>
<path fill="none" stroke="black" d="M-41.2407,-36.3277C-33.2499,14.8133 -14.5542,134.466 -5.33413,193.474"/>
<polygon fill="black" stroke="black" points="-1.86603,192.999 -3.78022,203.419 -8.78212,194.08 -1.86603,192.999"/>
</g>
<!-- node_18&#45;&gt;node_10 -->
<g id="edge27" class="edge"><title>node_18&#45;&gt;node_10</title>
<path fill="none" stroke="black" d="M-59.2383,-37.6058C-62.7675,-31.959 -66.6117,-25.8084 -70.3493,-19.8282"/>
<polygon fill="black" stroke="black" points="-67.4319,-17.8923 -75.6999,-11.2673 -73.3679,-21.6023 -67.4319,-17.8923"/>
</g>
<!-- node_19 -->
<g id="node20" class="node"><title>node_19</title>
<ellipse fill="none" stroke="#cd0000" cx="135" cy="-60.3871" rx="33.4697" ry="24.0833"/>
<text text-anchor="middle" x="135" y="-54.1871" font-family="Times,serif" font-size="24.00">3/8</text>
</g>
<!-- node_19&#45;&gt;node_5 -->
<g id="edge30" class="edge"><title>node_19&#45;&gt;node_5</title>
<path fill="none" stroke="black" d="M142.33,-36.9305C149.706,-13.3276 161.153,23.3031 169.494,49.9922"/>
<polygon fill="black" stroke="black" points="172.881,49.0977 172.523,59.6865 166.199,51.1857 172.881,49.0977"/>
</g>
<!-- node_19&#45;&gt;node_9 -->
<g id="edge29" class="edge"><title>node_19&#45;&gt;node_9</title>
<path fill="none" stroke="black" d="M121.254,-38.3935C117.487,-32.366 113.332,-25.7178 109.315,-19.2908"/>
<polygon fill="black" stroke="black" points="112.24,-17.3679 103.972,-10.7429 106.304,-21.0779 112.24,-17.3679"/>
</g>
<!-- node_20 -->
<g id="node21" class="node"><title>node_20</title>
<ellipse fill="none" stroke="#cd0000" cx="-135" cy="-60.3871" rx="39.6962" ry="24.0833"/>
<text text-anchor="middle" x="-135" y="-54.1871" font-family="Times,serif" font-size="24.00">&#45;3/8</text>
</g>
<!-- node_20&#45;&gt;node_6 -->
<g id="edge31" class="edge"><title>node_20&#45;&gt;node_6</title>
<path fill="none" stroke="black" d="M-142.431,-36.6084C-149.824,-12.95 -161.235,23.5642 -169.541,50.1453"/>
<polygon fill="black" stroke="black" points="-166.235,51.2981 -172.558,59.7989 -172.916,49.2101 -166.235,51.2981"/>
</g>
<!-- node_20&#45;&gt;node_10 -->
<g id="edge32" class="edge"><title>node_20&#45;&gt;node_10</title>
<path fill="none" stroke="black" d="M-120.762,-37.6058C-117.232,-31.959 -113.388,-25.8084 -109.651,-19.8282"/>
<polygon fill="black" stroke="black" points="-106.632,-21.6023 -104.3,-11.2673 -112.568,-17.8923 -106.632,-21.6023"/>
</g>
<!-- node_21 -->
<g id="node22" class="node"><title>node_21</title>
<ellipse fill="none" stroke="#0000cd" cx="225" cy="-60.3871" rx="33.4697" ry="24.0833"/>
<text text-anchor="middle" x="225" y="-54.1871" font-family="Times,serif" font-size="24.00">5/8</text>
</g>
<!-- node_21&#45;&gt;node_5 -->
<g id="edge33" class="edge"><title>node_21&#45;&gt;node_5</title>
<path fill="none" stroke="black" d="M217.67,-36.9305C210.294,-13.3276 198.847,23.3031 190.506,49.9922"/>
<polygon fill="black" stroke="black" points="193.801,51.1857 187.477,59.6865 187.119,49.0977 193.801,51.1857"/>
</g>
<!-- node_21&#45;&gt;node_11 -->
<g id="edge34" class="edge"><title>node_21&#45;&gt;node_11</title>
<path fill="none" stroke="black" d="M238.746,-38.3935C242.513,-32.366 246.668,-25.7178 250.685,-19.2908"/>
<polygon fill="black" stroke="black" points="253.696,-21.0779 256.028,-10.7429 247.76,-17.3679 253.696,-21.0779"/>
</g>
<!-- node_22 -->
<g id="node23" class="node"><title>node_22</title>
<ellipse fill="none" stroke="#0000cd" cx="-225" cy="-60.3871" rx="39.6962" ry="24.0833"/>
<text text-anchor="middle" x="-225" y="-54.1871" font-family="Times,serif" font-size="24.00">&#45;5/8</text>
</g>
<!-- node_22&#45;&gt;node_6 -->
<g id="edge36" class="edge"><title>node_22&#45;&gt;node_6</title>
<path fill="none" stroke="black" d="M-217.569,-36.6084C-210.176,-12.95 -198.765,23.5642 -190.459,50.1453"/>
<polygon fill="black" stroke="black" points="-187.084,49.2101 -187.442,59.7989 -193.765,51.2981 -187.084,49.2101"/>
</g>
<!-- node_22&#45;&gt;node_12 -->
<g id="edge35" class="edge"><title>node_22&#45;&gt;node_12</title>
<path fill="none" stroke="black" d="M-239.238,-37.6058C-242.768,-31.959 -246.612,-25.8084 -250.349,-19.8282"/>
<polygon fill="black" stroke="black" points="-247.432,-17.8923 -255.7,-11.2673 -253.368,-21.6023 -247.432,-17.8923"/>
</g>
<!-- node_23 -->
<g id="node24" class="node"><title>node_23</title>
<ellipse fill="none" stroke="#00cd00" cx="315" cy="-60.3871" rx="33.4697" ry="24.0833"/>
<text text-anchor="middle" x="315" y="-54.1871" font-family="Times,serif" font-size="24.00">7/8</text>
</g>
<!-- node_23&#45;&gt;node_2 -->
<g id="edge38" class="edge"><title>node_23&#45;&gt;node_2</title>
<path fill="none" stroke="black" d="M319.988,-36.446C328.017,2.09378 343.832,78.0078 352.991,121.972"/>
<polygon fill="black" stroke="black" points="356.445,121.39 355.059,131.894 349.592,122.818 356.445,121.39"/>
</g>
<!-- node_23&#45;&gt;node_11 -->
<g id="edge37" class="edge"><title>node_23&#45;&gt;node_11</title>
<path fill="none" stroke="black" d="M301.254,-38.3935C297.487,-32.366 293.332,-25.7178 289.315,-19.2908"/>
<polygon fill="black" stroke="black" points="292.24,-17.3679 283.972,-10.7429 286.304,-21.0779 292.24,-17.3679"/>
</g>
<!-- node_24 -->
<g id="node25" class="node"><title>node_24</title>
<ellipse fill="none" stroke="#00cd00" cx="-315" cy="-60.3871" rx="39.6962" ry="24.0833"/>
<text text-anchor="middle" x="-315" y="-54.1871" font-family="Times,serif" font-size="24.00">&#45;7/8</text>
</g>
<!-- node_24&#45;&gt;node_1 -->
<g id="edge39" class="edge"><title>node_24&#45;&gt;node_1</title>
<path fill="none" stroke="black" d="M-319.988,-36.446C-328.017,2.09378 -343.832,78.0078 -352.991,121.972"/>
<polygon fill="black" stroke="black" points="-349.592,122.818 -355.059,131.894 -356.445,121.39 -349.592,122.818"/>
</g>
<!-- node_24&#45;&gt;node_12 -->
<g id="edge40" class="edge"><title>node_24&#45;&gt;node_12</title>
<path fill="none" stroke="black" d="M-300.762,-37.6058C-297.232,-31.959 -293.388,-25.8084 -289.651,-19.8282"/>
<polygon fill="black" stroke="black" points="-286.632,-21.6023 -284.3,-11.2673 -292.568,-17.8923 -286.632,-21.6023"/>
</g>
<!-- node_25 -->
<g id="node26" class="node"><title>node_25</title>
<ellipse fill="none" stroke="#cd0000" cx="450" cy="-60.3871" rx="33.4697" ry="24.0833"/>
<text text-anchor="middle" x="450" y="-54.1871" font-family="Times,serif" font-size="24.00">5/4</text>
</g>
<!-- node_25&#45;&gt;node_2 -->
<g id="edge41" class="edge"><title>node_25&#45;&gt;node_2</title>
<path fill="none" stroke="black" d="M440.368,-37.2713C424.222,1.48062 391.663,79.621 373.329,123.622"/>
<polygon fill="black" stroke="black" points="376.504,125.103 369.427,132.988 370.043,122.411 376.504,125.103"/>
</g>
<!-- node_25&#45;&gt;node_13 -->
<g id="edge42" class="edge"><title>node_25&#45;&gt;node_13</title>
<path fill="none" stroke="black" d="M472.711,-42.2185C483.881,-33.2826 497.502,-22.3858 509.56,-12.7395"/>
<polygon fill="black" stroke="black" points="511.986,-15.2805 517.608,-6.30051 507.613,-9.81445 511.986,-15.2805"/>
</g>
<!-- node_26 -->
<g id="node27" class="node"><title>node_26</title>
<ellipse fill="none" stroke="#cd0000" cx="-450" cy="-60.3871" rx="39.6962" ry="24.0833"/>
<text text-anchor="middle" x="-450" y="-54.1871" font-family="Times,serif" font-size="24.00">&#45;5/4</text>
</g>
<!-- node_26&#45;&gt;node_1 -->
<g id="edge44" class="edge"><title>node_26&#45;&gt;node_1</title>
<path fill="none" stroke="black" d="M-440.197,-36.8601C-424.017,1.97122 -391.698,79.5373 -373.414,123.42"/>
<polygon fill="black" stroke="black" points="-370.135,122.19 -369.519,132.767 -376.596,124.882 -370.135,122.19"/>
</g>
<!-- node_26&#45;&gt;node_14 -->
<g id="edge43" class="edge"><title>node_26&#45;&gt;node_14</title>
<path fill="none" stroke="black" d="M-474.118,-41.0924C-484.509,-32.7797 -496.809,-22.94 -507.951,-14.0266"/>
<polygon fill="black" stroke="black" points="-505.82,-11.249 -515.815,-7.73504 -510.193,-16.7151 -505.82,-11.249"/>
</g>
<!-- node_27 -->
<g id="node28" class="node"><title>node_27</title>
<ellipse fill="none" stroke="#0000cd" cx="630" cy="-60.3871" rx="33.4697" ry="24.0833"/>
<text text-anchor="middle" x="630" y="-54.1871" font-family="Times,serif" font-size="24.00">7/4</text>
</g>
<!-- node_27&#45;&gt;node_4 -->
<g id="edge46" class="edge"><title>node_27&#45;&gt;node_4</title>
<path fill="none" stroke="black" d="M643.865,-38.2027C659.282,-13.5363 684.261,26.4299 701.374,53.812"/>
<polygon fill="black" stroke="black" points="704.519,52.2403 706.852,62.5753 698.583,55.9503 704.519,52.2403"/>
</g>
<!-- node_27&#45;&gt;node_13 -->
<g id="edge45" class="edge"><title>node_27&#45;&gt;node_13</title>
<path fill="none" stroke="black" d="M607.289,-42.2185C596.119,-33.2826 582.498,-22.3858 570.44,-12.7395"/>
<polygon fill="black" stroke="black" points="572.387,-9.81445 562.392,-6.30051 568.014,-15.2805 572.387,-9.81445"/>
</g>
<!-- node_28 -->
<g id="node29" class="node"><title>node_28</title>
<ellipse fill="none" stroke="#0000cd" cx="-630" cy="-60.3871" rx="39.6962" ry="24.0833"/>
<text text-anchor="middle" x="-630" y="-54.1871" font-family="Times,serif" font-size="24.00">&#45;7/4</text>
</g>
<!-- node_28&#45;&gt;node_3 -->
<g id="edge47" class="edge"><title>node_28&#45;&gt;node_3</title>
<path fill="none" stroke="black" d="M-644.062,-37.8871C-659.431,-13.2976 -684.13,26.2213 -701.165,53.4765"/>
<polygon fill="black" stroke="black" points="-698.355,55.5852 -706.623,62.2101 -704.291,51.8751 -698.355,55.5852"/>
</g>
<!-- node_28&#45;&gt;node_14 -->
<g id="edge48" class="edge"><title>node_28&#45;&gt;node_14</title>
<path fill="none" stroke="black" d="M-605.882,-41.0924C-595.491,-32.7797 -583.191,-22.94 -572.049,-14.0266"/>
<polygon fill="black" stroke="black" points="-569.807,-16.7151 -564.185,-7.73504 -574.18,-11.249 -569.807,-16.7151"/>
</g>
<!-- node_29 -->
<g id="node30" class="node"><title>node_29</title>
<ellipse fill="none" stroke="#00cd00" cx="900" cy="-60.3871" rx="33.4697" ry="24.0833"/>
<text text-anchor="middle" x="900" y="-54.1871" font-family="Times,serif" font-size="24.00">5/2</text>
</g>
<!-- node_29&#45;&gt;node_4 -->
<g id="edge49" class="edge"><title>node_29&#45;&gt;node_4</title>
<path fill="none" stroke="black" d="M877.567,-42.4406C844.849,-16.2662 784.056,32.3679 748.304,60.9694"/>
<polygon fill="black" stroke="black" points="750.211,63.9261 740.216,67.4401 745.838,58.46 750.211,63.9261"/>
</g>
<!-- node_29&#45;&gt;node_8 -->
<g id="edge50" class="edge"><title>node_29&#45;&gt;node_8</title>
<path fill="none" stroke="black" d="M929.321,-48.6588C961.236,-35.8926 1012.21,-15.504 1045.89,-2.03066"/>
<polygon fill="black" stroke="black" points="1047.34,-5.22047 1055.33,1.74317 1044.74,1.27887 1047.34,-5.22047"/>
</g>
<!-- node_30 -->
<g id="node31" class="node"><title>node_30</title>
<ellipse fill="none" stroke="#00cd00" cx="-900" cy="-60.3871" rx="39.6962" ry="24.0833"/>
<text text-anchor="middle" x="-900" y="-54.1871" font-family="Times,serif" font-size="24.00">&#45;5/2</text>
</g>
<!-- node_30&#45;&gt;node_3 -->
<g id="edge52" class="edge"><title>node_30&#45;&gt;node_3</title>
<path fill="none" stroke="black" d="M-875.724,-40.9666C-842.587,-14.4569 -783.313,32.9625 -748.231,61.028"/>
<polygon fill="black" stroke="black" points="-745.908,58.404 -740.286,67.384 -750.281,63.8701 -745.908,58.404"/>
</g>
<!-- node_30&#45;&gt;node_7 -->
<g id="edge51" class="edge"><title>node_30&#45;&gt;node_7</title>
<path fill="none" stroke="black" d="M-933.435,-47.0132C-965.407,-34.2245 -1013.39,-15.0294 -1045.66,-2.12181"/>
<polygon fill="black" stroke="black" points="-1044.55,1.20377 -1055.14,1.66806 -1047.15,-5.29558 -1044.55,1.20377"/>
</g>
</g>
</svg>
