<?xml version="1.0" encoding="UTF-8" standalone="no"?>
<!DOCTYPE svg PUBLIC "-//W3C//DTD SVG 1.1//EN"
 "http://www.w3.org/Graphics/SVG/1.1/DTD/svg11.dtd">
<!-- Generated by graphviz version 2.38.0 (20140413.2041)
 -->
<!-- Title: 1.0 Pages: 1 -->
<svg width="317pt" height="688pt"
 viewBox="0.00 0.00 317.00 688.00" xmlns="http://www.w3.org/2000/svg" xmlns:xlink="http://www.w3.org/1999/xlink">
<g id="graph0" class="graph" transform="scale(1 1) rotate(0) translate(4 684)">
<title>1.0</title>
<polygon fill="white" stroke="none" points="-4,4 -4,-684 313,-684 313,4 -4,4"/>
<!-- node_1 -->
<g id="node1" class="node"><title>node_1</title>
<polygon fill="none" stroke="black" points="137.5,-655 137.5,-680 195.5,-680 195.5,-655 137.5,-655"/>
<text text-anchor="start" x="163" y="-663.8" font-family="Times,serif" font-size="14.00">1</text>
<polygon fill="none" stroke="black" points="137.5,-626 137.5,-655 166.5,-655 166.5,-626 137.5,-626"/>
<text text-anchor="start" x="144.5" y="-636.8" font-family="Times,serif" font-size="14.00"> 0 </text>
<polygon fill="none" stroke="black" points="166.5,-626 166.5,-655 195.5,-655 195.5,-626 166.5,-626"/>
<text text-anchor="start" x="173.5" y="-636.8" font-family="Times,serif" font-size="14.00"> 2 </text>
</g>
<!-- node_2 -->
<g id="node2" class="node"><title>node_2</title>
<polygon fill="none" stroke="black" points="96.5,-565 96.5,-590 158.5,-590 158.5,-565 96.5,-565"/>
<text text-anchor="start" x="124" y="-573.8" font-family="Times,serif" font-size="14.00">0</text>
<polygon fill="none" stroke="black" points="96.5,-536 96.5,-565 129.5,-565 129.5,-536 96.5,-536"/>
<text text-anchor="start" x="103.5" y="-546.8" font-family="Times,serif" font-size="14.00"> &#45;1 </text>
<polygon fill="none" stroke="black" points="129.5,-536 129.5,-565 158.5,-565 158.5,-536 129.5,-536"/>
<text text-anchor="start" x="136.5" y="-546.8" font-family="Times,serif" font-size="14.00"> 1 </text>
</g>
<!-- node_1&#45;&gt;node_2 -->
<g id="edge1" class="edge"><title>node_1:0,1&#45;&gt;node_2</title>
<path fill="none" stroke="black" d="M151.5,-632C151.5,-621.09 148.719,-609.727 145.05,-599.485"/>
<polygon fill="black" stroke="black" points="148.254,-598.071 141.322,-590.059 141.745,-600.646 148.254,-598.071"/>
</g>
<!-- node_18 -->
<g id="node18" class="node"><title>node_18</title>
<polygon fill="none" stroke="black" points="176.5,-565 176.5,-590 234.5,-590 234.5,-565 176.5,-565"/>
<text text-anchor="start" x="202" y="-573.8" font-family="Times,serif" font-size="14.00">2</text>
<polygon fill="none" stroke="black" points="176.5,-536 176.5,-565 205.5,-565 205.5,-536 176.5,-536"/>
<text text-anchor="start" x="183.5" y="-546.8" font-family="Times,serif" font-size="14.00"> 1 </text>
<polygon fill="none" stroke="black" points="205.5,-536 205.5,-565 234.5,-565 234.5,-536 205.5,-536"/>
<text text-anchor="start" x="212.5" y="-546.8" font-family="Times,serif" font-size="14.00"> 3 </text>
</g>
<!-- node_1&#45;&gt;node_18 -->
<g id="edge26" class="edge"><title>node_1:2,1&#45;&gt;node_18</title>
<path fill="none" stroke="black" d="M181.5,-632C181.5,-621.09 184.281,-609.727 187.95,-599.485"/>
<polygon fill="black" stroke="black" points="191.255,-600.646 191.678,-590.059 184.746,-598.071 191.255,-600.646"/>
</g>
<!-- node_3 -->
<g id="node3" class="node"><title>node_3</title>
<polygon fill="none" stroke="black" points="58.5,-475 58.5,-500 120.5,-500 120.5,-475 58.5,-475"/>
<text text-anchor="start" x="83.5" y="-483.8" font-family="Times,serif" font-size="14.00">&#45;1</text>
<polygon fill="none" stroke="black" points="58.5,-446 58.5,-475 91.5,-475 91.5,-446 58.5,-446"/>
<text text-anchor="start" x="65.5" y="-456.8" font-family="Times,serif" font-size="14.00"> &#45;2 </text>
<polygon fill="none" stroke="black" points="91.5,-446 91.5,-475 120.5,-475 120.5,-446 91.5,-446"/>
<text text-anchor="start" x="98.5" y="-456.8" font-family="Times,serif" font-size="14.00"> 0 </text>
</g>
<!-- node_2&#45;&gt;node_3 -->
<g id="edge2" class="edge"><title>node_2:&#45;1,1&#45;&gt;node_3</title>
<path fill="none" stroke="black" d="M112.5,-542C112.5,-531.139 109.835,-519.792 106.318,-509.549"/>
<polygon fill="black" stroke="black" points="109.562,-508.23 102.746,-500.119 103.016,-510.71 109.562,-508.23"/>
</g>
<!-- node_15 -->
<g id="node15" class="node"><title>node_15</title>
<polygon fill="none" stroke="black" points="138.5,-475 138.5,-500 196.5,-500 196.5,-475 138.5,-475"/>
<text text-anchor="start" x="164" y="-483.8" font-family="Times,serif" font-size="14.00">1</text>
<polygon fill="none" stroke="black" points="138.5,-446 138.5,-475 167.5,-475 167.5,-446 138.5,-446"/>
<text text-anchor="start" x="145.5" y="-456.8" font-family="Times,serif" font-size="14.00"> 0 </text>
<polygon fill="none" stroke="black" points="167.5,-446 167.5,-475 196.5,-475 196.5,-446 167.5,-446"/>
<text text-anchor="start" x="174.5" y="-456.8" font-family="Times,serif" font-size="14.00"> 2 </text>
</g>
<!-- node_2&#45;&gt;node_15 -->
<g id="edge20" class="edge"><title>node_2:1,1&#45;&gt;node_15</title>
<path fill="none" stroke="black" d="M144.5,-542C144.5,-531.139 147.165,-519.792 150.682,-509.549"/>
<polygon fill="black" stroke="black" points="153.984,-510.71 154.254,-500.119 147.438,-508.23 153.984,-510.71"/>
</g>
<!-- node_4 -->
<g id="node4" class="node"><title>node_4</title>
<polygon fill="none" stroke="black" points="13.5,-385 13.5,-410 79.5,-410 79.5,-385 13.5,-385"/>
<text text-anchor="start" x="40.5" y="-393.8" font-family="Times,serif" font-size="14.00">&#45;2</text>
<polygon fill="none" stroke="black" points="13.5,-356 13.5,-385 46.5,-385 46.5,-356 13.5,-356"/>
<text text-anchor="start" x="20.5" y="-366.8" font-family="Times,serif" font-size="14.00"> &#45;3 </text>
<polygon fill="none" stroke="black" points="46.5,-356 46.5,-385 79.5,-385 79.5,-356 46.5,-356"/>
<text text-anchor="start" x="53.5" y="-366.8" font-family="Times,serif" font-size="14.00"> &#45;1 </text>
</g>
<!-- node_3&#45;&gt;node_4 -->
<g id="edge3" class="edge"><title>node_3:&#45;2,1&#45;&gt;node_4</title>
<path fill="none" stroke="black" d="M74.5,-452C74.5,-440.97 71.3113,-429.641 67.0861,-419.47"/>
<polygon fill="black" stroke="black" points="70.1452,-417.745 62.7877,-410.121 63.7852,-420.669 70.1452,-417.745"/>
</g>
<!-- node_12 -->
<g id="node12" class="node"><title>node_12</title>
<polygon fill="none" stroke="black" points="97.5,-385 97.5,-410 159.5,-410 159.5,-385 97.5,-385"/>
<text text-anchor="start" x="125" y="-393.8" font-family="Times,serif" font-size="14.00">0</text>
<polygon fill="none" stroke="black" points="97.5,-356 97.5,-385 130.5,-385 130.5,-356 97.5,-356"/>
<text text-anchor="start" x="104.5" y="-366.8" font-family="Times,serif" font-size="14.00"> &#45;1 </text>
<polygon fill="none" stroke="black" points="130.5,-356 130.5,-385 159.5,-385 159.5,-356 130.5,-356"/>
<text text-anchor="start" x="137.5" y="-366.8" font-family="Times,serif" font-size="14.00"> 1 </text>
</g>
<!-- node_3&#45;&gt;node_12 -->
<g id="edge14" class="edge"><title>node_3:0,1&#45;&gt;node_12</title>
<path fill="none" stroke="black" d="M106.5,-452C106.5,-441.187 109.05,-429.855 112.413,-419.611"/>
<polygon fill="black" stroke="black" points="115.716,-420.77 115.83,-410.176 109.134,-418.386 115.716,-420.77"/>
</g>
<!-- node_5 -->
<g id="node5" class="node"><title>node_5</title>
<polygon fill="none" stroke="black" points="0.5,-295 0.5,-320 59.5,-320 59.5,-295 0.5,-295"/>
<text text-anchor="start" x="24" y="-303.8" font-family="Times,serif" font-size="14.00">&#45;3</text>
<polygon fill="none" stroke="black" points="0.5,-266 0.5,-295 26.5,-295 26.5,-266 0.5,-266"/>
<text text-anchor="start" x="5.5" y="-276.8" font-family="Times,serif" font-size="14.00"> ϕ </text>
<polygon fill="none" stroke="black" points="26.5,-266 26.5,-295 59.5,-295 59.5,-266 26.5,-266"/>
<text text-anchor="start" x="33.5" y="-276.8" font-family="Times,serif" font-size="14.00"> &#45;2 </text>
</g>
<!-- node_4&#45;&gt;node_5 -->
<g id="edge4" class="edge"><title>node_4:&#45;3,1&#45;&gt;node_5</title>
<path fill="none" stroke="black" d="M29.5,-362C29.5,-351.749 29.5,-340.628 29.5,-330.407"/>
<polygon fill="black" stroke="black" points="33.0001,-330.156 29.5,-320.156 26.0001,-330.156 33.0001,-330.156"/>
</g>
<!-- node_9 -->
<g id="node9" class="node"><title>node_9</title>
<polygon fill="none" stroke="black" points="77.5,-295 77.5,-320 139.5,-320 139.5,-295 77.5,-295"/>
<text text-anchor="start" x="102.5" y="-303.8" font-family="Times,serif" font-size="14.00">&#45;1</text>
<polygon fill="none" stroke="black" points="77.5,-266 77.5,-295 110.5,-295 110.5,-266 77.5,-266"/>
<text text-anchor="start" x="84.5" y="-276.8" font-family="Times,serif" font-size="14.00"> &#45;2 </text>
<polygon fill="none" stroke="black" points="110.5,-266 110.5,-295 139.5,-295 139.5,-266 110.5,-266"/>
<text text-anchor="start" x="117.5" y="-276.8" font-family="Times,serif" font-size="14.00"> 0 </text>
</g>
<!-- node_4&#45;&gt;node_9 -->
<g id="edge8" class="edge"><title>node_4:&#45;1,1&#45;&gt;node_9</title>
<path fill="none" stroke="black" d="M63.5,-362C63.5,-349.945 68.4793,-338.386 75.1252,-328.326"/>
<polygon fill="black" stroke="black" points="77.952,-330.39 81.027,-320.251 72.3006,-326.259 77.952,-330.39"/>
</g>
<!-- node_6 -->
<g id="node6" class="node"><title>node_6</title>
<polygon fill="none" stroke="black" points="40.5,-205 40.5,-230 99.5,-230 99.5,-205 40.5,-205"/>
<text text-anchor="start" x="64" y="-213.8" font-family="Times,serif" font-size="14.00">&#45;2</text>
<polygon fill="none" stroke="black" points="40.5,-176 40.5,-205 66.5,-205 66.5,-176 40.5,-176"/>
<text text-anchor="start" x="45.5" y="-186.8" font-family="Times,serif" font-size="14.00"> ϕ </text>
<polygon fill="none" stroke="black" points="66.5,-176 66.5,-205 99.5,-205 99.5,-176 66.5,-176"/>
<text text-anchor="start" x="73.5" y="-186.8" font-family="Times,serif" font-size="14.00"> &#45;1 </text>
</g>
<!-- node_5&#45;&gt;node_6 -->
<g id="edge5" class="edge"><title>node_5:&#45;2,1&#45;&gt;node_6</title>
<path fill="none" stroke="black" d="M43.5,-272C43.5,-261.081 46.4609,-249.788 50.3844,-239.616"/>
<polygon fill="black" stroke="black" points="53.6725,-240.828 54.3757,-230.256 47.2335,-238.082 53.6725,-240.828"/>
</g>
<!-- node_7 -->
<g id="node7" class="node"><title>node_7</title>
<polygon fill="none" stroke="black" points="85.5,-115 85.5,-140 140.5,-140 140.5,-115 85.5,-115"/>
<text text-anchor="start" x="107" y="-123.8" font-family="Times,serif" font-size="14.00">&#45;1</text>
<polygon fill="none" stroke="black" points="85.5,-86 85.5,-115 111.5,-115 111.5,-86 85.5,-86"/>
<text text-anchor="start" x="90.5" y="-96.8" font-family="Times,serif" font-size="14.00"> ϕ </text>
<polygon fill="none" stroke="black" points="111.5,-86 111.5,-115 140.5,-115 140.5,-86 111.5,-86"/>
<text text-anchor="start" x="118.5" y="-96.8" font-family="Times,serif" font-size="14.00"> 0 </text>
</g>
<!-- node_6&#45;&gt;node_7 -->
<g id="edge6" class="edge"><title>node_6:&#45;1,1&#45;&gt;node_7</title>
<path fill="none" stroke="black" d="M83.5,-182C83.5,-170.798 86.871,-159.33 91.3144,-149.08"/>
<polygon fill="black" stroke="black" points="94.4753,-150.583 95.6306,-140.051 88.1598,-147.563 94.4753,-150.583"/>
</g>
<!-- node_8 -->
<g id="node8" class="node"><title>node_8</title>
<polygon fill="none" stroke="black" points="123.5,-25 123.5,-50 175.5,-50 175.5,-25 123.5,-25"/>
<text text-anchor="start" x="146" y="-33.8" font-family="Times,serif" font-size="14.00">0</text>
<polygon fill="none" stroke="black" points="123.5,-0 123.5,-25 149.5,-25 149.5,-0 123.5,-0"/>
<text text-anchor="start" x="128.5" y="-8.8" font-family="Times,serif" font-size="14.00"> ϕ </text>
<polygon fill="none" stroke="black" points="149.5,-0 149.5,-25 175.5,-25 175.5,-0 149.5,-0"/>
<text text-anchor="start" x="154.5" y="-8.8" font-family="Times,serif" font-size="14.00"> ϕ </text>
</g>
<!-- node_7&#45;&gt;node_8 -->
<g id="edge7" class="edge"><title>node_7:0,1&#45;&gt;node_8</title>
<path fill="none" stroke="black" d="M126.5,-92C126.5,-81.0575 129.354,-69.6343 133.051,-59.427"/>
<polygon fill="black" stroke="black" points="136.33,-60.6534 136.789,-50.0685 129.83,-58.0571 136.33,-60.6534"/>
</g>
<!-- node_9&#45;&gt;node_6 -->
<g id="edge9" class="edge"><title>node_9:&#45;2,1&#45;&gt;node_6</title>
<path fill="none" stroke="black" d="M93.5,-272C93.5,-261.09 90.7187,-249.727 87.0497,-239.485"/>
<polygon fill="black" stroke="black" points="90.2545,-238.071 83.3218,-230.059 83.7451,-240.646 90.2545,-238.071"/>
</g>
<!-- node_10 -->
<g id="node10" class="node"><title>node_10</title>
<polygon fill="none" stroke="black" points="117.5,-205 117.5,-230 179.5,-230 179.5,-205 117.5,-205"/>
<text text-anchor="start" x="145" y="-213.8" font-family="Times,serif" font-size="14.00">0</text>
<polygon fill="none" stroke="black" points="117.5,-176 117.5,-205 150.5,-205 150.5,-176 117.5,-176"/>
<text text-anchor="start" x="124.5" y="-186.8" font-family="Times,serif" font-size="14.00"> &#45;1 </text>
<polygon fill="none" stroke="black" points="150.5,-176 150.5,-205 179.5,-205 179.5,-176 150.5,-176"/>
<text text-anchor="start" x="157.5" y="-186.8" font-family="Times,serif" font-size="14.00"> 1 </text>
</g>
<!-- node_9&#45;&gt;node_10 -->
<g id="edge10" class="edge"><title>node_9:0,1&#45;&gt;node_10</title>
<path fill="none" stroke="black" d="M125.5,-272C125.5,-261.139 128.165,-249.792 131.682,-239.549"/>
<polygon fill="black" stroke="black" points="134.984,-240.71 135.254,-230.119 128.438,-238.23 134.984,-240.71"/>
</g>
<!-- node_10&#45;&gt;node_7 -->
<g id="edge11" class="edge"><title>node_10:&#45;1,1&#45;&gt;node_7</title>
<path fill="none" stroke="black" d="M133.5,-182C133.5,-171.343 131.116,-160.149 127.955,-149.988"/>
<polygon fill="black" stroke="black" points="131.16,-148.546 124.594,-140.231 124.542,-150.825 131.16,-148.546"/>
</g>
<!-- node_11 -->
<g id="node11" class="node"><title>node_11</title>
<polygon fill="none" stroke="black" points="158.5,-115 158.5,-140 213.5,-140 213.5,-115 158.5,-115"/>
<text text-anchor="start" x="182.5" y="-123.8" font-family="Times,serif" font-size="14.00">1</text>
<polygon fill="none" stroke="black" points="158.5,-86 158.5,-115 187.5,-115 187.5,-86 158.5,-86"/>
<text text-anchor="start" x="165.5" y="-96.8" font-family="Times,serif" font-size="14.00"> 0 </text>
<polygon fill="none" stroke="black" points="187.5,-86 187.5,-115 213.5,-115 213.5,-86 187.5,-86"/>
<text text-anchor="start" x="192.5" y="-96.8" font-family="Times,serif" font-size="14.00"> ϕ </text>
</g>
<!-- node_10&#45;&gt;node_11 -->
<g id="edge12" class="edge"><title>node_10:1,1&#45;&gt;node_11</title>
<path fill="none" stroke="black" d="M165.5,-182C165.5,-171.386 167.77,-160.206 170.781,-150.045"/>
<polygon fill="black" stroke="black" points="174.192,-150.876 173.982,-140.283 167.54,-148.695 174.192,-150.876"/>
</g>
<!-- node_11&#45;&gt;node_8 -->
<g id="edge13" class="edge"><title>node_11:0,1&#45;&gt;node_8</title>
<path fill="none" stroke="black" d="M172.5,-92C172.5,-81.0575 169.646,-69.6343 165.949,-59.427"/>
<polygon fill="black" stroke="black" points="169.17,-58.0571 162.211,-50.0685 162.67,-60.6534 169.17,-58.0571"/>
</g>
<!-- node_12&#45;&gt;node_9 -->
<g id="edge15" class="edge"><title>node_12:&#45;1,1&#45;&gt;node_9</title>
<path fill="none" stroke="black" d="M113.5,-362C113.5,-351.721 112.925,-340.591 112.164,-330.371"/>
<polygon fill="black" stroke="black" points="115.63,-329.802 111.321,-320.123 108.653,-330.376 115.63,-329.802"/>
</g>
<!-- node_13 -->
<g id="node13" class="node"><title>node_13</title>
<polygon fill="none" stroke="black" points="157.5,-295 157.5,-320 215.5,-320 215.5,-295 157.5,-295"/>
<text text-anchor="start" x="183" y="-303.8" font-family="Times,serif" font-size="14.00">1</text>
<polygon fill="none" stroke="black" points="157.5,-266 157.5,-295 186.5,-295 186.5,-266 157.5,-266"/>
<text text-anchor="start" x="164.5" y="-276.8" font-family="Times,serif" font-size="14.00"> 0 </text>
<polygon fill="none" stroke="black" points="186.5,-266 186.5,-295 215.5,-295 215.5,-266 186.5,-266"/>
<text text-anchor="start" x="193.5" y="-276.8" font-family="Times,serif" font-size="14.00"> 2 </text>
</g>
<!-- node_12&#45;&gt;node_13 -->
<g id="edge16" class="edge"><title>node_12:1,1&#45;&gt;node_13</title>
<path fill="none" stroke="black" d="M145.5,-362C145.5,-350.165 150.111,-338.62 156.24,-328.502"/>
<polygon fill="black" stroke="black" points="159.275,-330.261 161.94,-320.006 153.462,-326.361 159.275,-330.261"/>
</g>
<!-- node_13&#45;&gt;node_10 -->
<g id="edge17" class="edge"><title>node_13:0,1&#45;&gt;node_10</title>
<path fill="none" stroke="black" d="M171.5,-272C171.5,-261.139 168.835,-249.792 165.318,-239.549"/>
<polygon fill="black" stroke="black" points="168.562,-238.23 161.746,-230.119 162.016,-240.71 168.562,-238.23"/>
</g>
<!-- node_14 -->
<g id="node14" class="node"><title>node_14</title>
<polygon fill="none" stroke="black" points="198.5,-205 198.5,-230 253.5,-230 253.5,-205 198.5,-205"/>
<text text-anchor="start" x="222.5" y="-213.8" font-family="Times,serif" font-size="14.00">2</text>
<polygon fill="none" stroke="black" points="198.5,-176 198.5,-205 227.5,-205 227.5,-176 198.5,-176"/>
<text text-anchor="start" x="205.5" y="-186.8" font-family="Times,serif" font-size="14.00"> 1 </text>
<polygon fill="none" stroke="black" points="227.5,-176 227.5,-205 253.5,-205 253.5,-176 227.5,-176"/>
<text text-anchor="start" x="232.5" y="-186.8" font-family="Times,serif" font-size="14.00"> ϕ </text>
</g>
<!-- node_13&#45;&gt;node_14 -->
<g id="edge18" class="edge"><title>node_13:2,1&#45;&gt;node_14</title>
<path fill="none" stroke="black" d="M201.5,-272C201.5,-261.09 204.281,-249.727 207.95,-239.485"/>
<polygon fill="black" stroke="black" points="211.255,-240.646 211.678,-230.059 204.746,-238.071 211.255,-240.646"/>
</g>
<!-- node_14&#45;&gt;node_11 -->
<g id="edge19" class="edge"><title>node_14:1,1&#45;&gt;node_11</title>
<path fill="none" stroke="black" d="M212.5,-182C212.5,-171.027 209.425,-159.715 205.351,-149.544"/>
<polygon fill="black" stroke="black" points="208.457,-147.915 201.206,-140.19 202.057,-150.751 208.457,-147.915"/>
</g>
<!-- node_15&#45;&gt;node_12 -->
<g id="edge21" class="edge"><title>node_15:0,1&#45;&gt;node_12</title>
<path fill="none" stroke="black" d="M152.5,-452C152.5,-441.09 149.719,-429.727 146.05,-419.485"/>
<polygon fill="black" stroke="black" points="149.254,-418.071 142.322,-410.059 142.745,-420.646 149.254,-418.071"/>
</g>
<!-- node_16 -->
<g id="node16" class="node"><title>node_16</title>
<polygon fill="none" stroke="black" points="177.5,-385 177.5,-410 235.5,-410 235.5,-385 177.5,-385"/>
<text text-anchor="start" x="203" y="-393.8" font-family="Times,serif" font-size="14.00">2</text>
<polygon fill="none" stroke="black" points="177.5,-356 177.5,-385 206.5,-385 206.5,-356 177.5,-356"/>
<text text-anchor="start" x="184.5" y="-366.8" font-family="Times,serif" font-size="14.00"> 1 </text>
<polygon fill="none" stroke="black" points="206.5,-356 206.5,-385 235.5,-385 235.5,-356 206.5,-356"/>
<text text-anchor="start" x="213.5" y="-366.8" font-family="Times,serif" font-size="14.00"> 3 </text>
</g>
<!-- node_15&#45;&gt;node_16 -->
<g id="edge22" class="edge"><title>node_15:2,1&#45;&gt;node_16</title>
<path fill="none" stroke="black" d="M182.5,-452C182.5,-441.09 185.281,-429.727 188.95,-419.485"/>
<polygon fill="black" stroke="black" points="192.255,-420.646 192.678,-410.059 185.746,-418.071 192.255,-420.646"/>
</g>
<!-- node_16&#45;&gt;node_13 -->
<g id="edge23" class="edge"><title>node_16:1,1&#45;&gt;node_13</title>
<path fill="none" stroke="black" d="M191.5,-362C191.5,-351.721 190.925,-340.591 190.164,-330.371"/>
<polygon fill="black" stroke="black" points="193.63,-329.802 189.321,-320.123 186.653,-330.376 193.63,-329.802"/>
</g>
<!-- node_17 -->
<g id="node17" class="node"><title>node_17</title>
<polygon fill="none" stroke="black" points="234.5,-295 234.5,-320 289.5,-320 289.5,-295 234.5,-295"/>
<text text-anchor="start" x="258.5" y="-303.8" font-family="Times,serif" font-size="14.00">3</text>
<polygon fill="none" stroke="black" points="234.5,-266 234.5,-295 263.5,-295 263.5,-266 234.5,-266"/>
<text text-anchor="start" x="241.5" y="-276.8" font-family="Times,serif" font-size="14.00"> 2 </text>
<polygon fill="none" stroke="black" points="263.5,-266 263.5,-295 289.5,-295 289.5,-266 263.5,-266"/>
<text text-anchor="start" x="268.5" y="-276.8" font-family="Times,serif" font-size="14.00"> ϕ </text>
</g>
<!-- node_16&#45;&gt;node_17 -->
<g id="edge24" class="edge"><title>node_16:3,1&#45;&gt;node_17</title>
<path fill="none" stroke="black" d="M221.5,-362C221.5,-350.241 225.999,-338.722 231.978,-328.603"/>
<polygon fill="black" stroke="black" points="234.995,-330.386 237.539,-320.101 229.136,-326.555 234.995,-330.386"/>
</g>
<!-- node_17&#45;&gt;node_14 -->
<g id="edge25" class="edge"><title>node_17:2,1&#45;&gt;node_14</title>
<path fill="none" stroke="black" d="M248.5,-272C248.5,-261.139 245.835,-249.792 242.318,-239.549"/>
<polygon fill="black" stroke="black" points="245.562,-238.23 238.746,-230.119 239.016,-240.71 245.562,-238.23"/>
</g>
<!-- node_18&#45;&gt;node_15 -->
<g id="edge27" class="edge"><title>node_18:1,1&#45;&gt;node_15</title>
<path fill="none" stroke="black" d="M190.5,-542C190.5,-531.139 187.835,-519.792 184.318,-509.549"/>
<polygon fill="black" stroke="black" points="187.562,-508.23 180.746,-500.119 181.016,-510.71 187.562,-508.23"/>
</g>
<!-- node_19 -->
<g id="node19" class="node"><title>node_19</title>
<polygon fill="none" stroke="black" points="214.5,-475 214.5,-500 272.5,-500 272.5,-475 214.5,-475"/>
<text text-anchor="start" x="240" y="-483.8" font-family="Times,serif" font-size="14.00">3</text>
<polygon fill="none" stroke="black" points="214.5,-446 214.5,-475 243.5,-475 243.5,-446 214.5,-446"/>
<text text-anchor="start" x="221.5" y="-456.8" font-family="Times,serif" font-size="14.00"> 2 </text>
<polygon fill="none" stroke="black" points="243.5,-446 243.5,-475 272.5,-475 272.5,-446 243.5,-446"/>
<text text-anchor="start" x="250.5" y="-456.8" font-family="Times,serif" font-size="14.00"> 4 </text>
</g>
<!-- node_18&#45;&gt;node_19 -->
<g id="edge28" class="edge"><title>node_18:3,1&#45;&gt;node_19</title>
<path fill="none" stroke="black" d="M220.5,-542C220.5,-531.139 223.165,-519.792 226.682,-509.549"/>
<polygon fill="black" stroke="black" points="229.984,-510.71 230.254,-500.119 223.438,-508.23 229.984,-510.71"/>
</g>
<!-- node_19&#45;&gt;node_16 -->
<g id="edge29" class="edge"><title>node_19:2,1&#45;&gt;node_16</title>
<path fill="none" stroke="black" d="M228.5,-452C228.5,-441.187 225.95,-429.855 222.587,-419.611"/>
<polygon fill="black" stroke="black" points="225.866,-418.386 219.17,-410.176 219.284,-420.77 225.866,-418.386"/>
</g>
<!-- node_20 -->
<g id="node20" class="node"><title>node_20</title>
<polygon fill="none" stroke="black" points="254.5,-385 254.5,-410 309.5,-410 309.5,-385 254.5,-385"/>
<text text-anchor="start" x="278.5" y="-393.8" font-family="Times,serif" font-size="14.00">4</text>
<polygon fill="none" stroke="black" points="254.5,-356 254.5,-385 283.5,-385 283.5,-356 254.5,-356"/>
<text text-anchor="start" x="261.5" y="-366.8" font-family="Times,serif" font-size="14.00"> 3 </text>
<polygon fill="none" stroke="black" points="283.5,-356 283.5,-385 309.5,-385 309.5,-356 283.5,-356"/>
<text text-anchor="start" x="288.5" y="-366.8" font-family="Times,serif" font-size="14.00"> ϕ </text>
</g>
<!-- node_19&#45;&gt;node_20 -->
<g id="edge30" class="edge"><title>node_19:4,1&#45;&gt;node_20</title>
<path fill="none" stroke="black" d="M258.5,-452C258.5,-441.139 261.165,-429.792 264.682,-419.549"/>
<polygon fill="black" stroke="black" points="267.984,-420.71 268.254,-410.119 261.438,-418.23 267.984,-420.71"/>
</g>
<!-- node_20&#45;&gt;node_17 -->
<g id="edge31" class="edge"><title>node_20:3,1&#45;&gt;node_17</title>
<path fill="none" stroke="black" d="M268.5,-362C268.5,-351.694 267.695,-340.556 266.63,-330.336"/>
<polygon fill="black" stroke="black" points="270.071,-329.625 265.45,-320.091 263.117,-330.426 270.071,-329.625"/>
</g>
</g>
</svg>
