<?xml version="1.0" encoding="UTF-8" standalone="no"?>
<!DOCTYPE svg PUBLIC "-//W3C//DTD SVG 1.1//EN"
 "http://www.w3.org/Graphics/SVG/1.1/DTD/svg11.dtd">
<!-- Generated by graphviz version 2.38.0 (20140413.2041)
 -->
<!-- Title: 2.0 Pages: 1 -->
<svg width="249pt" height="598pt"
 viewBox="0.00 0.00 249.00 598.00" xmlns="http://www.w3.org/2000/svg" xmlns:xlink="http://www.w3.org/1999/xlink">
<g id="graph0" class="graph" transform="scale(1 1) rotate(0) translate(4 594)">
<title>2.0</title>
<polygon fill="white" stroke="none" points="-4,4 -4,-594 245,-594 245,4 -4,4"/>
<!-- node_1 -->
<g id="node1" class="node"><title>node_1</title>
<polygon fill="none" stroke="black" points="108.5,-565 108.5,-590 166.5,-590 166.5,-565 108.5,-565"/>
<text text-anchor="start" x="134" y="-573.8" font-family="Times,serif" font-size="14.00">2</text>
<polygon fill="none" stroke="black" points="108.5,-536 108.5,-565 137.5,-565 137.5,-536 108.5,-536"/>
<text text-anchor="start" x="115.5" y="-546.8" font-family="Times,serif" font-size="14.00"> 1 </text>
<polygon fill="none" stroke="black" points="137.5,-536 137.5,-565 166.5,-565 166.5,-536 137.5,-536"/>
<text text-anchor="start" x="144.5" y="-546.8" font-family="Times,serif" font-size="14.00"> 3 </text>
</g>
<!-- node_2 -->
<g id="node2" class="node"><title>node_2</title>
<polygon fill="none" stroke="black" points="70.5,-475 70.5,-500 128.5,-500 128.5,-475 70.5,-475"/>
<text text-anchor="start" x="96" y="-483.8" font-family="Times,serif" font-size="14.00">1</text>
<polygon fill="none" stroke="black" points="70.5,-446 70.5,-475 99.5,-475 99.5,-446 70.5,-446"/>
<text text-anchor="start" x="77.5" y="-456.8" font-family="Times,serif" font-size="14.00"> 0 </text>
<polygon fill="none" stroke="black" points="99.5,-446 99.5,-475 128.5,-475 128.5,-446 99.5,-446"/>
<text text-anchor="start" x="106.5" y="-456.8" font-family="Times,serif" font-size="14.00"> 2 </text>
</g>
<!-- node_1&#45;&gt;node_2 -->
<g id="edge1" class="edge"><title>node_1:1,1&#45;&gt;node_2</title>
<path fill="none" stroke="#cd0000" d="M122.5,-542C122.5,-531.139 119.835,-519.792 116.318,-509.549"/>
<polygon fill="#cd0000" stroke="#cd0000" points="119.562,-508.23 112.746,-500.119 113.016,-510.71 119.562,-508.23"/>
</g>
<!-- node_14 -->
<g id="node14" class="node"><title>node_14</title>
<polygon fill="none" stroke="black" points="146.5,-475 146.5,-500 204.5,-500 204.5,-475 146.5,-475"/>
<text text-anchor="start" x="172" y="-483.8" font-family="Times,serif" font-size="14.00">3</text>
<polygon fill="none" stroke="black" points="146.5,-446 146.5,-475 175.5,-475 175.5,-446 146.5,-446"/>
<text text-anchor="start" x="153.5" y="-456.8" font-family="Times,serif" font-size="14.00"> 2 </text>
<polygon fill="none" stroke="black" points="175.5,-446 175.5,-475 204.5,-475 204.5,-446 175.5,-446"/>
<text text-anchor="start" x="182.5" y="-456.8" font-family="Times,serif" font-size="14.00"> 4 </text>
</g>
<!-- node_1&#45;&gt;node_14 -->
<g id="edge19" class="edge"><title>node_1:3,1&#45;&gt;node_14</title>
<path fill="none" stroke="#0000cd" d="M152.5,-542C152.5,-531.139 155.165,-519.792 158.682,-509.549"/>
<polygon fill="#0000cd" stroke="#0000cd" points="161.984,-510.71 162.254,-500.119 155.438,-508.23 161.984,-510.71"/>
</g>
<!-- node_3 -->
<g id="node3" class="node"><title>node_3</title>
<polygon fill="none" stroke="black" points="29.5,-385 29.5,-410 91.5,-410 91.5,-385 29.5,-385"/>
<text text-anchor="start" x="57" y="-393.8" font-family="Times,serif" font-size="14.00">0</text>
<polygon fill="none" stroke="black" points="29.5,-356 29.5,-385 62.5,-385 62.5,-356 29.5,-356"/>
<text text-anchor="start" x="36.5" y="-366.8" font-family="Times,serif" font-size="14.00"> &#45;1 </text>
<polygon fill="none" stroke="black" points="62.5,-356 62.5,-385 91.5,-385 91.5,-356 62.5,-356"/>
<text text-anchor="start" x="69.5" y="-366.8" font-family="Times,serif" font-size="14.00"> 1 </text>
</g>
<!-- node_2&#45;&gt;node_3 -->
<g id="edge2" class="edge"><title>node_2:0,1&#45;&gt;node_3</title>
<path fill="none" stroke="#cd0000" d="M84.5,-452C84.5,-441.09 81.7187,-429.727 78.0497,-419.485"/>
<polygon fill="#cd0000" stroke="#cd0000" points="81.2545,-418.071 74.3218,-410.059 74.7451,-420.646 81.2545,-418.071"/>
</g>
<!-- node_12 -->
<g id="node12" class="node"><title>node_12</title>
<polygon fill="none" stroke="black" points="109.5,-385 109.5,-410 167.5,-410 167.5,-385 109.5,-385"/>
<text text-anchor="start" x="135" y="-393.8" font-family="Times,serif" font-size="14.00">2</text>
<polygon fill="none" stroke="black" points="109.5,-356 109.5,-385 138.5,-385 138.5,-356 109.5,-356"/>
<text text-anchor="start" x="116.5" y="-366.8" font-family="Times,serif" font-size="14.00"> 1 </text>
<polygon fill="none" stroke="black" points="138.5,-356 138.5,-385 167.5,-385 167.5,-356 138.5,-356"/>
<text text-anchor="start" x="145.5" y="-366.8" font-family="Times,serif" font-size="14.00"> 3 </text>
</g>
<!-- node_2&#45;&gt;node_12 -->
<g id="edge15" class="edge"><title>node_2:2,1&#45;&gt;node_12</title>
<path fill="none" stroke="#0000cd" d="M114.5,-452C114.5,-441.09 117.281,-429.727 120.95,-419.485"/>
<polygon fill="#0000cd" stroke="#0000cd" points="124.255,-420.646 124.678,-410.059 117.746,-418.071 124.255,-420.646"/>
</g>
<!-- node_4 -->
<g id="node4" class="node"><title>node_4</title>
<polygon fill="none" stroke="black" points="14.5,-295 14.5,-320 76.5,-320 76.5,-295 14.5,-295"/>
<text text-anchor="start" x="39.5" y="-303.8" font-family="Times,serif" font-size="14.00">&#45;1</text>
<polygon fill="none" stroke="black" points="14.5,-266 14.5,-295 47.5,-295 47.5,-266 14.5,-266"/>
<text text-anchor="start" x="21.5" y="-276.8" font-family="Times,serif" font-size="14.00"> &#45;2 </text>
<polygon fill="none" stroke="black" points="47.5,-266 47.5,-295 76.5,-295 76.5,-266 47.5,-266"/>
<text text-anchor="start" x="54.5" y="-276.8" font-family="Times,serif" font-size="14.00"> 0 </text>
</g>
<!-- node_3&#45;&gt;node_4 -->
<g id="edge3" class="edge"><title>node_3:&#45;1,1&#45;&gt;node_4</title>
<path fill="none" stroke="#cd0000" d="M45.5,-362C45.5,-351.749 45.5,-340.628 45.5,-330.407"/>
<polygon fill="#cd0000" stroke="#cd0000" points="49.0001,-330.156 45.5,-320.156 42.0001,-330.156 49.0001,-330.156"/>
</g>
<!-- node_10 -->
<g id="node10" class="node"><title>node_10</title>
<polygon fill="none" stroke="black" points="94.5,-295 94.5,-320 152.5,-320 152.5,-295 94.5,-295"/>
<text text-anchor="start" x="120" y="-303.8" font-family="Times,serif" font-size="14.00">1</text>
<polygon fill="none" stroke="black" points="94.5,-266 94.5,-295 123.5,-295 123.5,-266 94.5,-266"/>
<text text-anchor="start" x="101.5" y="-276.8" font-family="Times,serif" font-size="14.00"> 0 </text>
<polygon fill="none" stroke="black" points="123.5,-266 123.5,-295 152.5,-295 152.5,-266 123.5,-266"/>
<text text-anchor="start" x="130.5" y="-276.8" font-family="Times,serif" font-size="14.00"> 2 </text>
</g>
<!-- node_3&#45;&gt;node_10 -->
<g id="edge11" class="edge"><title>node_3:1,1&#45;&gt;node_10</title>
<path fill="none" stroke="#0000cd" d="M77.5,-362C77.5,-349.863 82.5899,-338.276 89.3835,-328.216"/>
<polygon fill="#0000cd" stroke="#0000cd" points="92.2317,-330.252 95.4165,-320.147 86.6254,-326.06 92.2317,-330.252"/>
</g>
<!-- node_5 -->
<g id="node5" class="node"><title>node_5</title>
<polygon fill="none" stroke="black" points="0.5,-205 0.5,-230 59.5,-230 59.5,-205 0.5,-205"/>
<text text-anchor="start" x="24" y="-213.8" font-family="Times,serif" font-size="14.00">&#45;2</text>
<polygon fill="none" stroke="black" points="0.5,-176 0.5,-205 26.5,-205 26.5,-176 0.5,-176"/>
<text text-anchor="start" x="5.5" y="-186.8" font-family="Times,serif" font-size="14.00"> ϕ </text>
<polygon fill="none" stroke="black" points="26.5,-176 26.5,-205 59.5,-205 59.5,-176 26.5,-176"/>
<text text-anchor="start" x="33.5" y="-186.8" font-family="Times,serif" font-size="14.00"> &#45;1 </text>
</g>
<!-- node_4&#45;&gt;node_5 -->
<g id="edge4" class="edge"><title>node_4:&#45;2,1&#45;&gt;node_5</title>
<path fill="none" stroke="#cd0000" d="M30.5,-272C30.5,-261.747 30.3849,-250.626 30.2329,-240.405"/>
<polygon fill="#cd0000" stroke="#cd0000" points="33.7284,-240.095 30.0643,-230.154 26.7293,-240.211 33.7284,-240.095"/>
</g>
<!-- node_8 -->
<g id="node8" class="node"><title>node_8</title>
<polygon fill="none" stroke="black" points="77.5,-205 77.5,-230 139.5,-230 139.5,-205 77.5,-205"/>
<text text-anchor="start" x="105" y="-213.8" font-family="Times,serif" font-size="14.00">0</text>
<polygon fill="none" stroke="black" points="77.5,-176 77.5,-205 110.5,-205 110.5,-176 77.5,-176"/>
<text text-anchor="start" x="84.5" y="-186.8" font-family="Times,serif" font-size="14.00"> &#45;1 </text>
<polygon fill="none" stroke="black" points="110.5,-176 110.5,-205 139.5,-205 139.5,-176 110.5,-176"/>
<text text-anchor="start" x="117.5" y="-186.8" font-family="Times,serif" font-size="14.00"> 1 </text>
</g>
<!-- node_4&#45;&gt;node_8 -->
<g id="edge7" class="edge"><title>node_4:0,1&#45;&gt;node_8</title>
<path fill="none" stroke="#0000cd" d="M62.5,-272C62.5,-259.863 67.5899,-248.276 74.3835,-238.216"/>
<polygon fill="#0000cd" stroke="#0000cd" points="77.2317,-240.252 80.4165,-230.147 71.6254,-236.06 77.2317,-240.252"/>
</g>
<!-- node_6 -->
<g id="node6" class="node"><title>node_6</title>
<polygon fill="none" stroke="black" points="45.5,-115 45.5,-140 100.5,-140 100.5,-115 45.5,-115"/>
<text text-anchor="start" x="67" y="-123.8" font-family="Times,serif" font-size="14.00">&#45;1</text>
<polygon fill="none" stroke="black" points="45.5,-86 45.5,-115 71.5,-115 71.5,-86 45.5,-86"/>
<text text-anchor="start" x="50.5" y="-96.8" font-family="Times,serif" font-size="14.00"> ϕ </text>
<polygon fill="none" stroke="black" points="71.5,-86 71.5,-115 100.5,-115 100.5,-86 71.5,-86"/>
<text text-anchor="start" x="78.5" y="-96.8" font-family="Times,serif" font-size="14.00"> 0 </text>
</g>
<!-- node_5&#45;&gt;node_6 -->
<g id="edge5" class="edge"><title>node_5:&#45;1,1&#45;&gt;node_6</title>
<path fill="none" stroke="#0000cd" d="M43.5,-182C43.5,-170.798 46.871,-159.33 51.3144,-149.08"/>
<polygon fill="#0000cd" stroke="#0000cd" points="54.4753,-150.583 55.6306,-140.051 48.1598,-147.563 54.4753,-150.583"/>
</g>
<!-- node_7 -->
<g id="node7" class="node"><title>node_7</title>
<polygon fill="none" stroke="black" points="83.5,-25 83.5,-50 135.5,-50 135.5,-25 83.5,-25"/>
<text text-anchor="start" x="106" y="-33.8" font-family="Times,serif" font-size="14.00">0</text>
<polygon fill="none" stroke="black" points="83.5,-0 83.5,-25 109.5,-25 109.5,-0 83.5,-0"/>
<text text-anchor="start" x="88.5" y="-8.8" font-family="Times,serif" font-size="14.00"> ϕ </text>
<polygon fill="none" stroke="black" points="109.5,-0 109.5,-25 135.5,-25 135.5,-0 109.5,-0"/>
<text text-anchor="start" x="114.5" y="-8.8" font-family="Times,serif" font-size="14.00"> ϕ </text>
</g>
<!-- node_6&#45;&gt;node_7 -->
<g id="edge6" class="edge"><title>node_6:0,1&#45;&gt;node_7</title>
<path fill="none" stroke="#0000cd" d="M86.5,-92C86.5,-81.0575 89.3541,-69.6343 93.0514,-59.427"/>
<polygon fill="#0000cd" stroke="#0000cd" points="96.3304,-60.6534 96.7891,-50.0685 89.8297,-58.0571 96.3304,-60.6534"/>
</g>
<!-- node_8&#45;&gt;node_6 -->
<g id="edge8" class="edge"><title>node_8:&#45;1,1&#45;&gt;node_6</title>
<path fill="none" stroke="#cd0000" d="M93.5,-182C93.5,-171.343 91.1163,-160.149 87.955,-149.988"/>
<polygon fill="#cd0000" stroke="#cd0000" points="91.16,-148.546 84.5941,-140.231 84.5416,-150.825 91.16,-148.546"/>
</g>
<!-- node_9 -->
<g id="node9" class="node"><title>node_9</title>
<polygon fill="none" stroke="black" points="118.5,-115 118.5,-140 173.5,-140 173.5,-115 118.5,-115"/>
<text text-anchor="start" x="142.5" y="-123.8" font-family="Times,serif" font-size="14.00">1</text>
<polygon fill="none" stroke="black" points="118.5,-86 118.5,-115 147.5,-115 147.5,-86 118.5,-86"/>
<text text-anchor="start" x="125.5" y="-96.8" font-family="Times,serif" font-size="14.00"> 0 </text>
<polygon fill="none" stroke="black" points="147.5,-86 147.5,-115 173.5,-115 173.5,-86 147.5,-86"/>
<text text-anchor="start" x="152.5" y="-96.8" font-family="Times,serif" font-size="14.00"> ϕ </text>
</g>
<!-- node_8&#45;&gt;node_9 -->
<g id="edge9" class="edge"><title>node_8:1,1&#45;&gt;node_9</title>
<path fill="none" stroke="#0000cd" d="M125.5,-182C125.5,-171.386 127.77,-160.206 130.781,-150.045"/>
<polygon fill="#0000cd" stroke="#0000cd" points="134.192,-150.876 133.982,-140.283 127.54,-148.695 134.192,-150.876"/>
</g>
<!-- node_9&#45;&gt;node_7 -->
<g id="edge10" class="edge"><title>node_9:0,1&#45;&gt;node_7</title>
<path fill="none" stroke="#cd0000" d="M132.5,-92C132.5,-81.0575 129.646,-69.6343 125.949,-59.427"/>
<polygon fill="#cd0000" stroke="#cd0000" points="129.17,-58.0571 122.211,-50.0685 122.67,-60.6534 129.17,-58.0571"/>
</g>
<!-- node_10&#45;&gt;node_8 -->
<g id="edge12" class="edge"><title>node_10:0,1&#45;&gt;node_8</title>
<path fill="none" stroke="#cd0000" d="M108.5,-272C108.5,-261.749 108.5,-250.628 108.5,-240.407"/>
<polygon fill="#cd0000" stroke="#cd0000" points="112,-240.156 108.5,-230.156 105,-240.156 112,-240.156"/>
</g>
<!-- node_11 -->
<g id="node11" class="node"><title>node_11</title>
<polygon fill="none" stroke="black" points="158.5,-205 158.5,-230 213.5,-230 213.5,-205 158.5,-205"/>
<text text-anchor="start" x="182.5" y="-213.8" font-family="Times,serif" font-size="14.00">2</text>
<polygon fill="none" stroke="black" points="158.5,-176 158.5,-205 187.5,-205 187.5,-176 158.5,-176"/>
<text text-anchor="start" x="165.5" y="-186.8" font-family="Times,serif" font-size="14.00"> 1 </text>
<polygon fill="none" stroke="black" points="187.5,-176 187.5,-205 213.5,-205 213.5,-176 187.5,-176"/>
<text text-anchor="start" x="192.5" y="-186.8" font-family="Times,serif" font-size="14.00"> ϕ </text>
</g>
<!-- node_10&#45;&gt;node_11 -->
<g id="edge13" class="edge"><title>node_10:2,1&#45;&gt;node_11</title>
<path fill="none" stroke="#0000cd" d="M138.5,-272C138.5,-259.204 144.202,-247.073 151.633,-236.695"/>
<polygon fill="#0000cd" stroke="#0000cd" points="154.44,-238.787 157.888,-228.769 148.945,-234.451 154.44,-238.787"/>
</g>
<!-- node_11&#45;&gt;node_9 -->
<g id="edge14" class="edge"><title>node_11:1,1&#45;&gt;node_9</title>
<path fill="none" stroke="#cd0000" d="M172.5,-182C172.5,-171.027 169.425,-159.715 165.351,-149.544"/>
<polygon fill="#cd0000" stroke="#cd0000" points="168.457,-147.915 161.206,-140.19 162.057,-150.751 168.457,-147.915"/>
</g>
<!-- node_12&#45;&gt;node_10 -->
<g id="edge16" class="edge"><title>node_12:1,1&#45;&gt;node_10</title>
<path fill="none" stroke="#cd0000" d="M123.5,-362C123.5,-351.749 123.5,-340.628 123.5,-330.407"/>
<polygon fill="#cd0000" stroke="#cd0000" points="127,-330.156 123.5,-320.156 120,-330.156 127,-330.156"/>
</g>
<!-- node_13 -->
<g id="node13" class="node"><title>node_13</title>
<polygon fill="none" stroke="black" points="171.5,-295 171.5,-320 226.5,-320 226.5,-295 171.5,-295"/>
<text text-anchor="start" x="195.5" y="-303.8" font-family="Times,serif" font-size="14.00">3</text>
<polygon fill="none" stroke="black" points="171.5,-266 171.5,-295 200.5,-295 200.5,-266 171.5,-266"/>
<text text-anchor="start" x="178.5" y="-276.8" font-family="Times,serif" font-size="14.00"> 2 </text>
<polygon fill="none" stroke="black" points="200.5,-266 200.5,-295 226.5,-295 226.5,-266 200.5,-266"/>
<text text-anchor="start" x="205.5" y="-276.8" font-family="Times,serif" font-size="14.00"> ϕ </text>
</g>
<!-- node_12&#45;&gt;node_13 -->
<g id="edge17" class="edge"><title>node_12:3,1&#45;&gt;node_13</title>
<path fill="none" stroke="#0000cd" d="M153.5,-362C153.5,-349.945 158.479,-338.386 165.125,-328.326"/>
<polygon fill="#0000cd" stroke="#0000cd" points="167.952,-330.39 171.027,-320.251 162.301,-326.259 167.952,-330.39"/>
</g>
<!-- node_13&#45;&gt;node_11 -->
<g id="edge18" class="edge"><title>node_13:2,1&#45;&gt;node_11</title>
<path fill="none" stroke="#cd0000" d="M185.5,-272C185.5,-261.749 185.5,-250.628 185.5,-240.407"/>
<polygon fill="#cd0000" stroke="#cd0000" points="189,-240.156 185.5,-230.156 182,-240.156 189,-240.156"/>
</g>
<!-- node_14&#45;&gt;node_12 -->
<g id="edge20" class="edge"><title>node_14:2,1&#45;&gt;node_12</title>
<path fill="none" stroke="#cd0000" d="M160.5,-452C160.5,-441.187 157.95,-429.855 154.587,-419.611"/>
<polygon fill="#cd0000" stroke="#cd0000" points="157.866,-418.386 151.17,-410.176 151.284,-420.77 157.866,-418.386"/>
</g>
<!-- node_15 -->
<g id="node15" class="node"><title>node_15</title>
<polygon fill="none" stroke="black" points="186.5,-385 186.5,-410 241.5,-410 241.5,-385 186.5,-385"/>
<text text-anchor="start" x="210.5" y="-393.8" font-family="Times,serif" font-size="14.00">4</text>
<polygon fill="none" stroke="black" points="186.5,-356 186.5,-385 215.5,-385 215.5,-356 186.5,-356"/>
<text text-anchor="start" x="193.5" y="-366.8" font-family="Times,serif" font-size="14.00"> 3 </text>
<polygon fill="none" stroke="black" points="215.5,-356 215.5,-385 241.5,-385 241.5,-356 215.5,-356"/>
<text text-anchor="start" x="220.5" y="-366.8" font-family="Times,serif" font-size="14.00"> ϕ </text>
</g>
<!-- node_14&#45;&gt;node_15 -->
<g id="edge21" class="edge"><title>node_14:4,1&#45;&gt;node_15</title>
<path fill="none" stroke="#0000cd" d="M190.5,-452C190.5,-441.139 193.165,-429.792 196.682,-419.549"/>
<polygon fill="#0000cd" stroke="#0000cd" points="199.984,-420.71 200.254,-410.119 193.438,-418.23 199.984,-420.71"/>
</g>
<!-- node_15&#45;&gt;node_13 -->
<g id="edge22" class="edge"><title>node_15:3,1&#45;&gt;node_13</title>
<path fill="none" stroke="#cd0000" d="M200.5,-362C200.5,-351.744 200.27,-340.622 199.966,-330.401"/>
<polygon fill="#cd0000" stroke="#cd0000" points="203.456,-330.03 199.629,-320.15 196.459,-330.26 203.456,-330.03"/>
</g>
</g>
</svg>
