<?xml version="1.0" encoding="UTF-8" standalone="no"?>
<!DOCTYPE svg PUBLIC "-//W3C//DTD SVG 1.1//EN"
 "http://www.w3.org/Graphics/SVG/1.1/DTD/svg11.dtd">
<!-- Generated by graphviz version 2.38.0 (20140413.2041)
 -->
<!-- Title: 3.0 Pages: 1 -->
<svg width="183pt" height="508pt"
 viewBox="0.00 0.00 183.00 508.00" xmlns="http://www.w3.org/2000/svg" xmlns:xlink="http://www.w3.org/1999/xlink">
<g id="graph0" class="graph" transform="scale(1 1) rotate(0) translate(4 504)">
<title>3.0</title>
<polygon fill="white" stroke="none" points="-4,4 -4,-504 179,-504 179,4 -4,4"/>
<!-- node_1 -->
<g id="node1" class="node"><title>node_1</title>
<polygon fill="none" stroke="black" points="80.5,-475 80.5,-500 138.5,-500 138.5,-475 80.5,-475"/>
<text text-anchor="start" x="106" y="-483.8" font-family="Times,serif" font-size="14.00">3</text>
<polygon fill="none" stroke="black" points="80.5,-446 80.5,-475 109.5,-475 109.5,-446 80.5,-446"/>
<text text-anchor="start" x="87.5" y="-456.8" font-family="Times,serif" font-size="14.00"> 2 </text>
<polygon fill="none" stroke="black" points="109.5,-446 109.5,-475 138.5,-475 138.5,-446 109.5,-446"/>
<text text-anchor="start" x="116.5" y="-456.8" font-family="Times,serif" font-size="14.00"> 4 </text>
</g>
<!-- node_2 -->
<g id="node2" class="node"><title>node_2</title>
<polygon fill="none" stroke="black" points="43.5,-385 43.5,-410 101.5,-410 101.5,-385 43.5,-385"/>
<text text-anchor="start" x="69" y="-393.8" font-family="Times,serif" font-size="14.00">2</text>
<polygon fill="none" stroke="black" points="43.5,-356 43.5,-385 72.5,-385 72.5,-356 43.5,-356"/>
<text text-anchor="start" x="50.5" y="-366.8" font-family="Times,serif" font-size="14.00"> 1 </text>
<polygon fill="none" stroke="black" points="72.5,-356 72.5,-385 101.5,-385 101.5,-356 72.5,-356"/>
<text text-anchor="start" x="79.5" y="-366.8" font-family="Times,serif" font-size="14.00"> 3 </text>
</g>
<!-- node_1&#45;&gt;node_2 -->
<g id="edge1" class="edge"><title>node_1:2,1&#45;&gt;node_2</title>
<path fill="none" stroke="black" d="M94.5,-452C94.5,-441.187 91.9505,-429.855 88.5872,-419.611"/>
<polygon fill="black" stroke="black" points="91.8661,-418.386 85.17,-410.176 85.2844,-420.77 91.8661,-418.386"/>
</g>
<!-- node_10 -->
<g id="node10" class="node"><title>node_10</title>
<polygon fill="none" stroke="black" points="120.5,-385 120.5,-410 175.5,-410 175.5,-385 120.5,-385"/>
<text text-anchor="start" x="144.5" y="-393.8" font-family="Times,serif" font-size="14.00">4</text>
<polygon fill="none" stroke="black" points="120.5,-356 120.5,-385 149.5,-385 149.5,-356 120.5,-356"/>
<text text-anchor="start" x="127.5" y="-366.8" font-family="Times,serif" font-size="14.00"> 3 </text>
<polygon fill="none" stroke="black" points="149.5,-356 149.5,-385 175.5,-385 175.5,-356 149.5,-356"/>
<text text-anchor="start" x="154.5" y="-366.8" font-family="Times,serif" font-size="14.00"> ϕ </text>
</g>
<!-- node_1&#45;&gt;node_10 -->
<g id="edge12" class="edge"><title>node_1:4,1&#45;&gt;node_10</title>
<path fill="none" stroke="black" d="M124.5,-452C124.5,-441.139 127.165,-429.792 130.682,-419.549"/>
<polygon fill="black" stroke="black" points="133.984,-420.71 134.254,-410.119 127.438,-418.23 133.984,-420.71"/>
</g>
<!-- node_3 -->
<g id="node3" class="node"><title>node_3</title>
<polygon fill="none" stroke="black" points="28.5,-295 28.5,-320 86.5,-320 86.5,-295 28.5,-295"/>
<text text-anchor="start" x="54" y="-303.8" font-family="Times,serif" font-size="14.00">1</text>
<polygon fill="none" stroke="black" points="28.5,-266 28.5,-295 57.5,-295 57.5,-266 28.5,-266"/>
<text text-anchor="start" x="35.5" y="-276.8" font-family="Times,serif" font-size="14.00"> 0 </text>
<polygon fill="none" stroke="black" points="57.5,-266 57.5,-295 86.5,-295 86.5,-266 57.5,-266"/>
<text text-anchor="start" x="64.5" y="-276.8" font-family="Times,serif" font-size="14.00"> 2 </text>
</g>
<!-- node_2&#45;&gt;node_3 -->
<g id="edge2" class="edge"><title>node_2:1,1&#45;&gt;node_3</title>
<path fill="none" stroke="black" d="M57.5,-362C57.5,-351.749 57.5,-340.628 57.5,-330.407"/>
<polygon fill="black" stroke="black" points="61.0001,-330.156 57.5,-320.156 54.0001,-330.156 61.0001,-330.156"/>
</g>
<!-- node_9 -->
<g id="node9" class="node"><title>node_9</title>
<polygon fill="none" stroke="black" points="105.5,-295 105.5,-320 160.5,-320 160.5,-295 105.5,-295"/>
<text text-anchor="start" x="129.5" y="-303.8" font-family="Times,serif" font-size="14.00">3</text>
<polygon fill="none" stroke="black" points="105.5,-266 105.5,-295 134.5,-295 134.5,-266 105.5,-266"/>
<text text-anchor="start" x="112.5" y="-276.8" font-family="Times,serif" font-size="14.00"> 2 </text>
<polygon fill="none" stroke="black" points="134.5,-266 134.5,-295 160.5,-295 160.5,-266 134.5,-266"/>
<text text-anchor="start" x="139.5" y="-276.8" font-family="Times,serif" font-size="14.00"> ϕ </text>
</g>
<!-- node_2&#45;&gt;node_9 -->
<g id="edge10" class="edge"><title>node_2:3,1&#45;&gt;node_9</title>
<path fill="none" stroke="black" d="M87.5,-362C87.5,-349.945 92.4793,-338.386 99.1252,-328.326"/>
<polygon fill="black" stroke="black" points="101.952,-330.39 105.027,-320.251 96.3006,-326.259 101.952,-330.39"/>
</g>
<!-- node_4 -->
<g id="node4" class="node"><title>node_4</title>
<polygon fill="none" stroke="black" points="11.5,-205 11.5,-230 73.5,-230 73.5,-205 11.5,-205"/>
<text text-anchor="start" x="39" y="-213.8" font-family="Times,serif" font-size="14.00">0</text>
<polygon fill="none" stroke="black" points="11.5,-176 11.5,-205 44.5,-205 44.5,-176 11.5,-176"/>
<text text-anchor="start" x="18.5" y="-186.8" font-family="Times,serif" font-size="14.00"> &#45;1 </text>
<polygon fill="none" stroke="black" points="44.5,-176 44.5,-205 73.5,-205 73.5,-176 44.5,-176"/>
<text text-anchor="start" x="51.5" y="-186.8" font-family="Times,serif" font-size="14.00"> 1 </text>
</g>
<!-- node_3&#45;&gt;node_4 -->
<g id="edge3" class="edge"><title>node_3:0,1&#45;&gt;node_4</title>
<path fill="none" stroke="black" d="M42.5,-272C42.5,-261.749 42.5,-250.628 42.5,-240.407"/>
<polygon fill="black" stroke="black" points="46.0001,-240.156 42.5,-230.156 39.0001,-240.156 46.0001,-240.156"/>
</g>
<!-- node_8 -->
<g id="node8" class="node"><title>node_8</title>
<polygon fill="none" stroke="black" points="92.5,-205 92.5,-230 147.5,-230 147.5,-205 92.5,-205"/>
<text text-anchor="start" x="116.5" y="-213.8" font-family="Times,serif" font-size="14.00">2</text>
<polygon fill="none" stroke="black" points="92.5,-176 92.5,-205 121.5,-205 121.5,-176 92.5,-176"/>
<text text-anchor="start" x="99.5" y="-186.8" font-family="Times,serif" font-size="14.00"> 1 </text>
<polygon fill="none" stroke="black" points="121.5,-176 121.5,-205 147.5,-205 147.5,-176 121.5,-176"/>
<text text-anchor="start" x="126.5" y="-186.8" font-family="Times,serif" font-size="14.00"> ϕ </text>
</g>
<!-- node_3&#45;&gt;node_8 -->
<g id="edge8" class="edge"><title>node_3:2,1&#45;&gt;node_8</title>
<path fill="none" stroke="black" d="M72.5,-272C72.5,-259.204 78.2016,-247.073 85.6331,-236.695"/>
<polygon fill="black" stroke="black" points="88.4405,-238.787 91.8881,-228.769 82.9455,-234.451 88.4405,-238.787"/>
</g>
<!-- node_5 -->
<g id="node5" class="node"><title>node_5</title>
<polygon fill="none" stroke="black" points="0.5,-115 0.5,-140 55.5,-140 55.5,-115 0.5,-115"/>
<text text-anchor="start" x="22" y="-123.8" font-family="Times,serif" font-size="14.00">&#45;1</text>
<polygon fill="none" stroke="black" points="0.5,-86 0.5,-115 26.5,-115 26.5,-86 0.5,-86"/>
<text text-anchor="start" x="5.5" y="-96.8" font-family="Times,serif" font-size="14.00"> ϕ </text>
<polygon fill="none" stroke="black" points="26.5,-86 26.5,-115 55.5,-115 55.5,-86 26.5,-86"/>
<text text-anchor="start" x="33.5" y="-96.8" font-family="Times,serif" font-size="14.00"> 0 </text>
</g>
<!-- node_4&#45;&gt;node_5 -->
<g id="edge4" class="edge"><title>node_4:&#45;1,1&#45;&gt;node_5</title>
<path fill="none" stroke="black" d="M27.5,-182C27.5,-171.749 27.5,-160.628 27.5,-150.407"/>
<polygon fill="black" stroke="black" points="31.0001,-150.156 27.5,-140.156 24.0001,-150.156 31.0001,-150.156"/>
</g>
<!-- node_7 -->
<g id="node7" class="node"><title>node_7</title>
<polygon fill="none" stroke="black" points="73.5,-115 73.5,-140 128.5,-140 128.5,-115 73.5,-115"/>
<text text-anchor="start" x="97.5" y="-123.8" font-family="Times,serif" font-size="14.00">1</text>
<polygon fill="none" stroke="black" points="73.5,-86 73.5,-115 102.5,-115 102.5,-86 73.5,-86"/>
<text text-anchor="start" x="80.5" y="-96.8" font-family="Times,serif" font-size="14.00"> 0 </text>
<polygon fill="none" stroke="black" points="102.5,-86 102.5,-115 128.5,-115 128.5,-86 102.5,-86"/>
<text text-anchor="start" x="107.5" y="-96.8" font-family="Times,serif" font-size="14.00"> ϕ </text>
</g>
<!-- node_4&#45;&gt;node_7 -->
<g id="edge6" class="edge"><title>node_4:1,1&#45;&gt;node_7</title>
<path fill="none" stroke="black" d="M59.5,-182C59.5,-170.165 64.1111,-158.62 70.2405,-148.502"/>
<polygon fill="black" stroke="black" points="73.2754,-150.261 75.94,-140.006 67.4623,-146.361 73.2754,-150.261"/>
</g>
<!-- node_6 -->
<g id="node6" class="node"><title>node_6</title>
<polygon fill="none" stroke="black" points="38.5,-25 38.5,-50 90.5,-50 90.5,-25 38.5,-25"/>
<text text-anchor="start" x="61" y="-33.8" font-family="Times,serif" font-size="14.00">0</text>
<polygon fill="none" stroke="black" points="38.5,-0 38.5,-25 64.5,-25 64.5,-0 38.5,-0"/>
<text text-anchor="start" x="43.5" y="-8.8" font-family="Times,serif" font-size="14.00"> ϕ </text>
<polygon fill="none" stroke="black" points="64.5,-0 64.5,-25 90.5,-25 90.5,-0 64.5,-0"/>
<text text-anchor="start" x="69.5" y="-8.8" font-family="Times,serif" font-size="14.00"> ϕ </text>
</g>
<!-- node_5&#45;&gt;node_6 -->
<g id="edge5" class="edge"><title>node_5:0,1&#45;&gt;node_6</title>
<path fill="none" stroke="black" d="M41.5,-92C41.5,-81.0575 44.3541,-69.6343 48.0514,-59.427"/>
<polygon fill="black" stroke="black" points="51.3304,-60.6534 51.7891,-50.0685 44.8297,-58.0571 51.3304,-60.6534"/>
</g>
<!-- node_7&#45;&gt;node_6 -->
<g id="edge7" class="edge"><title>node_7:0,1&#45;&gt;node_6</title>
<path fill="none" stroke="black" d="M87.5,-92C87.5,-81.0575 84.6459,-69.6343 80.9486,-59.427"/>
<polygon fill="black" stroke="black" points="84.1703,-58.0571 77.2109,-50.0685 77.6696,-60.6534 84.1703,-58.0571"/>
</g>
<!-- node_8&#45;&gt;node_7 -->
<g id="edge9" class="edge"><title>node_8:1,1&#45;&gt;node_7</title>
<path fill="none" stroke="black" d="M106.5,-182C106.5,-171.709 105.81,-160.575 104.897,-150.355"/>
<polygon fill="black" stroke="black" points="108.351,-149.716 103.886,-140.108 101.385,-150.404 108.351,-149.716"/>
</g>
<!-- node_9&#45;&gt;node_8 -->
<g id="edge11" class="edge"><title>node_9:2,1&#45;&gt;node_8</title>
<path fill="none" stroke="black" d="M119.5,-272C119.5,-261.749 119.5,-250.628 119.5,-240.407"/>
<polygon fill="black" stroke="black" points="123,-240.156 119.5,-230.156 116,-240.156 123,-240.156"/>
</g>
<!-- node_10&#45;&gt;node_9 -->
<g id="edge13" class="edge"><title>node_10:3,1&#45;&gt;node_9</title>
<path fill="none" stroke="black" d="M134.5,-362C134.5,-351.744 134.27,-340.622 133.966,-330.401"/>
<polygon fill="black" stroke="black" points="137.456,-330.03 133.629,-320.15 130.459,-330.26 137.456,-330.03"/>
</g>
</g>
</svg>
