<?xml version="1.0" encoding="UTF-8" standalone="no"?>
<!DOCTYPE svg PUBLIC "-//W3C//DTD SVG 1.1//EN"
 "http://www.w3.org/Graphics/SVG/1.1/DTD/svg11.dtd">
<!-- Generated by graphviz version 2.43.0 (0)
 -->
<!-- Title: dyadic_tree Pages: 1 -->
<svg width="2942pt" height="344pt"
 viewBox="0.00 0.00 2942.00 344.08" xmlns="http://www.w3.org/2000/svg" xmlns:xlink="http://www.w3.org/1999/xlink">
<g id="graph0" class="graph" transform="scale(1 1) rotate(0) translate(4 340.08)">
<title>dyadic_tree</title>
<polygon fill="white" stroke="transparent" points="-4,4 -4,-340.08 2938,-340.08 2938,4 -4,4"/>
<!-- node_0 -->
<g id="node1" class="node">
<title>node_0</title>
<ellipse fill="none" stroke="#cd0000" cx="1467" cy="-24.04" rx="27" ry="24.08"/>
<text text-anchor="middle" x="1467" y="-17.84" font-family="Times,serif" font-size="24.00">0</text>
</g>
<!-- node_1 -->
<g id="node2" class="node">
<title>node_1</title>
<ellipse fill="none" stroke="#0000cd" cx="1107" cy="-96.04" rx="27" ry="24.08"/>
<text text-anchor="middle" x="1107" y="-89.84" font-family="Times,serif" font-size="24.00">&#45;1</text>
</g>
<!-- node_1&#45;&gt;node_0 -->
<g id="edge1" class="edge">
<title>node_1&#45;&gt;node_0</title>
<path fill="none" stroke="black" d="M1133.47,-90.75C1196.93,-78.06 1357.81,-45.88 1430.44,-31.35"/>
<polygon fill="black" stroke="black" points="1431.37,-34.74 1440.49,-29.34 1430,-27.87 1431.37,-34.74"/>
</g>
<!-- node_2 -->
<g id="node3" class="node">
<title>node_2</title>
<ellipse fill="none" stroke="#0000cd" cx="1827" cy="-96.04" rx="27" ry="24.08"/>
<text text-anchor="middle" x="1827" y="-89.84" font-family="Times,serif" font-size="24.00">1</text>
</g>
<!-- node_2&#45;&gt;node_0 -->
<g id="edge2" class="edge">
<title>node_2&#45;&gt;node_0</title>
<path fill="none" stroke="black" d="M1800.53,-90.75C1737.07,-78.06 1576.19,-45.88 1503.56,-31.35"/>
<polygon fill="black" stroke="black" points="1504,-27.87 1493.51,-29.34 1502.63,-34.74 1504,-27.87"/>
</g>
<!-- node_3 -->
<g id="node4" class="node">
<title>node_3</title>
<ellipse fill="none" stroke="#cd0000" cx="747" cy="-168.04" rx="27" ry="24.08"/>
<text text-anchor="middle" x="747" y="-161.84" font-family="Times,serif" font-size="24.00">&#45;2</text>
</g>
<!-- node_3&#45;&gt;node_1 -->
<g id="edge3" class="edge">
<title>node_3&#45;&gt;node_1</title>
<path fill="none" stroke="black" d="M773.47,-162.75C836.93,-150.06 997.81,-117.88 1070.44,-103.35"/>
<polygon fill="black" stroke="black" points="1071.37,-106.74 1080.49,-101.34 1070,-99.87 1071.37,-106.74"/>
</g>
<!-- node_4 -->
<g id="node5" class="node">
<title>node_4</title>
<ellipse fill="none" stroke="#cd0000" cx="2187" cy="-168.04" rx="27" ry="24.08"/>
<text text-anchor="middle" x="2187" y="-161.84" font-family="Times,serif" font-size="24.00">2</text>
</g>
<!-- node_4&#45;&gt;node_2 -->
<g id="edge4" class="edge">
<title>node_4&#45;&gt;node_2</title>
<path fill="none" stroke="black" d="M2160.53,-162.75C2097.07,-150.06 1936.19,-117.88 1863.56,-103.35"/>
<polygon fill="black" stroke="black" points="1864,-99.87 1853.51,-101.34 1862.63,-106.74 1864,-99.87"/>
</g>
<!-- node_5 -->
<g id="node6" class="node">
<title>node_5</title>
<ellipse fill="none" stroke="#00cd00" cx="1647" cy="-168.04" rx="33.47" ry="24.08"/>
<text text-anchor="middle" x="1647" y="-161.84" font-family="Times,serif" font-size="24.00">1/2</text>
</g>
<!-- node_5&#45;&gt;node_0 -->
<g id="edge5" class="edge">
<title>node_5&#45;&gt;node_0</title>
<path fill="none" stroke="black" d="M1624.57,-150.1C1591.85,-123.92 1531.06,-75.29 1495.3,-46.69"/>
<polygon fill="black" stroke="black" points="1497.21,-43.73 1487.22,-40.21 1492.84,-49.19 1497.21,-43.73"/>
</g>
<!-- node_5&#45;&gt;node_2 -->
<g id="edge6" class="edge">
<title>node_5&#45;&gt;node_2</title>
<path fill="none" stroke="black" d="M1676.32,-156.31C1708.24,-143.55 1759.21,-123.16 1792.89,-109.69"/>
<polygon fill="black" stroke="black" points="1794.34,-112.88 1802.33,-105.91 1791.74,-106.38 1794.34,-112.88"/>
</g>
<!-- node_6 -->
<g id="node7" class="node">
<title>node_6</title>
<ellipse fill="none" stroke="#00cd00" cx="1287" cy="-168.04" rx="39.7" ry="24.08"/>
<text text-anchor="middle" x="1287" y="-161.84" font-family="Times,serif" font-size="24.00">&#45;1/2</text>
</g>
<!-- node_6&#45;&gt;node_0 -->
<g id="edge8" class="edge">
<title>node_6&#45;&gt;node_0</title>
<path fill="none" stroke="black" d="M1311.28,-148.62C1344.41,-122.11 1403.69,-74.69 1438.77,-46.63"/>
<polygon fill="black" stroke="black" points="1441.09,-49.25 1446.71,-40.27 1436.72,-43.78 1441.09,-49.25"/>
</g>
<!-- node_6&#45;&gt;node_1 -->
<g id="edge7" class="edge">
<title>node_6&#45;&gt;node_1</title>
<path fill="none" stroke="black" d="M1253.57,-154.67C1221.59,-141.88 1173.61,-122.68 1141.34,-109.78"/>
<polygon fill="black" stroke="black" points="1142.45,-106.45 1131.86,-105.99 1139.85,-112.95 1142.45,-106.45"/>
</g>
<!-- node_7 -->
<g id="node8" class="node">
<title>node_7</title>
<ellipse fill="none" stroke="#0000cd" cx="387" cy="-240.04" rx="27" ry="24.08"/>
<text text-anchor="middle" x="387" y="-233.84" font-family="Times,serif" font-size="24.00">&#45;3</text>
</g>
<!-- node_7&#45;&gt;node_3 -->
<g id="edge9" class="edge">
<title>node_7&#45;&gt;node_3</title>
<path fill="none" stroke="black" d="M413.47,-234.75C476.93,-222.06 637.81,-189.88 710.44,-175.35"/>
<polygon fill="black" stroke="black" points="711.37,-178.74 720.49,-173.34 710,-171.87 711.37,-178.74"/>
</g>
<!-- node_8 -->
<g id="node9" class="node">
<title>node_8</title>
<ellipse fill="none" stroke="#0000cd" cx="2547" cy="-240.04" rx="27" ry="24.08"/>
<text text-anchor="middle" x="2547" y="-233.84" font-family="Times,serif" font-size="24.00">3</text>
</g>
<!-- node_8&#45;&gt;node_4 -->
<g id="edge10" class="edge">
<title>node_8&#45;&gt;node_4</title>
<path fill="none" stroke="black" d="M2520.53,-234.75C2457.07,-222.06 2296.19,-189.88 2223.56,-175.35"/>
<polygon fill="black" stroke="black" points="2224,-171.87 2213.51,-173.34 2222.63,-178.74 2224,-171.87"/>
</g>
<!-- node_9 -->
<g id="node10" class="node">
<title>node_9</title>
<ellipse fill="none" stroke="#0000cd" cx="1557" cy="-240.04" rx="33.47" ry="24.08"/>
<text text-anchor="middle" x="1557" y="-233.84" font-family="Times,serif" font-size="24.00">1/4</text>
</g>
<!-- node_9&#45;&gt;node_0 -->
<g id="edge11" class="edge">
<title>node_9&#45;&gt;node_0</title>
<path fill="none" stroke="black" d="M1547.37,-216.93C1531.22,-178.17 1498.66,-100.03 1480.33,-56.03"/>
<polygon fill="black" stroke="black" points="1483.5,-54.55 1476.43,-46.67 1477.04,-57.24 1483.5,-54.55"/>
</g>
<!-- node_9&#45;&gt;node_5 -->
<g id="edge12" class="edge">
<title>node_9&#45;&gt;node_5</title>
<path fill="none" stroke="black" d="M1579.71,-221.87C1590.88,-212.94 1604.5,-202.04 1616.56,-192.39"/>
<polygon fill="black" stroke="black" points="1618.99,-194.94 1624.61,-185.96 1614.61,-189.47 1618.99,-194.94"/>
</g>
<!-- node_10 -->
<g id="node11" class="node">
<title>node_10</title>
<ellipse fill="none" stroke="#0000cd" cx="1377" cy="-240.04" rx="39.7" ry="24.08"/>
<text text-anchor="middle" x="1377" y="-233.84" font-family="Times,serif" font-size="24.00">&#45;1/4</text>
</g>
<!-- node_10&#45;&gt;node_0 -->
<g id="edge14" class="edge">
<title>node_10&#45;&gt;node_0</title>
<path fill="none" stroke="black" d="M1386.8,-216.51C1402.98,-177.68 1435.3,-100.12 1453.59,-56.23"/>
<polygon fill="black" stroke="black" points="1456.87,-57.46 1457.48,-46.89 1450.4,-54.77 1456.87,-57.46"/>
</g>
<!-- node_10&#45;&gt;node_6 -->
<g id="edge13" class="edge">
<title>node_10&#45;&gt;node_6</title>
<path fill="none" stroke="black" d="M1352.88,-220.75C1342.49,-212.43 1330.19,-202.59 1319.05,-193.68"/>
<polygon fill="black" stroke="black" points="1321.18,-190.9 1311.18,-187.39 1316.81,-196.37 1321.18,-190.9"/>
</g>
<!-- node_11 -->
<g id="node12" class="node">
<title>node_11</title>
<ellipse fill="none" stroke="#cd0000" cx="1737" cy="-240.04" rx="33.47" ry="24.08"/>
<text text-anchor="middle" x="1737" y="-233.84" font-family="Times,serif" font-size="24.00">3/4</text>
</g>
<!-- node_11&#45;&gt;node_2 -->
<g id="edge16" class="edge">
<title>node_11&#45;&gt;node_2</title>
<path fill="none" stroke="black" d="M1750.87,-217.86C1766.28,-193.19 1791.26,-153.22 1808.37,-125.84"/>
<polygon fill="black" stroke="black" points="1811.52,-127.41 1813.85,-117.08 1805.58,-123.7 1811.52,-127.41"/>
</g>
<!-- node_11&#45;&gt;node_5 -->
<g id="edge15" class="edge">
<title>node_11&#45;&gt;node_5</title>
<path fill="none" stroke="black" d="M1714.29,-221.87C1703.12,-212.94 1689.5,-202.04 1677.44,-192.39"/>
<polygon fill="black" stroke="black" points="1679.39,-189.47 1669.39,-185.96 1675.01,-194.94 1679.39,-189.47"/>
</g>
<!-- node_12 -->
<g id="node13" class="node">
<title>node_12</title>
<ellipse fill="none" stroke="#cd0000" cx="1197" cy="-240.04" rx="39.7" ry="24.08"/>
<text text-anchor="middle" x="1197" y="-233.84" font-family="Times,serif" font-size="24.00">&#45;3/4</text>
</g>
<!-- node_12&#45;&gt;node_1 -->
<g id="edge17" class="edge">
<title>node_12&#45;&gt;node_1</title>
<path fill="none" stroke="black" d="M1182.94,-217.54C1167.57,-192.95 1142.87,-153.43 1125.84,-126.18"/>
<polygon fill="black" stroke="black" points="1128.64,-124.07 1120.38,-117.44 1122.71,-127.78 1128.64,-124.07"/>
</g>
<!-- node_12&#45;&gt;node_6 -->
<g id="edge18" class="edge">
<title>node_12&#45;&gt;node_6</title>
<path fill="none" stroke="black" d="M1221.12,-220.75C1231.51,-212.43 1243.81,-202.59 1254.95,-193.68"/>
<polygon fill="black" stroke="black" points="1257.19,-196.37 1262.82,-187.39 1252.82,-190.9 1257.19,-196.37"/>
</g>
<!-- node_13 -->
<g id="node14" class="node">
<title>node_13</title>
<ellipse fill="none" stroke="#00cd00" cx="2007" cy="-240.04" rx="33.47" ry="24.08"/>
<text text-anchor="middle" x="2007" y="-233.84" font-family="Times,serif" font-size="24.00">3/2</text>
</g>
<!-- node_13&#45;&gt;node_2 -->
<g id="edge19" class="edge">
<title>node_13&#45;&gt;node_2</title>
<path fill="none" stroke="black" d="M1984.57,-222.1C1951.85,-195.92 1891.06,-147.29 1855.3,-118.69"/>
<polygon fill="black" stroke="black" points="1857.21,-115.73 1847.22,-112.21 1852.84,-121.19 1857.21,-115.73"/>
</g>
<!-- node_13&#45;&gt;node_4 -->
<g id="edge20" class="edge">
<title>node_13&#45;&gt;node_4</title>
<path fill="none" stroke="black" d="M2036.32,-228.31C2068.24,-215.55 2119.21,-195.16 2152.89,-181.69"/>
<polygon fill="black" stroke="black" points="2154.34,-184.88 2162.33,-177.91 2151.74,-178.38 2154.34,-184.88"/>
</g>
<!-- node_14 -->
<g id="node15" class="node">
<title>node_14</title>
<ellipse fill="none" stroke="#00cd00" cx="927" cy="-240.04" rx="39.7" ry="24.08"/>
<text text-anchor="middle" x="927" y="-233.84" font-family="Times,serif" font-size="24.00">&#45;3/2</text>
</g>
<!-- node_14&#45;&gt;node_1 -->
<g id="edge22" class="edge">
<title>node_14&#45;&gt;node_1</title>
<path fill="none" stroke="black" d="M951.28,-220.62C984.41,-194.11 1043.69,-146.69 1078.77,-118.63"/>
<polygon fill="black" stroke="black" points="1081.09,-121.25 1086.71,-112.27 1076.72,-115.78 1081.09,-121.25"/>
</g>
<!-- node_14&#45;&gt;node_3 -->
<g id="edge21" class="edge">
<title>node_14&#45;&gt;node_3</title>
<path fill="none" stroke="black" d="M893.57,-226.67C861.59,-213.88 813.61,-194.68 781.34,-181.78"/>
<polygon fill="black" stroke="black" points="782.45,-178.45 771.86,-177.99 779.85,-184.95 782.45,-178.45"/>
</g>
<!-- node_15 -->
<g id="node16" class="node">
<title>node_15</title>
<ellipse fill="none" stroke="#cd0000" cx="27" cy="-312.04" rx="27" ry="24.08"/>
<text text-anchor="middle" x="27" y="-305.84" font-family="Times,serif" font-size="24.00">&#45;4</text>
</g>
<!-- node_15&#45;&gt;node_7 -->
<g id="edge23" class="edge">
<title>node_15&#45;&gt;node_7</title>
<path fill="none" stroke="black" d="M53.47,-306.75C116.93,-294.06 277.81,-261.88 350.44,-247.35"/>
<polygon fill="black" stroke="black" points="351.37,-250.74 360.49,-245.34 350,-243.87 351.37,-250.74"/>
</g>
<!-- node_16 -->
<g id="node17" class="node">
<title>node_16</title>
<ellipse fill="none" stroke="#cd0000" cx="2907" cy="-312.04" rx="27" ry="24.08"/>
<text text-anchor="middle" x="2907" y="-305.84" font-family="Times,serif" font-size="24.00">4</text>
</g>
<!-- node_16&#45;&gt;node_8 -->
<g id="edge24" class="edge">
<title>node_16&#45;&gt;node_8</title>
<path fill="none" stroke="black" d="M2880.53,-306.75C2817.07,-294.06 2656.19,-261.88 2583.56,-247.35"/>
<polygon fill="black" stroke="black" points="2584,-243.87 2573.51,-245.34 2582.63,-250.74 2584,-243.87"/>
</g>
<!-- node_17 -->
<g id="node18" class="node">
<title>node_17</title>
<ellipse fill="none" stroke="#00cd00" cx="1512" cy="-312.04" rx="33.47" ry="24.08"/>
<text text-anchor="middle" x="1512" y="-305.84" font-family="Times,serif" font-size="24.00">1/8</text>
</g>
<!-- node_17&#45;&gt;node_0 -->
<g id="edge25" class="edge">
<title>node_17&#45;&gt;node_0</title>
<path fill="none" stroke="black" d="M1508.24,-287.98C1500.25,-236.84 1481.55,-117.19 1472.33,-58.18"/>
<polygon fill="black" stroke="black" points="1475.78,-57.57 1470.78,-48.24 1468.87,-58.66 1475.78,-57.57"/>
</g>
<!-- node_17&#45;&gt;node_9 -->
<g id="edge26" class="edge">
<title>node_17&#45;&gt;node_9</title>
<path fill="none" stroke="black" d="M1525.75,-290.05C1529.51,-284.02 1533.67,-277.37 1537.69,-270.95"/>
<polygon fill="black" stroke="black" points="1540.7,-272.73 1543.03,-262.4 1534.76,-269.02 1540.7,-272.73"/>
</g>
<!-- node_18 -->
<g id="node19" class="node">
<title>node_18</title>
<ellipse fill="none" stroke="#00cd00" cx="1422" cy="-312.04" rx="39.7" ry="24.08"/>
<text text-anchor="middle" x="1422" y="-305.84" font-family="Times,serif" font-size="24.00">&#45;1/8</text>
</g>
<!-- node_18&#45;&gt;node_0 -->
<g id="edge28" class="edge">
<title>node_18&#45;&gt;node_0</title>
<path fill="none" stroke="black" d="M1425.76,-287.98C1433.75,-236.84 1452.45,-117.19 1461.67,-58.18"/>
<polygon fill="black" stroke="black" points="1465.13,-58.66 1463.22,-48.24 1458.22,-57.57 1465.13,-58.66"/>
</g>
<!-- node_18&#45;&gt;node_10 -->
<g id="edge27" class="edge">
<title>node_18&#45;&gt;node_10</title>
<path fill="none" stroke="black" d="M1407.76,-289.26C1404.23,-283.61 1400.39,-277.46 1396.65,-271.48"/>
<polygon fill="black" stroke="black" points="1399.57,-269.55 1391.3,-262.92 1393.63,-273.26 1399.57,-269.55"/>
</g>
<!-- node_19 -->
<g id="node20" class="node">
<title>node_19</title>
<ellipse fill="none" stroke="#cd0000" cx="1602" cy="-312.04" rx="33.47" ry="24.08"/>
<text text-anchor="middle" x="1602" y="-305.84" font-family="Times,serif" font-size="24.00">3/8</text>
</g>
<!-- node_19&#45;&gt;node_5 -->
<g id="edge30" class="edge">
<title>node_19&#45;&gt;node_5</title>
<path fill="none" stroke="black" d="M1609.33,-288.59C1616.71,-264.98 1628.15,-228.35 1636.49,-201.66"/>
<polygon fill="black" stroke="black" points="1639.88,-202.56 1639.52,-191.97 1633.2,-200.47 1639.88,-202.56"/>
</g>
<!-- node_19&#45;&gt;node_9 -->
<g id="edge29" class="edge">
<title>node_19&#45;&gt;node_9</title>
<path fill="none" stroke="black" d="M1588.25,-290.05C1584.49,-284.02 1580.33,-277.37 1576.31,-270.95"/>
<polygon fill="black" stroke="black" points="1579.24,-269.02 1570.97,-262.4 1573.3,-272.73 1579.24,-269.02"/>
</g>
<!-- node_20 -->
<g id="node21" class="node">
<title>node_20</title>
<ellipse fill="none" stroke="#cd0000" cx="1332" cy="-312.04" rx="39.7" ry="24.08"/>
<text text-anchor="middle" x="1332" y="-305.84" font-family="Times,serif" font-size="24.00">&#45;3/8</text>
</g>
<!-- node_20&#45;&gt;node_6 -->
<g id="edge31" class="edge">
<title>node_20&#45;&gt;node_6</title>
<path fill="none" stroke="black" d="M1324.57,-288.26C1317.18,-264.6 1305.77,-228.09 1297.46,-201.51"/>
<polygon fill="black" stroke="black" points="1300.77,-200.36 1294.44,-191.86 1294.08,-202.44 1300.77,-200.36"/>
</g>
<!-- node_20&#45;&gt;node_10 -->
<g id="edge32" class="edge">
<title>node_20&#45;&gt;node_10</title>
<path fill="none" stroke="black" d="M1346.24,-289.26C1349.77,-283.61 1353.61,-277.46 1357.35,-271.48"/>
<polygon fill="black" stroke="black" points="1360.37,-273.26 1362.7,-262.92 1354.43,-269.55 1360.37,-273.26"/>
</g>
<!-- node_21 -->
<g id="node22" class="node">
<title>node_21</title>
<ellipse fill="none" stroke="#0000cd" cx="1692" cy="-312.04" rx="33.47" ry="24.08"/>
<text text-anchor="middle" x="1692" y="-305.84" font-family="Times,serif" font-size="24.00">5/8</text>
</g>
<!-- node_21&#45;&gt;node_5 -->
<g id="edge33" class="edge">
<title>node_21&#45;&gt;node_5</title>
<path fill="none" stroke="black" d="M1684.67,-288.59C1677.29,-264.98 1665.85,-228.35 1657.51,-201.66"/>
<polygon fill="black" stroke="black" points="1660.8,-200.47 1654.48,-191.97 1654.12,-202.56 1660.8,-200.47"/>
</g>
<!-- node_21&#45;&gt;node_11 -->
<g id="edge34" class="edge">
<title>node_21&#45;&gt;node_11</title>
<path fill="none" stroke="black" d="M1705.75,-290.05C1709.51,-284.02 1713.67,-277.37 1717.69,-270.95"/>
<polygon fill="black" stroke="black" points="1720.7,-272.73 1723.03,-262.4 1714.76,-269.02 1720.7,-272.73"/>
</g>
<!-- node_22 -->
<g id="node23" class="node">
<title>node_22</title>
<ellipse fill="none" stroke="#0000cd" cx="1242" cy="-312.04" rx="39.7" ry="24.08"/>
<text text-anchor="middle" x="1242" y="-305.84" font-family="Times,serif" font-size="24.00">&#45;5/8</text>
</g>
<!-- node_22&#45;&gt;node_6 -->
<g id="edge36" class="edge">
<title>node_22&#45;&gt;node_6</title>
<path fill="none" stroke="black" d="M1249.43,-288.26C1256.82,-264.6 1268.23,-228.09 1276.54,-201.51"/>
<polygon fill="black" stroke="black" points="1279.92,-202.44 1279.56,-191.86 1273.23,-200.36 1279.92,-202.44"/>
</g>
<!-- node_22&#45;&gt;node_12 -->
<g id="edge35" class="edge">
<title>node_22&#45;&gt;node_12</title>
<path fill="none" stroke="black" d="M1227.76,-289.26C1224.23,-283.61 1220.39,-277.46 1216.65,-271.48"/>
<polygon fill="black" stroke="black" points="1219.57,-269.55 1211.3,-262.92 1213.63,-273.26 1219.57,-269.55"/>
</g>
<!-- node_23 -->
<g id="node24" class="node">
<title>node_23</title>
<ellipse fill="none" stroke="#00cd00" cx="1782" cy="-312.04" rx="33.47" ry="24.08"/>
<text text-anchor="middle" x="1782" y="-305.84" font-family="Times,serif" font-size="24.00">7/8</text>
</g>
<!-- node_23&#45;&gt;node_2 -->
<g id="edge38" class="edge">
<title>node_23&#45;&gt;node_2</title>
<path fill="none" stroke="black" d="M1786.99,-288.1C1795.02,-249.56 1810.83,-173.65 1819.99,-129.68"/>
<polygon fill="black" stroke="black" points="1823.45,-130.26 1822.06,-119.76 1816.59,-128.84 1823.45,-130.26"/>
</g>
<!-- node_23&#45;&gt;node_11 -->
<g id="edge37" class="edge">
<title>node_23&#45;&gt;node_11</title>
<path fill="none" stroke="black" d="M1768.25,-290.05C1764.49,-284.02 1760.33,-277.37 1756.31,-270.95"/>
<polygon fill="black" stroke="black" points="1759.24,-269.02 1750.97,-262.4 1753.3,-272.73 1759.24,-269.02"/>
</g>
<!-- node_24 -->
<g id="node25" class="node">
<title>node_24</title>
<ellipse fill="none" stroke="#00cd00" cx="1152" cy="-312.04" rx="39.7" ry="24.08"/>
<text text-anchor="middle" x="1152" y="-305.84" font-family="Times,serif" font-size="24.00">&#45;7/8</text>
</g>
<!-- node_24&#45;&gt;node_1 -->
<g id="edge39" class="edge">
<title>node_24&#45;&gt;node_1</title>
<path fill="none" stroke="black" d="M1147.01,-288.1C1138.98,-249.56 1123.17,-173.65 1114.01,-129.68"/>
<polygon fill="black" stroke="black" points="1117.41,-128.84 1111.94,-119.76 1110.55,-130.26 1117.41,-128.84"/>
</g>
<!-- node_24&#45;&gt;node_12 -->
<g id="edge40" class="edge">
<title>node_24&#45;&gt;node_12</title>
<path fill="none" stroke="black" d="M1166.24,-289.26C1169.77,-283.61 1173.61,-277.46 1177.35,-271.48"/>
<polygon fill="black" stroke="black" points="1180.37,-273.26 1182.7,-262.92 1174.43,-269.55 1180.37,-273.26"/>
</g>
<!-- node_25 -->
<g id="node26" class="node">
<title>node_25</title>
<ellipse fill="none" stroke="#cd0000" cx="1917" cy="-312.04" rx="33.47" ry="24.08"/>
<text text-anchor="middle" x="1917" y="-305.84" font-family="Times,serif" font-size="24.00">5/4</text>
</g>
<!-- node_25&#45;&gt;node_2 -->
<g id="edge41" class="edge">
<title>node_25&#45;&gt;node_2</title>
<path fill="none" stroke="black" d="M1907.37,-288.93C1891.22,-250.17 1858.66,-172.03 1840.33,-128.03"/>
<polygon fill="black" stroke="black" points="1843.5,-126.55 1836.43,-118.67 1837.04,-129.24 1843.5,-126.55"/>
</g>
<!-- node_25&#45;&gt;node_13 -->
<g id="edge42" class="edge">
<title>node_25&#45;&gt;node_13</title>
<path fill="none" stroke="black" d="M1939.71,-293.87C1950.88,-284.94 1964.5,-274.04 1976.56,-264.39"/>
<polygon fill="black" stroke="black" points="1978.99,-266.94 1984.61,-257.96 1974.61,-261.47 1978.99,-266.94"/>
</g>
<!-- node_26 -->
<g id="node27" class="node">
<title>node_26</title>
<ellipse fill="none" stroke="#cd0000" cx="1017" cy="-312.04" rx="39.7" ry="24.08"/>
<text text-anchor="middle" x="1017" y="-305.84" font-family="Times,serif" font-size="24.00">&#45;5/4</text>
</g>
<!-- node_26&#45;&gt;node_1 -->
<g id="edge44" class="edge">
<title>node_26&#45;&gt;node_1</title>
<path fill="none" stroke="black" d="M1026.8,-288.51C1042.98,-249.68 1075.3,-172.12 1093.59,-128.23"/>
<polygon fill="black" stroke="black" points="1096.87,-129.46 1097.48,-118.89 1090.4,-126.77 1096.87,-129.46"/>
</g>
<!-- node_26&#45;&gt;node_14 -->
<g id="edge43" class="edge">
<title>node_26&#45;&gt;node_14</title>
<path fill="none" stroke="black" d="M992.88,-292.75C982.49,-284.43 970.19,-274.59 959.05,-265.68"/>
<polygon fill="black" stroke="black" points="961.18,-262.9 951.18,-259.39 956.81,-268.37 961.18,-262.9"/>
</g>
<!-- node_27 -->
<g id="node28" class="node">
<title>node_27</title>
<ellipse fill="none" stroke="#0000cd" cx="2097" cy="-312.04" rx="33.47" ry="24.08"/>
<text text-anchor="middle" x="2097" y="-305.84" font-family="Times,serif" font-size="24.00">7/4</text>
</g>
<!-- node_27&#45;&gt;node_4 -->
<g id="edge46" class="edge">
<title>node_27&#45;&gt;node_4</title>
<path fill="none" stroke="black" d="M2110.87,-289.86C2126.28,-265.19 2151.26,-225.22 2168.37,-197.84"/>
<polygon fill="black" stroke="black" points="2171.52,-199.41 2173.85,-189.08 2165.58,-195.7 2171.52,-199.41"/>
</g>
<!-- node_27&#45;&gt;node_13 -->
<g id="edge45" class="edge">
<title>node_27&#45;&gt;node_13</title>
<path fill="none" stroke="black" d="M2074.29,-293.87C2063.12,-284.94 2049.5,-274.04 2037.44,-264.39"/>
<polygon fill="black" stroke="black" points="2039.39,-261.47 2029.39,-257.96 2035.01,-266.94 2039.39,-261.47"/>
</g>
<!-- node_28 -->
<g id="node29" class="node">
<title>node_28</title>
<ellipse fill="none" stroke="#0000cd" cx="837" cy="-312.04" rx="39.7" ry="24.08"/>
<text text-anchor="middle" x="837" y="-305.84" font-family="Times,serif" font-size="24.00">&#45;7/4</text>
</g>
<!-- node_28&#45;&gt;node_3 -->
<g id="edge47" class="edge">
<title>node_28&#45;&gt;node_3</title>
<path fill="none" stroke="black" d="M822.94,-289.54C807.57,-264.95 782.87,-225.43 765.84,-198.18"/>
<polygon fill="black" stroke="black" points="768.64,-196.07 760.38,-189.44 762.71,-199.78 768.64,-196.07"/>
</g>
<!-- node_28&#45;&gt;node_14 -->
<g id="edge48" class="edge">
<title>node_28&#45;&gt;node_14</title>
<path fill="none" stroke="black" d="M861.12,-292.75C871.51,-284.43 883.81,-274.59 894.95,-265.68"/>
<polygon fill="black" stroke="black" points="897.19,-268.37 902.82,-259.39 892.82,-262.9 897.19,-268.37"/>
</g>
<!-- node_29 -->
<g id="node30" class="node">
<title>node_29</title>
<ellipse fill="none" stroke="#00cd00" cx="2367" cy="-312.04" rx="33.47" ry="24.08"/>
<text text-anchor="middle" x="2367" y="-305.84" font-family="Times,serif" font-size="24.00">5/2</text>
</g>
<!-- node_29&#45;&gt;node_4 -->
<g id="edge49" class="edge">
<title>node_29&#45;&gt;node_4</title>
<path fill="none" stroke="black" d="M2344.57,-294.1C2311.85,-267.92 2251.06,-219.29 2215.3,-190.69"/>
<polygon fill="black" stroke="black" points="2217.21,-187.73 2207.22,-184.21 2212.84,-193.19 2217.21,-187.73"/>
</g>
<!-- node_29&#45;&gt;node_8 -->
<g id="edge50" class="edge">
<title>node_29&#45;&gt;node_8</title>
<path fill="none" stroke="black" d="M2396.32,-300.31C2428.24,-287.55 2479.21,-267.16 2512.89,-253.69"/>
<polygon fill="black" stroke="black" points="2514.34,-256.88 2522.33,-249.91 2511.74,-250.38 2514.34,-256.88"/>
</g>
<!-- node_30 -->
<g id="node31" class="node">
<title>node_30</title>
<ellipse fill="none" stroke="#00cd00" cx="567" cy="-312.04" rx="39.7" ry="24.08"/>
<text text-anchor="middle" x="567" y="-305.84" font-family="Times,serif" font-size="24.00">&#45;5/2</text>
</g>
<!-- node_30&#45;&gt;node_3 -->
<g id="edge52" class="edge">
<title>node_30&#45;&gt;node_3</title>
<path fill="none" stroke="black" d="M591.28,-292.62C624.41,-266.11 683.69,-218.69 718.77,-190.63"/>
<polygon fill="black" stroke="black" points="721.09,-193.25 726.71,-184.27 716.72,-187.78 721.09,-193.25"/>
</g>
<!-- node_30&#45;&gt;node_7 -->
<g id="edge51" class="edge">
<title>node_30&#45;&gt;node_7</title>
<path fill="none" stroke="black" d="M533.57,-298.67C501.59,-285.88 453.61,-266.68 421.34,-253.78"/>
<polygon fill="black" stroke="black" points="422.45,-250.45 411.86,-249.99 419.85,-256.95 422.45,-250.45"/>
</g>
</g>
</svg>
