<?xml version="1.0" encoding="UTF-8" standalone="no"?>
<!DOCTYPE svg PUBLIC "-//W3C//DTD SVG 1.1//EN"
 "http://www.w3.org/Graphics/SVG/1.1/DTD/svg11.dtd">
<!-- Generated by graphviz version 2.43.0 (0)
 -->
<!-- Title: dyadic_tree Pages: 1 -->
<svg width="1123pt" height="279pt"
 viewBox="0.00 0.00 1123.00 279.00" xmlns="http://www.w3.org/2000/svg" xmlns:xlink="http://www.w3.org/1999/xlink">
<g id="graph0" class="graph" transform="scale(1 1) rotate(0) translate(4 275)">
<title>dyadic_tree</title>
<polygon fill="white" stroke="transparent" points="-4,4 -4,-275 1119,-275 1119,4 -4,4"/>
<!-- node_0 -->
<g id="node1" class="node">
<title>node_0</title>
<polygon fill="none" stroke="black" points="490,-25 490,-52 546,-52 546,-25 490,-25"/>
<text text-anchor="start" x="514.5" y="-35.8" font-family="Times,serif" text-decoration="overline" font-size="14.00">0</text>
<polygon fill="none" stroke="black" points="490,0 490,-25 518,-25 518,0 490,0"/>
<text text-anchor="start" x="495" y="-8.8" font-family="Times,serif" font-size="14.00"> Ø </text>
<polygon fill="none" stroke="black" points="518,0 518,-25 546,-25 546,0 518,0"/>
<text text-anchor="start" x="523" y="-8.8" font-family="Times,serif" font-size="14.00"> Ø </text>
</g>
<!-- node_day_0 -->
<g id="node2" class="node">
<title>node_day_0</title>
<text text-anchor="middle" x="1085" y="-21.6" font-family="Times,serif" font-size="18.00">Day 0</text>
</g>
<!-- node_day_1 -->
<g id="node3" class="node">
<title>node_day_1</title>
<text text-anchor="middle" x="1085" y="-93.6" font-family="Times,serif" font-size="18.00">Day 1</text>
</g>
<!-- node_1 -->
<g id="node4" class="node">
<title>node_1</title>
<polygon fill="none" stroke="black" points="327,-100 327,-127 386,-127 386,-100 327,-100"/>
<text text-anchor="start" x="350.5" y="-110.8" font-family="Times,serif" text-decoration="overline" font-size="14.00">&#45;1</text>
<polygon fill="none" stroke="black" points="327,-69 327,-100 355,-100 355,-69 327,-69"/>
<text text-anchor="start" x="332" y="-80.8" font-family="Times,serif" font-size="14.00"> Ø </text>
<polygon fill="none" stroke="black" points="355,-69 355,-100 386,-100 386,-69 355,-69"/>
<text text-anchor="start" x="363" y="-81.8" font-family="Times,serif" font-size="14.00"> </text>
<text text-anchor="start" x="367" y="-81.8" font-family="Times,serif" text-decoration="overline" font-size="14.00">0</text>
<text text-anchor="start" x="374" y="-81.8" font-family="Times,serif" font-size="14.00"> </text>
</g>
<!-- node_1&#45;&gt;node_0 -->
<g id="edge1" class="edge">
<title>node_1:R&#45;&gt;node_0</title>
<path fill="none" stroke="#0000cd" d="M395.23,-79.95C414.53,-71.47 459.84,-51.56 489.68,-38.44"/>
<polygon fill="#0000cd" stroke="#0000cd" points="393.75,-76.77 386,-84 396.56,-83.18 393.75,-76.77"/>
</g>
<!-- node_2 -->
<g id="node5" class="node">
<title>node_2</title>
<polygon fill="none" stroke="black" points="651,-100 651,-127 710,-127 710,-100 651,-100"/>
<text text-anchor="start" x="677" y="-110.8" font-family="Times,serif" text-decoration="overline" font-size="14.00">1</text>
<polygon fill="none" stroke="black" points="651,-69 651,-100 682,-100 682,-69 651,-69"/>
<text text-anchor="start" x="659" y="-81.8" font-family="Times,serif" font-size="14.00"> </text>
<text text-anchor="start" x="663" y="-81.8" font-family="Times,serif" text-decoration="overline" font-size="14.00">0</text>
<text text-anchor="start" x="670" y="-81.8" font-family="Times,serif" font-size="14.00"> </text>
<polygon fill="none" stroke="black" points="682,-69 682,-100 710,-100 710,-69 682,-69"/>
<text text-anchor="start" x="687" y="-80.8" font-family="Times,serif" font-size="14.00"> Ø </text>
</g>
<!-- node_2&#45;&gt;node_0 -->
<g id="edge2" class="edge">
<title>node_2:L&#45;&gt;node_0</title>
<path fill="none" stroke="#cd0000" d="M641.65,-79.92C622.11,-71.4 576.25,-51.4 546.21,-38.3"/>
<polygon fill="#cd0000" stroke="#cd0000" points="640.43,-83.21 651,-84 643.23,-76.79 640.43,-83.21"/>
</g>
<!-- node_day_2 -->
<g id="node6" class="node">
<title>node_day_2</title>
<text text-anchor="middle" x="1085" y="-165.6" font-family="Times,serif" font-size="18.00">Day 2</text>
</g>
<!-- node_3 -->
<g id="node7" class="node">
<title>node_3</title>
<polygon fill="none" stroke="black" points="162,-172 162,-199 226,-199 226,-172 162,-172"/>
<text text-anchor="start" x="188" y="-182.8" font-family="Times,serif" text-decoration="overline" font-size="14.00">&#45;2</text>
<polygon fill="none" stroke="black" points="162,-141 162,-172 190,-172 190,-141 162,-141"/>
<text text-anchor="start" x="167" y="-152.8" font-family="Times,serif" font-size="14.00"> Ø </text>
<polygon fill="none" stroke="black" points="190,-141 190,-172 226,-172 226,-141 190,-141"/>
<text text-anchor="start" x="198" y="-153.8" font-family="Times,serif" font-size="14.00"> </text>
<text text-anchor="start" x="202" y="-153.8" font-family="Times,serif" text-decoration="overline" font-size="14.00">&#45;1</text>
<text text-anchor="start" x="214" y="-153.8" font-family="Times,serif" font-size="14.00"> </text>
</g>
<!-- node_3&#45;&gt;node_1 -->
<g id="edge3" class="edge">
<title>node_3:R&#45;&gt;node_1</title>
<path fill="none" stroke="#0000cd" d="M235.37,-151.82C254.12,-143.45 296.94,-124.35 326.18,-111.31"/>
<polygon fill="#0000cd" stroke="#0000cd" points="233.71,-148.73 226,-156 236.56,-155.12 233.71,-148.73"/>
</g>
<!-- node_4 -->
<g id="node8" class="node">
<title>node_4</title>
<polygon fill="none" stroke="black" points="813,-172 813,-199 872,-199 872,-172 813,-172"/>
<text text-anchor="start" x="839" y="-182.8" font-family="Times,serif" text-decoration="overline" font-size="14.00">2</text>
<polygon fill="none" stroke="black" points="813,-141 813,-172 844,-172 844,-141 813,-141"/>
<text text-anchor="start" x="821" y="-153.8" font-family="Times,serif" font-size="14.00"> </text>
<text text-anchor="start" x="825" y="-153.8" font-family="Times,serif" text-decoration="overline" font-size="14.00">1</text>
<text text-anchor="start" x="832" y="-153.8" font-family="Times,serif" font-size="14.00"> </text>
<polygon fill="none" stroke="black" points="844,-141 844,-172 872,-172 872,-141 844,-141"/>
<text text-anchor="start" x="849" y="-152.8" font-family="Times,serif" font-size="14.00"> Ø </text>
</g>
<!-- node_4&#45;&gt;node_2 -->
<g id="edge4" class="edge">
<title>node_4:L&#45;&gt;node_2</title>
<path fill="none" stroke="#cd0000" d="M803.55,-151.88C784.24,-143.46 739.52,-123.95 709.52,-110.87"/>
<polygon fill="#cd0000" stroke="#cd0000" points="802.43,-155.21 813,-156 805.23,-148.79 802.43,-155.21"/>
</g>
<!-- node_5 -->
<g id="node9" class="node">
<title>node_5</title>
<polygon fill="none" stroke="black" points="568,-172 568,-199 630,-199 630,-172 568,-172"/>
<text text-anchor="start" x="590" y="-182.8" font-family="Times,serif" text-decoration="overline" font-size="14.00">1/2</text>
<polygon fill="none" stroke="black" points="568,-141 568,-172 599,-172 599,-141 568,-141"/>
<text text-anchor="start" x="576" y="-153.8" font-family="Times,serif" font-size="14.00"> </text>
<text text-anchor="start" x="580" y="-153.8" font-family="Times,serif" text-decoration="overline" font-size="14.00">0</text>
<text text-anchor="start" x="587" y="-153.8" font-family="Times,serif" font-size="14.00"> </text>
<polygon fill="none" stroke="black" points="599,-141 599,-172 630,-172 630,-141 599,-141"/>
<text text-anchor="start" x="607" y="-153.8" font-family="Times,serif" font-size="14.00"> </text>
<text text-anchor="start" x="611" y="-153.8" font-family="Times,serif" text-decoration="overline" font-size="14.00">1</text>
<text text-anchor="start" x="618" y="-153.8" font-family="Times,serif" font-size="14.00"> </text>
</g>
<!-- node_5&#45;&gt;node_0 -->
<g id="edge5" class="edge">
<title>node_5:L&#45;&gt;node_0</title>
<path fill="none" stroke="#cd0000" d="M577.99,-132.14C568.43,-115.22 547.21,-77.68 532.75,-52.1"/>
<polygon fill="#cd0000" stroke="#cd0000" points="575.03,-134.02 583,-141 581.13,-130.57 575.03,-134.02"/>
</g>
<!-- node_5&#45;&gt;node_2 -->
<g id="edge6" class="edge">
<title>node_5:R&#45;&gt;node_2</title>
<path fill="none" stroke="#0000cd" d="M636.85,-148.05C641.56,-142.59 648.12,-134.98 654.71,-127.34"/>
<polygon fill="#0000cd" stroke="#0000cd" points="633.88,-146.14 630,-156 639.18,-150.71 633.88,-146.14"/>
</g>
<!-- node_6 -->
<g id="node10" class="node">
<title>node_6</title>
<polygon fill="none" stroke="black" points="404,-172 404,-199 471,-199 471,-172 404,-172"/>
<text text-anchor="start" x="426.5" y="-182.8" font-family="Times,serif" text-decoration="overline" font-size="14.00">&#45;1/2</text>
<polygon fill="none" stroke="black" points="404,-141 404,-172 440,-172 440,-141 404,-141"/>
<text text-anchor="start" x="412" y="-153.8" font-family="Times,serif" font-size="14.00"> </text>
<text text-anchor="start" x="416" y="-153.8" font-family="Times,serif" text-decoration="overline" font-size="14.00">&#45;1</text>
<text text-anchor="start" x="428" y="-153.8" font-family="Times,serif" font-size="14.00"> </text>
<polygon fill="none" stroke="black" points="440,-141 440,-172 471,-172 471,-141 440,-141"/>
<text text-anchor="start" x="448" y="-153.8" font-family="Times,serif" font-size="14.00"> </text>
<text text-anchor="start" x="452" y="-153.8" font-family="Times,serif" text-decoration="overline" font-size="14.00">0</text>
<text text-anchor="start" x="459" y="-153.8" font-family="Times,serif" font-size="14.00"> </text>
</g>
<!-- node_6&#45;&gt;node_0 -->
<g id="edge8" class="edge">
<title>node_6:R&#45;&gt;node_0</title>
<path fill="none" stroke="#0000cd" d="M460.77,-132.14C469.9,-115.22 490.14,-77.68 503.93,-52.1"/>
<polygon fill="#0000cd" stroke="#0000cd" points="457.66,-130.54 456,-141 463.83,-133.86 457.66,-130.54"/>
</g>
<!-- node_6&#45;&gt;node_1 -->
<g id="edge7" class="edge">
<title>node_6:L&#45;&gt;node_1</title>
<path fill="none" stroke="#cd0000" d="M397.42,-148.05C392.9,-142.59 386.61,-134.98 380.28,-127.34"/>
<polygon fill="#cd0000" stroke="#cd0000" points="394.93,-150.53 404,-156 400.32,-146.06 394.93,-150.53"/>
</g>
<!-- node_day_3 -->
<g id="node11" class="node">
<title>node_day_3</title>
<text text-anchor="middle" x="1085" y="-237.6" font-family="Times,serif" font-size="18.00">Day 3</text>
</g>
<!-- node_7 -->
<g id="node12" class="node">
<title>node_7</title>
<polygon fill="none" stroke="black" points="0,-244 0,-271 64,-271 64,-244 0,-244"/>
<text text-anchor="start" x="26" y="-254.8" font-family="Times,serif" text-decoration="overline" font-size="14.00">&#45;3</text>
<polygon fill="none" stroke="black" points="0,-213 0,-244 28,-244 28,-213 0,-213"/>
<text text-anchor="start" x="5" y="-224.8" font-family="Times,serif" font-size="14.00"> Ø </text>
<polygon fill="none" stroke="black" points="28,-213 28,-244 64,-244 64,-213 28,-213"/>
<text text-anchor="start" x="36" y="-225.8" font-family="Times,serif" font-size="14.00"> </text>
<text text-anchor="start" x="40" y="-225.8" font-family="Times,serif" text-decoration="overline" font-size="14.00">&#45;2</text>
<text text-anchor="start" x="52" y="-225.8" font-family="Times,serif" font-size="14.00"> </text>
</g>
<!-- node_7&#45;&gt;node_3 -->
<g id="edge9" class="edge">
<title>node_7:R&#45;&gt;node_3</title>
<path fill="none" stroke="#0000cd" d="M73.31,-223.85C91.53,-215.72 132.69,-197.35 161.87,-184.34"/>
<polygon fill="#0000cd" stroke="#0000cd" points="71.71,-220.73 64,-228 74.56,-227.12 71.71,-220.73"/>
</g>
<!-- node_8 -->
<g id="node13" class="node">
<title>node_8</title>
<polygon fill="none" stroke="black" points="975,-244 975,-271 1034,-271 1034,-244 975,-244"/>
<text text-anchor="start" x="1001" y="-254.8" font-family="Times,serif" text-decoration="overline" font-size="14.00">3</text>
<polygon fill="none" stroke="black" points="975,-213 975,-244 1006,-244 1006,-213 975,-213"/>
<text text-anchor="start" x="983" y="-225.8" font-family="Times,serif" font-size="14.00"> </text>
<text text-anchor="start" x="987" y="-225.8" font-family="Times,serif" text-decoration="overline" font-size="14.00">2</text>
<text text-anchor="start" x="994" y="-225.8" font-family="Times,serif" font-size="14.00"> </text>
<polygon fill="none" stroke="black" points="1006,-213 1006,-244 1034,-244 1034,-213 1006,-213"/>
<text text-anchor="start" x="1011" y="-224.8" font-family="Times,serif" font-size="14.00"> Ø </text>
</g>
<!-- node_8&#45;&gt;node_4 -->
<g id="edge10" class="edge">
<title>node_8:L&#45;&gt;node_4</title>
<path fill="none" stroke="#cd0000" d="M965.55,-223.88C946.24,-215.46 901.52,-195.95 871.52,-182.87"/>
<polygon fill="#cd0000" stroke="#cd0000" points="964.43,-227.21 975,-228 967.23,-220.79 964.43,-227.21"/>
</g>
<!-- node_9 -->
<g id="node14" class="node">
<title>node_9</title>
<polygon fill="none" stroke="black" points="522.5,-244 522.5,-271 595.5,-271 595.5,-244 522.5,-244"/>
<text text-anchor="start" x="550" y="-254.8" font-family="Times,serif" text-decoration="overline" font-size="14.00">1/4</text>
<polygon fill="none" stroke="black" points="522.5,-213 522.5,-244 553.5,-244 553.5,-213 522.5,-213"/>
<text text-anchor="start" x="530.5" y="-225.8" font-family="Times,serif" font-size="14.00"> </text>
<text text-anchor="start" x="534.5" y="-225.8" font-family="Times,serif" text-decoration="overline" font-size="14.00">0</text>
<text text-anchor="start" x="541.5" y="-225.8" font-family="Times,serif" font-size="14.00"> </text>
<polygon fill="none" stroke="black" points="553.5,-213 553.5,-244 595.5,-244 595.5,-213 553.5,-213"/>
<text text-anchor="start" x="561.5" y="-225.8" font-family="Times,serif" font-size="14.00"> </text>
<text text-anchor="start" x="565.5" y="-225.8" font-family="Times,serif" text-decoration="overline" font-size="14.00">1/2</text>
<text text-anchor="start" x="583.5" y="-225.8" font-family="Times,serif" font-size="14.00"> </text>
</g>
<!-- node_9&#45;&gt;node_0 -->
<g id="edge11" class="edge">
<title>node_9:L&#45;&gt;node_0</title>
<path fill="none" stroke="#cd0000" d="M536.45,-202.95C533.51,-174.71 525.09,-93.95 520.71,-52"/>
<polygon fill="#cd0000" stroke="#cd0000" points="532.98,-203.42 537.5,-213 539.94,-202.69 532.98,-203.42"/>
</g>
<!-- node_9&#45;&gt;node_5 -->
<g id="edge12" class="edge">
<title>node_9:R&#45;&gt;node_5</title>
<path fill="none" stroke="#0000cd" d="M579.58,-204.09C580.41,-202.63 581.31,-201.05 582.25,-199.39"/>
<polygon fill="#0000cd" stroke="#0000cd" points="576.41,-202.58 574.5,-213 582.49,-206.04 576.41,-202.58"/>
</g>
<!-- node_10 -->
<g id="node15" class="node">
<title>node_10</title>
<polygon fill="none" stroke="black" points="439.5,-244 439.5,-271 516.5,-271 516.5,-244 439.5,-244"/>
<text text-anchor="start" x="467" y="-254.8" font-family="Times,serif" text-decoration="overline" font-size="14.00">&#45;1/4</text>
<polygon fill="none" stroke="black" points="439.5,-213 439.5,-244 485.5,-244 485.5,-213 439.5,-213"/>
<text text-anchor="start" x="447.5" y="-225.8" font-family="Times,serif" font-size="14.00"> </text>
<text text-anchor="start" x="451.5" y="-225.8" font-family="Times,serif" text-decoration="overline" font-size="14.00">&#45;1/2</text>
<text text-anchor="start" x="473.5" y="-225.8" font-family="Times,serif" font-size="14.00"> </text>
<polygon fill="none" stroke="black" points="485.5,-213 485.5,-244 516.5,-244 516.5,-213 485.5,-213"/>
<text text-anchor="start" x="493.5" y="-225.8" font-family="Times,serif" font-size="14.00"> </text>
<text text-anchor="start" x="497.5" y="-225.8" font-family="Times,serif" text-decoration="overline" font-size="14.00">0</text>
<text text-anchor="start" x="504.5" y="-225.8" font-family="Times,serif" font-size="14.00"> </text>
</g>
<!-- node_10&#45;&gt;node_0 -->
<g id="edge14" class="edge">
<title>node_10:R&#45;&gt;node_0</title>
<path fill="none" stroke="#0000cd" d="M502.39,-202.95C504.88,-174.71 512,-93.95 515.71,-52"/>
<polygon fill="#0000cd" stroke="#0000cd" points="498.89,-202.73 501.5,-213 505.87,-203.35 498.89,-202.73"/>
</g>
<!-- node_10&#45;&gt;node_6 -->
<g id="edge13" class="edge">
<title>node_10:L&#45;&gt;node_6</title>
<path fill="none" stroke="#cd0000" d="M457.22,-204.09C456.35,-202.63 455.41,-201.05 454.43,-199.39"/>
<polygon fill="#cd0000" stroke="#cd0000" points="454.39,-206.18 462.5,-213 460.41,-202.61 454.39,-206.18"/>
</g>
<!-- node_11 -->
<g id="node16" class="node">
<title>node_11</title>
<polygon fill="none" stroke="black" points="603.5,-244 603.5,-271 676.5,-271 676.5,-244 603.5,-244"/>
<text text-anchor="start" x="631" y="-254.8" font-family="Times,serif" text-decoration="overline" font-size="14.00">3/4</text>
<polygon fill="none" stroke="black" points="603.5,-213 603.5,-244 645.5,-244 645.5,-213 603.5,-213"/>
<text text-anchor="start" x="611.5" y="-225.8" font-family="Times,serif" font-size="14.00"> </text>
<text text-anchor="start" x="615.5" y="-225.8" font-family="Times,serif" text-decoration="overline" font-size="14.00">1/2</text>
<text text-anchor="start" x="633.5" y="-225.8" font-family="Times,serif" font-size="14.00"> </text>
<polygon fill="none" stroke="black" points="645.5,-213 645.5,-244 676.5,-244 676.5,-213 645.5,-213"/>
<text text-anchor="start" x="653.5" y="-225.8" font-family="Times,serif" font-size="14.00"> </text>
<text text-anchor="start" x="657.5" y="-225.8" font-family="Times,serif" text-decoration="overline" font-size="14.00">1</text>
<text text-anchor="start" x="664.5" y="-225.8" font-family="Times,serif" font-size="14.00"> </text>
</g>
<!-- node_11&#45;&gt;node_2 -->
<g id="edge16" class="edge">
<title>node_11:R&#45;&gt;node_2</title>
<path fill="none" stroke="#0000cd" d="M663.1,-203.05C665.79,-186.31 671.33,-151.9 675.33,-127.02"/>
<polygon fill="#0000cd" stroke="#0000cd" points="659.63,-202.57 661.5,-213 666.54,-203.68 659.63,-202.57"/>
</g>
<!-- node_11&#45;&gt;node_5 -->
<g id="edge15" class="edge">
<title>node_11:L&#45;&gt;node_5</title>
<path fill="none" stroke="#cd0000" d="M619.22,-204.09C618.35,-202.63 617.41,-201.05 616.43,-199.39"/>
<polygon fill="#cd0000" stroke="#cd0000" points="616.39,-206.18 624.5,-213 622.41,-202.61 616.39,-206.18"/>
</g>
<!-- node_12 -->
<g id="node17" class="node">
<title>node_12</title>
<polygon fill="none" stroke="black" points="355.5,-244 355.5,-271 437.5,-271 437.5,-244 355.5,-244"/>
<text text-anchor="start" x="385.5" y="-254.8" font-family="Times,serif" text-decoration="overline" font-size="14.00">&#45;3/4</text>
<polygon fill="none" stroke="black" points="355.5,-213 355.5,-244 391.5,-244 391.5,-213 355.5,-213"/>
<text text-anchor="start" x="363.5" y="-225.8" font-family="Times,serif" font-size="14.00"> </text>
<text text-anchor="start" x="367.5" y="-225.8" font-family="Times,serif" text-decoration="overline" font-size="14.00">&#45;1</text>
<text text-anchor="start" x="379.5" y="-225.8" font-family="Times,serif" font-size="14.00"> </text>
<polygon fill="none" stroke="black" points="391.5,-213 391.5,-244 437.5,-244 437.5,-213 391.5,-213"/>
<text text-anchor="start" x="399.5" y="-225.8" font-family="Times,serif" font-size="14.00"> </text>
<text text-anchor="start" x="403.5" y="-225.8" font-family="Times,serif" text-decoration="overline" font-size="14.00">&#45;1/2</text>
<text text-anchor="start" x="425.5" y="-225.8" font-family="Times,serif" font-size="14.00"> </text>
</g>
<!-- node_12&#45;&gt;node_1 -->
<g id="edge17" class="edge">
<title>node_12:L&#45;&gt;node_1</title>
<path fill="none" stroke="#cd0000" d="M371.99,-203.05C369.44,-186.31 364.2,-151.9 360.42,-127.02"/>
<polygon fill="#cd0000" stroke="#cd0000" points="368.54,-203.64 373.5,-213 375.46,-202.59 368.54,-203.64"/>
</g>
<!-- node_12&#45;&gt;node_6 -->
<g id="edge18" class="edge">
<title>node_12:R&#45;&gt;node_6</title>
<path fill="none" stroke="#0000cd" d="M419.16,-204.09C419.93,-202.63 420.75,-201.05 421.62,-199.39"/>
<polygon fill="#0000cd" stroke="#0000cd" points="416.04,-202.52 414.5,-213 422.24,-205.76 416.04,-202.52"/>
</g>
<!-- node_13 -->
<g id="node18" class="node">
<title>node_13</title>
<polygon fill="none" stroke="black" points="730,-244 730,-271 792,-271 792,-244 730,-244"/>
<text text-anchor="start" x="752" y="-254.8" font-family="Times,serif" text-decoration="overline" font-size="14.00">3/2</text>
<polygon fill="none" stroke="black" points="730,-213 730,-244 761,-244 761,-213 730,-213"/>
<text text-anchor="start" x="738" y="-225.8" font-family="Times,serif" font-size="14.00"> </text>
<text text-anchor="start" x="742" y="-225.8" font-family="Times,serif" text-decoration="overline" font-size="14.00">1</text>
<text text-anchor="start" x="749" y="-225.8" font-family="Times,serif" font-size="14.00"> </text>
<polygon fill="none" stroke="black" points="761,-213 761,-244 792,-244 792,-213 761,-213"/>
<text text-anchor="start" x="769" y="-225.8" font-family="Times,serif" font-size="14.00"> </text>
<text text-anchor="start" x="773" y="-225.8" font-family="Times,serif" text-decoration="overline" font-size="14.00">2</text>
<text text-anchor="start" x="780" y="-225.8" font-family="Times,serif" font-size="14.00"> </text>
</g>
<!-- node_13&#45;&gt;node_2 -->
<g id="edge19" class="edge">
<title>node_13:L&#45;&gt;node_2</title>
<path fill="none" stroke="#cd0000" d="M739.97,-204.1C730.75,-187.79 710.77,-152.44 696.4,-127.02"/>
<polygon fill="#cd0000" stroke="#cd0000" points="737.03,-206.02 745,-213 743.13,-202.57 737.03,-206.02"/>
</g>
<!-- node_13&#45;&gt;node_4 -->
<g id="edge20" class="edge">
<title>node_13:R&#45;&gt;node_4</title>
<path fill="none" stroke="#0000cd" d="M798.85,-220.05C803.56,-214.59 810.12,-206.98 816.71,-199.34"/>
<polygon fill="#0000cd" stroke="#0000cd" points="795.88,-218.14 792,-228 801.18,-222.71 795.88,-218.14"/>
</g>
<!-- node_14 -->
<g id="node19" class="node">
<title>node_14</title>
<polygon fill="none" stroke="black" points="239,-244 239,-271 311,-271 311,-244 239,-244"/>
<text text-anchor="start" x="264" y="-254.8" font-family="Times,serif" text-decoration="overline" font-size="14.00">&#45;3/2</text>
<polygon fill="none" stroke="black" points="239,-213 239,-244 275,-244 275,-213 239,-213"/>
<text text-anchor="start" x="247" y="-225.8" font-family="Times,serif" font-size="14.00"> </text>
<text text-anchor="start" x="251" y="-225.8" font-family="Times,serif" text-decoration="overline" font-size="14.00">&#45;2</text>
<text text-anchor="start" x="263" y="-225.8" font-family="Times,serif" font-size="14.00"> </text>
<polygon fill="none" stroke="black" points="275,-213 275,-244 311,-244 311,-213 275,-213"/>
<text text-anchor="start" x="283" y="-225.8" font-family="Times,serif" font-size="14.00"> </text>
<text text-anchor="start" x="287" y="-225.8" font-family="Times,serif" text-decoration="overline" font-size="14.00">&#45;1</text>
<text text-anchor="start" x="299" y="-225.8" font-family="Times,serif" font-size="14.00"> </text>
</g>
<!-- node_14&#45;&gt;node_1 -->
<g id="edge22" class="edge">
<title>node_14:R&#45;&gt;node_1</title>
<path fill="none" stroke="#0000cd" d="M297.87,-204.1C306.81,-187.79 326.18,-152.44 340.1,-127.02"/>
<polygon fill="#0000cd" stroke="#0000cd" points="294.74,-202.55 293,-213 300.87,-205.91 294.74,-202.55"/>
</g>
<!-- node_14&#45;&gt;node_3 -->
<g id="edge21" class="edge">
<title>node_14:L&#45;&gt;node_3</title>
<path fill="none" stroke="#cd0000" d="M232.83,-220.05C228.6,-214.59 222.69,-206.98 216.76,-199.34"/>
<polygon fill="#cd0000" stroke="#cd0000" points="230.1,-222.24 239,-228 235.64,-217.95 230.1,-222.24"/>
</g>
</g>
</svg>
