<?xml version="1.0" encoding="UTF-8" standalone="no"?>
<!DOCTYPE svg PUBLIC "-//W3C//DTD SVG 1.1//EN"
 "http://www.w3.org/Graphics/SVG/1.1/DTD/svg11.dtd">
<!-- Generated by graphviz version 2.43.0 (0)
 -->
<!-- Title: dyadic_tree Pages: 1 -->
<svg width="1502pt" height="410pt"
 viewBox="0.00 0.00 1502.00 410.00" xmlns="http://www.w3.org/2000/svg" xmlns:xlink="http://www.w3.org/1999/xlink">
<g id="graph0" class="graph" transform="scale(1 1) rotate(0) translate(4 406)">
<title>dyadic_tree</title>
<polygon fill="white" stroke="transparent" points="-4,4 -4,-406 1498,-406 1498,4 -4,4"/>
<!-- node_0 -->
<g id="node1" class="node">
<title>node_0</title>
<text text-anchor="middle" x="27" y="-15.2" font-family="Times,serif" font-size="36.00">0</text>
</g>
<!-- node_2 -->
<g id="node2" class="node">
<title>node_2</title>
<text text-anchor="middle" x="315" y="-87.9" font-family="Times,serif" font-size="32.00">1</text>
</g>
<!-- node_2&#45;&#45;node_0 -->
<g id="edge1" class="edge">
<title>node_2&#45;&#45;node_0</title>
<path fill="none" stroke="#0000cd" d="M287.91,-89.23C233.02,-75.5 109.24,-44.56 54.23,-30.81"/>
</g>
<!-- node_4 -->
<g id="node3" class="node">
<title>node_4</title>
<text text-anchor="middle" x="603" y="-161.1" font-family="Times,serif" font-size="28.00">2</text>
</g>
<!-- node_4&#45;&#45;node_2 -->
<g id="edge2" class="edge">
<title>node_4&#45;&#45;node_2</title>
<path fill="none" stroke="#0000cd" d="M575.91,-161.23C521.02,-147.5 397.24,-116.56 342.23,-102.81"/>
</g>
<!-- node_5 -->
<g id="node4" class="node">
<title>node_5</title>
<text text-anchor="middle" x="171" y="-161.1" font-family="Times,serif" font-size="28.00">1/2</text>
</g>
<!-- node_5&#45;&#45;node_0 -->
<g id="edge3" class="edge">
<title>node_5&#45;&#45;node_0</title>
<path fill="none" stroke="grey" d="M151.28,-148.28C125.24,-122.24 79.42,-76.42 51.28,-48.28"/>
</g>
<!-- node_5&#45;&#45;node_2 -->
<g id="edge4" class="edge">
<title>node_5&#45;&#45;node_2</title>
<path fill="none" stroke="#0000cd" d="M198.09,-154.46C223.67,-141.67 261.84,-122.58 287.55,-109.73"/>
</g>
<!-- node_8 -->
<g id="node5" class="node">
<title>node_8</title>
<text text-anchor="middle" x="891" y="-233.8" font-family="Times,serif" font-size="24.00">3</text>
</g>
<!-- node_8&#45;&#45;node_4 -->
<g id="edge5" class="edge">
<title>node_8&#45;&#45;node_4</title>
<path fill="none" stroke="#0000cd" d="M863.91,-233.23C809.02,-219.5 685.24,-188.56 630.23,-174.81"/>
</g>
<!-- node_9 -->
<g id="node6" class="node">
<title>node_9</title>
<text text-anchor="middle" x="99" y="-233.8" font-family="Times,serif" font-size="24.00">1/4</text>
</g>
<!-- node_9&#45;&#45;node_0 -->
<g id="edge6" class="edge">
<title>node_9&#45;&#45;node_0</title>
<path fill="none" stroke="grey" d="M92.99,-221.96C80.07,-183.22 49.7,-92.09 35.1,-48.31"/>
</g>
<!-- node_9&#45;&#45;node_5 -->
<g id="edge7" class="edge">
<title>node_9&#45;&#45;node_5</title>
<path fill="none" stroke="#0000cd" d="M117.17,-221.83C127.58,-211.42 140.66,-198.34 151.32,-187.68"/>
</g>
<!-- node_11 -->
<g id="node7" class="node">
<title>node_11</title>
<text text-anchor="middle" x="243" y="-233.8" font-family="Times,serif" font-size="24.00">3/4</text>
</g>
<!-- node_11&#45;&#45;node_2 -->
<g id="edge9" class="edge">
<title>node_11&#45;&#45;node_2</title>
<path fill="none" stroke="grey" d="M252.12,-221.76C265.36,-195.27 289.88,-146.23 304.08,-117.85"/>
</g>
<!-- node_11&#45;&#45;node_5 -->
<g id="edge8" class="edge">
<title>node_11&#45;&#45;node_5</title>
<path fill="none" stroke="#0000cd" d="M224.83,-221.83C214.42,-211.42 201.34,-198.34 190.68,-187.68"/>
</g>
<!-- node_13 -->
<g id="node8" class="node">
<title>node_13</title>
<text text-anchor="middle" x="459" y="-233.8" font-family="Times,serif" font-size="24.00">3/2</text>
</g>
<!-- node_13&#45;&#45;node_2 -->
<g id="edge10" class="edge">
<title>node_13&#45;&#45;node_2</title>
<path fill="none" stroke="grey" d="M440.76,-221.76C414.27,-195.27 365.23,-146.23 336.85,-117.85"/>
</g>
<!-- node_13&#45;&#45;node_4 -->
<g id="edge11" class="edge">
<title>node_13&#45;&#45;node_4</title>
<path fill="none" stroke="#0000cd" d="M486.09,-226.46C511.67,-213.67 549.84,-194.58 575.55,-181.73"/>
</g>
<!-- node_16 -->
<g id="node9" class="node">
<title>node_16</title>
<text text-anchor="middle" x="1179" y="-307" font-family="Times,serif" font-size="20.00">4</text>
</g>
<!-- node_16&#45;&#45;node_8 -->
<g id="edge12" class="edge">
<title>node_16&#45;&#45;node_8</title>
<path fill="none" stroke="#0000cd" d="M1151.91,-305.23C1097.02,-291.5 973.24,-260.56 918.23,-246.81"/>
</g>
<!-- node_17 -->
<g id="node10" class="node">
<title>node_17</title>
<text text-anchor="middle" x="63" y="-307" font-family="Times,serif" font-size="20.00">1/8</text>
</g>
<!-- node_17&#45;&#45;node_0 -->
<g id="edge13" class="edge">
<title>node_17&#45;&#45;node_0</title>
<path fill="none" stroke="grey" d="M60.75,-293.98C54.53,-244.23 37.11,-104.9 30.04,-48.33"/>
</g>
<!-- node_17&#45;&#45;node_9 -->
<g id="edge14" class="edge">
<title>node_17&#45;&#45;node_9</title>
<path fill="none" stroke="#0000cd" d="M72.08,-293.83C77.5,-283 84.36,-269.29 89.79,-258.41"/>
</g>
<!-- node_19 -->
<g id="node11" class="node">
<title>node_19</title>
<text text-anchor="middle" x="135" y="-307" font-family="Times,serif" font-size="20.00">3/8</text>
</g>
<!-- node_19&#45;&#45;node_5 -->
<g id="edge16" class="edge">
<title>node_19&#45;&#45;node_5</title>
<path fill="none" stroke="grey" d="M139.56,-293.76C146.33,-266.67 159.01,-215.98 166.02,-187.94"/>
</g>
<!-- node_19&#45;&#45;node_9 -->
<g id="edge15" class="edge">
<title>node_19&#45;&#45;node_9</title>
<path fill="none" stroke="#0000cd" d="M125.92,-293.83C120.5,-283 113.64,-269.29 108.21,-258.41"/>
</g>
<!-- node_21 -->
<g id="node12" class="node">
<title>node_21</title>
<text text-anchor="middle" x="207" y="-307" font-family="Times,serif" font-size="20.00">5/8</text>
</g>
<!-- node_21&#45;&#45;node_5 -->
<g id="edge17" class="edge">
<title>node_21&#45;&#45;node_5</title>
<path fill="none" stroke="grey" d="M202.44,-293.76C195.67,-266.67 182.99,-215.98 175.98,-187.94"/>
</g>
<!-- node_21&#45;&#45;node_11 -->
<g id="edge18" class="edge">
<title>node_21&#45;&#45;node_11</title>
<path fill="none" stroke="#0000cd" d="M216.08,-293.83C221.5,-283 228.36,-269.29 233.79,-258.41"/>
</g>
<!-- node_23 -->
<g id="node13" class="node">
<title>node_23</title>
<text text-anchor="middle" x="279" y="-307" font-family="Times,serif" font-size="20.00">7/8</text>
</g>
<!-- node_23&#45;&#45;node_2 -->
<g id="edge20" class="edge">
<title>node_23&#45;&#45;node_2</title>
<path fill="none" stroke="grey" d="M282.01,-293.96C288.6,-254.41 304.29,-160.25 311.4,-117.63"/>
</g>
<!-- node_23&#45;&#45;node_11 -->
<g id="edge19" class="edge">
<title>node_23&#45;&#45;node_11</title>
<path fill="none" stroke="#0000cd" d="M269.92,-293.83C264.5,-283 257.64,-269.29 252.21,-258.41"/>
</g>
<!-- node_25 -->
<g id="node14" class="node">
<title>node_25</title>
<text text-anchor="middle" x="387" y="-307" font-family="Times,serif" font-size="20.00">5/4</text>
</g>
<!-- node_25&#45;&#45;node_2 -->
<g id="edge21" class="edge">
<title>node_25&#45;&#45;node_2</title>
<path fill="none" stroke="grey" d="M380.99,-293.96C367.8,-254.41 336.42,-160.25 322.21,-117.63"/>
</g>
<!-- node_25&#45;&#45;node_13 -->
<g id="edge22" class="edge">
<title>node_25&#45;&#45;node_13</title>
<path fill="none" stroke="#0000cd" d="M405.17,-293.83C416,-283 429.71,-269.29 440.59,-258.41"/>
</g>
<!-- node_27 -->
<g id="node15" class="node">
<title>node_27</title>
<text text-anchor="middle" x="531" y="-307" font-family="Times,serif" font-size="20.00">7/4</text>
</g>
<!-- node_27&#45;&#45;node_4 -->
<g id="edge24" class="edge">
<title>node_27&#45;&#45;node_4</title>
<path fill="none" stroke="grey" d="M540.12,-293.76C553.67,-266.67 579.01,-215.98 593.03,-187.94"/>
</g>
<!-- node_27&#45;&#45;node_13 -->
<g id="edge23" class="edge">
<title>node_27&#45;&#45;node_13</title>
<path fill="none" stroke="#0000cd" d="M512.83,-293.83C502,-283 488.29,-269.29 477.41,-258.41"/>
</g>
<!-- node_29 -->
<g id="node16" class="node">
<title>node_29</title>
<text text-anchor="middle" x="747" y="-307" font-family="Times,serif" font-size="20.00">5/2</text>
</g>
<!-- node_29&#45;&#45;node_4 -->
<g id="edge25" class="edge">
<title>node_29&#45;&#45;node_4</title>
<path fill="none" stroke="grey" d="M728.76,-293.76C701.67,-266.67 650.98,-215.98 622.94,-187.94"/>
</g>
<!-- node_29&#45;&#45;node_8 -->
<g id="edge26" class="edge">
<title>node_29&#45;&#45;node_8</title>
<path fill="none" stroke="#0000cd" d="M774.09,-298.46C799.67,-285.67 837.84,-266.58 863.55,-253.73"/>
</g>
<!-- node_32 -->
<g id="node17" class="node">
<title>node_32</title>
<text text-anchor="middle" x="1467" y="-380.2" font-family="Times,serif" font-size="16.00">5</text>
</g>
<!-- node_32&#45;&#45;node_16 -->
<g id="edge27" class="edge">
<title>node_32&#45;&#45;node_16</title>
<path fill="none" stroke="#0000cd" d="M1439.91,-377.23C1385.02,-363.5 1261.24,-332.56 1206.23,-318.81"/>
</g>
<!-- node_33 -->
<g id="node18" class="node">
<title>node_33</title>
<text text-anchor="middle" x="45" y="-380.2" font-family="Times,serif" font-size="16.00">1/16</text>
</g>
<!-- node_33&#45;&#45;node_0 -->
<g id="edge28" class="edge">
<title>node_33&#45;&#45;node_0</title>
<path fill="none" stroke="grey" d="M44.08,-365.65C41.09,-305.76 31.6,-115.94 28.21,-48.26"/>
</g>
<!-- node_33&#45;&#45;node_17 -->
<g id="edge29" class="edge">
<title>node_33&#45;&#45;node_17</title>
<path fill="none" stroke="#0000cd" d="M49.54,-365.83C52.25,-355 55.68,-341.29 58.4,-330.41"/>
</g>
<!-- node_35 -->
<g id="node19" class="node">
<title>node_35</title>
<text text-anchor="middle" x="81" y="-380.2" font-family="Times,serif" font-size="16.00">3/16</text>
</g>
<!-- node_35&#45;&#45;node_9 -->
<g id="edge31" class="edge">
<title>node_35&#45;&#45;node_9</title>
<path fill="none" stroke="grey" d="M83.28,-365.76C86.74,-338.06 93.29,-285.7 96.74,-258.09"/>
</g>
<!-- node_35&#45;&#45;node_17 -->
<g id="edge30" class="edge">
<title>node_35&#45;&#45;node_17</title>
<path fill="none" stroke="#0000cd" d="M76.46,-365.83C73.75,-355 70.32,-341.29 67.6,-330.41"/>
</g>
<!-- node_37 -->
<g id="node20" class="node">
<title>node_37</title>
<text text-anchor="middle" x="117" y="-380.2" font-family="Times,serif" font-size="16.00">5/16</text>
</g>
<!-- node_37&#45;&#45;node_9 -->
<g id="edge32" class="edge">
<title>node_37&#45;&#45;node_9</title>
<path fill="none" stroke="grey" d="M114.72,-365.76C111.26,-338.06 104.71,-285.7 101.26,-258.09"/>
</g>
<!-- node_37&#45;&#45;node_19 -->
<g id="edge33" class="edge">
<title>node_37&#45;&#45;node_19</title>
<path fill="none" stroke="#0000cd" d="M121.54,-365.83C124.25,-355 127.68,-341.29 130.4,-330.41"/>
</g>
<!-- node_39 -->
<g id="node21" class="node">
<title>node_39</title>
<text text-anchor="middle" x="153" y="-380.2" font-family="Times,serif" font-size="16.00">7/16</text>
</g>
<!-- node_39&#45;&#45;node_5 -->
<g id="edge35" class="edge">
<title>node_39&#45;&#45;node_5</title>
<path fill="none" stroke="grey" d="M154.5,-365.96C157.85,-325.8 165.89,-229.34 169.36,-187.7"/>
</g>
<!-- node_39&#45;&#45;node_19 -->
<g id="edge34" class="edge">
<title>node_39&#45;&#45;node_19</title>
<path fill="none" stroke="#0000cd" d="M148.46,-365.83C145.75,-355 142.32,-341.29 139.6,-330.41"/>
</g>
<!-- node_41 -->
<g id="node22" class="node">
<title>node_41</title>
<text text-anchor="middle" x="189" y="-380.2" font-family="Times,serif" font-size="16.00">9/16</text>
</g>
<!-- node_41&#45;&#45;node_5 -->
<g id="edge36" class="edge">
<title>node_41&#45;&#45;node_5</title>
<path fill="none" stroke="grey" d="M187.5,-365.96C184.15,-325.8 176.11,-229.34 172.64,-187.7"/>
</g>
<!-- node_41&#45;&#45;node_21 -->
<g id="edge37" class="edge">
<title>node_41&#45;&#45;node_21</title>
<path fill="none" stroke="#0000cd" d="M193.54,-365.83C196.25,-355 199.68,-341.29 202.4,-330.41"/>
</g>
<!-- node_43 -->
<g id="node23" class="node">
<title>node_43</title>
<text text-anchor="middle" x="225" y="-380.2" font-family="Times,serif" font-size="16.00">11/16</text>
</g>
<!-- node_43&#45;&#45;node_11 -->
<g id="edge39" class="edge">
<title>node_43&#45;&#45;node_11</title>
<path fill="none" stroke="grey" d="M227.28,-365.76C230.74,-338.06 237.29,-285.7 240.74,-258.09"/>
</g>
<!-- node_43&#45;&#45;node_21 -->
<g id="edge38" class="edge">
<title>node_43&#45;&#45;node_21</title>
<path fill="none" stroke="#0000cd" d="M220.46,-365.83C217.75,-355 214.32,-341.29 211.6,-330.41"/>
</g>
<!-- node_45 -->
<g id="node24" class="node">
<title>node_45</title>
<text text-anchor="middle" x="261" y="-380.2" font-family="Times,serif" font-size="16.00">13/16</text>
</g>
<!-- node_45&#45;&#45;node_11 -->
<g id="edge40" class="edge">
<title>node_45&#45;&#45;node_11</title>
<path fill="none" stroke="grey" d="M258.72,-365.76C255.26,-338.06 248.71,-285.7 245.26,-258.09"/>
</g>
<!-- node_45&#45;&#45;node_23 -->
<g id="edge41" class="edge">
<title>node_45&#45;&#45;node_23</title>
<path fill="none" stroke="#0000cd" d="M265.54,-365.83C268.25,-355 271.68,-341.29 274.4,-330.41"/>
</g>
<!-- node_47 -->
<g id="node25" class="node">
<title>node_47</title>
<text text-anchor="middle" x="297" y="-380.2" font-family="Times,serif" font-size="16.00">15/16</text>
</g>
<!-- node_47&#45;&#45;node_2 -->
<g id="edge43" class="edge">
<title>node_47&#45;&#45;node_2</title>
<path fill="none" stroke="grey" d="M298.13,-365.98C301.28,-315.49 310.2,-172.74 313.63,-117.86"/>
</g>
<!-- node_47&#45;&#45;node_23 -->
<g id="edge42" class="edge">
<title>node_47&#45;&#45;node_23</title>
<path fill="none" stroke="#0000cd" d="M292.46,-365.83C289.75,-355 286.32,-341.29 283.6,-330.41"/>
</g>
<!-- node_49 -->
<g id="node26" class="node">
<title>node_49</title>
<text text-anchor="middle" x="351" y="-380.2" font-family="Times,serif" font-size="16.00">9/8</text>
</g>
<!-- node_49&#45;&#45;node_2 -->
<g id="edge44" class="edge">
<title>node_49&#45;&#45;node_2</title>
<path fill="none" stroke="grey" d="M348.75,-365.98C342.44,-315.49 324.59,-172.74 317.73,-117.86"/>
</g>
<!-- node_49&#45;&#45;node_25 -->
<g id="edge45" class="edge">
<title>node_49&#45;&#45;node_25</title>
<path fill="none" stroke="#0000cd" d="M360.08,-365.83C365.5,-355 372.36,-341.29 377.79,-330.41"/>
</g>
<!-- node_51 -->
<g id="node27" class="node">
<title>node_51</title>
<text text-anchor="middle" x="423" y="-380.2" font-family="Times,serif" font-size="16.00">11/8</text>
</g>
<!-- node_51&#45;&#45;node_13 -->
<g id="edge47" class="edge">
<title>node_51&#45;&#45;node_13</title>
<path fill="none" stroke="grey" d="M427.56,-365.76C434.48,-338.06 447.57,-285.7 454.48,-258.09"/>
</g>
<!-- node_51&#45;&#45;node_25 -->
<g id="edge46" class="edge">
<title>node_51&#45;&#45;node_25</title>
<path fill="none" stroke="#0000cd" d="M413.92,-365.83C408.5,-355 401.64,-341.29 396.21,-330.41"/>
</g>
<!-- node_53 -->
<g id="node28" class="node">
<title>node_53</title>
<text text-anchor="middle" x="495" y="-380.2" font-family="Times,serif" font-size="16.00">13/8</text>
</g>
<!-- node_53&#45;&#45;node_13 -->
<g id="edge48" class="edge">
<title>node_53&#45;&#45;node_13</title>
<path fill="none" stroke="grey" d="M490.44,-365.76C483.52,-338.06 470.43,-285.7 463.52,-258.09"/>
</g>
<!-- node_53&#45;&#45;node_27 -->
<g id="edge49" class="edge">
<title>node_53&#45;&#45;node_27</title>
<path fill="none" stroke="#0000cd" d="M504.08,-365.83C509.5,-355 516.36,-341.29 521.79,-330.41"/>
</g>
<!-- node_55 -->
<g id="node29" class="node">
<title>node_55</title>
<text text-anchor="middle" x="567" y="-380.2" font-family="Times,serif" font-size="16.00">15/8</text>
</g>
<!-- node_55&#45;&#45;node_4 -->
<g id="edge51" class="edge">
<title>node_55&#45;&#45;node_4</title>
<path fill="none" stroke="grey" d="M570.01,-365.96C576.7,-325.8 592.78,-229.34 599.72,-187.7"/>
</g>
<!-- node_55&#45;&#45;node_27 -->
<g id="edge50" class="edge">
<title>node_55&#45;&#45;node_27</title>
<path fill="none" stroke="#0000cd" d="M557.92,-365.83C552.5,-355 545.64,-341.29 540.21,-330.41"/>
</g>
<!-- node_57 -->
<g id="node30" class="node">
<title>node_57</title>
<text text-anchor="middle" x="675" y="-380.2" font-family="Times,serif" font-size="16.00">9/4</text>
</g>
<!-- node_57&#45;&#45;node_4 -->
<g id="edge52" class="edge">
<title>node_57&#45;&#45;node_4</title>
<path fill="none" stroke="grey" d="M668.99,-365.96C655.6,-325.8 623.45,-229.34 609.57,-187.7"/>
</g>
<!-- node_57&#45;&#45;node_29 -->
<g id="edge53" class="edge">
<title>node_57&#45;&#45;node_29</title>
<path fill="none" stroke="#0000cd" d="M693.17,-365.83C704,-355 717.71,-341.29 728.59,-330.41"/>
</g>
<!-- node_59 -->
<g id="node31" class="node">
<title>node_59</title>
<text text-anchor="middle" x="819" y="-380.2" font-family="Times,serif" font-size="16.00">11/4</text>
</g>
<!-- node_59&#45;&#45;node_8 -->
<g id="edge55" class="edge">
<title>node_59&#45;&#45;node_8</title>
<path fill="none" stroke="grey" d="M828.12,-365.76C841.97,-338.06 868.15,-285.7 881.96,-258.09"/>
</g>
<!-- node_59&#45;&#45;node_29 -->
<g id="edge54" class="edge">
<title>node_59&#45;&#45;node_29</title>
<path fill="none" stroke="#0000cd" d="M800.83,-365.83C790,-355 776.29,-341.29 765.41,-330.41"/>
</g>
<!-- node_61 -->
<g id="node32" class="node">
<title>node_61</title>
<text text-anchor="middle" x="1035" y="-380.2" font-family="Times,serif" font-size="16.00">7/2</text>
</g>
<!-- node_61&#45;&#45;node_8 -->
<g id="edge56" class="edge">
<title>node_61&#45;&#45;node_8</title>
<path fill="none" stroke="grey" d="M1016.76,-365.76C989.06,-338.06 936.7,-285.7 909.09,-258.09"/>
</g>
<!-- node_61&#45;&#45;node_16 -->
<g id="edge57" class="edge">
<title>node_61&#45;&#45;node_16</title>
<path fill="none" stroke="#0000cd" d="M1062.09,-370.46C1087.67,-357.67 1125.84,-338.58 1151.55,-325.73"/>
</g>
</g>
</svg>
