<?xml version="1.0" encoding="UTF-8" standalone="no"?>
<!DOCTYPE svg PUBLIC "-//W3C//DTD SVG 1.1//EN"
 "http://www.w3.org/Graphics/SVG/1.1/DTD/svg11.dtd">
<!-- Generated by graphviz version 2.43.0 (0)
 -->
<!-- Title: dyadic_tree Pages: 1 -->
<svg width="1502pt" height="410pt"
 viewBox="0.00 0.00 1502.00 410.00" xmlns="http://www.w3.org/2000/svg" xmlns:xlink="http://www.w3.org/1999/xlink">
<g id="graph0" class="graph" transform="scale(1 1) rotate(0) translate(4 406)">
<title>dyadic_tree</title>
<polygon fill="white" stroke="transparent" points="-4,4 -4,-406 1498,-406 1498,4 -4,4"/>
<!-- node_0 -->
<g id="node1" class="node">
<title>node_0</title>
<text text-anchor="middle" x="27" y="-15.2" font-family="Times,serif" font-size="36.00">0</text>
</g>
<!-- node_2 -->
<g id="node2" class="node">
<title>node_2</title>
<text text-anchor="middle" x="315" y="-87.9" font-family="Times,serif" font-size="32.00">1</text>
</g>
<!-- node_2&#45;&gt;node_0 -->
<g id="edge1" class="edge">
<title>node_2&#45;&gt;node_0</title>
<path fill="none" stroke="black" d="M287.91,-89.23C236.12,-76.28 123.04,-48.01 64.22,-33.3"/>
<polygon fill="black" stroke="black" points="64.78,-29.84 54.23,-30.81 63.08,-36.63 64.78,-29.84"/>
</g>
<!-- node_4 -->
<g id="node3" class="node">
<title>node_4</title>
<text text-anchor="middle" x="603" y="-161.1" font-family="Times,serif" font-size="28.00">2</text>
</g>
<!-- node_4&#45;&gt;node_2 -->
<g id="edge2" class="edge">
<title>node_4&#45;&gt;node_2</title>
<path fill="none" stroke="black" d="M575.91,-161.23C524.12,-148.28 411.04,-120.01 352.22,-105.3"/>
<polygon fill="black" stroke="black" points="352.78,-101.84 342.23,-102.81 351.08,-108.63 352.78,-101.84"/>
</g>
<!-- node_5 -->
<g id="node4" class="node">
<title>node_5</title>
<text text-anchor="middle" x="171" y="-161.1" font-family="Times,serif" font-size="28.00">1/2</text>
</g>
<!-- node_5&#45;&gt;node_0 -->
<g id="edge3" class="edge">
<title>node_5&#45;&gt;node_0</title>
<path fill="none" stroke="black" d="M151.28,-148.28C127.38,-124.38 86.81,-83.81 58.54,-55.54"/>
<polygon fill="black" stroke="black" points="60.83,-52.88 51.28,-48.28 55.88,-57.83 60.83,-52.88"/>
</g>
<!-- node_5&#45;&gt;node_2 -->
<g id="edge4" class="edge">
<title>node_5&#45;&gt;node_2</title>
<path fill="none" stroke="black" d="M198.09,-154.46C220.77,-143.12 253.36,-126.82 278.37,-114.32"/>
<polygon fill="black" stroke="black" points="280.17,-117.33 287.55,-109.73 277.04,-111.07 280.17,-117.33"/>
</g>
<!-- node_8 -->
<g id="node5" class="node">
<title>node_8</title>
<text text-anchor="middle" x="891" y="-233.8" font-family="Times,serif" font-size="24.00">3</text>
</g>
<!-- node_8&#45;&gt;node_4 -->
<g id="edge5" class="edge">
<title>node_8&#45;&gt;node_4</title>
<path fill="none" stroke="black" d="M863.91,-233.23C812.12,-220.28 699.04,-192.01 640.22,-177.3"/>
<polygon fill="black" stroke="black" points="640.78,-173.84 630.23,-174.81 639.08,-180.63 640.78,-173.84"/>
</g>
<!-- node_9 -->
<g id="node6" class="node">
<title>node_9</title>
<text text-anchor="middle" x="99" y="-233.8" font-family="Times,serif" font-size="24.00">1/4</text>
</g>
<!-- node_9&#45;&gt;node_0 -->
<g id="edge6" class="edge">
<title>node_9&#45;&gt;node_0</title>
<path fill="none" stroke="black" d="M92.99,-221.96C80.96,-185.87 53.77,-104.31 38.31,-57.92"/>
<polygon fill="black" stroke="black" points="41.59,-56.69 35.1,-48.31 34.95,-58.91 41.59,-56.69"/>
</g>
<!-- node_9&#45;&gt;node_5 -->
<g id="edge7" class="edge">
<title>node_9&#45;&gt;node_5</title>
<path fill="none" stroke="black" d="M117.17,-221.83C125.31,-213.69 135.07,-203.93 144.03,-194.97"/>
<polygon fill="black" stroke="black" points="146.72,-197.23 151.32,-187.68 141.77,-192.28 146.72,-197.23"/>
</g>
<!-- node_11 -->
<g id="node7" class="node">
<title>node_11</title>
<text text-anchor="middle" x="243" y="-233.8" font-family="Times,serif" font-size="24.00">3/4</text>
</g>
<!-- node_11&#45;&gt;node_2 -->
<g id="edge9" class="edge">
<title>node_11&#45;&gt;node_2</title>
<path fill="none" stroke="black" d="M252.12,-221.76C264.02,-197.96 285.02,-155.96 299.45,-127.09"/>
<polygon fill="black" stroke="black" points="302.73,-128.36 304.08,-117.85 296.47,-125.23 302.73,-128.36"/>
</g>
<!-- node_11&#45;&gt;node_5 -->
<g id="edge8" class="edge">
<title>node_11&#45;&gt;node_5</title>
<path fill="none" stroke="black" d="M224.83,-221.83C216.69,-213.69 206.93,-203.93 197.97,-194.97"/>
<polygon fill="black" stroke="black" points="200.23,-192.28 190.68,-187.68 195.28,-197.23 200.23,-192.28"/>
</g>
<!-- node_13 -->
<g id="node8" class="node">
<title>node_13</title>
<text text-anchor="middle" x="459" y="-233.8" font-family="Times,serif" font-size="24.00">3/2</text>
</g>
<!-- node_13&#45;&gt;node_2 -->
<g id="edge10" class="edge">
<title>node_13&#45;&gt;node_2</title>
<path fill="none" stroke="black" d="M440.76,-221.76C416.45,-197.45 373.13,-154.13 344.23,-125.23"/>
<polygon fill="black" stroke="black" points="346.39,-122.44 336.85,-117.85 341.44,-127.39 346.39,-122.44"/>
</g>
<!-- node_13&#45;&gt;node_4 -->
<g id="edge11" class="edge">
<title>node_13&#45;&gt;node_4</title>
<path fill="none" stroke="black" d="M486.09,-226.46C508.77,-215.12 541.36,-198.82 566.37,-186.32"/>
<polygon fill="black" stroke="black" points="568.17,-189.33 575.55,-181.73 565.04,-183.07 568.17,-189.33"/>
</g>
<!-- node_16 -->
<g id="node9" class="node">
<title>node_16</title>
<text text-anchor="middle" x="1179" y="-307" font-family="Times,serif" font-size="20.00">4</text>
</g>
<!-- node_16&#45;&gt;node_8 -->
<g id="edge12" class="edge">
<title>node_16&#45;&gt;node_8</title>
<path fill="none" stroke="black" d="M1151.91,-305.23C1100.12,-292.28 987.04,-264.01 928.22,-249.3"/>
<polygon fill="black" stroke="black" points="928.78,-245.84 918.23,-246.81 927.08,-252.63 928.78,-245.84"/>
</g>
<!-- node_17 -->
<g id="node10" class="node">
<title>node_17</title>
<text text-anchor="middle" x="63" y="-307" font-family="Times,serif" font-size="20.00">1/8</text>
</g>
<!-- node_17&#45;&gt;node_0 -->
<g id="edge13" class="edge">
<title>node_17&#45;&gt;node_0</title>
<path fill="none" stroke="black" d="M60.75,-293.98C54.87,-246.95 38.98,-119.87 31.29,-58.32"/>
<polygon fill="black" stroke="black" points="34.75,-57.82 30.04,-48.33 27.81,-58.69 34.75,-57.82"/>
</g>
<!-- node_17&#45;&gt;node_9 -->
<g id="edge14" class="edge">
<title>node_17&#45;&gt;node_9</title>
<path fill="none" stroke="black" d="M72.08,-293.83C76.06,-285.88 80.82,-276.37 85.21,-267.57"/>
<polygon fill="black" stroke="black" points="88.45,-268.92 89.79,-258.41 82.19,-265.79 88.45,-268.92"/>
</g>
<!-- node_19 -->
<g id="node11" class="node">
<title>node_19</title>
<text text-anchor="middle" x="135" y="-307" font-family="Times,serif" font-size="20.00">3/8</text>
</g>
<!-- node_19&#45;&gt;node_5 -->
<g id="edge16" class="edge">
<title>node_19&#45;&gt;node_5</title>
<path fill="none" stroke="black" d="M139.56,-293.76C145.59,-269.63 156.3,-226.78 163.53,-197.89"/>
<polygon fill="black" stroke="black" points="166.99,-198.49 166.02,-187.94 160.2,-196.79 166.99,-198.49"/>
</g>
<!-- node_19&#45;&gt;node_9 -->
<g id="edge15" class="edge">
<title>node_19&#45;&gt;node_9</title>
<path fill="none" stroke="black" d="M125.92,-293.83C121.94,-285.88 117.18,-276.37 112.79,-267.57"/>
<polygon fill="black" stroke="black" points="115.81,-265.79 108.21,-258.41 109.55,-268.92 115.81,-265.79"/>
</g>
<!-- node_21 -->
<g id="node12" class="node">
<title>node_21</title>
<text text-anchor="middle" x="207" y="-307" font-family="Times,serif" font-size="20.00">5/8</text>
</g>
<!-- node_21&#45;&gt;node_5 -->
<g id="edge17" class="edge">
<title>node_21&#45;&gt;node_5</title>
<path fill="none" stroke="black" d="M202.44,-293.76C196.41,-269.63 185.7,-226.78 178.47,-197.89"/>
<polygon fill="black" stroke="black" points="181.8,-196.79 175.98,-187.94 175.01,-198.49 181.8,-196.79"/>
</g>
<!-- node_21&#45;&gt;node_11 -->
<g id="edge18" class="edge">
<title>node_21&#45;&gt;node_11</title>
<path fill="none" stroke="black" d="M216.08,-293.83C220.06,-285.88 224.82,-276.37 229.21,-267.57"/>
<polygon fill="black" stroke="black" points="232.45,-268.92 233.79,-258.41 226.19,-265.79 232.45,-268.92"/>
</g>
<!-- node_23 -->
<g id="node13" class="node">
<title>node_23</title>
<text text-anchor="middle" x="279" y="-307" font-family="Times,serif" font-size="20.00">7/8</text>
</g>
<!-- node_23&#45;&gt;node_2 -->
<g id="edge20" class="edge">
<title>node_23&#45;&gt;node_2</title>
<path fill="none" stroke="black" d="M282.01,-293.96C288.12,-257.27 302.07,-173.58 309.73,-127.64"/>
<polygon fill="black" stroke="black" points="313.2,-128.07 311.4,-117.63 306.3,-126.92 313.2,-128.07"/>
</g>
<!-- node_23&#45;&gt;node_11 -->
<g id="edge19" class="edge">
<title>node_23&#45;&gt;node_11</title>
<path fill="none" stroke="black" d="M269.92,-293.83C265.94,-285.88 261.18,-276.37 256.79,-267.57"/>
<polygon fill="black" stroke="black" points="259.81,-265.79 252.21,-258.41 253.55,-268.92 259.81,-265.79"/>
</g>
<!-- node_25 -->
<g id="node14" class="node">
<title>node_25</title>
<text text-anchor="middle" x="387" y="-307" font-family="Times,serif" font-size="20.00">5/4</text>
</g>
<!-- node_25&#45;&gt;node_2 -->
<g id="edge21" class="edge">
<title>node_25&#45;&gt;node_2</title>
<path fill="none" stroke="black" d="M380.99,-293.96C368.73,-257.19 340.74,-173.22 325.45,-127.35"/>
<polygon fill="black" stroke="black" points="328.69,-126.01 322.21,-117.63 322.05,-128.22 328.69,-126.01"/>
</g>
<!-- node_25&#45;&gt;node_13 -->
<g id="edge22" class="edge">
<title>node_25&#45;&gt;node_13</title>
<path fill="none" stroke="black" d="M405.17,-293.83C413.72,-285.28 424.06,-274.94 433.38,-265.62"/>
<polygon fill="black" stroke="black" points="435.99,-267.96 440.59,-258.41 431.04,-263.01 435.99,-267.96"/>
</g>
<!-- node_27 -->
<g id="node15" class="node">
<title>node_27</title>
<text text-anchor="middle" x="531" y="-307" font-family="Times,serif" font-size="20.00">7/4</text>
</g>
<!-- node_27&#45;&gt;node_4 -->
<g id="edge24" class="edge">
<title>node_27&#45;&gt;node_4</title>
<path fill="none" stroke="black" d="M540.12,-293.76C552.29,-269.42 573.98,-226.03 588.43,-197.13"/>
<polygon fill="black" stroke="black" points="591.69,-198.44 593.03,-187.94 585.43,-195.31 591.69,-198.44"/>
</g>
<!-- node_27&#45;&gt;node_13 -->
<g id="edge23" class="edge">
<title>node_27&#45;&gt;node_13</title>
<path fill="none" stroke="black" d="M512.83,-293.83C504.28,-285.28 493.94,-274.94 484.62,-265.62"/>
<polygon fill="black" stroke="black" points="486.96,-263.01 477.41,-258.41 482.01,-267.96 486.96,-263.01"/>
</g>
<!-- node_29 -->
<g id="node16" class="node">
<title>node_29</title>
<text text-anchor="middle" x="747" y="-307" font-family="Times,serif" font-size="20.00">5/2</text>
</g>
<!-- node_29&#45;&gt;node_4 -->
<g id="edge25" class="edge">
<title>node_29&#45;&gt;node_4</title>
<path fill="none" stroke="black" d="M728.76,-293.76C703.89,-268.89 659.14,-224.14 630.27,-195.27"/>
<polygon fill="black" stroke="black" points="632.48,-192.53 622.94,-187.94 627.53,-197.48 632.48,-192.53"/>
</g>
<!-- node_29&#45;&gt;node_8 -->
<g id="edge26" class="edge">
<title>node_29&#45;&gt;node_8</title>
<path fill="none" stroke="black" d="M774.09,-298.46C796.77,-287.12 829.36,-270.82 854.37,-258.32"/>
<polygon fill="black" stroke="black" points="856.17,-261.33 863.55,-253.73 853.04,-255.07 856.17,-261.33"/>
</g>
<!-- node_32 -->
<g id="node17" class="node">
<title>node_32</title>
<text text-anchor="middle" x="1467" y="-380.2" font-family="Times,serif" font-size="16.00">5</text>
</g>
<!-- node_32&#45;&gt;node_16 -->
<g id="edge27" class="edge">
<title>node_32&#45;&gt;node_16</title>
<path fill="none" stroke="black" d="M1439.91,-377.23C1388.12,-364.28 1275.04,-336.01 1216.22,-321.3"/>
<polygon fill="black" stroke="black" points="1216.78,-317.84 1206.23,-318.81 1215.08,-324.63 1216.78,-317.84"/>
</g>
<!-- node_33 -->
<g id="node18" class="node">
<title>node_33</title>
<text text-anchor="middle" x="45" y="-380.2" font-family="Times,serif" font-size="16.00">1/16</text>
</g>
<!-- node_33&#45;&gt;node_0 -->
<g id="edge28" class="edge">
<title>node_33&#45;&gt;node_0</title>
<path fill="none" stroke="black" d="M44.08,-365.65C41.23,-308.57 32.47,-133.45 28.73,-58.56"/>
<polygon fill="black" stroke="black" points="32.21,-58.08 28.21,-48.26 25.22,-58.43 32.21,-58.08"/>
</g>
<!-- node_33&#45;&gt;node_17 -->
<g id="edge29" class="edge">
<title>node_33&#45;&gt;node_17</title>
<path fill="none" stroke="black" d="M49.54,-365.83C51.49,-358.05 53.81,-348.77 55.97,-340.13"/>
<polygon fill="black" stroke="black" points="59.37,-340.96 58.4,-330.41 52.58,-339.27 59.37,-340.96"/>
</g>
<!-- node_35 -->
<g id="node19" class="node">
<title>node_35</title>
<text text-anchor="middle" x="81" y="-380.2" font-family="Times,serif" font-size="16.00">3/16</text>
</g>
<!-- node_35&#45;&gt;node_9 -->
<g id="edge31" class="edge">
<title>node_35&#45;&gt;node_9</title>
<path fill="none" stroke="black" d="M83.28,-365.76C86.35,-341.2 91.84,-297.25 95.46,-268.35"/>
<polygon fill="black" stroke="black" points="98.97,-268.45 96.74,-258.09 92.03,-267.58 98.97,-268.45"/>
</g>
<!-- node_35&#45;&gt;node_17 -->
<g id="edge30" class="edge">
<title>node_35&#45;&gt;node_17</title>
<path fill="none" stroke="black" d="M76.46,-365.83C74.51,-358.05 72.19,-348.77 70.03,-340.13"/>
<polygon fill="black" stroke="black" points="73.42,-339.27 67.6,-330.41 66.63,-340.96 73.42,-339.27"/>
</g>
<!-- node_37 -->
<g id="node20" class="node">
<title>node_37</title>
<text text-anchor="middle" x="117" y="-380.2" font-family="Times,serif" font-size="16.00">5/16</text>
</g>
<!-- node_37&#45;&gt;node_9 -->
<g id="edge32" class="edge">
<title>node_37&#45;&gt;node_9</title>
<path fill="none" stroke="black" d="M114.72,-365.76C111.65,-341.2 106.16,-297.25 102.54,-268.35"/>
<polygon fill="black" stroke="black" points="105.97,-267.58 101.26,-258.09 99.03,-268.45 105.97,-267.58"/>
</g>
<!-- node_37&#45;&gt;node_19 -->
<g id="edge33" class="edge">
<title>node_37&#45;&gt;node_19</title>
<path fill="none" stroke="black" d="M121.54,-365.83C123.49,-358.05 125.81,-348.77 127.97,-340.13"/>
<polygon fill="black" stroke="black" points="131.37,-340.96 130.4,-330.41 124.58,-339.27 131.37,-340.96"/>
</g>
<!-- node_39 -->
<g id="node21" class="node">
<title>node_39</title>
<text text-anchor="middle" x="153" y="-380.2" font-family="Times,serif" font-size="16.00">7/16</text>
</g>
<!-- node_39&#45;&gt;node_5 -->
<g id="edge35" class="edge">
<title>node_39&#45;&gt;node_5</title>
<path fill="none" stroke="black" d="M154.5,-365.96C157.6,-328.78 164.72,-243.35 168.51,-197.83"/>
<polygon fill="black" stroke="black" points="172.02,-197.95 169.36,-187.7 165.04,-197.37 172.02,-197.95"/>
</g>
<!-- node_39&#45;&gt;node_19 -->
<g id="edge34" class="edge">
<title>node_39&#45;&gt;node_19</title>
<path fill="none" stroke="black" d="M148.46,-365.83C146.51,-358.05 144.19,-348.77 142.03,-340.13"/>
<polygon fill="black" stroke="black" points="145.42,-339.27 139.6,-330.41 138.63,-340.96 145.42,-339.27"/>
</g>
<!-- node_41 -->
<g id="node22" class="node">
<title>node_41</title>
<text text-anchor="middle" x="189" y="-380.2" font-family="Times,serif" font-size="16.00">9/16</text>
</g>
<!-- node_41&#45;&gt;node_5 -->
<g id="edge36" class="edge">
<title>node_41&#45;&gt;node_5</title>
<path fill="none" stroke="black" d="M187.5,-365.96C184.4,-328.78 177.28,-243.35 173.49,-197.83"/>
<polygon fill="black" stroke="black" points="176.96,-197.37 172.64,-187.7 169.98,-197.95 176.96,-197.37"/>
</g>
<!-- node_41&#45;&gt;node_21 -->
<g id="edge37" class="edge">
<title>node_41&#45;&gt;node_21</title>
<path fill="none" stroke="black" d="M193.54,-365.83C195.49,-358.05 197.81,-348.77 199.97,-340.13"/>
<polygon fill="black" stroke="black" points="203.37,-340.96 202.4,-330.41 196.58,-339.27 203.37,-340.96"/>
</g>
<!-- node_43 -->
<g id="node23" class="node">
<title>node_43</title>
<text text-anchor="middle" x="225" y="-380.2" font-family="Times,serif" font-size="16.00">11/16</text>
</g>
<!-- node_43&#45;&gt;node_11 -->
<g id="edge39" class="edge">
<title>node_43&#45;&gt;node_11</title>
<path fill="none" stroke="black" d="M227.28,-365.76C230.35,-341.2 235.84,-297.25 239.46,-268.35"/>
<polygon fill="black" stroke="black" points="242.97,-268.45 240.74,-258.09 236.03,-267.58 242.97,-268.45"/>
</g>
<!-- node_43&#45;&gt;node_21 -->
<g id="edge38" class="edge">
<title>node_43&#45;&gt;node_21</title>
<path fill="none" stroke="black" d="M220.46,-365.83C218.51,-358.05 216.19,-348.77 214.03,-340.13"/>
<polygon fill="black" stroke="black" points="217.42,-339.27 211.6,-330.41 210.63,-340.96 217.42,-339.27"/>
</g>
<!-- node_45 -->
<g id="node24" class="node">
<title>node_45</title>
<text text-anchor="middle" x="261" y="-380.2" font-family="Times,serif" font-size="16.00">13/16</text>
</g>
<!-- node_45&#45;&gt;node_11 -->
<g id="edge40" class="edge">
<title>node_45&#45;&gt;node_11</title>
<path fill="none" stroke="black" d="M258.72,-365.76C255.65,-341.2 250.16,-297.25 246.54,-268.35"/>
<polygon fill="black" stroke="black" points="249.97,-267.58 245.26,-258.09 243.03,-268.45 249.97,-267.58"/>
</g>
<!-- node_45&#45;&gt;node_23 -->
<g id="edge41" class="edge">
<title>node_45&#45;&gt;node_23</title>
<path fill="none" stroke="black" d="M265.54,-365.83C267.49,-358.05 269.81,-348.77 271.97,-340.13"/>
<polygon fill="black" stroke="black" points="275.37,-340.96 274.4,-330.41 268.58,-339.27 275.37,-340.96"/>
</g>
<!-- node_47 -->
<g id="node25" class="node">
<title>node_47</title>
<text text-anchor="middle" x="297" y="-380.2" font-family="Times,serif" font-size="16.00">15/16</text>
</g>
<!-- node_47&#45;&gt;node_2 -->
<g id="edge43" class="edge">
<title>node_47&#45;&gt;node_2</title>
<path fill="none" stroke="black" d="M298.13,-365.98C301.1,-318.35 309.21,-188.62 313,-128"/>
<polygon fill="black" stroke="black" points="316.5,-128.06 313.63,-117.86 309.52,-127.63 316.5,-128.06"/>
</g>
<!-- node_47&#45;&gt;node_23 -->
<g id="edge42" class="edge">
<title>node_47&#45;&gt;node_23</title>
<path fill="none" stroke="black" d="M292.46,-365.83C290.51,-358.05 288.19,-348.77 286.03,-340.13"/>
<polygon fill="black" stroke="black" points="289.42,-339.27 283.6,-330.41 282.63,-340.96 289.42,-339.27"/>
</g>
<!-- node_49 -->
<g id="node26" class="node">
<title>node_49</title>
<text text-anchor="middle" x="351" y="-380.2" font-family="Times,serif" font-size="16.00">9/8</text>
</g>
<!-- node_49&#45;&gt;node_2 -->
<g id="edge44" class="edge">
<title>node_49&#45;&gt;node_2</title>
<path fill="none" stroke="black" d="M348.75,-365.98C342.79,-318.35 326.58,-188.62 319,-128"/>
<polygon fill="black" stroke="black" points="322.45,-127.35 317.73,-117.86 315.5,-128.22 322.45,-127.35"/>
</g>
<!-- node_49&#45;&gt;node_25 -->
<g id="edge45" class="edge">
<title>node_49&#45;&gt;node_25</title>
<path fill="none" stroke="black" d="M360.08,-365.83C364.06,-357.88 368.82,-348.37 373.21,-339.57"/>
<polygon fill="black" stroke="black" points="376.45,-340.92 377.79,-330.41 370.19,-337.79 376.45,-340.92"/>
</g>
<!-- node_51 -->
<g id="node27" class="node">
<title>node_51</title>
<text text-anchor="middle" x="423" y="-380.2" font-family="Times,serif" font-size="16.00">11/8</text>
</g>
<!-- node_51&#45;&gt;node_13 -->
<g id="edge47" class="edge">
<title>node_51&#45;&gt;node_13</title>
<path fill="none" stroke="black" d="M427.56,-365.76C433.73,-341.09 444.79,-296.86 452.01,-267.97"/>
<polygon fill="black" stroke="black" points="455.45,-268.64 454.48,-258.09 448.66,-266.94 455.45,-268.64"/>
</g>
<!-- node_51&#45;&gt;node_25 -->
<g id="edge46" class="edge">
<title>node_51&#45;&gt;node_25</title>
<path fill="none" stroke="black" d="M413.92,-365.83C409.94,-357.88 405.18,-348.37 400.79,-339.57"/>
<polygon fill="black" stroke="black" points="403.81,-337.79 396.21,-330.41 397.55,-340.92 403.81,-337.79"/>
</g>
<!-- node_53 -->
<g id="node28" class="node">
<title>node_53</title>
<text text-anchor="middle" x="495" y="-380.2" font-family="Times,serif" font-size="16.00">13/8</text>
</g>
<!-- node_53&#45;&gt;node_13 -->
<g id="edge48" class="edge">
<title>node_53&#45;&gt;node_13</title>
<path fill="none" stroke="black" d="M490.44,-365.76C484.27,-341.09 473.21,-296.86 465.99,-267.97"/>
<polygon fill="black" stroke="black" points="469.34,-266.94 463.52,-258.09 462.55,-268.64 469.34,-266.94"/>
</g>
<!-- node_53&#45;&gt;node_27 -->
<g id="edge49" class="edge">
<title>node_53&#45;&gt;node_27</title>
<path fill="none" stroke="black" d="M504.08,-365.83C508.06,-357.88 512.82,-348.37 517.21,-339.57"/>
<polygon fill="black" stroke="black" points="520.45,-340.92 521.79,-330.41 514.19,-337.79 520.45,-340.92"/>
</g>
<!-- node_55 -->
<g id="node29" class="node">
<title>node_55</title>
<text text-anchor="middle" x="567" y="-380.2" font-family="Times,serif" font-size="16.00">15/8</text>
</g>
<!-- node_55&#45;&gt;node_4 -->
<g id="edge51" class="edge">
<title>node_55&#45;&gt;node_4</title>
<path fill="none" stroke="black" d="M570.01,-365.96C576.2,-328.78 590.44,-243.35 598.03,-197.83"/>
<polygon fill="black" stroke="black" points="601.53,-198.14 599.72,-187.7 594.62,-196.98 601.53,-198.14"/>
</g>
<!-- node_55&#45;&gt;node_27 -->
<g id="edge50" class="edge">
<title>node_55&#45;&gt;node_27</title>
<path fill="none" stroke="black" d="M557.92,-365.83C553.94,-357.88 549.18,-348.37 544.79,-339.57"/>
<polygon fill="black" stroke="black" points="547.81,-337.79 540.21,-330.41 541.55,-340.92 547.81,-337.79"/>
</g>
<!-- node_57 -->
<g id="node30" class="node">
<title>node_57</title>
<text text-anchor="middle" x="675" y="-380.2" font-family="Times,serif" font-size="16.00">9/4</text>
</g>
<!-- node_57&#45;&gt;node_4 -->
<g id="edge52" class="edge">
<title>node_57&#45;&gt;node_4</title>
<path fill="none" stroke="black" d="M668.99,-365.96C656.54,-328.63 627.88,-242.63 612.75,-197.26"/>
<polygon fill="black" stroke="black" points="616.05,-196.08 609.57,-187.7 609.41,-198.29 616.05,-196.08"/>
</g>
<!-- node_57&#45;&gt;node_29 -->
<g id="edge53" class="edge">
<title>node_57&#45;&gt;node_29</title>
<path fill="none" stroke="black" d="M693.17,-365.83C701.72,-357.28 712.06,-346.94 721.38,-337.62"/>
<polygon fill="black" stroke="black" points="723.99,-339.96 728.59,-330.41 719.04,-335.01 723.99,-339.96"/>
</g>
<!-- node_59 -->
<g id="node31" class="node">
<title>node_59</title>
<text text-anchor="middle" x="819" y="-380.2" font-family="Times,serif" font-size="16.00">11/4</text>
</g>
<!-- node_59&#45;&gt;node_8 -->
<g id="edge55" class="edge">
<title>node_59&#45;&gt;node_8</title>
<path fill="none" stroke="black" d="M828.12,-365.76C840.56,-340.88 862.96,-296.08 877.39,-267.22"/>
<polygon fill="black" stroke="black" points="880.61,-268.6 881.96,-258.09 874.35,-265.47 880.61,-268.6"/>
</g>
<!-- node_59&#45;&gt;node_29 -->
<g id="edge54" class="edge">
<title>node_59&#45;&gt;node_29</title>
<path fill="none" stroke="black" d="M800.83,-365.83C792.28,-357.28 781.94,-346.94 772.62,-337.62"/>
<polygon fill="black" stroke="black" points="774.96,-335.01 765.41,-330.41 770.01,-339.96 774.96,-335.01"/>
</g>
<!-- node_61 -->
<g id="node32" class="node">
<title>node_61</title>
<text text-anchor="middle" x="1035" y="-380.2" font-family="Times,serif" font-size="16.00">7/2</text>
</g>
<!-- node_61&#45;&gt;node_8 -->
<g id="edge56" class="edge">
<title>node_61&#45;&gt;node_8</title>
<path fill="none" stroke="black" d="M1016.76,-365.76C991.34,-340.34 945.13,-294.13 916.36,-265.36"/>
<polygon fill="black" stroke="black" points="918.64,-262.69 909.09,-258.09 913.69,-267.64 918.64,-262.69"/>
</g>
<!-- node_61&#45;&gt;node_16 -->
<g id="edge57" class="edge">
<title>node_61&#45;&gt;node_16</title>
<path fill="none" stroke="black" d="M1062.09,-370.46C1084.77,-359.12 1117.36,-342.82 1142.37,-330.32"/>
<polygon fill="black" stroke="black" points="1144.17,-333.33 1151.55,-325.73 1141.04,-327.07 1144.17,-333.33"/>
</g>
</g>
</svg>
