<?xml version="1.0" encoding="UTF-8" standalone="no"?>
<!DOCTYPE svg PUBLIC "-//W3C//DTD SVG 1.1//EN"
 "http://www.w3.org/Graphics/SVG/1.1/DTD/svg11.dtd">
<!-- Generated by graphviz version 2.43.0 (0)
 -->
<!-- Title: 3.0 Pages: 1 -->
<svg width="216pt" height="530pt"
 viewBox="0.00 0.00 216.00 530.00" xmlns="http://www.w3.org/2000/svg" xmlns:xlink="http://www.w3.org/1999/xlink">
<g id="graph0" class="graph" transform="scale(1 1) rotate(0) translate(4 526)">
<title>3.0</title>
<polygon fill="white" stroke="transparent" points="-4,4 -4,-526 212,-526 212,4 -4,4"/>
<!-- node_1 -->
<g id="node1" class="node">
<title>node_1</title>
<polygon fill="none" stroke="black" points="95.5,-495 95.5,-522 166.5,-522 166.5,-495 95.5,-495"/>
<text text-anchor="start" x="126" y="-504.8" font-family="Times,serif" font-size="14.00">3</text>
<polygon fill="none" stroke="black" points="95.5,-464 95.5,-495 130.5,-495 130.5,-464 95.5,-464"/>
<text text-anchor="start" x="103.5" y="-475.8" font-family="Times,serif" font-size="14.00"> 2 </text>
<polygon fill="none" stroke="black" points="130.5,-464 130.5,-495 166.5,-495 166.5,-464 130.5,-464"/>
<text text-anchor="start" x="138.5" y="-476.8" font-family="Times,serif" font-size="14.00"> </text>
<text text-anchor="start" x="143.5" y="-476.8" font-family="Times,serif" text-decoration="overline" font-size="14.00">4</text>
<text text-anchor="start" x="153.5" y="-476.8" font-family="Times,serif" font-size="14.00"> </text>
</g>
<!-- node_2 -->
<g id="node2" class="node">
<title>node_2</title>
<polygon fill="none" stroke="black" points="52.5,-401 52.5,-428 123.5,-428 123.5,-401 52.5,-401"/>
<text text-anchor="start" x="83" y="-410.8" font-family="Times,serif" font-size="14.00">2</text>
<polygon fill="none" stroke="black" points="52.5,-370 52.5,-401 87.5,-401 87.5,-370 52.5,-370"/>
<text text-anchor="start" x="60.5" y="-381.8" font-family="Times,serif" font-size="14.00"> 1 </text>
<polygon fill="none" stroke="black" points="87.5,-370 87.5,-401 123.5,-401 123.5,-370 87.5,-370"/>
<text text-anchor="start" x="95.5" y="-382.8" font-family="Times,serif" font-size="14.00"> </text>
<text text-anchor="start" x="100.5" y="-382.8" font-family="Times,serif" text-decoration="overline" font-size="14.00">3</text>
<text text-anchor="start" x="110.5" y="-382.8" font-family="Times,serif" font-size="14.00"> </text>
</g>
<!-- node_1&#45;&gt;node_2 -->
<g id="edge1" class="edge">
<title>node_1:2,1&#45;&gt;node_2</title>
<path fill="none" stroke="#cd0000" d="M112.5,-470C112.5,-459.15 109.8,-447.87 106.18,-437.61"/>
<polygon fill="#cd0000" stroke="#cd0000" points="109.38,-436.19 102.48,-428.15 102.86,-438.73 109.38,-436.19"/>
</g>
<!-- node_10 -->
<g id="node10" class="node">
<title>node_10</title>
<polygon fill="none" stroke="black" points="141.5,-401 141.5,-428 208.5,-428 208.5,-401 141.5,-401"/>
<text text-anchor="start" x="170" y="-411.8" font-family="Times,serif" text-decoration="overline" font-size="14.00">4</text>
<polygon fill="none" stroke="black" points="141.5,-370 141.5,-401 177.5,-401 177.5,-370 141.5,-370"/>
<text text-anchor="start" x="149.5" y="-382.8" font-family="Times,serif" font-size="14.00"> </text>
<text text-anchor="start" x="154.5" y="-382.8" font-family="Times,serif" text-decoration="overline" font-size="14.00">3</text>
<text text-anchor="start" x="164.5" y="-382.8" font-family="Times,serif" font-size="14.00"> </text>
<polygon fill="none" stroke="black" points="177.5,-370 177.5,-401 208.5,-401 208.5,-370 177.5,-370"/>
<text text-anchor="start" x="182.5" y="-381.8" font-family="Times,serif" font-size="14.00"> Ø </text>
</g>
<!-- node_1&#45;&gt;node_10 -->
<g id="edge12" class="edge">
<title>node_1:4,1&#45;&gt;node_10</title>
<path fill="none" stroke="#0000cd" d="M148.5,-470C148.5,-459.1 151.31,-447.8 155.08,-437.55"/>
<polygon fill="#0000cd" stroke="#0000cd" points="158.4,-438.66 158.93,-428.08 151.92,-436.03 158.4,-438.66"/>
</g>
<!-- node_3 -->
<g id="node3" class="node">
<title>node_3</title>
<polygon fill="none" stroke="black" points="34.5,-307 34.5,-334 105.5,-334 105.5,-307 34.5,-307"/>
<text text-anchor="start" x="65" y="-316.8" font-family="Times,serif" font-size="14.00">1</text>
<polygon fill="none" stroke="black" points="34.5,-276 34.5,-307 69.5,-307 69.5,-276 34.5,-276"/>
<text text-anchor="start" x="42.5" y="-287.8" font-family="Times,serif" font-size="14.00"> 0 </text>
<polygon fill="none" stroke="black" points="69.5,-276 69.5,-307 105.5,-307 105.5,-276 69.5,-276"/>
<text text-anchor="start" x="77.5" y="-288.8" font-family="Times,serif" font-size="14.00"> </text>
<text text-anchor="start" x="82.5" y="-288.8" font-family="Times,serif" text-decoration="overline" font-size="14.00">2</text>
<text text-anchor="start" x="92.5" y="-288.8" font-family="Times,serif" font-size="14.00"> </text>
</g>
<!-- node_2&#45;&gt;node_3 -->
<g id="edge2" class="edge">
<title>node_2:1,1&#45;&gt;node_3</title>
<path fill="none" stroke="#cd0000" d="M69.5,-376C69.5,-365.81 69.5,-354.78 69.5,-344.56"/>
<polygon fill="#cd0000" stroke="#cd0000" points="73,-344.27 69.5,-334.27 66,-344.27 73,-344.27"/>
</g>
<!-- node_9 -->
<g id="node9" class="node">
<title>node_9</title>
<polygon fill="none" stroke="black" points="123.5,-307 123.5,-334 190.5,-334 190.5,-307 123.5,-307"/>
<text text-anchor="start" x="152" y="-317.8" font-family="Times,serif" text-decoration="overline" font-size="14.00">3</text>
<polygon fill="none" stroke="black" points="123.5,-276 123.5,-307 159.5,-307 159.5,-276 123.5,-276"/>
<text text-anchor="start" x="131.5" y="-288.8" font-family="Times,serif" font-size="14.00"> </text>
<text text-anchor="start" x="136.5" y="-288.8" font-family="Times,serif" text-decoration="overline" font-size="14.00">2</text>
<text text-anchor="start" x="146.5" y="-288.8" font-family="Times,serif" font-size="14.00"> </text>
<polygon fill="none" stroke="black" points="159.5,-276 159.5,-307 190.5,-307 190.5,-276 159.5,-276"/>
<text text-anchor="start" x="164.5" y="-287.8" font-family="Times,serif" font-size="14.00"> Ø </text>
</g>
<!-- node_2&#45;&gt;node_9 -->
<g id="edge10" class="edge">
<title>node_2:3,1&#45;&gt;node_9</title>
<path fill="none" stroke="#0000cd" d="M105.5,-376C105.5,-363.78 110.64,-352.27 117.65,-342.24"/>
<polygon fill="#0000cd" stroke="#0000cd" points="120.54,-344.23 123.91,-334.19 115.01,-339.94 120.54,-344.23"/>
</g>
<!-- node_4 -->
<g id="node4" class="node">
<title>node_4</title>
<polygon fill="none" stroke="black" points="13.5,-213 13.5,-240 89.5,-240 89.5,-213 13.5,-213"/>
<text text-anchor="start" x="46.5" y="-222.8" font-family="Times,serif" font-size="14.00">0</text>
<polygon fill="none" stroke="black" points="13.5,-182 13.5,-213 53.5,-213 53.5,-182 13.5,-182"/>
<text text-anchor="start" x="21.5" y="-194.8" font-family="Times,serif" font-size="14.00"> </text>
<text text-anchor="start" x="26.5" y="-194.8" font-family="Times,serif" text-decoration="overline" font-size="14.00">&#45;1</text>
<text text-anchor="start" x="40.5" y="-194.8" font-family="Times,serif" font-size="14.00"> </text>
<polygon fill="none" stroke="black" points="53.5,-182 53.5,-213 89.5,-213 89.5,-182 53.5,-182"/>
<text text-anchor="start" x="61.5" y="-194.8" font-family="Times,serif" font-size="14.00"> </text>
<text text-anchor="start" x="66.5" y="-194.8" font-family="Times,serif" text-decoration="overline" font-size="14.00">1</text>
<text text-anchor="start" x="76.5" y="-194.8" font-family="Times,serif" font-size="14.00"> </text>
</g>
<!-- node_3&#45;&gt;node_4 -->
<g id="edge3" class="edge">
<title>node_3:0,1&#45;&gt;node_4</title>
<path fill="none" stroke="#cd0000" d="M51.5,-282C51.5,-271.81 51.5,-260.78 51.5,-250.56"/>
<polygon fill="#cd0000" stroke="#cd0000" points="55,-250.27 51.5,-240.27 48,-250.27 55,-250.27"/>
</g>
<!-- node_8 -->
<g id="node8" class="node">
<title>node_8</title>
<polygon fill="none" stroke="black" points="108.5,-213 108.5,-240 175.5,-240 175.5,-213 108.5,-213"/>
<text text-anchor="start" x="137" y="-223.8" font-family="Times,serif" text-decoration="overline" font-size="14.00">2</text>
<polygon fill="none" stroke="black" points="108.5,-182 108.5,-213 144.5,-213 144.5,-182 108.5,-182"/>
<text text-anchor="start" x="116.5" y="-194.8" font-family="Times,serif" font-size="14.00"> </text>
<text text-anchor="start" x="121.5" y="-194.8" font-family="Times,serif" text-decoration="overline" font-size="14.00">1</text>
<text text-anchor="start" x="131.5" y="-194.8" font-family="Times,serif" font-size="14.00"> </text>
<polygon fill="none" stroke="black" points="144.5,-182 144.5,-213 175.5,-213 175.5,-182 144.5,-182"/>
<text text-anchor="start" x="149.5" y="-193.8" font-family="Times,serif" font-size="14.00"> Ø </text>
</g>
<!-- node_3&#45;&gt;node_8 -->
<g id="edge8" class="edge">
<title>node_3:2,1&#45;&gt;node_8</title>
<path fill="none" stroke="#0000cd" d="M87.5,-282C87.5,-269.04 93.37,-257.02 101.25,-246.72"/>
<polygon fill="#0000cd" stroke="#0000cd" points="104.12,-248.74 107.92,-238.85 98.78,-244.21 104.12,-248.74"/>
</g>
<!-- node_5 -->
<g id="node5" class="node">
<title>node_5</title>
<polygon fill="none" stroke="black" points="0.5,-119 0.5,-146 67.5,-146 67.5,-119 0.5,-119"/>
<text text-anchor="start" x="27" y="-129.8" font-family="Times,serif" text-decoration="overline" font-size="14.00">&#45;1</text>
<polygon fill="none" stroke="black" points="0.5,-88 0.5,-119 31.5,-119 31.5,-88 0.5,-88"/>
<text text-anchor="start" x="5.5" y="-99.8" font-family="Times,serif" font-size="14.00"> Ø </text>
<polygon fill="none" stroke="black" points="31.5,-88 31.5,-119 67.5,-119 67.5,-88 31.5,-88"/>
<text text-anchor="start" x="39.5" y="-100.8" font-family="Times,serif" font-size="14.00"> </text>
<text text-anchor="start" x="44.5" y="-100.8" font-family="Times,serif" text-decoration="overline" font-size="14.00">0</text>
<text text-anchor="start" x="54.5" y="-100.8" font-family="Times,serif" font-size="14.00"> </text>
</g>
<!-- node_4&#45;&gt;node_5 -->
<g id="edge4" class="edge">
<title>node_4:&#45;1,1&#45;&gt;node_5</title>
<path fill="none" stroke="#cd0000" d="M33.5,-188C33.5,-177.81 33.5,-166.78 33.5,-156.56"/>
<polygon fill="#cd0000" stroke="#cd0000" points="37,-156.27 33.5,-146.27 30,-156.27 37,-156.27"/>
</g>
<!-- node_7 -->
<g id="node7" class="node">
<title>node_7</title>
<polygon fill="none" stroke="black" points="85.5,-119 85.5,-146 152.5,-146 152.5,-119 85.5,-119"/>
<text text-anchor="start" x="114" y="-129.8" font-family="Times,serif" text-decoration="overline" font-size="14.00">1</text>
<polygon fill="none" stroke="black" points="85.5,-88 85.5,-119 121.5,-119 121.5,-88 85.5,-88"/>
<text text-anchor="start" x="93.5" y="-100.8" font-family="Times,serif" font-size="14.00"> </text>
<text text-anchor="start" x="98.5" y="-100.8" font-family="Times,serif" text-decoration="overline" font-size="14.00">0</text>
<text text-anchor="start" x="108.5" y="-100.8" font-family="Times,serif" font-size="14.00"> </text>
<polygon fill="none" stroke="black" points="121.5,-88 121.5,-119 152.5,-119 152.5,-88 121.5,-88"/>
<text text-anchor="start" x="126.5" y="-99.8" font-family="Times,serif" font-size="14.00"> Ø </text>
</g>
<!-- node_4&#45;&gt;node_7 -->
<g id="edge6" class="edge">
<title>node_4:1,1&#45;&gt;node_7</title>
<path fill="none" stroke="#0000cd" d="M71.5,-188C71.5,-175.99 76.33,-164.49 82.88,-154.41"/>
<polygon fill="#0000cd" stroke="#0000cd" points="85.73,-156.45 88.73,-146.29 80.05,-152.36 85.73,-156.45"/>
</g>
<!-- node_6 -->
<g id="node6" class="node">
<title>node_6</title>
<polygon fill="none" stroke="black" points="45.5,-25 45.5,-52 107.5,-52 107.5,-25 45.5,-25"/>
<text text-anchor="start" x="71.5" y="-35.8" font-family="Times,serif" text-decoration="overline" font-size="14.00">0</text>
<polygon fill="none" stroke="black" points="45.5,0 45.5,-25 76.5,-25 76.5,0 45.5,0"/>
<text text-anchor="start" x="50.5" y="-8.8" font-family="Times,serif" font-size="14.00"> Ø </text>
<polygon fill="none" stroke="black" points="76.5,0 76.5,-25 107.5,-25 107.5,0 76.5,0"/>
<text text-anchor="start" x="81.5" y="-8.8" font-family="Times,serif" font-size="14.00"> Ø </text>
</g>
<!-- node_5&#45;&gt;node_6 -->
<g id="edge5" class="edge">
<title>node_5:0,1&#45;&gt;node_6</title>
<path fill="none" stroke="#0000cd" d="M49.5,-94C49.5,-82.98 52.68,-71.62 56.86,-61.47"/>
<polygon fill="#0000cd" stroke="#0000cd" points="60.15,-62.7 61.11,-52.14 53.78,-59.8 60.15,-62.7"/>
</g>
<!-- node_7&#45;&gt;node_6 -->
<g id="edge7" class="edge">
<title>node_7:0,1&#45;&gt;node_6</title>
<path fill="none" stroke="#cd0000" d="M103.5,-94C103.5,-82.98 100.32,-71.62 96.14,-61.47"/>
<polygon fill="#cd0000" stroke="#cd0000" points="99.22,-59.8 91.89,-52.14 92.85,-62.7 99.22,-59.8"/>
</g>
<!-- node_8&#45;&gt;node_7 -->
<g id="edge9" class="edge">
<title>node_8:1,1&#45;&gt;node_7</title>
<path fill="none" stroke="#cd0000" d="M126.5,-188C126.5,-177.63 125.62,-166.46 124.45,-156.15"/>
<polygon fill="#cd0000" stroke="#cd0000" points="127.92,-155.67 123.2,-146.19 120.97,-156.54 127.92,-155.67"/>
</g>
<!-- node_9&#45;&gt;node_8 -->
<g id="edge11" class="edge">
<title>node_9:2,1&#45;&gt;node_8</title>
<path fill="none" stroke="#cd0000" d="M141.5,-282C141.5,-271.81 141.5,-260.78 141.5,-250.56"/>
<polygon fill="#cd0000" stroke="#cd0000" points="145,-250.27 141.5,-240.27 138,-250.27 145,-250.27"/>
</g>
<!-- node_10&#45;&gt;node_9 -->
<g id="edge13" class="edge">
<title>node_10:3,1&#45;&gt;node_9</title>
<path fill="none" stroke="#cd0000" d="M159.5,-376C159.5,-365.8 159.18,-354.77 158.75,-344.55"/>
<polygon fill="#cd0000" stroke="#cd0000" points="162.23,-344.08 158.26,-334.26 155.23,-344.41 162.23,-344.08"/>
</g>
</g>
</svg>
