<?xml version="1.0" encoding="UTF-8" standalone="no"?>
<!DOCTYPE svg PUBLIC "-//W3C//DTD SVG 1.1//EN"
 "http://www.w3.org/Graphics/SVG/1.1/DTD/svg11.dtd">
<!-- Generated by graphviz version 2.43.0 (0)
 -->
<!-- Title: 2.0 Pages: 1 -->
<svg width="265pt" height="624pt"
 viewBox="0.00 0.00 264.50 624.00" xmlns="http://www.w3.org/2000/svg" xmlns:xlink="http://www.w3.org/1999/xlink">
<g id="graph0" class="graph" transform="scale(1 1) rotate(0) translate(4 620)">
<title>2.0</title>
<polygon fill="white" stroke="transparent" points="-4,4 -4,-620 260.5,-620 260.5,4 -4,4"/>
<!-- node_1 -->
<g id="node1" class="node">
<title>node_1</title>
<polygon fill="none" stroke="black" points="116,-589 116,-616 178,-616 178,-589 116,-589"/>
<text text-anchor="start" x="143.5" y="-598.8" font-family="Times,serif" font-size="14.00">2</text>
<polygon fill="none" stroke="black" points="116,-558 116,-589 147,-589 147,-558 116,-558"/>
<text text-anchor="start" x="124" y="-569.8" font-family="Times,serif" font-size="14.00"> 1 </text>
<polygon fill="none" stroke="black" points="147,-558 147,-589 178,-589 178,-558 147,-558"/>
<text text-anchor="start" x="155" y="-569.8" font-family="Times,serif" font-size="14.00"> 3 </text>
</g>
<!-- node_2 -->
<g id="node2" class="node">
<title>node_2</title>
<polygon fill="none" stroke="black" points="76,-495 76,-522 138,-522 138,-495 76,-495"/>
<text text-anchor="start" x="103.5" y="-504.8" font-family="Times,serif" font-size="14.00">1</text>
<polygon fill="none" stroke="black" points="76,-464 76,-495 107,-495 107,-464 76,-464"/>
<text text-anchor="start" x="84" y="-475.8" font-family="Times,serif" font-size="14.00"> 0 </text>
<polygon fill="none" stroke="black" points="107,-464 107,-495 138,-495 138,-464 107,-464"/>
<text text-anchor="start" x="115" y="-475.8" font-family="Times,serif" font-size="14.00"> 2 </text>
</g>
<!-- node_1&#45;&gt;node_2 -->
<g id="edge1" class="edge">
<title>node_1:1,1&#45;&gt;node_2</title>
<path fill="none" stroke="#cd0000" d="M131,-564C131,-553.19 128.41,-541.93 124.93,-531.68"/>
<polygon fill="#cd0000" stroke="#cd0000" points="128.17,-530.34 121.38,-522.21 121.61,-532.8 128.17,-530.34"/>
</g>
<!-- node_14 -->
<g id="node14" class="node">
<title>node_14</title>
<polygon fill="none" stroke="black" points="156,-495 156,-522 218,-522 218,-495 156,-495"/>
<text text-anchor="start" x="183.5" y="-504.8" font-family="Times,serif" font-size="14.00">3</text>
<polygon fill="none" stroke="black" points="156,-464 156,-495 187,-495 187,-464 156,-464"/>
<text text-anchor="start" x="164" y="-475.8" font-family="Times,serif" font-size="14.00"> 2 </text>
<polygon fill="none" stroke="black" points="187,-464 187,-495 218,-495 218,-464 187,-464"/>
<text text-anchor="start" x="195" y="-476.8" font-family="Times,serif" font-size="14.00"> </text>
<text text-anchor="start" x="199" y="-476.8" font-family="Times,serif" text-decoration="overline" font-size="14.00">4</text>
<text text-anchor="start" x="206" y="-476.8" font-family="Times,serif" font-size="14.00"> </text>
</g>
<!-- node_1&#45;&gt;node_14 -->
<g id="edge19" class="edge">
<title>node_1:3,1&#45;&gt;node_14</title>
<path fill="none" stroke="#0000cd" d="M163,-564C163,-553.19 165.59,-541.93 169.07,-531.68"/>
<polygon fill="#0000cd" stroke="#0000cd" points="172.39,-532.8 172.62,-522.21 165.83,-530.34 172.39,-532.8"/>
</g>
<!-- node_3 -->
<g id="node3" class="node">
<title>node_3</title>
<polygon fill="none" stroke="black" points="33,-401 33,-428 99,-428 99,-401 33,-401"/>
<text text-anchor="start" x="62.5" y="-410.8" font-family="Times,serif" font-size="14.00">0</text>
<polygon fill="none" stroke="black" points="33,-370 33,-401 68,-401 68,-370 33,-370"/>
<text text-anchor="start" x="41" y="-381.8" font-family="Times,serif" font-size="14.00"> &#45;1 </text>
<polygon fill="none" stroke="black" points="68,-370 68,-401 99,-401 99,-370 68,-370"/>
<text text-anchor="start" x="76" y="-381.8" font-family="Times,serif" font-size="14.00"> 1 </text>
</g>
<!-- node_2&#45;&gt;node_3 -->
<g id="edge2" class="edge">
<title>node_2:0,1&#45;&gt;node_3</title>
<path fill="none" stroke="#cd0000" d="M91,-470C91,-459.15 88.3,-447.87 84.68,-437.61"/>
<polygon fill="#cd0000" stroke="#cd0000" points="87.88,-436.19 80.98,-428.15 81.36,-438.73 87.88,-436.19"/>
</g>
<!-- node_12 -->
<g id="node12" class="node">
<title>node_12</title>
<polygon fill="none" stroke="black" points="117,-401 117,-428 179,-428 179,-401 117,-401"/>
<text text-anchor="start" x="144.5" y="-410.8" font-family="Times,serif" font-size="14.00">2</text>
<polygon fill="none" stroke="black" points="117,-370 117,-401 148,-401 148,-370 117,-370"/>
<text text-anchor="start" x="125" y="-381.8" font-family="Times,serif" font-size="14.00"> 1 </text>
<polygon fill="none" stroke="black" points="148,-370 148,-401 179,-401 179,-370 148,-370"/>
<text text-anchor="start" x="156" y="-382.8" font-family="Times,serif" font-size="14.00"> </text>
<text text-anchor="start" x="160" y="-382.8" font-family="Times,serif" text-decoration="overline" font-size="14.00">3</text>
<text text-anchor="start" x="167" y="-382.8" font-family="Times,serif" font-size="14.00"> </text>
</g>
<!-- node_2&#45;&gt;node_12 -->
<g id="edge15" class="edge">
<title>node_2:2,1&#45;&gt;node_12</title>
<path fill="none" stroke="#0000cd" d="M123,-470C123,-459.15 125.7,-447.87 129.32,-437.61"/>
<polygon fill="#0000cd" stroke="#0000cd" points="132.64,-438.73 133.02,-428.15 126.12,-436.19 132.64,-438.73"/>
</g>
<!-- node_4 -->
<g id="node4" class="node">
<title>node_4</title>
<polygon fill="none" stroke="black" points="16,-307 16,-334 83,-334 83,-307 16,-307"/>
<text text-anchor="start" x="43.5" y="-316.8" font-family="Times,serif" font-size="14.00">&#45;1</text>
<polygon fill="none" stroke="black" points="16,-276 16,-307 52,-307 52,-276 16,-276"/>
<text text-anchor="start" x="24" y="-288.8" font-family="Times,serif" font-size="14.00"> </text>
<text text-anchor="start" x="28" y="-288.8" font-family="Times,serif" text-decoration="overline" font-size="14.00">&#45;2</text>
<text text-anchor="start" x="40" y="-288.8" font-family="Times,serif" font-size="14.00"> </text>
<polygon fill="none" stroke="black" points="52,-276 52,-307 83,-307 83,-276 52,-276"/>
<text text-anchor="start" x="60" y="-287.8" font-family="Times,serif" font-size="14.00"> 0 </text>
</g>
<!-- node_3&#45;&gt;node_4 -->
<g id="edge3" class="edge">
<title>node_3:&#45;1,1&#45;&gt;node_4</title>
<path fill="none" stroke="#cd0000" d="M50,-376C50,-365.81 49.89,-354.78 49.75,-344.56"/>
<polygon fill="#cd0000" stroke="#cd0000" points="53.24,-344.21 49.59,-334.27 46.24,-344.32 53.24,-344.21"/>
</g>
<!-- node_10 -->
<g id="node10" class="node">
<title>node_10</title>
<polygon fill="none" stroke="black" points="101,-307 101,-334 163,-334 163,-307 101,-307"/>
<text text-anchor="start" x="128.5" y="-316.8" font-family="Times,serif" font-size="14.00">1</text>
<polygon fill="none" stroke="black" points="101,-276 101,-307 132,-307 132,-276 101,-276"/>
<text text-anchor="start" x="109" y="-287.8" font-family="Times,serif" font-size="14.00"> 0 </text>
<polygon fill="none" stroke="black" points="132,-276 132,-307 163,-307 163,-276 132,-276"/>
<text text-anchor="start" x="140" y="-288.8" font-family="Times,serif" font-size="14.00"> </text>
<text text-anchor="start" x="144" y="-288.8" font-family="Times,serif" text-decoration="overline" font-size="14.00">2</text>
<text text-anchor="start" x="151" y="-288.8" font-family="Times,serif" font-size="14.00"> </text>
</g>
<!-- node_3&#45;&gt;node_10 -->
<g id="edge11" class="edge">
<title>node_3:1,1&#45;&gt;node_10</title>
<path fill="none" stroke="#0000cd" d="M84,-376C84,-363.91 88.93,-352.38 95.63,-342.3"/>
<polygon fill="#0000cd" stroke="#0000cd" points="98.49,-344.31 101.6,-334.18 92.85,-340.16 98.49,-344.31"/>
</g>
<!-- node_5 -->
<g id="node5" class="node">
<title>node_5</title>
<polygon fill="none" stroke="black" points="0,-213 0,-240 64,-240 64,-213 0,-213"/>
<text text-anchor="start" x="26" y="-223.8" font-family="Times,serif" text-decoration="overline" font-size="14.00">&#45;2</text>
<polygon fill="none" stroke="black" points="0,-182 0,-213 28,-213 28,-182 0,-182"/>
<text text-anchor="start" x="5" y="-193.8" font-family="Times,serif" font-size="14.00"> Ø </text>
<polygon fill="none" stroke="black" points="28,-182 28,-213 64,-213 64,-182 28,-182"/>
<text text-anchor="start" x="36" y="-194.8" font-family="Times,serif" font-size="14.00"> </text>
<text text-anchor="start" x="40" y="-194.8" font-family="Times,serif" text-decoration="overline" font-size="14.00">&#45;1</text>
<text text-anchor="start" x="52" y="-194.8" font-family="Times,serif" font-size="14.00"> </text>
</g>
<!-- node_4&#45;&gt;node_5 -->
<g id="edge4" class="edge">
<title>node_4:&#45;2,1&#45;&gt;node_5</title>
<path fill="none" stroke="#cd0000" d="M34,-282C34,-271.8 33.79,-260.78 33.5,-250.55"/>
<polygon fill="#cd0000" stroke="#cd0000" points="36.99,-250.15 33.17,-240.26 29.99,-250.37 36.99,-250.15"/>
</g>
<!-- node_8 -->
<g id="node8" class="node">
<title>node_8</title>
<polygon fill="none" stroke="black" points="83,-213 83,-240 150,-240 150,-213 83,-213"/>
<text text-anchor="start" x="113" y="-222.8" font-family="Times,serif" font-size="14.00">0</text>
<polygon fill="none" stroke="black" points="83,-182 83,-213 119,-213 119,-182 83,-182"/>
<text text-anchor="start" x="91" y="-194.8" font-family="Times,serif" font-size="14.00"> </text>
<text text-anchor="start" x="95" y="-194.8" font-family="Times,serif" text-decoration="overline" font-size="14.00">&#45;1</text>
<text text-anchor="start" x="107" y="-194.8" font-family="Times,serif" font-size="14.00"> </text>
<polygon fill="none" stroke="black" points="119,-182 119,-213 150,-213 150,-182 119,-182"/>
<text text-anchor="start" x="127" y="-194.8" font-family="Times,serif" font-size="14.00"> </text>
<text text-anchor="start" x="131" y="-194.8" font-family="Times,serif" text-decoration="overline" font-size="14.00">1</text>
<text text-anchor="start" x="138" y="-194.8" font-family="Times,serif" font-size="14.00"> </text>
</g>
<!-- node_4&#45;&gt;node_8 -->
<g id="edge7" class="edge">
<title>node_4:0,1&#45;&gt;node_8</title>
<path fill="none" stroke="#0000cd" d="M68,-282C68,-269.91 72.93,-258.38 79.63,-248.3"/>
<polygon fill="#0000cd" stroke="#0000cd" points="82.49,-250.31 85.6,-240.18 76.85,-246.16 82.49,-250.31"/>
</g>
<!-- node_6 -->
<g id="node6" class="node">
<title>node_6</title>
<polygon fill="none" stroke="black" points="50,-119 50,-146 109,-146 109,-119 50,-119"/>
<text text-anchor="start" x="73.5" y="-129.8" font-family="Times,serif" text-decoration="overline" font-size="14.00">&#45;1</text>
<polygon fill="none" stroke="black" points="50,-88 50,-119 78,-119 78,-88 50,-88"/>
<text text-anchor="start" x="55" y="-99.8" font-family="Times,serif" font-size="14.00"> Ø </text>
<polygon fill="none" stroke="black" points="78,-88 78,-119 109,-119 109,-88 78,-88"/>
<text text-anchor="start" x="86" y="-100.8" font-family="Times,serif" font-size="14.00"> </text>
<text text-anchor="start" x="90" y="-100.8" font-family="Times,serif" text-decoration="overline" font-size="14.00">0</text>
<text text-anchor="start" x="97" y="-100.8" font-family="Times,serif" font-size="14.00"> </text>
</g>
<!-- node_5&#45;&gt;node_6 -->
<g id="edge5" class="edge">
<title>node_5:&#45;1,1&#45;&gt;node_6</title>
<path fill="none" stroke="#0000cd" d="M46,-188C46,-176.79 49.51,-165.45 54.23,-155.25"/>
<polygon fill="#0000cd" stroke="#0000cd" points="57.4,-156.74 58.85,-146.25 51.17,-153.55 57.4,-156.74"/>
</g>
<!-- node_7 -->
<g id="node7" class="node">
<title>node_7</title>
<polygon fill="none" stroke="black" points="90,-25 90,-52 146,-52 146,-25 90,-25"/>
<text text-anchor="start" x="114.5" y="-35.8" font-family="Times,serif" text-decoration="overline" font-size="14.00">0</text>
<polygon fill="none" stroke="black" points="90,0 90,-25 118,-25 118,0 90,0"/>
<text text-anchor="start" x="95" y="-8.8" font-family="Times,serif" font-size="14.00"> Ø </text>
<polygon fill="none" stroke="black" points="118,0 118,-25 146,-25 146,0 118,0"/>
<text text-anchor="start" x="123" y="-8.8" font-family="Times,serif" font-size="14.00"> Ø </text>
</g>
<!-- node_6&#45;&gt;node_7 -->
<g id="edge6" class="edge">
<title>node_6:0,1&#45;&gt;node_7</title>
<path fill="none" stroke="#0000cd" d="M94,-94C94,-83.04 96.88,-71.64 100.64,-61.41"/>
<polygon fill="#0000cd" stroke="#0000cd" points="103.94,-62.6 104.46,-52.02 97.45,-59.97 103.94,-62.6"/>
</g>
<!-- node_8&#45;&gt;node_6 -->
<g id="edge8" class="edge">
<title>node_8:&#45;1,1&#45;&gt;node_6</title>
<path fill="none" stroke="#cd0000" d="M101,-188C101,-177.28 98.62,-166.05 95.44,-155.8"/>
<polygon fill="#cd0000" stroke="#cd0000" points="98.74,-154.64 92.18,-146.32 92.12,-156.92 98.74,-154.64"/>
</g>
<!-- node_9 -->
<g id="node9" class="node">
<title>node_9</title>
<polygon fill="none" stroke="black" points="127,-119 127,-146 186,-146 186,-119 127,-119"/>
<text text-anchor="start" x="153" y="-129.8" font-family="Times,serif" text-decoration="overline" font-size="14.00">1</text>
<polygon fill="none" stroke="black" points="127,-88 127,-119 158,-119 158,-88 127,-88"/>
<text text-anchor="start" x="135" y="-100.8" font-family="Times,serif" font-size="14.00"> </text>
<text text-anchor="start" x="139" y="-100.8" font-family="Times,serif" text-decoration="overline" font-size="14.00">0</text>
<text text-anchor="start" x="146" y="-100.8" font-family="Times,serif" font-size="14.00"> </text>
<polygon fill="none" stroke="black" points="158,-88 158,-119 186,-119 186,-88 158,-88"/>
<text text-anchor="start" x="163" y="-99.8" font-family="Times,serif" font-size="14.00"> Ø </text>
</g>
<!-- node_8&#45;&gt;node_9 -->
<g id="edge9" class="edge">
<title>node_8:1,1&#45;&gt;node_9</title>
<path fill="none" stroke="#0000cd" d="M135,-188C135,-177.23 137.31,-165.91 140.39,-155.58"/>
<polygon fill="#0000cd" stroke="#0000cd" points="143.73,-156.63 143.54,-146.04 137.09,-154.44 143.73,-156.63"/>
</g>
<!-- node_9&#45;&gt;node_7 -->
<g id="edge10" class="edge">
<title>node_9:0,1&#45;&gt;node_7</title>
<path fill="none" stroke="#cd0000" d="M142,-94C142,-83.04 139.12,-71.64 135.36,-61.41"/>
<polygon fill="#cd0000" stroke="#cd0000" points="138.55,-59.97 131.54,-52.02 132.06,-62.6 138.55,-59.97"/>
</g>
<!-- node_10&#45;&gt;node_8 -->
<g id="edge12" class="edge">
<title>node_10:0,1&#45;&gt;node_8</title>
<path fill="none" stroke="#cd0000" d="M116,-282C116,-271.81 116,-260.78 116,-250.56"/>
<polygon fill="#cd0000" stroke="#cd0000" points="119.5,-250.27 116,-240.27 112.5,-250.27 119.5,-250.27"/>
</g>
<!-- node_11 -->
<g id="node11" class="node">
<title>node_11</title>
<polygon fill="none" stroke="black" points="168,-213 168,-240 227,-240 227,-213 168,-213"/>
<text text-anchor="start" x="194" y="-223.8" font-family="Times,serif" text-decoration="overline" font-size="14.00">2</text>
<polygon fill="none" stroke="black" points="168,-182 168,-213 199,-213 199,-182 168,-182"/>
<text text-anchor="start" x="176" y="-194.8" font-family="Times,serif" font-size="14.00"> </text>
<text text-anchor="start" x="180" y="-194.8" font-family="Times,serif" text-decoration="overline" font-size="14.00">1</text>
<text text-anchor="start" x="187" y="-194.8" font-family="Times,serif" font-size="14.00"> </text>
<polygon fill="none" stroke="black" points="199,-182 199,-213 227,-213 227,-182 199,-182"/>
<text text-anchor="start" x="204" y="-193.8" font-family="Times,serif" font-size="14.00"> Ø </text>
</g>
<!-- node_10&#45;&gt;node_11 -->
<g id="edge13" class="edge">
<title>node_10:2,1&#45;&gt;node_11</title>
<path fill="none" stroke="#0000cd" d="M148,-282C148,-269.12 153.63,-256.93 161.08,-246.44"/>
<polygon fill="#0000cd" stroke="#0000cd" points="163.96,-248.44 167.37,-238.41 158.45,-244.13 163.96,-248.44"/>
</g>
<!-- node_11&#45;&gt;node_9 -->
<g id="edge14" class="edge">
<title>node_11:1,1&#45;&gt;node_9</title>
<path fill="none" stroke="#cd0000" d="M183,-188C183,-177.04 180.08,-165.73 176.17,-155.48"/>
<polygon fill="#cd0000" stroke="#cd0000" points="179.29,-153.87 172.17,-146.02 172.84,-156.59 179.29,-153.87"/>
</g>
<!-- node_12&#45;&gt;node_10 -->
<g id="edge16" class="edge">
<title>node_12:1,1&#45;&gt;node_10</title>
<path fill="none" stroke="#cd0000" d="M132,-376C132,-365.81 132,-354.78 132,-344.56"/>
<polygon fill="#cd0000" stroke="#cd0000" points="135.5,-344.27 132,-334.27 128.5,-344.27 135.5,-344.27"/>
</g>
<!-- node_13 -->
<g id="node13" class="node">
<title>node_13</title>
<polygon fill="none" stroke="black" points="182,-307 182,-334 241,-334 241,-307 182,-307"/>
<text text-anchor="start" x="208" y="-317.8" font-family="Times,serif" text-decoration="overline" font-size="14.00">3</text>
<polygon fill="none" stroke="black" points="182,-276 182,-307 213,-307 213,-276 182,-276"/>
<text text-anchor="start" x="190" y="-288.8" font-family="Times,serif" font-size="14.00"> </text>
<text text-anchor="start" x="194" y="-288.8" font-family="Times,serif" text-decoration="overline" font-size="14.00">2</text>
<text text-anchor="start" x="201" y="-288.8" font-family="Times,serif" font-size="14.00"> </text>
<polygon fill="none" stroke="black" points="213,-276 213,-307 241,-307 241,-276 213,-276"/>
<text text-anchor="start" x="218" y="-287.8" font-family="Times,serif" font-size="14.00"> Ø </text>
</g>
<!-- node_12&#45;&gt;node_13 -->
<g id="edge17" class="edge">
<title>node_12:3,1&#45;&gt;node_13</title>
<path fill="none" stroke="#0000cd" d="M164,-376C164,-363.99 168.83,-352.49 175.38,-342.41"/>
<polygon fill="#0000cd" stroke="#0000cd" points="178.23,-344.45 181.23,-334.29 172.55,-340.36 178.23,-344.45"/>
</g>
<!-- node_13&#45;&gt;node_11 -->
<g id="edge18" class="edge">
<title>node_13:2,1&#45;&gt;node_11</title>
<path fill="none" stroke="#cd0000" d="M197,-282C197,-271.81 197,-260.78 197,-250.56"/>
<polygon fill="#cd0000" stroke="#cd0000" points="200.5,-250.27 197,-240.27 193.5,-250.27 200.5,-250.27"/>
</g>
<!-- node_14&#45;&gt;node_12 -->
<g id="edge20" class="edge">
<title>node_14:2,1&#45;&gt;node_12</title>
<path fill="none" stroke="#cd0000" d="M171,-470C171,-459.24 168.52,-447.99 165.18,-437.74"/>
<polygon fill="#cd0000" stroke="#cd0000" points="168.45,-436.49 161.78,-428.27 161.87,-438.86 168.45,-436.49"/>
</g>
<!-- node_15 -->
<g id="node15" class="node">
<title>node_15</title>
<polygon fill="none" stroke="black" points="198,-401 198,-428 257,-428 257,-401 198,-401"/>
<text text-anchor="start" x="224" y="-411.8" font-family="Times,serif" text-decoration="overline" font-size="14.00">4</text>
<polygon fill="none" stroke="black" points="198,-370 198,-401 229,-401 229,-370 198,-370"/>
<text text-anchor="start" x="206" y="-382.8" font-family="Times,serif" font-size="14.00"> </text>
<text text-anchor="start" x="210" y="-382.8" font-family="Times,serif" text-decoration="overline" font-size="14.00">3</text>
<text text-anchor="start" x="217" y="-382.8" font-family="Times,serif" font-size="14.00"> </text>
<polygon fill="none" stroke="black" points="229,-370 229,-401 257,-401 257,-370 229,-370"/>
<text text-anchor="start" x="234" y="-381.8" font-family="Times,serif" font-size="14.00"> Ø </text>
</g>
<!-- node_14&#45;&gt;node_15 -->
<g id="edge21" class="edge">
<title>node_14:4,1&#45;&gt;node_15</title>
<path fill="none" stroke="#0000cd" d="M203,-470C203,-459.19 205.59,-447.93 209.07,-437.68"/>
<polygon fill="#0000cd" stroke="#0000cd" points="212.39,-438.8 212.62,-428.21 205.83,-436.34 212.39,-438.8"/>
</g>
<!-- node_15&#45;&gt;node_13 -->
<g id="edge22" class="edge">
<title>node_15:3,1&#45;&gt;node_13</title>
<path fill="none" stroke="#cd0000" d="M213,-376C213,-365.8 212.79,-354.78 212.5,-344.55"/>
<polygon fill="#cd0000" stroke="#cd0000" points="215.99,-344.15 212.17,-334.26 208.99,-344.37 215.99,-344.15"/>
</g>
</g>
</svg>
