<?xml version="1.0" encoding="UTF-8" standalone="no"?>
<!DOCTYPE svg PUBLIC "-//W3C//DTD SVG 1.1//EN"
 "http://www.w3.org/Graphics/SVG/1.1/DTD/svg11.dtd">
<!-- Generated by graphviz version 2.43.0 (0)
 -->
<!-- Title: 3.0 Pages: 1 -->
<svg width="193pt" height="530pt"
 viewBox="0.00 0.00 193.00 530.00" xmlns="http://www.w3.org/2000/svg" xmlns:xlink="http://www.w3.org/1999/xlink">
<g id="graph0" class="graph" transform="scale(1 1) rotate(0) translate(4 526)">
<title>3.0</title>
<polygon fill="white" stroke="transparent" points="-4,4 -4,-526 189,-526 189,4 -4,4"/>
<!-- node_1 -->
<g id="node1" class="node">
<title>node_1</title>
<polygon fill="none" stroke="black" points="84.5,-495 84.5,-522 146.5,-522 146.5,-495 84.5,-495"/>
<text text-anchor="start" x="112" y="-504.8" font-family="Times,serif" font-size="14.00">3</text>
<polygon fill="none" stroke="black" points="84.5,-464 84.5,-495 115.5,-495 115.5,-464 84.5,-464"/>
<text text-anchor="start" x="92.5" y="-475.8" font-family="Times,serif" font-size="14.00"> 2 </text>
<polygon fill="none" stroke="black" points="115.5,-464 115.5,-495 146.5,-495 146.5,-464 115.5,-464"/>
<text text-anchor="start" x="123.5" y="-476.8" font-family="Times,serif" font-size="14.00"> </text>
<text text-anchor="start" x="127.5" y="-476.8" font-family="Times,serif" text-decoration="overline" font-size="14.00">4</text>
<text text-anchor="start" x="134.5" y="-476.8" font-family="Times,serif" font-size="14.00"> </text>
</g>
<!-- node_2 -->
<g id="node2" class="node">
<title>node_2</title>
<polygon fill="none" stroke="black" points="45.5,-401 45.5,-428 107.5,-428 107.5,-401 45.5,-401"/>
<text text-anchor="start" x="73" y="-410.8" font-family="Times,serif" font-size="14.00">2</text>
<polygon fill="none" stroke="black" points="45.5,-370 45.5,-401 76.5,-401 76.5,-370 45.5,-370"/>
<text text-anchor="start" x="53.5" y="-381.8" font-family="Times,serif" font-size="14.00"> 1 </text>
<polygon fill="none" stroke="black" points="76.5,-370 76.5,-401 107.5,-401 107.5,-370 76.5,-370"/>
<text text-anchor="start" x="84.5" y="-382.8" font-family="Times,serif" font-size="14.00"> </text>
<text text-anchor="start" x="88.5" y="-382.8" font-family="Times,serif" text-decoration="overline" font-size="14.00">3</text>
<text text-anchor="start" x="95.5" y="-382.8" font-family="Times,serif" font-size="14.00"> </text>
</g>
<!-- node_1&#45;&gt;node_2 -->
<g id="edge1" class="edge">
<title>node_1:2,1&#45;&gt;node_2</title>
<path fill="none" stroke="#cd0000" d="M99.5,-470C99.5,-459.24 97.02,-447.99 93.68,-437.74"/>
<polygon fill="#cd0000" stroke="#cd0000" points="96.95,-436.49 90.28,-428.27 90.37,-438.86 96.95,-436.49"/>
</g>
<!-- node_10 -->
<g id="node10" class="node">
<title>node_10</title>
<polygon fill="none" stroke="black" points="126.5,-401 126.5,-428 185.5,-428 185.5,-401 126.5,-401"/>
<text text-anchor="start" x="152.5" y="-411.8" font-family="Times,serif" text-decoration="overline" font-size="14.00">4</text>
<polygon fill="none" stroke="black" points="126.5,-370 126.5,-401 157.5,-401 157.5,-370 126.5,-370"/>
<text text-anchor="start" x="134.5" y="-382.8" font-family="Times,serif" font-size="14.00"> </text>
<text text-anchor="start" x="138.5" y="-382.8" font-family="Times,serif" text-decoration="overline" font-size="14.00">3</text>
<text text-anchor="start" x="145.5" y="-382.8" font-family="Times,serif" font-size="14.00"> </text>
<polygon fill="none" stroke="black" points="157.5,-370 157.5,-401 185.5,-401 185.5,-370 157.5,-370"/>
<text text-anchor="start" x="162.5" y="-381.8" font-family="Times,serif" font-size="14.00"> Ø </text>
</g>
<!-- node_1&#45;&gt;node_10 -->
<g id="edge12" class="edge">
<title>node_1:4,1&#45;&gt;node_10</title>
<path fill="none" stroke="#0000cd" d="M131.5,-470C131.5,-459.19 134.09,-447.93 137.57,-437.68"/>
<polygon fill="#0000cd" stroke="#0000cd" points="140.89,-438.8 141.12,-428.21 134.33,-436.34 140.89,-438.8"/>
</g>
<!-- node_3 -->
<g id="node3" class="node">
<title>node_3</title>
<polygon fill="none" stroke="black" points="29.5,-307 29.5,-334 91.5,-334 91.5,-307 29.5,-307"/>
<text text-anchor="start" x="57" y="-316.8" font-family="Times,serif" font-size="14.00">1</text>
<polygon fill="none" stroke="black" points="29.5,-276 29.5,-307 60.5,-307 60.5,-276 29.5,-276"/>
<text text-anchor="start" x="37.5" y="-287.8" font-family="Times,serif" font-size="14.00"> 0 </text>
<polygon fill="none" stroke="black" points="60.5,-276 60.5,-307 91.5,-307 91.5,-276 60.5,-276"/>
<text text-anchor="start" x="68.5" y="-288.8" font-family="Times,serif" font-size="14.00"> </text>
<text text-anchor="start" x="72.5" y="-288.8" font-family="Times,serif" text-decoration="overline" font-size="14.00">2</text>
<text text-anchor="start" x="79.5" y="-288.8" font-family="Times,serif" font-size="14.00"> </text>
</g>
<!-- node_2&#45;&gt;node_3 -->
<g id="edge2" class="edge">
<title>node_2:1,1&#45;&gt;node_3</title>
<path fill="none" stroke="#cd0000" d="M60.5,-376C60.5,-365.81 60.5,-354.78 60.5,-344.56"/>
<polygon fill="#cd0000" stroke="#cd0000" points="64,-344.27 60.5,-334.27 57,-344.27 64,-344.27"/>
</g>
<!-- node_9 -->
<g id="node9" class="node">
<title>node_9</title>
<polygon fill="none" stroke="black" points="110.5,-307 110.5,-334 169.5,-334 169.5,-307 110.5,-307"/>
<text text-anchor="start" x="136.5" y="-317.8" font-family="Times,serif" text-decoration="overline" font-size="14.00">3</text>
<polygon fill="none" stroke="black" points="110.5,-276 110.5,-307 141.5,-307 141.5,-276 110.5,-276"/>
<text text-anchor="start" x="118.5" y="-288.8" font-family="Times,serif" font-size="14.00"> </text>
<text text-anchor="start" x="122.5" y="-288.8" font-family="Times,serif" text-decoration="overline" font-size="14.00">2</text>
<text text-anchor="start" x="129.5" y="-288.8" font-family="Times,serif" font-size="14.00"> </text>
<polygon fill="none" stroke="black" points="141.5,-276 141.5,-307 169.5,-307 169.5,-276 141.5,-276"/>
<text text-anchor="start" x="146.5" y="-287.8" font-family="Times,serif" font-size="14.00"> Ø </text>
</g>
<!-- node_2&#45;&gt;node_9 -->
<g id="edge10" class="edge">
<title>node_2:3,1&#45;&gt;node_9</title>
<path fill="none" stroke="#0000cd" d="M92.5,-376C92.5,-363.99 97.33,-352.49 103.88,-342.41"/>
<polygon fill="#0000cd" stroke="#0000cd" points="106.73,-344.45 109.73,-334.29 101.05,-340.36 106.73,-344.45"/>
</g>
<!-- node_4 -->
<g id="node4" class="node">
<title>node_4</title>
<polygon fill="none" stroke="black" points="11.5,-213 11.5,-240 78.5,-240 78.5,-213 11.5,-213"/>
<text text-anchor="start" x="41.5" y="-222.8" font-family="Times,serif" font-size="14.00">0</text>
<polygon fill="none" stroke="black" points="11.5,-182 11.5,-213 47.5,-213 47.5,-182 11.5,-182"/>
<text text-anchor="start" x="19.5" y="-194.8" font-family="Times,serif" font-size="14.00"> </text>
<text text-anchor="start" x="23.5" y="-194.8" font-family="Times,serif" text-decoration="overline" font-size="14.00">&#45;1</text>
<text text-anchor="start" x="35.5" y="-194.8" font-family="Times,serif" font-size="14.00"> </text>
<polygon fill="none" stroke="black" points="47.5,-182 47.5,-213 78.5,-213 78.5,-182 47.5,-182"/>
<text text-anchor="start" x="55.5" y="-194.8" font-family="Times,serif" font-size="14.00"> </text>
<text text-anchor="start" x="59.5" y="-194.8" font-family="Times,serif" text-decoration="overline" font-size="14.00">1</text>
<text text-anchor="start" x="66.5" y="-194.8" font-family="Times,serif" font-size="14.00"> </text>
</g>
<!-- node_3&#45;&gt;node_4 -->
<g id="edge3" class="edge">
<title>node_3:0,1&#45;&gt;node_4</title>
<path fill="none" stroke="#cd0000" d="M44.5,-282C44.5,-271.81 44.5,-260.78 44.5,-250.56"/>
<polygon fill="#cd0000" stroke="#cd0000" points="48,-250.27 44.5,-240.27 41,-250.27 48,-250.27"/>
</g>
<!-- node_8 -->
<g id="node8" class="node">
<title>node_8</title>
<polygon fill="none" stroke="black" points="96.5,-213 96.5,-240 155.5,-240 155.5,-213 96.5,-213"/>
<text text-anchor="start" x="122.5" y="-223.8" font-family="Times,serif" text-decoration="overline" font-size="14.00">2</text>
<polygon fill="none" stroke="black" points="96.5,-182 96.5,-213 127.5,-213 127.5,-182 96.5,-182"/>
<text text-anchor="start" x="104.5" y="-194.8" font-family="Times,serif" font-size="14.00"> </text>
<text text-anchor="start" x="108.5" y="-194.8" font-family="Times,serif" text-decoration="overline" font-size="14.00">1</text>
<text text-anchor="start" x="115.5" y="-194.8" font-family="Times,serif" font-size="14.00"> </text>
<polygon fill="none" stroke="black" points="127.5,-182 127.5,-213 155.5,-213 155.5,-182 127.5,-182"/>
<text text-anchor="start" x="132.5" y="-193.8" font-family="Times,serif" font-size="14.00"> Ø </text>
</g>
<!-- node_3&#45;&gt;node_8 -->
<g id="edge8" class="edge">
<title>node_3:2,1&#45;&gt;node_8</title>
<path fill="none" stroke="#0000cd" d="M76.5,-282C76.5,-269.12 82.13,-256.93 89.58,-246.44"/>
<polygon fill="#0000cd" stroke="#0000cd" points="92.46,-248.44 95.87,-238.41 86.95,-244.13 92.46,-248.44"/>
</g>
<!-- node_5 -->
<g id="node5" class="node">
<title>node_5</title>
<polygon fill="none" stroke="black" points="0.5,-119 0.5,-146 59.5,-146 59.5,-119 0.5,-119"/>
<text text-anchor="start" x="24" y="-129.8" font-family="Times,serif" text-decoration="overline" font-size="14.00">&#45;1</text>
<polygon fill="none" stroke="black" points="0.5,-88 0.5,-119 28.5,-119 28.5,-88 0.5,-88"/>
<text text-anchor="start" x="5.5" y="-99.8" font-family="Times,serif" font-size="14.00"> Ø </text>
<polygon fill="none" stroke="black" points="28.5,-88 28.5,-119 59.5,-119 59.5,-88 28.5,-88"/>
<text text-anchor="start" x="36.5" y="-100.8" font-family="Times,serif" font-size="14.00"> </text>
<text text-anchor="start" x="40.5" y="-100.8" font-family="Times,serif" text-decoration="overline" font-size="14.00">0</text>
<text text-anchor="start" x="47.5" y="-100.8" font-family="Times,serif" font-size="14.00"> </text>
</g>
<!-- node_4&#45;&gt;node_5 -->
<g id="edge4" class="edge">
<title>node_4:&#45;1,1&#45;&gt;node_5</title>
<path fill="none" stroke="#cd0000" d="M29.5,-188C29.5,-177.81 29.5,-166.78 29.5,-156.56"/>
<polygon fill="#cd0000" stroke="#cd0000" points="33,-156.27 29.5,-146.27 26,-156.27 33,-156.27"/>
</g>
<!-- node_7 -->
<g id="node7" class="node">
<title>node_7</title>
<polygon fill="none" stroke="black" points="77.5,-119 77.5,-146 136.5,-146 136.5,-119 77.5,-119"/>
<text text-anchor="start" x="103.5" y="-129.8" font-family="Times,serif" text-decoration="overline" font-size="14.00">1</text>
<polygon fill="none" stroke="black" points="77.5,-88 77.5,-119 108.5,-119 108.5,-88 77.5,-88"/>
<text text-anchor="start" x="85.5" y="-100.8" font-family="Times,serif" font-size="14.00"> </text>
<text text-anchor="start" x="89.5" y="-100.8" font-family="Times,serif" text-decoration="overline" font-size="14.00">0</text>
<text text-anchor="start" x="96.5" y="-100.8" font-family="Times,serif" font-size="14.00"> </text>
<polygon fill="none" stroke="black" points="108.5,-88 108.5,-119 136.5,-119 136.5,-88 108.5,-88"/>
<text text-anchor="start" x="113.5" y="-99.8" font-family="Times,serif" font-size="14.00"> Ø </text>
</g>
<!-- node_4&#45;&gt;node_7 -->
<g id="edge6" class="edge">
<title>node_4:1,1&#45;&gt;node_7</title>
<path fill="none" stroke="#0000cd" d="M63.5,-188C63.5,-176.2 67.99,-164.71 74.08,-154.57"/>
<polygon fill="#0000cd" stroke="#0000cd" points="77.13,-156.29 79.76,-146.03 71.3,-152.41 77.13,-156.29"/>
</g>
<!-- node_6 -->
<g id="node6" class="node">
<title>node_6</title>
<polygon fill="none" stroke="black" points="40.5,-25 40.5,-52 96.5,-52 96.5,-25 40.5,-25"/>
<text text-anchor="start" x="65" y="-35.8" font-family="Times,serif" text-decoration="overline" font-size="14.00">0</text>
<polygon fill="none" stroke="black" points="40.5,0 40.5,-25 68.5,-25 68.5,0 40.5,0"/>
<text text-anchor="start" x="45.5" y="-8.8" font-family="Times,serif" font-size="14.00"> Ø </text>
<polygon fill="none" stroke="black" points="68.5,0 68.5,-25 96.5,-25 96.5,0 68.5,0"/>
<text text-anchor="start" x="73.5" y="-8.8" font-family="Times,serif" font-size="14.00"> Ø </text>
</g>
<!-- node_5&#45;&gt;node_6 -->
<g id="edge5" class="edge">
<title>node_5:0,1&#45;&gt;node_6</title>
<path fill="none" stroke="#0000cd" d="M44.5,-94C44.5,-83.04 47.38,-71.64 51.14,-61.41"/>
<polygon fill="#0000cd" stroke="#0000cd" points="54.44,-62.6 54.96,-52.02 47.95,-59.97 54.44,-62.6"/>
</g>
<!-- node_7&#45;&gt;node_6 -->
<g id="edge7" class="edge">
<title>node_7:0,1&#45;&gt;node_6</title>
<path fill="none" stroke="#cd0000" d="M92.5,-94C92.5,-83.04 89.62,-71.64 85.86,-61.41"/>
<polygon fill="#cd0000" stroke="#cd0000" points="89.05,-59.97 82.04,-52.02 82.56,-62.6 89.05,-59.97"/>
</g>
<!-- node_8&#45;&gt;node_7 -->
<g id="edge9" class="edge">
<title>node_8:1,1&#45;&gt;node_7</title>
<path fill="none" stroke="#cd0000" d="M111.5,-188C111.5,-177.78 110.96,-166.75 110.24,-156.52"/>
<polygon fill="#cd0000" stroke="#cd0000" points="113.71,-155.93 109.44,-146.24 106.73,-156.48 113.71,-155.93"/>
</g>
<!-- node_9&#45;&gt;node_8 -->
<g id="edge11" class="edge">
<title>node_9:2,1&#45;&gt;node_8</title>
<path fill="none" stroke="#cd0000" d="M125.5,-282C125.5,-271.81 125.5,-260.78 125.5,-250.56"/>
<polygon fill="#cd0000" stroke="#cd0000" points="129,-250.27 125.5,-240.27 122,-250.27 129,-250.27"/>
</g>
<!-- node_10&#45;&gt;node_9 -->
<g id="edge13" class="edge">
<title>node_10:3,1&#45;&gt;node_9</title>
<path fill="none" stroke="#cd0000" d="M141.5,-376C141.5,-365.8 141.29,-354.78 141,-344.55"/>
<polygon fill="#cd0000" stroke="#cd0000" points="144.49,-344.15 140.67,-334.26 137.49,-344.37 144.49,-344.15"/>
</g>
</g>
</svg>
