<?xml version="1.0" encoding="UTF-8" standalone="no"?>
<!DOCTYPE svg PUBLIC "-//W3C//DTD SVG 1.1//EN"
 "http://www.w3.org/Graphics/SVG/1.1/DTD/svg11.dtd">
<!-- Generated by graphviz version 2.43.0 (0)
 -->
<!-- Title: 2.0 Pages: 1 -->
<svg width="292pt" height="624pt"
 viewBox="0.00 0.00 292.00 624.00" xmlns="http://www.w3.org/2000/svg" xmlns:xlink="http://www.w3.org/1999/xlink">
<g id="graph0" class="graph" transform="scale(1 1) rotate(0) translate(4 620)">
<title>2.0</title>
<polygon fill="white" stroke="transparent" points="-4,4 -4,-620 288,-620 288,4 -4,4"/>
<!-- node_1 -->
<g id="node1" class="node">
<title>node_1</title>
<polygon fill="none" stroke="black" points="126.5,-589 126.5,-616 196.5,-616 196.5,-589 126.5,-589"/>
<text text-anchor="start" x="156.5" y="-598.8" font-family="Times,serif" font-size="14.00">2</text>
<polygon fill="none" stroke="black" points="126.5,-558 126.5,-589 161.5,-589 161.5,-558 126.5,-558"/>
<text text-anchor="start" x="134.5" y="-569.8" font-family="Times,serif" font-size="14.00"> 1 </text>
<polygon fill="none" stroke="black" points="161.5,-558 161.5,-589 196.5,-589 196.5,-558 161.5,-558"/>
<text text-anchor="start" x="169.5" y="-569.8" font-family="Times,serif" font-size="14.00"> 3 </text>
</g>
<!-- node_2 -->
<g id="node2" class="node">
<title>node_2</title>
<polygon fill="none" stroke="black" points="82.5,-495 82.5,-522 152.5,-522 152.5,-495 82.5,-495"/>
<text text-anchor="start" x="112.5" y="-504.8" font-family="Times,serif" font-size="14.00">1</text>
<polygon fill="none" stroke="black" points="82.5,-464 82.5,-495 117.5,-495 117.5,-464 82.5,-464"/>
<text text-anchor="start" x="90.5" y="-475.8" font-family="Times,serif" font-size="14.00"> 0 </text>
<polygon fill="none" stroke="black" points="117.5,-464 117.5,-495 152.5,-495 152.5,-464 117.5,-464"/>
<text text-anchor="start" x="125.5" y="-475.8" font-family="Times,serif" font-size="14.00"> 2 </text>
</g>
<!-- node_1&#45;&gt;node_2 -->
<g id="edge1" class="edge">
<title>node_1:1,1&#45;&gt;node_2</title>
<path fill="none" stroke="#cd0000" d="M143.5,-564C143.5,-553.1 140.69,-541.8 136.92,-531.55"/>
<polygon fill="#cd0000" stroke="#cd0000" points="140.08,-530.03 133.07,-522.08 133.6,-532.66 140.08,-530.03"/>
</g>
<!-- node_14 -->
<g id="node14" class="node">
<title>node_14</title>
<polygon fill="none" stroke="black" points="171.5,-495 171.5,-522 242.5,-522 242.5,-495 171.5,-495"/>
<text text-anchor="start" x="202" y="-504.8" font-family="Times,serif" font-size="14.00">3</text>
<polygon fill="none" stroke="black" points="171.5,-464 171.5,-495 206.5,-495 206.5,-464 171.5,-464"/>
<text text-anchor="start" x="179.5" y="-475.8" font-family="Times,serif" font-size="14.00"> 2 </text>
<polygon fill="none" stroke="black" points="206.5,-464 206.5,-495 242.5,-495 242.5,-464 206.5,-464"/>
<text text-anchor="start" x="214.5" y="-476.8" font-family="Times,serif" font-size="14.00"> </text>
<text text-anchor="start" x="219.5" y="-476.8" font-family="Times,serif" text-decoration="overline" font-size="14.00">4</text>
<text text-anchor="start" x="229.5" y="-476.8" font-family="Times,serif" font-size="14.00"> </text>
</g>
<!-- node_1&#45;&gt;node_14 -->
<g id="edge19" class="edge">
<title>node_1:3,1&#45;&gt;node_14</title>
<path fill="none" stroke="#0000cd" d="M179.5,-564C179.5,-553.04 182.42,-541.73 186.33,-531.48"/>
<polygon fill="#0000cd" stroke="#0000cd" points="189.66,-532.59 190.33,-522.02 183.21,-529.87 189.66,-532.59"/>
</g>
<!-- node_3 -->
<g id="node3" class="node">
<title>node_3</title>
<polygon fill="none" stroke="black" points="35.5,-401 35.5,-428 109.5,-428 109.5,-401 35.5,-401"/>
<text text-anchor="start" x="67.5" y="-410.8" font-family="Times,serif" font-size="14.00">0</text>
<polygon fill="none" stroke="black" points="35.5,-370 35.5,-401 74.5,-401 74.5,-370 35.5,-370"/>
<text text-anchor="start" x="43.5" y="-381.8" font-family="Times,serif" font-size="14.00"> &#45;1 </text>
<polygon fill="none" stroke="black" points="74.5,-370 74.5,-401 109.5,-401 109.5,-370 74.5,-370"/>
<text text-anchor="start" x="82.5" y="-381.8" font-family="Times,serif" font-size="14.00"> 1 </text>
</g>
<!-- node_2&#45;&gt;node_3 -->
<g id="edge2" class="edge">
<title>node_2:0,1&#45;&gt;node_3</title>
<path fill="none" stroke="#cd0000" d="M99.5,-470C99.5,-459.04 96.58,-447.73 92.67,-437.48"/>
<polygon fill="#cd0000" stroke="#cd0000" points="95.79,-435.87 88.67,-428.02 89.34,-438.59 95.79,-435.87"/>
</g>
<!-- node_12 -->
<g id="node12" class="node">
<title>node_12</title>
<polygon fill="none" stroke="black" points="128.5,-401 128.5,-428 199.5,-428 199.5,-401 128.5,-401"/>
<text text-anchor="start" x="159" y="-410.8" font-family="Times,serif" font-size="14.00">2</text>
<polygon fill="none" stroke="black" points="128.5,-370 128.5,-401 163.5,-401 163.5,-370 128.5,-370"/>
<text text-anchor="start" x="136.5" y="-381.8" font-family="Times,serif" font-size="14.00"> 1 </text>
<polygon fill="none" stroke="black" points="163.5,-370 163.5,-401 199.5,-401 199.5,-370 163.5,-370"/>
<text text-anchor="start" x="171.5" y="-382.8" font-family="Times,serif" font-size="14.00"> </text>
<text text-anchor="start" x="176.5" y="-382.8" font-family="Times,serif" text-decoration="overline" font-size="14.00">3</text>
<text text-anchor="start" x="186.5" y="-382.8" font-family="Times,serif" font-size="14.00"> </text>
</g>
<!-- node_2&#45;&gt;node_12 -->
<g id="edge15" class="edge">
<title>node_2:2,1&#45;&gt;node_12</title>
<path fill="none" stroke="#0000cd" d="M135.5,-470C135.5,-459.09 138.47,-447.86 142.47,-437.68"/>
<polygon fill="#0000cd" stroke="#0000cd" points="145.78,-438.85 146.57,-428.29 139.36,-436.06 145.78,-438.85"/>
</g>
<!-- node_4 -->
<g id="node4" class="node">
<title>node_4</title>
<polygon fill="none" stroke="black" points="17.5,-307 17.5,-334 92.5,-334 92.5,-307 17.5,-307"/>
<text text-anchor="start" x="48" y="-316.8" font-family="Times,serif" font-size="14.00">&#45;1</text>
<polygon fill="none" stroke="black" points="17.5,-276 17.5,-307 57.5,-307 57.5,-276 17.5,-276"/>
<text text-anchor="start" x="25.5" y="-288.8" font-family="Times,serif" font-size="14.00"> </text>
<text text-anchor="start" x="30.5" y="-288.8" font-family="Times,serif" text-decoration="overline" font-size="14.00">&#45;2</text>
<text text-anchor="start" x="44.5" y="-288.8" font-family="Times,serif" font-size="14.00"> </text>
<polygon fill="none" stroke="black" points="57.5,-276 57.5,-307 92.5,-307 92.5,-276 57.5,-276"/>
<text text-anchor="start" x="65.5" y="-287.8" font-family="Times,serif" font-size="14.00"> 0 </text>
</g>
<!-- node_3&#45;&gt;node_4 -->
<g id="edge3" class="edge">
<title>node_3:&#45;1,1&#45;&gt;node_4</title>
<path fill="none" stroke="#cd0000" d="M54.5,-376C54.5,-365.81 54.5,-354.78 54.5,-344.56"/>
<polygon fill="#cd0000" stroke="#cd0000" points="58,-344.27 54.5,-334.27 51,-344.27 58,-344.27"/>
</g>
<!-- node_10 -->
<g id="node10" class="node">
<title>node_10</title>
<polygon fill="none" stroke="black" points="110.5,-307 110.5,-334 181.5,-334 181.5,-307 110.5,-307"/>
<text text-anchor="start" x="141" y="-316.8" font-family="Times,serif" font-size="14.00">1</text>
<polygon fill="none" stroke="black" points="110.5,-276 110.5,-307 145.5,-307 145.5,-276 110.5,-276"/>
<text text-anchor="start" x="118.5" y="-287.8" font-family="Times,serif" font-size="14.00"> 0 </text>
<polygon fill="none" stroke="black" points="145.5,-276 145.5,-307 181.5,-307 181.5,-276 145.5,-276"/>
<text text-anchor="start" x="153.5" y="-288.8" font-family="Times,serif" font-size="14.00"> </text>
<text text-anchor="start" x="158.5" y="-288.8" font-family="Times,serif" text-decoration="overline" font-size="14.00">2</text>
<text text-anchor="start" x="168.5" y="-288.8" font-family="Times,serif" font-size="14.00"> </text>
</g>
<!-- node_3&#45;&gt;node_10 -->
<g id="edge11" class="edge">
<title>node_3:1,1&#45;&gt;node_10</title>
<path fill="none" stroke="#0000cd" d="M92.5,-376C92.5,-363.73 97.74,-352.26 104.92,-342.3"/>
<polygon fill="#0000cd" stroke="#0000cd" points="107.81,-344.29 111.34,-334.3 102.35,-339.91 107.81,-344.29"/>
</g>
<!-- node_5 -->
<g id="node5" class="node">
<title>node_5</title>
<polygon fill="none" stroke="black" points="0.5,-213 0.5,-240 71.5,-240 71.5,-213 0.5,-213"/>
<text text-anchor="start" x="29" y="-223.8" font-family="Times,serif" text-decoration="overline" font-size="14.00">&#45;2</text>
<polygon fill="none" stroke="black" points="0.5,-182 0.5,-213 31.5,-213 31.5,-182 0.5,-182"/>
<text text-anchor="start" x="5.5" y="-193.8" font-family="Times,serif" font-size="14.00"> Ø </text>
<polygon fill="none" stroke="black" points="31.5,-182 31.5,-213 71.5,-213 71.5,-182 31.5,-182"/>
<text text-anchor="start" x="39.5" y="-194.8" font-family="Times,serif" font-size="14.00"> </text>
<text text-anchor="start" x="44.5" y="-194.8" font-family="Times,serif" text-decoration="overline" font-size="14.00">&#45;1</text>
<text text-anchor="start" x="58.5" y="-194.8" font-family="Times,serif" font-size="14.00"> </text>
</g>
<!-- node_4&#45;&gt;node_5 -->
<g id="edge4" class="edge">
<title>node_4:&#45;2,1&#45;&gt;node_5</title>
<path fill="none" stroke="#cd0000" d="M37.5,-282C37.5,-271.8 37.29,-260.78 37,-250.55"/>
<polygon fill="#cd0000" stroke="#cd0000" points="40.49,-250.15 36.67,-240.26 33.49,-250.37 40.49,-250.15"/>
</g>
<!-- node_8 -->
<g id="node8" class="node">
<title>node_8</title>
<polygon fill="none" stroke="black" points="89.5,-213 89.5,-240 165.5,-240 165.5,-213 89.5,-213"/>
<text text-anchor="start" x="122.5" y="-222.8" font-family="Times,serif" font-size="14.00">0</text>
<polygon fill="none" stroke="black" points="89.5,-182 89.5,-213 129.5,-213 129.5,-182 89.5,-182"/>
<text text-anchor="start" x="97.5" y="-194.8" font-family="Times,serif" font-size="14.00"> </text>
<text text-anchor="start" x="102.5" y="-194.8" font-family="Times,serif" text-decoration="overline" font-size="14.00">&#45;1</text>
<text text-anchor="start" x="116.5" y="-194.8" font-family="Times,serif" font-size="14.00"> </text>
<polygon fill="none" stroke="black" points="129.5,-182 129.5,-213 165.5,-213 165.5,-182 129.5,-182"/>
<text text-anchor="start" x="137.5" y="-194.8" font-family="Times,serif" font-size="14.00"> </text>
<text text-anchor="start" x="142.5" y="-194.8" font-family="Times,serif" text-decoration="overline" font-size="14.00">1</text>
<text text-anchor="start" x="152.5" y="-194.8" font-family="Times,serif" font-size="14.00"> </text>
</g>
<!-- node_4&#45;&gt;node_8 -->
<g id="edge7" class="edge">
<title>node_4:0,1&#45;&gt;node_8</title>
<path fill="none" stroke="#0000cd" d="M75.5,-282C75.5,-269.7 80.74,-258.16 87.89,-248.13"/>
<polygon fill="#0000cd" stroke="#0000cd" points="90.8,-250.09 94.27,-240.08 85.32,-245.74 90.8,-250.09"/>
</g>
<!-- node_6 -->
<g id="node6" class="node">
<title>node_6</title>
<polygon fill="none" stroke="black" points="52.5,-119 52.5,-146 119.5,-146 119.5,-119 52.5,-119"/>
<text text-anchor="start" x="79" y="-129.8" font-family="Times,serif" text-decoration="overline" font-size="14.00">&#45;1</text>
<polygon fill="none" stroke="black" points="52.5,-88 52.5,-119 83.5,-119 83.5,-88 52.5,-88"/>
<text text-anchor="start" x="57.5" y="-99.8" font-family="Times,serif" font-size="14.00"> Ø </text>
<polygon fill="none" stroke="black" points="83.5,-88 83.5,-119 119.5,-119 119.5,-88 83.5,-88"/>
<text text-anchor="start" x="91.5" y="-100.8" font-family="Times,serif" font-size="14.00"> </text>
<text text-anchor="start" x="96.5" y="-100.8" font-family="Times,serif" text-decoration="overline" font-size="14.00">0</text>
<text text-anchor="start" x="106.5" y="-100.8" font-family="Times,serif" font-size="14.00"> </text>
</g>
<!-- node_5&#45;&gt;node_6 -->
<g id="edge5" class="edge">
<title>node_5:&#45;1,1&#45;&gt;node_6</title>
<path fill="none" stroke="#0000cd" d="M51.5,-188C51.5,-176.73 55.11,-165.36 59.98,-155.17"/>
<polygon fill="#0000cd" stroke="#0000cd" points="63.16,-156.64 64.74,-146.17 56.97,-153.37 63.16,-156.64"/>
</g>
<!-- node_7 -->
<g id="node7" class="node">
<title>node_7</title>
<polygon fill="none" stroke="black" points="97.5,-25 97.5,-52 159.5,-52 159.5,-25 97.5,-25"/>
<text text-anchor="start" x="123.5" y="-35.8" font-family="Times,serif" text-decoration="overline" font-size="14.00">0</text>
<polygon fill="none" stroke="black" points="97.5,0 97.5,-25 128.5,-25 128.5,0 97.5,0"/>
<text text-anchor="start" x="102.5" y="-8.8" font-family="Times,serif" font-size="14.00"> Ø </text>
<polygon fill="none" stroke="black" points="128.5,0 128.5,-25 159.5,-25 159.5,0 128.5,0"/>
<text text-anchor="start" x="133.5" y="-8.8" font-family="Times,serif" font-size="14.00"> Ø </text>
</g>
<!-- node_6&#45;&gt;node_7 -->
<g id="edge6" class="edge">
<title>node_6:0,1&#45;&gt;node_7</title>
<path fill="none" stroke="#0000cd" d="M101.5,-94C101.5,-82.98 104.68,-71.62 108.86,-61.47"/>
<polygon fill="#0000cd" stroke="#0000cd" points="112.15,-62.7 113.11,-52.14 105.78,-59.8 112.15,-62.7"/>
</g>
<!-- node_8&#45;&gt;node_6 -->
<g id="edge8" class="edge">
<title>node_8:&#45;1,1&#45;&gt;node_6</title>
<path fill="none" stroke="#cd0000" d="M109.5,-188C109.5,-177.19 106.91,-165.93 103.43,-155.68"/>
<polygon fill="#cd0000" stroke="#cd0000" points="106.67,-154.34 99.88,-146.21 100.11,-156.8 106.67,-154.34"/>
</g>
<!-- node_9 -->
<g id="node9" class="node">
<title>node_9</title>
<polygon fill="none" stroke="black" points="137.5,-119 137.5,-146 204.5,-146 204.5,-119 137.5,-119"/>
<text text-anchor="start" x="166" y="-129.8" font-family="Times,serif" text-decoration="overline" font-size="14.00">1</text>
<polygon fill="none" stroke="black" points="137.5,-88 137.5,-119 173.5,-119 173.5,-88 137.5,-88"/>
<text text-anchor="start" x="145.5" y="-100.8" font-family="Times,serif" font-size="14.00"> </text>
<text text-anchor="start" x="150.5" y="-100.8" font-family="Times,serif" text-decoration="overline" font-size="14.00">0</text>
<text text-anchor="start" x="160.5" y="-100.8" font-family="Times,serif" font-size="14.00"> </text>
<polygon fill="none" stroke="black" points="173.5,-88 173.5,-119 204.5,-119 204.5,-88 173.5,-88"/>
<text text-anchor="start" x="178.5" y="-99.8" font-family="Times,serif" font-size="14.00"> Ø </text>
</g>
<!-- node_8&#45;&gt;node_9 -->
<g id="edge9" class="edge">
<title>node_8:1,1&#45;&gt;node_9</title>
<path fill="none" stroke="#0000cd" d="M147.5,-188C147.5,-177.24 149.98,-165.99 153.32,-155.74"/>
<polygon fill="#0000cd" stroke="#0000cd" points="156.63,-156.86 156.72,-146.27 150.05,-154.49 156.63,-156.86"/>
</g>
<!-- node_9&#45;&gt;node_7 -->
<g id="edge10" class="edge">
<title>node_9:0,1&#45;&gt;node_7</title>
<path fill="none" stroke="#cd0000" d="M155.5,-94C155.5,-82.98 152.32,-71.62 148.14,-61.47"/>
<polygon fill="#cd0000" stroke="#cd0000" points="151.22,-59.8 143.89,-52.14 144.85,-62.7 151.22,-59.8"/>
</g>
<!-- node_10&#45;&gt;node_8 -->
<g id="edge12" class="edge">
<title>node_10:0,1&#45;&gt;node_8</title>
<path fill="none" stroke="#cd0000" d="M127.5,-282C127.5,-271.81 127.5,-260.78 127.5,-250.56"/>
<polygon fill="#cd0000" stroke="#cd0000" points="131,-250.27 127.5,-240.27 124,-250.27 131,-250.27"/>
</g>
<!-- node_11 -->
<g id="node11" class="node">
<title>node_11</title>
<polygon fill="none" stroke="black" points="184.5,-213 184.5,-240 251.5,-240 251.5,-213 184.5,-213"/>
<text text-anchor="start" x="213" y="-223.8" font-family="Times,serif" text-decoration="overline" font-size="14.00">2</text>
<polygon fill="none" stroke="black" points="184.5,-182 184.5,-213 220.5,-213 220.5,-182 184.5,-182"/>
<text text-anchor="start" x="192.5" y="-194.8" font-family="Times,serif" font-size="14.00"> </text>
<text text-anchor="start" x="197.5" y="-194.8" font-family="Times,serif" text-decoration="overline" font-size="14.00">1</text>
<text text-anchor="start" x="207.5" y="-194.8" font-family="Times,serif" font-size="14.00"> </text>
<polygon fill="none" stroke="black" points="220.5,-182 220.5,-213 251.5,-213 251.5,-182 220.5,-182"/>
<text text-anchor="start" x="225.5" y="-193.8" font-family="Times,serif" font-size="14.00"> Ø </text>
</g>
<!-- node_10&#45;&gt;node_11 -->
<g id="edge13" class="edge">
<title>node_10:2,1&#45;&gt;node_11</title>
<path fill="none" stroke="#0000cd" d="M163.5,-282C163.5,-269.04 169.37,-257.02 177.25,-246.72"/>
<polygon fill="#0000cd" stroke="#0000cd" points="180.12,-248.74 183.92,-238.85 174.78,-244.21 180.12,-248.74"/>
</g>
<!-- node_11&#45;&gt;node_9 -->
<g id="edge14" class="edge">
<title>node_11:1,1&#45;&gt;node_9</title>
<path fill="none" stroke="#cd0000" d="M202.5,-188C202.5,-176.85 199.1,-165.53 194.52,-155.34"/>
<polygon fill="#cd0000" stroke="#cd0000" points="197.62,-153.72 190.04,-146.33 191.35,-156.84 197.62,-153.72"/>
</g>
<!-- node_12&#45;&gt;node_10 -->
<g id="edge16" class="edge">
<title>node_12:1,1&#45;&gt;node_10</title>
<path fill="none" stroke="#cd0000" d="M145.5,-376C145.5,-365.81 145.5,-354.78 145.5,-344.56"/>
<polygon fill="#cd0000" stroke="#cd0000" points="149,-344.27 145.5,-334.27 142,-344.27 149,-344.27"/>
</g>
<!-- node_13 -->
<g id="node13" class="node">
<title>node_13</title>
<polygon fill="none" stroke="black" points="199.5,-307 199.5,-334 266.5,-334 266.5,-307 199.5,-307"/>
<text text-anchor="start" x="228" y="-317.8" font-family="Times,serif" text-decoration="overline" font-size="14.00">3</text>
<polygon fill="none" stroke="black" points="199.5,-276 199.5,-307 235.5,-307 235.5,-276 199.5,-276"/>
<text text-anchor="start" x="207.5" y="-288.8" font-family="Times,serif" font-size="14.00"> </text>
<text text-anchor="start" x="212.5" y="-288.8" font-family="Times,serif" text-decoration="overline" font-size="14.00">2</text>
<text text-anchor="start" x="222.5" y="-288.8" font-family="Times,serif" font-size="14.00"> </text>
<polygon fill="none" stroke="black" points="235.5,-276 235.5,-307 266.5,-307 266.5,-276 235.5,-276"/>
<text text-anchor="start" x="240.5" y="-287.8" font-family="Times,serif" font-size="14.00"> Ø </text>
</g>
<!-- node_12&#45;&gt;node_13 -->
<g id="edge17" class="edge">
<title>node_12:3,1&#45;&gt;node_13</title>
<path fill="none" stroke="#0000cd" d="M181.5,-376C181.5,-363.78 186.64,-352.27 193.65,-342.24"/>
<polygon fill="#0000cd" stroke="#0000cd" points="196.54,-344.23 199.91,-334.19 191.01,-339.94 196.54,-344.23"/>
</g>
<!-- node_13&#45;&gt;node_11 -->
<g id="edge18" class="edge">
<title>node_13:2,1&#45;&gt;node_11</title>
<path fill="none" stroke="#cd0000" d="M217.5,-282C217.5,-271.81 217.5,-260.78 217.5,-250.56"/>
<polygon fill="#cd0000" stroke="#cd0000" points="221,-250.27 217.5,-240.27 214,-250.27 221,-250.27"/>
</g>
<!-- node_14&#45;&gt;node_12 -->
<g id="edge20" class="edge">
<title>node_14:2,1&#45;&gt;node_12</title>
<path fill="none" stroke="#cd0000" d="M188.5,-470C188.5,-459.15 185.8,-447.87 182.18,-437.61"/>
<polygon fill="#cd0000" stroke="#cd0000" points="185.38,-436.19 178.48,-428.15 178.86,-438.73 185.38,-436.19"/>
</g>
<!-- node_15 -->
<g id="node15" class="node">
<title>node_15</title>
<polygon fill="none" stroke="black" points="217.5,-401 217.5,-428 284.5,-428 284.5,-401 217.5,-401"/>
<text text-anchor="start" x="246" y="-411.8" font-family="Times,serif" text-decoration="overline" font-size="14.00">4</text>
<polygon fill="none" stroke="black" points="217.5,-370 217.5,-401 253.5,-401 253.5,-370 217.5,-370"/>
<text text-anchor="start" x="225.5" y="-382.8" font-family="Times,serif" font-size="14.00"> </text>
<text text-anchor="start" x="230.5" y="-382.8" font-family="Times,serif" text-decoration="overline" font-size="14.00">3</text>
<text text-anchor="start" x="240.5" y="-382.8" font-family="Times,serif" font-size="14.00"> </text>
<polygon fill="none" stroke="black" points="253.5,-370 253.5,-401 284.5,-401 284.5,-370 253.5,-370"/>
<text text-anchor="start" x="258.5" y="-381.8" font-family="Times,serif" font-size="14.00"> Ø </text>
</g>
<!-- node_14&#45;&gt;node_15 -->
<g id="edge21" class="edge">
<title>node_14:4,1&#45;&gt;node_15</title>
<path fill="none" stroke="#0000cd" d="M224.5,-470C224.5,-459.1 227.31,-447.8 231.08,-437.55"/>
<polygon fill="#0000cd" stroke="#0000cd" points="234.4,-438.66 234.93,-428.08 227.92,-436.03 234.4,-438.66"/>
</g>
<!-- node_15&#45;&gt;node_13 -->
<g id="edge22" class="edge">
<title>node_15:3,1&#45;&gt;node_13</title>
<path fill="none" stroke="#cd0000" d="M235.5,-376C235.5,-365.8 235.18,-354.77 234.75,-344.55"/>
<polygon fill="#cd0000" stroke="#cd0000" points="238.23,-344.08 234.26,-334.26 231.23,-344.41 238.23,-344.08"/>
</g>
</g>
</svg>
