<?xml version="1.0" encoding="UTF-8" standalone="no"?>
<!DOCTYPE svg PUBLIC "-//W3C//DTD SVG 1.1//EN"
 "http://www.w3.org/Graphics/SVG/1.1/DTD/svg11.dtd">
<!-- Generated by graphviz version 2.43.0 (0)
 -->
<!-- Title: 1.0 Pages: 1 -->
<svg width="369pt" height="718pt"
 viewBox="0.00 0.00 369.00 718.00" xmlns="http://www.w3.org/2000/svg" xmlns:xlink="http://www.w3.org/1999/xlink">
<g id="graph0" class="graph" transform="scale(1 1) rotate(0) translate(4 714)">
<title>1.0</title>
<polygon fill="white" stroke="transparent" points="-4,4 -4,-714 365,-714 365,4 -4,4"/>
<!-- node_1 -->
<g id="node1" class="node">
<title>node_1</title>
<polygon fill="none" stroke="black" points="158.5,-683 158.5,-710 228.5,-710 228.5,-683 158.5,-683"/>
<text text-anchor="start" x="188.5" y="-692.8" font-family="Times,serif" font-size="14.00">1</text>
<polygon fill="none" stroke="black" points="158.5,-652 158.5,-683 193.5,-683 193.5,-652 158.5,-652"/>
<text text-anchor="start" x="166.5" y="-663.8" font-family="Times,serif" font-size="14.00"> 0 </text>
<polygon fill="none" stroke="black" points="193.5,-652 193.5,-683 228.5,-683 228.5,-652 193.5,-652"/>
<text text-anchor="start" x="201.5" y="-663.8" font-family="Times,serif" font-size="14.00"> 2 </text>
</g>
<!-- node_2 -->
<g id="node2" class="node">
<title>node_2</title>
<polygon fill="none" stroke="black" points="111.5,-589 111.5,-616 185.5,-616 185.5,-589 111.5,-589"/>
<text text-anchor="start" x="143.5" y="-598.8" font-family="Times,serif" font-size="14.00">0</text>
<polygon fill="none" stroke="black" points="111.5,-558 111.5,-589 150.5,-589 150.5,-558 111.5,-558"/>
<text text-anchor="start" x="119.5" y="-569.8" font-family="Times,serif" font-size="14.00"> &#45;1 </text>
<polygon fill="none" stroke="black" points="150.5,-558 150.5,-589 185.5,-589 185.5,-558 150.5,-558"/>
<text text-anchor="start" x="158.5" y="-569.8" font-family="Times,serif" font-size="14.00"> 1 </text>
</g>
<!-- node_1&#45;&gt;node_2 -->
<g id="edge1" class="edge">
<title>node_1:0,1&#45;&gt;node_2</title>
<path fill="none" stroke="#cd0000" d="M175.5,-658C175.5,-647.04 172.58,-635.73 168.67,-625.48"/>
<polygon fill="#cd0000" stroke="#cd0000" points="171.79,-623.87 164.67,-616.02 165.34,-626.59 171.79,-623.87"/>
</g>
<!-- node_18 -->
<g id="node18" class="node">
<title>node_18</title>
<polygon fill="none" stroke="black" points="203.5,-589 203.5,-616 273.5,-616 273.5,-589 203.5,-589"/>
<text text-anchor="start" x="233.5" y="-598.8" font-family="Times,serif" font-size="14.00">2</text>
<polygon fill="none" stroke="black" points="203.5,-558 203.5,-589 238.5,-589 238.5,-558 203.5,-558"/>
<text text-anchor="start" x="211.5" y="-569.8" font-family="Times,serif" font-size="14.00"> 1 </text>
<polygon fill="none" stroke="black" points="238.5,-558 238.5,-589 273.5,-589 273.5,-558 238.5,-558"/>
<text text-anchor="start" x="246.5" y="-569.8" font-family="Times,serif" font-size="14.00"> 3 </text>
</g>
<!-- node_1&#45;&gt;node_18 -->
<g id="edge26" class="edge">
<title>node_1:2,1&#45;&gt;node_18</title>
<path fill="none" stroke="#0000cd" d="M211.5,-658C211.5,-647.04 214.42,-635.73 218.33,-625.48"/>
<polygon fill="#0000cd" stroke="#0000cd" points="221.66,-626.59 222.33,-616.02 215.21,-623.87 221.66,-626.59"/>
</g>
<!-- node_3 -->
<g id="node3" class="node">
<title>node_3</title>
<polygon fill="none" stroke="black" points="67.5,-495 67.5,-522 141.5,-522 141.5,-495 67.5,-495"/>
<text text-anchor="start" x="97.5" y="-504.8" font-family="Times,serif" font-size="14.00">&#45;1</text>
<polygon fill="none" stroke="black" points="67.5,-464 67.5,-495 106.5,-495 106.5,-464 67.5,-464"/>
<text text-anchor="start" x="75.5" y="-475.8" font-family="Times,serif" font-size="14.00"> &#45;2 </text>
<polygon fill="none" stroke="black" points="106.5,-464 106.5,-495 141.5,-495 141.5,-464 106.5,-464"/>
<text text-anchor="start" x="114.5" y="-475.8" font-family="Times,serif" font-size="14.00"> 0 </text>
</g>
<!-- node_2&#45;&gt;node_3 -->
<g id="edge2" class="edge">
<title>node_2:&#45;1,1&#45;&gt;node_3</title>
<path fill="none" stroke="#cd0000" d="M130.5,-564C130.5,-553.1 127.69,-541.8 123.92,-531.55"/>
<polygon fill="#cd0000" stroke="#cd0000" points="127.08,-530.03 120.07,-522.08 120.6,-532.66 127.08,-530.03"/>
</g>
<!-- node_15 -->
<g id="node15" class="node">
<title>node_15</title>
<polygon fill="none" stroke="black" points="159.5,-495 159.5,-522 229.5,-522 229.5,-495 159.5,-495"/>
<text text-anchor="start" x="189.5" y="-504.8" font-family="Times,serif" font-size="14.00">1</text>
<polygon fill="none" stroke="black" points="159.5,-464 159.5,-495 194.5,-495 194.5,-464 159.5,-464"/>
<text text-anchor="start" x="167.5" y="-475.8" font-family="Times,serif" font-size="14.00"> 0 </text>
<polygon fill="none" stroke="black" points="194.5,-464 194.5,-495 229.5,-495 229.5,-464 194.5,-464"/>
<text text-anchor="start" x="202.5" y="-475.8" font-family="Times,serif" font-size="14.00"> 2 </text>
</g>
<!-- node_2&#45;&gt;node_15 -->
<g id="edge20" class="edge">
<title>node_2:1,1&#45;&gt;node_15</title>
<path fill="none" stroke="#0000cd" d="M168.5,-564C168.5,-553.1 171.31,-541.8 175.08,-531.55"/>
<polygon fill="#0000cd" stroke="#0000cd" points="178.4,-532.66 178.93,-522.08 171.92,-530.03 178.4,-532.66"/>
</g>
<!-- node_4 -->
<g id="node4" class="node">
<title>node_4</title>
<polygon fill="none" stroke="black" points="15.5,-401 15.5,-428 94.5,-428 94.5,-401 15.5,-401"/>
<text text-anchor="start" x="48" y="-410.8" font-family="Times,serif" font-size="14.00">&#45;2</text>
<polygon fill="none" stroke="black" points="15.5,-370 15.5,-401 55.5,-401 55.5,-370 15.5,-370"/>
<text text-anchor="start" x="23.5" y="-382.8" font-family="Times,serif" font-size="14.00"> </text>
<text text-anchor="start" x="28.5" y="-382.8" font-family="Times,serif" text-decoration="overline" font-size="14.00">&#45;3</text>
<text text-anchor="start" x="42.5" y="-382.8" font-family="Times,serif" font-size="14.00"> </text>
<polygon fill="none" stroke="black" points="55.5,-370 55.5,-401 94.5,-401 94.5,-370 55.5,-370"/>
<text text-anchor="start" x="63.5" y="-381.8" font-family="Times,serif" font-size="14.00"> &#45;1 </text>
</g>
<!-- node_3&#45;&gt;node_4 -->
<g id="edge3" class="edge">
<title>node_3:&#45;2,1&#45;&gt;node_4</title>
<path fill="none" stroke="#cd0000" d="M86.5,-470C86.5,-458.85 83.1,-447.53 78.52,-437.34"/>
<polygon fill="#cd0000" stroke="#cd0000" points="81.62,-435.72 74.04,-428.33 75.35,-438.84 81.62,-435.72"/>
</g>
<!-- node_12 -->
<g id="node12" class="node">
<title>node_12</title>
<polygon fill="none" stroke="black" points="112.5,-401 112.5,-428 186.5,-428 186.5,-401 112.5,-401"/>
<text text-anchor="start" x="144.5" y="-410.8" font-family="Times,serif" font-size="14.00">0</text>
<polygon fill="none" stroke="black" points="112.5,-370 112.5,-401 151.5,-401 151.5,-370 112.5,-370"/>
<text text-anchor="start" x="120.5" y="-381.8" font-family="Times,serif" font-size="14.00"> &#45;1 </text>
<polygon fill="none" stroke="black" points="151.5,-370 151.5,-401 186.5,-401 186.5,-370 151.5,-370"/>
<text text-anchor="start" x="159.5" y="-381.8" font-family="Times,serif" font-size="14.00"> 1 </text>
</g>
<!-- node_3&#45;&gt;node_12 -->
<g id="edge14" class="edge">
<title>node_3:0,1&#45;&gt;node_12</title>
<path fill="none" stroke="#0000cd" d="M124.5,-470C124.5,-459.15 127.2,-447.87 130.82,-437.61"/>
<polygon fill="#0000cd" stroke="#0000cd" points="134.14,-438.73 134.52,-428.15 127.62,-436.19 134.14,-438.73"/>
</g>
<!-- node_5 -->
<g id="node5" class="node">
<title>node_5</title>
<polygon fill="none" stroke="black" points="0.5,-307 0.5,-334 71.5,-334 71.5,-307 0.5,-307"/>
<text text-anchor="start" x="29" y="-317.8" font-family="Times,serif" text-decoration="overline" font-size="14.00">&#45;3</text>
<polygon fill="none" stroke="black" points="0.5,-276 0.5,-307 31.5,-307 31.5,-276 0.5,-276"/>
<text text-anchor="start" x="5.5" y="-287.8" font-family="Times,serif" font-size="14.00"> Ø </text>
<polygon fill="none" stroke="black" points="31.5,-276 31.5,-307 71.5,-307 71.5,-276 31.5,-276"/>
<text text-anchor="start" x="39.5" y="-288.8" font-family="Times,serif" font-size="14.00"> </text>
<text text-anchor="start" x="44.5" y="-288.8" font-family="Times,serif" text-decoration="overline" font-size="14.00">&#45;2</text>
<text text-anchor="start" x="58.5" y="-288.8" font-family="Times,serif" font-size="14.00"> </text>
</g>
<!-- node_4&#45;&gt;node_5 -->
<g id="edge4" class="edge">
<title>node_4:&#45;3,1&#45;&gt;node_5</title>
<path fill="none" stroke="#cd0000" d="M35.5,-376C35.5,-365.81 35.5,-354.78 35.5,-344.56"/>
<polygon fill="#cd0000" stroke="#cd0000" points="39,-344.27 35.5,-334.27 32,-344.27 39,-344.27"/>
</g>
<!-- node_9 -->
<g id="node9" class="node">
<title>node_9</title>
<polygon fill="none" stroke="black" points="89.5,-307 89.5,-334 164.5,-334 164.5,-307 89.5,-307"/>
<text text-anchor="start" x="120" y="-316.8" font-family="Times,serif" font-size="14.00">&#45;1</text>
<polygon fill="none" stroke="black" points="89.5,-276 89.5,-307 129.5,-307 129.5,-276 89.5,-276"/>
<text text-anchor="start" x="97.5" y="-288.8" font-family="Times,serif" font-size="14.00"> </text>
<text text-anchor="start" x="102.5" y="-288.8" font-family="Times,serif" text-decoration="overline" font-size="14.00">&#45;2</text>
<text text-anchor="start" x="116.5" y="-288.8" font-family="Times,serif" font-size="14.00"> </text>
<polygon fill="none" stroke="black" points="129.5,-276 129.5,-307 164.5,-307 164.5,-276 129.5,-276"/>
<text text-anchor="start" x="137.5" y="-287.8" font-family="Times,serif" font-size="14.00"> 0 </text>
</g>
<!-- node_4&#45;&gt;node_9 -->
<g id="edge8" class="edge">
<title>node_4:&#45;1,1&#45;&gt;node_9</title>
<path fill="none" stroke="#0000cd" d="M75.5,-376C75.5,-363.78 80.64,-352.27 87.65,-342.24"/>
<polygon fill="#0000cd" stroke="#0000cd" points="90.54,-344.23 93.91,-334.19 85.01,-339.94 90.54,-344.23"/>
</g>
<!-- node_6 -->
<g id="node6" class="node">
<title>node_6</title>
<polygon fill="none" stroke="black" points="46.5,-213 46.5,-240 117.5,-240 117.5,-213 46.5,-213"/>
<text text-anchor="start" x="75" y="-223.8" font-family="Times,serif" text-decoration="overline" font-size="14.00">&#45;2</text>
<polygon fill="none" stroke="black" points="46.5,-182 46.5,-213 77.5,-213 77.5,-182 46.5,-182"/>
<text text-anchor="start" x="51.5" y="-193.8" font-family="Times,serif" font-size="14.00"> Ø </text>
<polygon fill="none" stroke="black" points="77.5,-182 77.5,-213 117.5,-213 117.5,-182 77.5,-182"/>
<text text-anchor="start" x="85.5" y="-194.8" font-family="Times,serif" font-size="14.00"> </text>
<text text-anchor="start" x="90.5" y="-194.8" font-family="Times,serif" text-decoration="overline" font-size="14.00">&#45;1</text>
<text text-anchor="start" x="104.5" y="-194.8" font-family="Times,serif" font-size="14.00"> </text>
</g>
<!-- node_5&#45;&gt;node_6 -->
<g id="edge5" class="edge">
<title>node_5:&#45;2,1&#45;&gt;node_6</title>
<path fill="none" stroke="#0000cd" d="M51.5,-282C51.5,-270.86 54.75,-259.48 59.1,-249.22"/>
<polygon fill="#0000cd" stroke="#0000cd" points="62.28,-250.68 63.36,-240.14 55.94,-247.71 62.28,-250.68"/>
</g>
<!-- node_7 -->
<g id="node7" class="node">
<title>node_7</title>
<polygon fill="none" stroke="black" points="98.5,-119 98.5,-146 165.5,-146 165.5,-119 98.5,-119"/>
<text text-anchor="start" x="125" y="-129.8" font-family="Times,serif" text-decoration="overline" font-size="14.00">&#45;1</text>
<polygon fill="none" stroke="black" points="98.5,-88 98.5,-119 129.5,-119 129.5,-88 98.5,-88"/>
<text text-anchor="start" x="103.5" y="-99.8" font-family="Times,serif" font-size="14.00"> Ø </text>
<polygon fill="none" stroke="black" points="129.5,-88 129.5,-119 165.5,-119 165.5,-88 129.5,-88"/>
<text text-anchor="start" x="137.5" y="-100.8" font-family="Times,serif" font-size="14.00"> </text>
<text text-anchor="start" x="142.5" y="-100.8" font-family="Times,serif" text-decoration="overline" font-size="14.00">0</text>
<text text-anchor="start" x="152.5" y="-100.8" font-family="Times,serif" font-size="14.00"> </text>
</g>
<!-- node_6&#45;&gt;node_7 -->
<g id="edge6" class="edge">
<title>node_6:&#45;1,1&#45;&gt;node_7</title>
<path fill="none" stroke="#0000cd" d="M97.5,-188C97.5,-176.73 101.11,-165.36 105.98,-155.17"/>
<polygon fill="#0000cd" stroke="#0000cd" points="109.16,-156.64 110.74,-146.17 102.97,-153.37 109.16,-156.64"/>
</g>
<!-- node_8 -->
<g id="node8" class="node">
<title>node_8</title>
<polygon fill="none" stroke="black" points="143.5,-25 143.5,-52 205.5,-52 205.5,-25 143.5,-25"/>
<text text-anchor="start" x="169.5" y="-35.8" font-family="Times,serif" text-decoration="overline" font-size="14.00">0</text>
<polygon fill="none" stroke="black" points="143.5,0 143.5,-25 174.5,-25 174.5,0 143.5,0"/>
<text text-anchor="start" x="148.5" y="-8.8" font-family="Times,serif" font-size="14.00"> Ø </text>
<polygon fill="none" stroke="black" points="174.5,0 174.5,-25 205.5,-25 205.5,0 174.5,0"/>
<text text-anchor="start" x="179.5" y="-8.8" font-family="Times,serif" font-size="14.00"> Ø </text>
</g>
<!-- node_7&#45;&gt;node_8 -->
<g id="edge7" class="edge">
<title>node_7:0,1&#45;&gt;node_8</title>
<path fill="none" stroke="#0000cd" d="M147.5,-94C147.5,-82.98 150.68,-71.62 154.86,-61.47"/>
<polygon fill="#0000cd" stroke="#0000cd" points="158.15,-62.7 159.11,-52.14 151.78,-59.8 158.15,-62.7"/>
</g>
<!-- node_9&#45;&gt;node_6 -->
<g id="edge9" class="edge">
<title>node_9:&#45;2,1&#45;&gt;node_6</title>
<path fill="none" stroke="#cd0000" d="M109.5,-282C109.5,-271.09 106.53,-259.86 102.53,-249.68"/>
<polygon fill="#cd0000" stroke="#cd0000" points="105.64,-248.06 98.43,-240.29 99.22,-250.85 105.64,-248.06"/>
</g>
<!-- node_10 -->
<g id="node10" class="node">
<title>node_10</title>
<polygon fill="none" stroke="black" points="135.5,-213 135.5,-240 211.5,-240 211.5,-213 135.5,-213"/>
<text text-anchor="start" x="168.5" y="-222.8" font-family="Times,serif" font-size="14.00">0</text>
<polygon fill="none" stroke="black" points="135.5,-182 135.5,-213 175.5,-213 175.5,-182 135.5,-182"/>
<text text-anchor="start" x="143.5" y="-194.8" font-family="Times,serif" font-size="14.00"> </text>
<text text-anchor="start" x="148.5" y="-194.8" font-family="Times,serif" text-decoration="overline" font-size="14.00">&#45;1</text>
<text text-anchor="start" x="162.5" y="-194.8" font-family="Times,serif" font-size="14.00"> </text>
<polygon fill="none" stroke="black" points="175.5,-182 175.5,-213 211.5,-213 211.5,-182 175.5,-182"/>
<text text-anchor="start" x="183.5" y="-194.8" font-family="Times,serif" font-size="14.00"> </text>
<text text-anchor="start" x="188.5" y="-194.8" font-family="Times,serif" text-decoration="overline" font-size="14.00">1</text>
<text text-anchor="start" x="198.5" y="-194.8" font-family="Times,serif" font-size="14.00"> </text>
</g>
<!-- node_9&#45;&gt;node_10 -->
<g id="edge10" class="edge">
<title>node_9:0,1&#45;&gt;node_10</title>
<path fill="none" stroke="#0000cd" d="M147.5,-282C147.5,-271.1 150.31,-259.8 154.08,-249.55"/>
<polygon fill="#0000cd" stroke="#0000cd" points="157.4,-250.66 157.93,-240.08 150.92,-248.03 157.4,-250.66"/>
</g>
<!-- node_10&#45;&gt;node_7 -->
<g id="edge11" class="edge">
<title>node_10:&#45;1,1&#45;&gt;node_7</title>
<path fill="none" stroke="#cd0000" d="M155.5,-188C155.5,-177.19 152.91,-165.93 149.43,-155.68"/>
<polygon fill="#cd0000" stroke="#cd0000" points="152.67,-154.34 145.88,-146.21 146.11,-156.8 152.67,-154.34"/>
</g>
<!-- node_11 -->
<g id="node11" class="node">
<title>node_11</title>
<polygon fill="none" stroke="black" points="183.5,-119 183.5,-146 250.5,-146 250.5,-119 183.5,-119"/>
<text text-anchor="start" x="212" y="-129.8" font-family="Times,serif" text-decoration="overline" font-size="14.00">1</text>
<polygon fill="none" stroke="black" points="183.5,-88 183.5,-119 219.5,-119 219.5,-88 183.5,-88"/>
<text text-anchor="start" x="191.5" y="-100.8" font-family="Times,serif" font-size="14.00"> </text>
<text text-anchor="start" x="196.5" y="-100.8" font-family="Times,serif" text-decoration="overline" font-size="14.00">0</text>
<text text-anchor="start" x="206.5" y="-100.8" font-family="Times,serif" font-size="14.00"> </text>
<polygon fill="none" stroke="black" points="219.5,-88 219.5,-119 250.5,-119 250.5,-88 219.5,-88"/>
<text text-anchor="start" x="224.5" y="-99.8" font-family="Times,serif" font-size="14.00"> Ø </text>
</g>
<!-- node_10&#45;&gt;node_11 -->
<g id="edge12" class="edge">
<title>node_10:1,1&#45;&gt;node_11</title>
<path fill="none" stroke="#0000cd" d="M193.5,-188C193.5,-177.24 195.98,-165.99 199.32,-155.74"/>
<polygon fill="#0000cd" stroke="#0000cd" points="202.63,-156.86 202.72,-146.27 196.05,-154.49 202.63,-156.86"/>
</g>
<!-- node_11&#45;&gt;node_8 -->
<g id="edge13" class="edge">
<title>node_11:0,1&#45;&gt;node_8</title>
<path fill="none" stroke="#cd0000" d="M201.5,-94C201.5,-82.98 198.32,-71.62 194.14,-61.47"/>
<polygon fill="#cd0000" stroke="#cd0000" points="197.22,-59.8 189.89,-52.14 190.85,-62.7 197.22,-59.8"/>
</g>
<!-- node_12&#45;&gt;node_9 -->
<g id="edge15" class="edge">
<title>node_12:&#45;1,1&#45;&gt;node_9</title>
<path fill="none" stroke="#cd0000" d="M131.5,-376C131.5,-365.78 130.96,-354.75 130.24,-344.52"/>
<polygon fill="#cd0000" stroke="#cd0000" points="133.71,-343.93 129.44,-334.24 126.73,-344.48 133.71,-343.93"/>
</g>
<!-- node_13 -->
<g id="node13" class="node">
<title>node_13</title>
<polygon fill="none" stroke="black" points="182.5,-307 182.5,-334 253.5,-334 253.5,-307 182.5,-307"/>
<text text-anchor="start" x="213" y="-316.8" font-family="Times,serif" font-size="14.00">1</text>
<polygon fill="none" stroke="black" points="182.5,-276 182.5,-307 217.5,-307 217.5,-276 182.5,-276"/>
<text text-anchor="start" x="190.5" y="-287.8" font-family="Times,serif" font-size="14.00"> 0 </text>
<polygon fill="none" stroke="black" points="217.5,-276 217.5,-307 253.5,-307 253.5,-276 217.5,-276"/>
<text text-anchor="start" x="225.5" y="-288.8" font-family="Times,serif" font-size="14.00"> </text>
<text text-anchor="start" x="230.5" y="-288.8" font-family="Times,serif" text-decoration="overline" font-size="14.00">2</text>
<text text-anchor="start" x="240.5" y="-288.8" font-family="Times,serif" font-size="14.00"> </text>
</g>
<!-- node_12&#45;&gt;node_13 -->
<g id="edge16" class="edge">
<title>node_12:1,1&#45;&gt;node_13</title>
<path fill="none" stroke="#0000cd" d="M169.5,-376C169.5,-363.91 174.43,-352.38 181.13,-342.3"/>
<polygon fill="#0000cd" stroke="#0000cd" points="183.99,-344.31 187.1,-334.18 178.35,-340.16 183.99,-344.31"/>
</g>
<!-- node_13&#45;&gt;node_10 -->
<g id="edge17" class="edge">
<title>node_13:0,1&#45;&gt;node_10</title>
<path fill="none" stroke="#cd0000" d="M199.5,-282C199.5,-271.1 196.69,-259.8 192.92,-249.55"/>
<polygon fill="#cd0000" stroke="#cd0000" points="196.08,-248.03 189.07,-240.08 189.6,-250.66 196.08,-248.03"/>
</g>
<!-- node_14 -->
<g id="node14" class="node">
<title>node_14</title>
<polygon fill="none" stroke="black" points="230.5,-213 230.5,-240 297.5,-240 297.5,-213 230.5,-213"/>
<text text-anchor="start" x="259" y="-223.8" font-family="Times,serif" text-decoration="overline" font-size="14.00">2</text>
<polygon fill="none" stroke="black" points="230.5,-182 230.5,-213 266.5,-213 266.5,-182 230.5,-182"/>
<text text-anchor="start" x="238.5" y="-194.8" font-family="Times,serif" font-size="14.00"> </text>
<text text-anchor="start" x="243.5" y="-194.8" font-family="Times,serif" text-decoration="overline" font-size="14.00">1</text>
<text text-anchor="start" x="253.5" y="-194.8" font-family="Times,serif" font-size="14.00"> </text>
<polygon fill="none" stroke="black" points="266.5,-182 266.5,-213 297.5,-213 297.5,-182 266.5,-182"/>
<text text-anchor="start" x="271.5" y="-193.8" font-family="Times,serif" font-size="14.00"> Ø </text>
</g>
<!-- node_13&#45;&gt;node_14 -->
<g id="edge18" class="edge">
<title>node_13:2,1&#45;&gt;node_14</title>
<path fill="none" stroke="#0000cd" d="M235.5,-282C235.5,-271.09 238.47,-259.86 242.47,-249.68"/>
<polygon fill="#0000cd" stroke="#0000cd" points="245.78,-250.85 246.57,-240.29 239.36,-248.06 245.78,-250.85"/>
</g>
<!-- node_14&#45;&gt;node_11 -->
<g id="edge19" class="edge">
<title>node_14:1,1&#45;&gt;node_11</title>
<path fill="none" stroke="#cd0000" d="M248.5,-188C248.5,-176.85 245.1,-165.53 240.52,-155.34"/>
<polygon fill="#cd0000" stroke="#cd0000" points="243.62,-153.72 236.04,-146.33 237.35,-156.84 243.62,-153.72"/>
</g>
<!-- node_15&#45;&gt;node_12 -->
<g id="edge21" class="edge">
<title>node_15:0,1&#45;&gt;node_12</title>
<path fill="none" stroke="#cd0000" d="M176.5,-470C176.5,-459.04 173.58,-447.73 169.67,-437.48"/>
<polygon fill="#cd0000" stroke="#cd0000" points="172.79,-435.87 165.67,-428.02 166.34,-438.59 172.79,-435.87"/>
</g>
<!-- node_16 -->
<g id="node16" class="node">
<title>node_16</title>
<polygon fill="none" stroke="black" points="205.5,-401 205.5,-428 276.5,-428 276.5,-401 205.5,-401"/>
<text text-anchor="start" x="236" y="-410.8" font-family="Times,serif" font-size="14.00">2</text>
<polygon fill="none" stroke="black" points="205.5,-370 205.5,-401 240.5,-401 240.5,-370 205.5,-370"/>
<text text-anchor="start" x="213.5" y="-381.8" font-family="Times,serif" font-size="14.00"> 1 </text>
<polygon fill="none" stroke="black" points="240.5,-370 240.5,-401 276.5,-401 276.5,-370 240.5,-370"/>
<text text-anchor="start" x="248.5" y="-382.8" font-family="Times,serif" font-size="14.00"> </text>
<text text-anchor="start" x="253.5" y="-382.8" font-family="Times,serif" text-decoration="overline" font-size="14.00">3</text>
<text text-anchor="start" x="263.5" y="-382.8" font-family="Times,serif" font-size="14.00"> </text>
</g>
<!-- node_15&#45;&gt;node_16 -->
<g id="edge22" class="edge">
<title>node_15:2,1&#45;&gt;node_16</title>
<path fill="none" stroke="#0000cd" d="M212.5,-470C212.5,-459.09 215.47,-447.86 219.47,-437.68"/>
<polygon fill="#0000cd" stroke="#0000cd" points="222.78,-438.85 223.57,-428.29 216.36,-436.06 222.78,-438.85"/>
</g>
<!-- node_16&#45;&gt;node_13 -->
<g id="edge23" class="edge">
<title>node_16:1,1&#45;&gt;node_13</title>
<path fill="none" stroke="#cd0000" d="M222.5,-376C222.5,-365.78 221.96,-354.75 221.24,-344.52"/>
<polygon fill="#cd0000" stroke="#cd0000" points="224.71,-343.93 220.44,-334.24 217.73,-344.48 224.71,-343.93"/>
</g>
<!-- node_17 -->
<g id="node17" class="node">
<title>node_17</title>
<polygon fill="none" stroke="black" points="271.5,-307 271.5,-334 338.5,-334 338.5,-307 271.5,-307"/>
<text text-anchor="start" x="300" y="-317.8" font-family="Times,serif" text-decoration="overline" font-size="14.00">3</text>
<polygon fill="none" stroke="black" points="271.5,-276 271.5,-307 307.5,-307 307.5,-276 271.5,-276"/>
<text text-anchor="start" x="279.5" y="-288.8" font-family="Times,serif" font-size="14.00"> </text>
<text text-anchor="start" x="284.5" y="-288.8" font-family="Times,serif" text-decoration="overline" font-size="14.00">2</text>
<text text-anchor="start" x="294.5" y="-288.8" font-family="Times,serif" font-size="14.00"> </text>
<polygon fill="none" stroke="black" points="307.5,-276 307.5,-307 338.5,-307 338.5,-276 307.5,-276"/>
<text text-anchor="start" x="312.5" y="-287.8" font-family="Times,serif" font-size="14.00"> Ø </text>
</g>
<!-- node_16&#45;&gt;node_17 -->
<g id="edge24" class="edge">
<title>node_16:3,1&#45;&gt;node_17</title>
<path fill="none" stroke="#0000cd" d="M258.5,-376C258.5,-363.96 263.31,-352.38 269.83,-342.23"/>
<polygon fill="#0000cd" stroke="#0000cd" points="272.69,-344.24 275.63,-334.06 266.99,-340.19 272.69,-344.24"/>
</g>
<!-- node_17&#45;&gt;node_14 -->
<g id="edge25" class="edge">
<title>node_17:2,1&#45;&gt;node_14</title>
<path fill="none" stroke="#cd0000" d="M289.5,-282C289.5,-271.1 286.69,-259.8 282.92,-249.55"/>
<polygon fill="#cd0000" stroke="#cd0000" points="286.08,-248.03 279.07,-240.08 279.6,-250.66 286.08,-248.03"/>
</g>
<!-- node_18&#45;&gt;node_15 -->
<g id="edge27" class="edge">
<title>node_18:1,1&#45;&gt;node_15</title>
<path fill="none" stroke="#cd0000" d="M220.5,-564C220.5,-553.1 217.69,-541.8 213.92,-531.55"/>
<polygon fill="#cd0000" stroke="#cd0000" points="217.08,-530.03 210.07,-522.08 210.6,-532.66 217.08,-530.03"/>
</g>
<!-- node_19 -->
<g id="node19" class="node">
<title>node_19</title>
<polygon fill="none" stroke="black" points="248.5,-495 248.5,-522 319.5,-522 319.5,-495 248.5,-495"/>
<text text-anchor="start" x="279" y="-504.8" font-family="Times,serif" font-size="14.00">3</text>
<polygon fill="none" stroke="black" points="248.5,-464 248.5,-495 283.5,-495 283.5,-464 248.5,-464"/>
<text text-anchor="start" x="256.5" y="-475.8" font-family="Times,serif" font-size="14.00"> 2 </text>
<polygon fill="none" stroke="black" points="283.5,-464 283.5,-495 319.5,-495 319.5,-464 283.5,-464"/>
<text text-anchor="start" x="291.5" y="-476.8" font-family="Times,serif" font-size="14.00"> </text>
<text text-anchor="start" x="296.5" y="-476.8" font-family="Times,serif" text-decoration="overline" font-size="14.00">4</text>
<text text-anchor="start" x="306.5" y="-476.8" font-family="Times,serif" font-size="14.00"> </text>
</g>
<!-- node_18&#45;&gt;node_19 -->
<g id="edge28" class="edge">
<title>node_18:3,1&#45;&gt;node_19</title>
<path fill="none" stroke="#0000cd" d="M256.5,-564C256.5,-553.04 259.42,-541.73 263.33,-531.48"/>
<polygon fill="#0000cd" stroke="#0000cd" points="266.66,-532.59 267.33,-522.02 260.21,-529.87 266.66,-532.59"/>
</g>
<!-- node_19&#45;&gt;node_16 -->
<g id="edge29" class="edge">
<title>node_19:2,1&#45;&gt;node_16</title>
<path fill="none" stroke="#cd0000" d="M265.5,-470C265.5,-459.15 262.8,-447.87 259.18,-437.61"/>
<polygon fill="#cd0000" stroke="#cd0000" points="262.38,-436.19 255.48,-428.15 255.86,-438.73 262.38,-436.19"/>
</g>
<!-- node_20 -->
<g id="node20" class="node">
<title>node_20</title>
<polygon fill="none" stroke="black" points="294.5,-401 294.5,-428 361.5,-428 361.5,-401 294.5,-401"/>
<text text-anchor="start" x="323" y="-411.8" font-family="Times,serif" text-decoration="overline" font-size="14.00">4</text>
<polygon fill="none" stroke="black" points="294.5,-370 294.5,-401 330.5,-401 330.5,-370 294.5,-370"/>
<text text-anchor="start" x="302.5" y="-382.8" font-family="Times,serif" font-size="14.00"> </text>
<text text-anchor="start" x="307.5" y="-382.8" font-family="Times,serif" text-decoration="overline" font-size="14.00">3</text>
<text text-anchor="start" x="317.5" y="-382.8" font-family="Times,serif" font-size="14.00"> </text>
<polygon fill="none" stroke="black" points="330.5,-370 330.5,-401 361.5,-401 361.5,-370 330.5,-370"/>
<text text-anchor="start" x="335.5" y="-381.8" font-family="Times,serif" font-size="14.00"> Ø </text>
</g>
<!-- node_19&#45;&gt;node_20 -->
<g id="edge30" class="edge">
<title>node_19:4,1&#45;&gt;node_20</title>
<path fill="none" stroke="#0000cd" d="M301.5,-470C301.5,-459.1 304.31,-447.8 308.08,-437.55"/>
<polygon fill="#0000cd" stroke="#0000cd" points="311.4,-438.66 311.93,-428.08 304.92,-436.03 311.4,-438.66"/>
</g>
<!-- node_20&#45;&gt;node_17 -->
<g id="edge31" class="edge">
<title>node_20:3,1&#45;&gt;node_17</title>
<path fill="none" stroke="#cd0000" d="M312.5,-376C312.5,-365.63 311.62,-354.46 310.45,-344.15"/>
<polygon fill="#cd0000" stroke="#cd0000" points="313.92,-343.67 309.2,-334.19 306.97,-344.54 313.92,-343.67"/>
</g>
</g>
</svg>
