<?xml version="1.0" encoding="UTF-8" standalone="no"?>
<!DOCTYPE svg PUBLIC "-//W3C//DTD SVG 1.1//EN"
 "http://www.w3.org/Graphics/SVG/1.1/DTD/svg11.dtd">
<!-- Generated by graphviz version 2.43.0 (0)
 -->
<!-- Title: 1.0 Pages: 1 -->
<svg width="335pt" height="718pt"
 viewBox="0.00 0.00 334.50 718.00" xmlns="http://www.w3.org/2000/svg" xmlns:xlink="http://www.w3.org/1999/xlink">
<g id="graph0" class="graph" transform="scale(1 1) rotate(0) translate(4 714)">
<title>1.0</title>
<polygon fill="white" stroke="transparent" points="-4,4 -4,-714 330.5,-714 330.5,4 -4,4"/>
<!-- node_1 -->
<g id="node1" class="node">
<title>node_1</title>
<polygon fill="none" stroke="black" points="145,-683 145,-710 207,-710 207,-683 145,-683"/>
<text text-anchor="start" x="172.5" y="-692.8" font-family="Times,serif" font-size="14.00">1</text>
<polygon fill="none" stroke="black" points="145,-652 145,-683 176,-683 176,-652 145,-652"/>
<text text-anchor="start" x="153" y="-663.8" font-family="Times,serif" font-size="14.00"> 0 </text>
<polygon fill="none" stroke="black" points="176,-652 176,-683 207,-683 207,-652 176,-652"/>
<text text-anchor="start" x="184" y="-663.8" font-family="Times,serif" font-size="14.00"> 2 </text>
</g>
<!-- node_2 -->
<g id="node2" class="node">
<title>node_2</title>
<polygon fill="none" stroke="black" points="102,-589 102,-616 168,-616 168,-589 102,-589"/>
<text text-anchor="start" x="131.5" y="-598.8" font-family="Times,serif" font-size="14.00">0</text>
<polygon fill="none" stroke="black" points="102,-558 102,-589 137,-589 137,-558 102,-558"/>
<text text-anchor="start" x="110" y="-569.8" font-family="Times,serif" font-size="14.00"> &#45;1 </text>
<polygon fill="none" stroke="black" points="137,-558 137,-589 168,-589 168,-558 137,-558"/>
<text text-anchor="start" x="145" y="-569.8" font-family="Times,serif" font-size="14.00"> 1 </text>
</g>
<!-- node_1&#45;&gt;node_2 -->
<g id="edge1" class="edge">
<title>node_1:0,1&#45;&gt;node_2</title>
<path fill="none" stroke="#cd0000" d="M160,-658C160,-647.15 157.3,-635.87 153.68,-625.61"/>
<polygon fill="#cd0000" stroke="#cd0000" points="156.88,-624.19 149.98,-616.15 150.36,-626.73 156.88,-624.19"/>
</g>
<!-- node_18 -->
<g id="node18" class="node">
<title>node_18</title>
<polygon fill="none" stroke="black" points="186,-589 186,-616 248,-616 248,-589 186,-589"/>
<text text-anchor="start" x="213.5" y="-598.8" font-family="Times,serif" font-size="14.00">2</text>
<polygon fill="none" stroke="black" points="186,-558 186,-589 217,-589 217,-558 186,-558"/>
<text text-anchor="start" x="194" y="-569.8" font-family="Times,serif" font-size="14.00"> 1 </text>
<polygon fill="none" stroke="black" points="217,-558 217,-589 248,-589 248,-558 217,-558"/>
<text text-anchor="start" x="225" y="-569.8" font-family="Times,serif" font-size="14.00"> 3 </text>
</g>
<!-- node_1&#45;&gt;node_18 -->
<g id="edge26" class="edge">
<title>node_1:2,1&#45;&gt;node_18</title>
<path fill="none" stroke="#0000cd" d="M192,-658C192,-647.15 194.7,-635.87 198.32,-625.61"/>
<polygon fill="#0000cd" stroke="#0000cd" points="201.64,-626.73 202.02,-616.15 195.12,-624.19 201.64,-626.73"/>
</g>
<!-- node_3 -->
<g id="node3" class="node">
<title>node_3</title>
<polygon fill="none" stroke="black" points="62,-495 62,-522 128,-522 128,-495 62,-495"/>
<text text-anchor="start" x="89" y="-504.8" font-family="Times,serif" font-size="14.00">&#45;1</text>
<polygon fill="none" stroke="black" points="62,-464 62,-495 97,-495 97,-464 62,-464"/>
<text text-anchor="start" x="70" y="-475.8" font-family="Times,serif" font-size="14.00"> &#45;2 </text>
<polygon fill="none" stroke="black" points="97,-464 97,-495 128,-495 128,-464 97,-464"/>
<text text-anchor="start" x="105" y="-475.8" font-family="Times,serif" font-size="14.00"> 0 </text>
</g>
<!-- node_2&#45;&gt;node_3 -->
<g id="edge2" class="edge">
<title>node_2:&#45;1,1&#45;&gt;node_3</title>
<path fill="none" stroke="#cd0000" d="M119,-564C119,-553.19 116.41,-541.93 112.93,-531.68"/>
<polygon fill="#cd0000" stroke="#cd0000" points="116.17,-530.34 109.38,-522.21 109.61,-532.8 116.17,-530.34"/>
</g>
<!-- node_15 -->
<g id="node15" class="node">
<title>node_15</title>
<polygon fill="none" stroke="black" points="146,-495 146,-522 208,-522 208,-495 146,-495"/>
<text text-anchor="start" x="173.5" y="-504.8" font-family="Times,serif" font-size="14.00">1</text>
<polygon fill="none" stroke="black" points="146,-464 146,-495 177,-495 177,-464 146,-464"/>
<text text-anchor="start" x="154" y="-475.8" font-family="Times,serif" font-size="14.00"> 0 </text>
<polygon fill="none" stroke="black" points="177,-464 177,-495 208,-495 208,-464 177,-464"/>
<text text-anchor="start" x="185" y="-475.8" font-family="Times,serif" font-size="14.00"> 2 </text>
</g>
<!-- node_2&#45;&gt;node_15 -->
<g id="edge20" class="edge">
<title>node_2:1,1&#45;&gt;node_15</title>
<path fill="none" stroke="#0000cd" d="M153,-564C153,-553.19 155.59,-541.93 159.07,-531.68"/>
<polygon fill="#0000cd" stroke="#0000cd" points="162.39,-532.8 162.62,-522.21 155.83,-530.34 162.39,-532.8"/>
</g>
<!-- node_4 -->
<g id="node4" class="node">
<title>node_4</title>
<polygon fill="none" stroke="black" points="14,-401 14,-428 85,-428 85,-401 14,-401"/>
<text text-anchor="start" x="43.5" y="-410.8" font-family="Times,serif" font-size="14.00">&#45;2</text>
<polygon fill="none" stroke="black" points="14,-370 14,-401 50,-401 50,-370 14,-370"/>
<text text-anchor="start" x="22" y="-382.8" font-family="Times,serif" font-size="14.00"> </text>
<text text-anchor="start" x="26" y="-382.8" font-family="Times,serif" text-decoration="overline" font-size="14.00">&#45;3</text>
<text text-anchor="start" x="38" y="-382.8" font-family="Times,serif" font-size="14.00"> </text>
<polygon fill="none" stroke="black" points="50,-370 50,-401 85,-401 85,-370 50,-370"/>
<text text-anchor="start" x="58" y="-381.8" font-family="Times,serif" font-size="14.00"> &#45;1 </text>
</g>
<!-- node_3&#45;&gt;node_4 -->
<g id="edge3" class="edge">
<title>node_3:&#45;2,1&#45;&gt;node_4</title>
<path fill="none" stroke="#cd0000" d="M79,-470C79,-458.86 75.75,-447.48 71.4,-437.22"/>
<polygon fill="#cd0000" stroke="#cd0000" points="74.56,-435.71 67.14,-428.14 68.22,-438.68 74.56,-435.71"/>
</g>
<!-- node_12 -->
<g id="node12" class="node">
<title>node_12</title>
<polygon fill="none" stroke="black" points="103,-401 103,-428 169,-428 169,-401 103,-401"/>
<text text-anchor="start" x="132.5" y="-410.8" font-family="Times,serif" font-size="14.00">0</text>
<polygon fill="none" stroke="black" points="103,-370 103,-401 138,-401 138,-370 103,-370"/>
<text text-anchor="start" x="111" y="-381.8" font-family="Times,serif" font-size="14.00"> &#45;1 </text>
<polygon fill="none" stroke="black" points="138,-370 138,-401 169,-401 169,-370 138,-370"/>
<text text-anchor="start" x="146" y="-381.8" font-family="Times,serif" font-size="14.00"> 1 </text>
</g>
<!-- node_3&#45;&gt;node_12 -->
<g id="edge14" class="edge">
<title>node_3:0,1&#45;&gt;node_12</title>
<path fill="none" stroke="#0000cd" d="M113,-470C113,-459.24 115.48,-447.99 118.82,-437.74"/>
<polygon fill="#0000cd" stroke="#0000cd" points="122.13,-438.86 122.22,-428.27 115.55,-436.49 122.13,-438.86"/>
</g>
<!-- node_5 -->
<g id="node5" class="node">
<title>node_5</title>
<polygon fill="none" stroke="black" points="0,-307 0,-334 64,-334 64,-307 0,-307"/>
<text text-anchor="start" x="26" y="-317.8" font-family="Times,serif" text-decoration="overline" font-size="14.00">&#45;3</text>
<polygon fill="none" stroke="black" points="0,-276 0,-307 28,-307 28,-276 0,-276"/>
<text text-anchor="start" x="5" y="-287.8" font-family="Times,serif" font-size="14.00"> Ø </text>
<polygon fill="none" stroke="black" points="28,-276 28,-307 64,-307 64,-276 28,-276"/>
<text text-anchor="start" x="36" y="-288.8" font-family="Times,serif" font-size="14.00"> </text>
<text text-anchor="start" x="40" y="-288.8" font-family="Times,serif" text-decoration="overline" font-size="14.00">&#45;2</text>
<text text-anchor="start" x="52" y="-288.8" font-family="Times,serif" font-size="14.00"> </text>
</g>
<!-- node_4&#45;&gt;node_5 -->
<g id="edge4" class="edge">
<title>node_4:&#45;3,1&#45;&gt;node_5</title>
<path fill="none" stroke="#cd0000" d="M32,-376C32,-365.81 32,-354.78 32,-344.56"/>
<polygon fill="#cd0000" stroke="#cd0000" points="35.5,-344.27 32,-334.27 28.5,-344.27 35.5,-344.27"/>
</g>
<!-- node_9 -->
<g id="node9" class="node">
<title>node_9</title>
<polygon fill="none" stroke="black" points="83,-307 83,-334 150,-334 150,-307 83,-307"/>
<text text-anchor="start" x="110.5" y="-316.8" font-family="Times,serif" font-size="14.00">&#45;1</text>
<polygon fill="none" stroke="black" points="83,-276 83,-307 119,-307 119,-276 83,-276"/>
<text text-anchor="start" x="91" y="-288.8" font-family="Times,serif" font-size="14.00"> </text>
<text text-anchor="start" x="95" y="-288.8" font-family="Times,serif" text-decoration="overline" font-size="14.00">&#45;2</text>
<text text-anchor="start" x="107" y="-288.8" font-family="Times,serif" font-size="14.00"> </text>
<polygon fill="none" stroke="black" points="119,-276 119,-307 150,-307 150,-276 119,-276"/>
<text text-anchor="start" x="127" y="-287.8" font-family="Times,serif" font-size="14.00"> 0 </text>
</g>
<!-- node_4&#45;&gt;node_9 -->
<g id="edge8" class="edge">
<title>node_4:&#45;1,1&#45;&gt;node_9</title>
<path fill="none" stroke="#0000cd" d="M68,-376C68,-363.91 72.93,-352.38 79.63,-342.3"/>
<polygon fill="#0000cd" stroke="#0000cd" points="82.49,-344.31 85.6,-334.18 76.85,-340.16 82.49,-344.31"/>
</g>
<!-- node_6 -->
<g id="node6" class="node">
<title>node_6</title>
<polygon fill="none" stroke="black" points="43,-213 43,-240 107,-240 107,-213 43,-213"/>
<text text-anchor="start" x="69" y="-223.8" font-family="Times,serif" text-decoration="overline" font-size="14.00">&#45;2</text>
<polygon fill="none" stroke="black" points="43,-182 43,-213 71,-213 71,-182 43,-182"/>
<text text-anchor="start" x="48" y="-193.8" font-family="Times,serif" font-size="14.00"> Ø </text>
<polygon fill="none" stroke="black" points="71,-182 71,-213 107,-213 107,-182 71,-182"/>
<text text-anchor="start" x="79" y="-194.8" font-family="Times,serif" font-size="14.00"> </text>
<text text-anchor="start" x="83" y="-194.8" font-family="Times,serif" text-decoration="overline" font-size="14.00">&#45;1</text>
<text text-anchor="start" x="95" y="-194.8" font-family="Times,serif" font-size="14.00"> </text>
</g>
<!-- node_5&#45;&gt;node_6 -->
<g id="edge5" class="edge">
<title>node_5:&#45;2,1&#45;&gt;node_6</title>
<path fill="none" stroke="#0000cd" d="M46,-282C46,-271.03 49.07,-259.79 53.22,-249.61"/>
<polygon fill="#0000cd" stroke="#0000cd" points="56.54,-250.77 57.46,-240.21 50.16,-247.89 56.54,-250.77"/>
</g>
<!-- node_7 -->
<g id="node7" class="node">
<title>node_7</title>
<polygon fill="none" stroke="black" points="93,-119 93,-146 152,-146 152,-119 93,-119"/>
<text text-anchor="start" x="116.5" y="-129.8" font-family="Times,serif" text-decoration="overline" font-size="14.00">&#45;1</text>
<polygon fill="none" stroke="black" points="93,-88 93,-119 121,-119 121,-88 93,-88"/>
<text text-anchor="start" x="98" y="-99.8" font-family="Times,serif" font-size="14.00"> Ø </text>
<polygon fill="none" stroke="black" points="121,-88 121,-119 152,-119 152,-88 121,-88"/>
<text text-anchor="start" x="129" y="-100.8" font-family="Times,serif" font-size="14.00"> </text>
<text text-anchor="start" x="133" y="-100.8" font-family="Times,serif" text-decoration="overline" font-size="14.00">0</text>
<text text-anchor="start" x="140" y="-100.8" font-family="Times,serif" font-size="14.00"> </text>
</g>
<!-- node_6&#45;&gt;node_7 -->
<g id="edge6" class="edge">
<title>node_6:&#45;1,1&#45;&gt;node_7</title>
<path fill="none" stroke="#0000cd" d="M89,-188C89,-176.79 92.51,-165.45 97.23,-155.25"/>
<polygon fill="#0000cd" stroke="#0000cd" points="100.4,-156.74 101.85,-146.25 94.17,-153.55 100.4,-156.74"/>
</g>
<!-- node_8 -->
<g id="node8" class="node">
<title>node_8</title>
<polygon fill="none" stroke="black" points="133,-25 133,-52 189,-52 189,-25 133,-25"/>
<text text-anchor="start" x="157.5" y="-35.8" font-family="Times,serif" text-decoration="overline" font-size="14.00">0</text>
<polygon fill="none" stroke="black" points="133,0 133,-25 161,-25 161,0 133,0"/>
<text text-anchor="start" x="138" y="-8.8" font-family="Times,serif" font-size="14.00"> Ø </text>
<polygon fill="none" stroke="black" points="161,0 161,-25 189,-25 189,0 161,0"/>
<text text-anchor="start" x="166" y="-8.8" font-family="Times,serif" font-size="14.00"> Ø </text>
</g>
<!-- node_7&#45;&gt;node_8 -->
<g id="edge7" class="edge">
<title>node_7:0,1&#45;&gt;node_8</title>
<path fill="none" stroke="#0000cd" d="M137,-94C137,-83.04 139.88,-71.64 143.64,-61.41"/>
<polygon fill="#0000cd" stroke="#0000cd" points="146.94,-62.6 147.46,-52.02 140.45,-59.97 146.94,-62.6"/>
</g>
<!-- node_9&#45;&gt;node_6 -->
<g id="edge9" class="edge">
<title>node_9:&#45;2,1&#45;&gt;node_6</title>
<path fill="none" stroke="#cd0000" d="M101,-282C101,-271.1 98.19,-259.8 94.42,-249.55"/>
<polygon fill="#cd0000" stroke="#cd0000" points="97.58,-248.03 90.57,-240.08 91.1,-250.66 97.58,-248.03"/>
</g>
<!-- node_10 -->
<g id="node10" class="node">
<title>node_10</title>
<polygon fill="none" stroke="black" points="126,-213 126,-240 193,-240 193,-213 126,-213"/>
<text text-anchor="start" x="156" y="-222.8" font-family="Times,serif" font-size="14.00">0</text>
<polygon fill="none" stroke="black" points="126,-182 126,-213 162,-213 162,-182 126,-182"/>
<text text-anchor="start" x="134" y="-194.8" font-family="Times,serif" font-size="14.00"> </text>
<text text-anchor="start" x="138" y="-194.8" font-family="Times,serif" text-decoration="overline" font-size="14.00">&#45;1</text>
<text text-anchor="start" x="150" y="-194.8" font-family="Times,serif" font-size="14.00"> </text>
<polygon fill="none" stroke="black" points="162,-182 162,-213 193,-213 193,-182 162,-182"/>
<text text-anchor="start" x="170" y="-194.8" font-family="Times,serif" font-size="14.00"> </text>
<text text-anchor="start" x="174" y="-194.8" font-family="Times,serif" text-decoration="overline" font-size="14.00">1</text>
<text text-anchor="start" x="181" y="-194.8" font-family="Times,serif" font-size="14.00"> </text>
</g>
<!-- node_9&#45;&gt;node_10 -->
<g id="edge10" class="edge">
<title>node_9:0,1&#45;&gt;node_10</title>
<path fill="none" stroke="#0000cd" d="M135,-282C135,-271.19 137.59,-259.93 141.07,-249.68"/>
<polygon fill="#0000cd" stroke="#0000cd" points="144.39,-250.8 144.62,-240.21 137.83,-248.34 144.39,-250.8"/>
</g>
<!-- node_10&#45;&gt;node_7 -->
<g id="edge11" class="edge">
<title>node_10:&#45;1,1&#45;&gt;node_7</title>
<path fill="none" stroke="#cd0000" d="M144,-188C144,-177.28 141.62,-166.05 138.44,-155.8"/>
<polygon fill="#cd0000" stroke="#cd0000" points="141.74,-154.64 135.18,-146.32 135.12,-156.92 141.74,-154.64"/>
</g>
<!-- node_11 -->
<g id="node11" class="node">
<title>node_11</title>
<polygon fill="none" stroke="black" points="170,-119 170,-146 229,-146 229,-119 170,-119"/>
<text text-anchor="start" x="196" y="-129.8" font-family="Times,serif" text-decoration="overline" font-size="14.00">1</text>
<polygon fill="none" stroke="black" points="170,-88 170,-119 201,-119 201,-88 170,-88"/>
<text text-anchor="start" x="178" y="-100.8" font-family="Times,serif" font-size="14.00"> </text>
<text text-anchor="start" x="182" y="-100.8" font-family="Times,serif" text-decoration="overline" font-size="14.00">0</text>
<text text-anchor="start" x="189" y="-100.8" font-family="Times,serif" font-size="14.00"> </text>
<polygon fill="none" stroke="black" points="201,-88 201,-119 229,-119 229,-88 201,-88"/>
<text text-anchor="start" x="206" y="-99.8" font-family="Times,serif" font-size="14.00"> Ø </text>
</g>
<!-- node_10&#45;&gt;node_11 -->
<g id="edge12" class="edge">
<title>node_10:1,1&#45;&gt;node_11</title>
<path fill="none" stroke="#0000cd" d="M178,-188C178,-177.23 180.31,-165.91 183.39,-155.58"/>
<polygon fill="#0000cd" stroke="#0000cd" points="186.73,-156.63 186.54,-146.04 180.09,-154.44 186.73,-156.63"/>
</g>
<!-- node_11&#45;&gt;node_8 -->
<g id="edge13" class="edge">
<title>node_11:0,1&#45;&gt;node_8</title>
<path fill="none" stroke="#cd0000" d="M185,-94C185,-83.04 182.12,-71.64 178.36,-61.41"/>
<polygon fill="#cd0000" stroke="#cd0000" points="181.55,-59.97 174.54,-52.02 175.06,-62.6 181.55,-59.97"/>
</g>
<!-- node_12&#45;&gt;node_9 -->
<g id="edge15" class="edge">
<title>node_12:&#45;1,1&#45;&gt;node_9</title>
<path fill="none" stroke="#cd0000" d="M120,-376C120,-365.79 119.57,-354.76 118.99,-344.54"/>
<polygon fill="#cd0000" stroke="#cd0000" points="122.47,-344.01 118.35,-334.25 115.48,-344.45 122.47,-344.01"/>
</g>
<!-- node_13 -->
<g id="node13" class="node">
<title>node_13</title>
<polygon fill="none" stroke="black" points="168,-307 168,-334 230,-334 230,-307 168,-307"/>
<text text-anchor="start" x="195.5" y="-316.8" font-family="Times,serif" font-size="14.00">1</text>
<polygon fill="none" stroke="black" points="168,-276 168,-307 199,-307 199,-276 168,-276"/>
<text text-anchor="start" x="176" y="-287.8" font-family="Times,serif" font-size="14.00"> 0 </text>
<polygon fill="none" stroke="black" points="199,-276 199,-307 230,-307 230,-276 199,-276"/>
<text text-anchor="start" x="207" y="-288.8" font-family="Times,serif" font-size="14.00"> </text>
<text text-anchor="start" x="211" y="-288.8" font-family="Times,serif" text-decoration="overline" font-size="14.00">2</text>
<text text-anchor="start" x="218" y="-288.8" font-family="Times,serif" font-size="14.00"> </text>
</g>
<!-- node_12&#45;&gt;node_13 -->
<g id="edge16" class="edge">
<title>node_12:1,1&#45;&gt;node_13</title>
<path fill="none" stroke="#0000cd" d="M154,-376C154,-364.16 158.62,-352.72 164.89,-342.64"/>
<polygon fill="#0000cd" stroke="#0000cd" points="167.95,-344.38 170.76,-334.16 162.19,-340.39 167.95,-344.38"/>
</g>
<!-- node_13&#45;&gt;node_10 -->
<g id="edge17" class="edge">
<title>node_13:0,1&#45;&gt;node_10</title>
<path fill="none" stroke="#cd0000" d="M183,-282C183,-271.19 180.41,-259.93 176.93,-249.68"/>
<polygon fill="#cd0000" stroke="#cd0000" points="180.17,-248.34 173.38,-240.21 173.61,-250.8 180.17,-248.34"/>
</g>
<!-- node_14 -->
<g id="node14" class="node">
<title>node_14</title>
<polygon fill="none" stroke="black" points="211,-213 211,-240 270,-240 270,-213 211,-213"/>
<text text-anchor="start" x="237" y="-223.8" font-family="Times,serif" text-decoration="overline" font-size="14.00">2</text>
<polygon fill="none" stroke="black" points="211,-182 211,-213 242,-213 242,-182 211,-182"/>
<text text-anchor="start" x="219" y="-194.8" font-family="Times,serif" font-size="14.00"> </text>
<text text-anchor="start" x="223" y="-194.8" font-family="Times,serif" text-decoration="overline" font-size="14.00">1</text>
<text text-anchor="start" x="230" y="-194.8" font-family="Times,serif" font-size="14.00"> </text>
<polygon fill="none" stroke="black" points="242,-182 242,-213 270,-213 270,-182 242,-182"/>
<text text-anchor="start" x="247" y="-193.8" font-family="Times,serif" font-size="14.00"> Ø </text>
</g>
<!-- node_13&#45;&gt;node_14 -->
<g id="edge18" class="edge">
<title>node_13:2,1&#45;&gt;node_14</title>
<path fill="none" stroke="#0000cd" d="M215,-282C215,-271.15 217.7,-259.87 221.32,-249.61"/>
<polygon fill="#0000cd" stroke="#0000cd" points="224.64,-250.73 225.02,-240.15 218.12,-248.19 224.64,-250.73"/>
</g>
<!-- node_14&#45;&gt;node_11 -->
<g id="edge19" class="edge">
<title>node_14:1,1&#45;&gt;node_11</title>
<path fill="none" stroke="#cd0000" d="M226,-188C226,-177.04 223.08,-165.73 219.17,-155.48"/>
<polygon fill="#cd0000" stroke="#cd0000" points="222.29,-153.87 215.17,-146.02 215.84,-156.59 222.29,-153.87"/>
</g>
<!-- node_15&#45;&gt;node_12 -->
<g id="edge21" class="edge">
<title>node_15:0,1&#45;&gt;node_12</title>
<path fill="none" stroke="#cd0000" d="M161,-470C161,-459.15 158.3,-447.87 154.68,-437.61"/>
<polygon fill="#cd0000" stroke="#cd0000" points="157.88,-436.19 150.98,-428.15 151.36,-438.73 157.88,-436.19"/>
</g>
<!-- node_16 -->
<g id="node16" class="node">
<title>node_16</title>
<polygon fill="none" stroke="black" points="187,-401 187,-428 249,-428 249,-401 187,-401"/>
<text text-anchor="start" x="214.5" y="-410.8" font-family="Times,serif" font-size="14.00">2</text>
<polygon fill="none" stroke="black" points="187,-370 187,-401 218,-401 218,-370 187,-370"/>
<text text-anchor="start" x="195" y="-381.8" font-family="Times,serif" font-size="14.00"> 1 </text>
<polygon fill="none" stroke="black" points="218,-370 218,-401 249,-401 249,-370 218,-370"/>
<text text-anchor="start" x="226" y="-382.8" font-family="Times,serif" font-size="14.00"> </text>
<text text-anchor="start" x="230" y="-382.8" font-family="Times,serif" text-decoration="overline" font-size="14.00">3</text>
<text text-anchor="start" x="237" y="-382.8" font-family="Times,serif" font-size="14.00"> </text>
</g>
<!-- node_15&#45;&gt;node_16 -->
<g id="edge22" class="edge">
<title>node_15:2,1&#45;&gt;node_16</title>
<path fill="none" stroke="#0000cd" d="M193,-470C193,-459.15 195.7,-447.87 199.32,-437.61"/>
<polygon fill="#0000cd" stroke="#0000cd" points="202.64,-438.73 203.02,-428.15 196.12,-436.19 202.64,-438.73"/>
</g>
<!-- node_16&#45;&gt;node_13 -->
<g id="edge23" class="edge">
<title>node_16:1,1&#45;&gt;node_13</title>
<path fill="none" stroke="#cd0000" d="M202,-376C202,-365.8 201.68,-354.77 201.25,-344.55"/>
<polygon fill="#cd0000" stroke="#cd0000" points="204.73,-344.08 200.76,-334.26 197.73,-344.41 204.73,-344.08"/>
</g>
<!-- node_17 -->
<g id="node17" class="node">
<title>node_17</title>
<polygon fill="none" stroke="black" points="249,-307 249,-334 308,-334 308,-307 249,-307"/>
<text text-anchor="start" x="275" y="-317.8" font-family="Times,serif" text-decoration="overline" font-size="14.00">3</text>
<polygon fill="none" stroke="black" points="249,-276 249,-307 280,-307 280,-276 249,-276"/>
<text text-anchor="start" x="257" y="-288.8" font-family="Times,serif" font-size="14.00"> </text>
<text text-anchor="start" x="261" y="-288.8" font-family="Times,serif" text-decoration="overline" font-size="14.00">2</text>
<text text-anchor="start" x="268" y="-288.8" font-family="Times,serif" font-size="14.00"> </text>
<polygon fill="none" stroke="black" points="280,-276 280,-307 308,-307 308,-276 280,-276"/>
<text text-anchor="start" x="285" y="-287.8" font-family="Times,serif" font-size="14.00"> Ø </text>
</g>
<!-- node_16&#45;&gt;node_17 -->
<g id="edge24" class="edge">
<title>node_16:3,1&#45;&gt;node_17</title>
<path fill="none" stroke="#0000cd" d="M234,-376C234,-364.23 238.51,-352.82 244.65,-342.75"/>
<polygon fill="#0000cd" stroke="#0000cd" points="247.68,-344.51 250.38,-334.26 241.88,-340.59 247.68,-344.51"/>
</g>
<!-- node_17&#45;&gt;node_14 -->
<g id="edge25" class="edge">
<title>node_17:2,1&#45;&gt;node_14</title>
<path fill="none" stroke="#cd0000" d="M264,-282C264,-271.19 261.41,-259.93 257.93,-249.68"/>
<polygon fill="#cd0000" stroke="#cd0000" points="261.17,-248.34 254.38,-240.21 254.61,-250.8 261.17,-248.34"/>
</g>
<!-- node_18&#45;&gt;node_15 -->
<g id="edge27" class="edge">
<title>node_18:1,1&#45;&gt;node_15</title>
<path fill="none" stroke="#cd0000" d="M201,-564C201,-553.19 198.41,-541.93 194.93,-531.68"/>
<polygon fill="#cd0000" stroke="#cd0000" points="198.17,-530.34 191.38,-522.21 191.61,-532.8 198.17,-530.34"/>
</g>
<!-- node_19 -->
<g id="node19" class="node">
<title>node_19</title>
<polygon fill="none" stroke="black" points="226,-495 226,-522 288,-522 288,-495 226,-495"/>
<text text-anchor="start" x="253.5" y="-504.8" font-family="Times,serif" font-size="14.00">3</text>
<polygon fill="none" stroke="black" points="226,-464 226,-495 257,-495 257,-464 226,-464"/>
<text text-anchor="start" x="234" y="-475.8" font-family="Times,serif" font-size="14.00"> 2 </text>
<polygon fill="none" stroke="black" points="257,-464 257,-495 288,-495 288,-464 257,-464"/>
<text text-anchor="start" x="265" y="-476.8" font-family="Times,serif" font-size="14.00"> </text>
<text text-anchor="start" x="269" y="-476.8" font-family="Times,serif" text-decoration="overline" font-size="14.00">4</text>
<text text-anchor="start" x="276" y="-476.8" font-family="Times,serif" font-size="14.00"> </text>
</g>
<!-- node_18&#45;&gt;node_19 -->
<g id="edge28" class="edge">
<title>node_18:3,1&#45;&gt;node_19</title>
<path fill="none" stroke="#0000cd" d="M233,-564C233,-553.19 235.59,-541.93 239.07,-531.68"/>
<polygon fill="#0000cd" stroke="#0000cd" points="242.39,-532.8 242.62,-522.21 235.83,-530.34 242.39,-532.8"/>
</g>
<!-- node_19&#45;&gt;node_16 -->
<g id="edge29" class="edge">
<title>node_19:2,1&#45;&gt;node_16</title>
<path fill="none" stroke="#cd0000" d="M241,-470C241,-459.24 238.52,-447.99 235.18,-437.74"/>
<polygon fill="#cd0000" stroke="#cd0000" points="238.45,-436.49 231.78,-428.27 231.87,-438.86 238.45,-436.49"/>
</g>
<!-- node_20 -->
<g id="node20" class="node">
<title>node_20</title>
<polygon fill="none" stroke="black" points="268,-401 268,-428 327,-428 327,-401 268,-401"/>
<text text-anchor="start" x="294" y="-411.8" font-family="Times,serif" text-decoration="overline" font-size="14.00">4</text>
<polygon fill="none" stroke="black" points="268,-370 268,-401 299,-401 299,-370 268,-370"/>
<text text-anchor="start" x="276" y="-382.8" font-family="Times,serif" font-size="14.00"> </text>
<text text-anchor="start" x="280" y="-382.8" font-family="Times,serif" text-decoration="overline" font-size="14.00">3</text>
<text text-anchor="start" x="287" y="-382.8" font-family="Times,serif" font-size="14.00"> </text>
<polygon fill="none" stroke="black" points="299,-370 299,-401 327,-401 327,-370 299,-370"/>
<text text-anchor="start" x="304" y="-381.8" font-family="Times,serif" font-size="14.00"> Ø </text>
</g>
<!-- node_19&#45;&gt;node_20 -->
<g id="edge30" class="edge">
<title>node_19:4,1&#45;&gt;node_20</title>
<path fill="none" stroke="#0000cd" d="M273,-470C273,-459.19 275.59,-447.93 279.07,-437.68"/>
<polygon fill="#0000cd" stroke="#0000cd" points="282.39,-438.8 282.62,-428.21 275.83,-436.34 282.39,-438.8"/>
</g>
<!-- node_20&#45;&gt;node_17 -->
<g id="edge31" class="edge">
<title>node_20:3,1&#45;&gt;node_17</title>
<path fill="none" stroke="#cd0000" d="M283,-376C283,-365.78 282.46,-354.75 281.74,-344.52"/>
<polygon fill="#cd0000" stroke="#cd0000" points="285.21,-343.93 280.94,-334.24 278.23,-344.48 285.21,-343.93"/>
</g>
</g>
</svg>
